<svg id="color_line" height="512" viewBox="0 0 74 74" width="512" xmlns="http://www.w3.org/2000/svg" data-name="color line"><path d="m34.01 27.98 8.97 8.84a1.632 1.632 0 0 1 .17.2l-2.87 2.92a1.045 1.045 0 0 1 -.21-.17l-8.96-8.84z" fill="#e1e6e9"/><path d="m40.28 40.44a.5.5 0 0 1 -.247-.065 1.475 1.475 0 0 1 -.317-.252l-8.957-8.836a.5.5 0 0 1 0-.707l2.9-2.95a.574.574 0 0 1 .356-.149.5.5 0 0 1 .351.144l8.971 8.84a2.254 2.254 0 0 1 .224.262.5.5 0 0 1 -.048.645l-2.87 2.92a.5.5 0 0 1 -.363.148zm-8.464-9.515 8.439 8.326 2.2-2.242-8.444-8.321z" fill="#323c6b"/><path d="m35.52 11.5a4.277 4.277 0 1 0 -4.95-4.22 4.232 4.232 0 0 0 1.06 2.81" fill="#27ccbc"/><g fill="#323c6b"><path d="m42.106 8.216h-.027a.472.472 0 0 1 -.47-.5v-.068c.009-.123.017-.246.017-.371a6.738 6.738 0 0 0 -1.941-4.742.5.5 0 0 1 .715-.7 7.735 7.735 0 0 1 2.23 5.445c0 .146-.009.291-.019.435a.533.533 0 0 1 -.505.501z"/><path d="m41.527 10.6a.489.489 0 0 1 -.2-.041.5.5 0 0 1 -.264-.656l.071-.156c.029-.063.06-.127.084-.193a.5.5 0 0 1 .939.342c-.034.094-.075.185-.118.275l-.057.126a.5.5 0 0 1 -.455.303z"/><path d="m53.111 55a.5.5 0 0 1 -.5-.459l-.046-.562a.5.5 0 0 1 .457-.539.5.5 0 0 1 .539.458l.046.563a.5.5 0 0 1 -.457.539z"/><path d="m53.738 62.688a.5.5 0 0 1 -.5-.459l-.484-5.937a.5.5 0 0 1 .457-.539.5.5 0 0 1 .539.458l.484 5.938a.5.5 0 0 1 -.457.539z"/></g><path d="m28.75 17.51 3.06-7.89a2.071 2.071 0 0 1 3.86 1.5l-3.17 8.18z" fill="#e1e6e9"/><path d="m32.5 19.8a.5.5 0 0 1 -.216-.049l-3.75-1.79a.5.5 0 0 1 -.25-.632l3.06-7.89a2.57 2.57 0 1 1 4.792 1.861l-3.17 8.18a.5.5 0 0 1 -.466.319zm-3.116-2.542 2.845 1.358 2.971-7.677a1.571 1.571 0 1 0 -2.926-1.139z" fill="#323c6b"/><path d="m20.85 26.99a7.206 7.206 0 1 0 -.17-4.19" fill="#fe7058"/><path d="m11.79 21.76 10.12 1.18a2.073 2.073 0 1 1 -.47 4.12l-9.87-1.15z" fill="#e1e6e9"/><path d="m21.671 27.572a2.634 2.634 0 0 1 -.283-.015l-9.875-1.15a.5.5 0 0 1 -.441-.523l.22-4.15a.5.5 0 0 1 .177-.356.507.507 0 0 1 .38-.114l10.12 1.18a2.573 2.573 0 0 1 -.3 5.129zm-9.576-2.1 9.4 1.1a1.578 1.578 0 0 0 1.746-1.384 1.591 1.591 0 0 0 -1.391-1.743l-9.593-1.119z" fill="#323c6b"/><circle cx="7.952" cy="23.638" fill="#fcd462" r="4.279"/><path d="m50.628 62.833a4.28 4.28 0 1 1 -4.123.3" fill="#fcd462"/><path d="m34.85 24.62a7.192 7.192 0 0 1 -6.26 7.13 7.211 7.211 0 0 0 -3.57-13.47 5.618 5.618 0 0 0 -.92.07 7.09 7.09 0 0 1 3.54-.94 7.213 7.213 0 0 1 7.21 7.21z" fill="#ea6453"/><path d="m39.13 7.28a4.273 4.273 0 0 1 -2.18 3.72 4.126 4.126 0 0 0 .43-1.85 4.281 4.281 0 0 0 -6.38-3.73 4.277 4.277 0 0 1 8.13 1.86z" fill="#21b3a9"/><path d="m12.23 23.64a4.24 4.24 0 0 1 -2.18 3.72 4.094 4.094 0 0 0 .43-1.85 4.278 4.278 0 0 0 -4.28-4.28 4.173 4.173 0 0 0 -2.1.56 4.274 4.274 0 0 1 8.13 1.85z" fill="#f7be56"/><path d="m50.95 70.45a4.294 4.294 0 0 0 .08-3.53 4.223 4.223 0 0 0 -2.15-2.21l-3.95.29a4.122 4.122 0 0 1 1.58-1.86l4.12-.31a4.287 4.287 0 0 1 .32 7.62z" fill="#f7be56"/><path d="m27.64 32.32a7.683 7.683 0 0 1 -7.263-5.167.5.5 0 0 1 .945-.326 6.706 6.706 0 1 0 -.158-3.9.5.5 0 0 1 -.969-.25 7.7 7.7 0 1 1 7.445 9.643z" fill="#323c6b"/><path d="m35.519 12a.5.5 0 0 1 -.076-.994 3.777 3.777 0 1 0 -4.373-3.726 3.751 3.751 0 0 0 .93 2.479.5.5 0 1 1 -.75.661 4.777 4.777 0 1 1 8.38-3.14 4.808 4.808 0 0 1 -4.03 4.714.526.526 0 0 1 -.081.006z" fill="#323c6b"/><path d="m7.952 28.417a4.78 4.78 0 1 1 4.779-4.78 4.785 4.785 0 0 1 -4.779 4.78zm0-8.559a3.78 3.78 0 1 0 3.779 3.779 3.783 3.783 0 0 0 -3.779-3.779z" fill="#323c6b"/><path d="m48.854 71.5a4.776 4.776 0 0 1 -2.62-8.781.5.5 0 1 1 .543.84 3.78 3.78 0 1 0 3.642-.269.5.5 0 0 1 .42-.908 4.776 4.776 0 0 1 -1.985 9.118z" fill="#323c6b"/><path d="m49.87 51.66 1 12.26a2.067 2.067 0 1 1 -4.12.35l-1.01-12.34z" fill="#e1e6e9"/><path d="m48.814 66.667a2.565 2.565 0 0 1 -1.662-.608 2.53 2.53 0 0 1 -.9-1.75l-1.01-12.338a.5.5 0 0 1 .466-.54l4.13-.27a.509.509 0 0 1 .53.458l1 12.26a2.575 2.575 0 0 1 -2.344 2.779c-.07.006-.14.009-.21.009zm-2.534-14.267.968 11.833a1.541 1.541 0 0 0 .549 1.065 1.567 1.567 0 0 0 2.575-1.331l-.96-11.772z" fill="#323c6b"/><path d="m55.32 42.83a8.649 8.649 0 0 1 .08 1.15 8.112 8.112 0 1 1 -1.71-4.97" fill="#fe7058"/><path d="m55.4 43.98a8.109 8.109 0 0 1 -6.9 8.01 8.079 8.079 0 0 0 4.28-7.13 8.8 8.8 0 0 0 -.08-1.16l-1.64-3.82a8.046 8.046 0 0 0 -6.39-3.12 7.882 7.882 0 0 0 -1.2.09 7.977 7.977 0 0 1 3.83-.97 8.085 8.085 0 0 1 6.39 3.13l1.63 3.82a8.651 8.651 0 0 1 .08 1.15z" fill="#ea6453"/><path d="m63.42 39.95-9.59 3.41a2.072 2.072 0 1 1 -1.4-3.9l9.36-3.33z" fill="#e1e6e9"/><path d="m53.145 43.977a2.568 2.568 0 0 1 -.884-4.988l9.361-3.331a.5.5 0 0 1 .628.275l1.63 3.82a.5.5 0 0 1 -.292.667l-9.588 3.411a2.572 2.572 0 0 1 -.855.146zm8.37-7.218-8.915 3.172a1.564 1.564 0 0 0 -.945 2.016 1.586 1.586 0 0 0 2.012.941l9.087-3.231z" fill="#323c6b"/><circle cx="66.047" cy="36.569" fill="#27ccbc" r="4.279" transform="matrix(.897 -.442 .442 .897 -9.361 32.942)"/><path d="m68.16 40.29a4.28 4.28 0 0 0 -5.75-5.69c-.07.04-.15.08-.22.12a4.279 4.279 0 1 1 5.97 5.57z" fill="#21b3a9"/><path d="m47.3 52.58a8.6 8.6 0 1 1 6.785-13.88.5.5 0 1 1 -.789.614 7.595 7.595 0 1 0 1.6 4.663 8.22 8.22 0 0 0 -.075-1.083.5.5 0 1 1 .99-.134 9.085 9.085 0 0 1 .089 1.22 8.61 8.61 0 0 1 -8.6 8.6z" fill="#323c6b"/><path d="m66.051 41.351a4.781 4.781 0 1 1 4.283-6.894 4.784 4.784 0 0 1 -4.283 6.894zm-.007-8.563a3.79 3.79 0 1 0 1.22.2 3.766 3.766 0 0 0 -1.22-.201z" fill="#323c6b"/></svg>