<svg id="color_line" height="512" viewBox="0 0 74 74" width="512" xmlns="http://www.w3.org/2000/svg" data-name="color line"><rect fill="#9297ab" height="4.795" rx="2.397" width="17.969" x="27.391" y="25.771"/><path d="m42.962 31.066h-13.174a2.9 2.9 0 0 1 0-5.8h13.174a2.9 2.9 0 0 1 0 5.8zm-13.174-4.8a1.9 1.9 0 0 0 0 3.8h13.174a1.9 1.9 0 0 0 0-3.8z" fill="#323c6b"/><path d="m52.575 56.259a16.2 16.2 0 1 1 -22.766-14.811v-10.886h13.132v10.886a16.192 16.192 0 0 1 9.634 14.811z" fill="#eeefee"/><path d="m52.58 56.26a16.2 16.2 0 0 1 -16.2 16.2 15.608 15.608 0 0 1 -3.51-.39 2.1 2.1 0 0 0 .25.01 16.2 16.2 0 0 0 6.57-31.01v-10.51h3.25v10.89a16.185 16.185 0 0 1 9.64 14.81z" fill="#e1e6e9"/><path d="m48.79 56.26a12.3 12.3 0 0 1 -1.95 6.67 2.248 2.248 0 0 1 -1.27-.24 4.779 4.779 0 0 1 -1.51-1.36 33.178 33.178 0 0 1 -3.14-5.01 2.711 2.711 0 0 1 -.44-2.38c.34-.69 1.22-.99 1.52-1.7.58-1.34-1.34-2.83-.76-4.16a2.2 2.2 0 0 1 1.42-1.03 7.754 7.754 0 0 0 1.45-.5 12.406 12.406 0 0 1 4.68 9.71z" fill="#fcd462"/><path d="m46.6 63.447a2.9 2.9 0 0 1 -1.246-.307 5.294 5.294 0 0 1 -1.682-1.5 32.8 32.8 0 0 1 -3.11-4.94l-.078-.141a2.486 2.486 0 0 1 .426-3.824 2.108 2.108 0 0 0 .632-.69c.2-.467-.077-1.055-.372-1.677a2.963 2.963 0 0 1 -.386-2.488 2.587 2.587 0 0 1 1.728-1.307l.373-.108a4.817 4.817 0 0 0 .988-.354.5.5 0 0 1 .552.048 12.9 12.9 0 0 1 2.835 17.041.5.5 0 0 1 -.351.225 2.282 2.282 0 0 1 -.309.022zm-2.557-16.309a7.533 7.533 0 0 1 -.884.29l-.347.1a1.7 1.7 0 0 0 -1.111.759c-.2.449.082 1.034.375 1.653a2.982 2.982 0 0 1 .388 2.5 2.9 2.9 0 0 1 -.912 1.066 2.3 2.3 0 0 0 -.619.656c-.255.517.057 1.229.431 1.921l.076.138a31.978 31.978 0 0 0 3.013 4.795 4.329 4.329 0 0 0 1.347 1.228 1.912 1.912 0 0 0 .757.2 11.9 11.9 0 0 0 -2.516-15.308z" fill="#323c6b"/><path d="m40.75 67.88a12.2 12.2 0 0 1 -4.37.8 12.444 12.444 0 0 1 -10.88-6.44 2.274 2.274 0 0 0 2.37-2.41 1.172 1.172 0 0 1 1.24-1.18 6.346 6.346 0 0 1 3.36 1.13c.8.55 1.46 1.27 2.31 1.75a3.008 3.008 0 0 0 1.75.39 1.2 1.2 0 0 1 1.16 1.82c-.01.02-.03.04-.05.07a3.67 3.67 0 0 0 -.64.88 1.3 1.3 0 0 0 .51 1.37 6.008 6.008 0 0 0 1.39.69 7.177 7.177 0 0 1 1.85 1.13z" fill="#fcd462"/><path d="m36.38 69.18a12.954 12.954 0 0 1 -11.317-6.7.5.5 0 0 1 .009-.5.525.525 0 0 1 .436-.243 1.775 1.775 0 0 0 1.863-1.893 1.579 1.579 0 0 1 .474-1.195 1.733 1.733 0 0 1 1.287-.5 6.867 6.867 0 0 1 3.626 1.221c.343.236.666.505.988.775a8.7 8.7 0 0 0 1.28.948 2.5 2.5 0 0 0 1.445.329 1.7 1.7 0 0 1 1.65.81 1.649 1.649 0 0 1 -.012 1.779c0 .007-.059.084-.064.09a3.949 3.949 0 0 1 -.265.32 1.441 1.441 0 0 0 -.307.429.834.834 0 0 0 .355.822 3.529 3.529 0 0 0 .891.458c.129.052.258.1.385.161a7.684 7.684 0 0 1 1.967 1.2.5.5 0 0 1 -.143.85 12.68 12.68 0 0 1 -4.548.839zm-10.065-6.546a11.946 11.946 0 0 0 10.065 5.546 11.736 11.736 0 0 0 3.3-.466 6.624 6.624 0 0 0 -.969-.5c-.126-.057-.245-.1-.363-.152a4.335 4.335 0 0 1 -1.148-.612 1.8 1.8 0 0 1 -.666-1.932 2.245 2.245 0 0 1 .5-.76 3.086 3.086 0 0 0 .2-.241.668.668 0 0 0 .034-.759.7.7 0 0 0 -.684-.341 3.5 3.5 0 0 1 -2.045-.449 9.593 9.593 0 0 1 -1.439-1.055c-.3-.25-.6-.5-.917-.721a5.863 5.863 0 0 0 -3.1-1.042.706.706 0 0 0 -.537.21.594.594 0 0 0 -.182.448 2.9 2.9 0 0 1 -.706 2.015 2.872 2.872 0 0 1 -1.343.811z" fill="#323c6b"/><path d="m46.84 62.93a12.451 12.451 0 0 1 -6.08 4.95h-.01a7.177 7.177 0 0 0 -1.85-1.13 6.008 6.008 0 0 1 -1.39-.69 1.3 1.3 0 0 1 -.51-1.37 3.67 3.67 0 0 1 .64-.88c.02-.03.04-.05.05-.07a1.2 1.2 0 0 0 -1.16-1.82 3.008 3.008 0 0 1 -1.75-.39c-.85-.48-1.51-1.2-2.31-1.75a6.346 6.346 0 0 0 -3.36-1.13 1.172 1.172 0 0 0 -1.24 1.18 2.274 2.274 0 0 1 -2.37 2.41 12.342 12.342 0 0 1 -1.54-5.98c0-.36.02-.71.05-1.06a4.478 4.478 0 0 0 3 0 10.662 10.662 0 0 1 2.58-1.02c.46-.04.93.04 1.39 0a1.308 1.308 0 0 0 1.14-.67c.34-.75-.51-1.67-.16-2.42.33-.7 1.44-.7 1.8-1.37a1.353 1.353 0 0 0 -.24-1.38c-.3-.39-.69-.69-.98-1.09a3.961 3.961 0 0 1 -.55-2.61 12.4 12.4 0 0 1 12.12 1.91 7.754 7.754 0 0 1 -1.45.5 2.2 2.2 0 0 0 -1.42 1.03c-.58 1.33 1.34 2.82.76 4.16-.3.71-1.18 1.01-1.52 1.7a2.711 2.711 0 0 0 .44 2.38 33.178 33.178 0 0 0 3.14 5.01 4.779 4.779 0 0 0 1.51 1.36 2.248 2.248 0 0 0 1.27.24z" fill="#89c5cd"/><path d="m40.76 68.38a.527.527 0 0 1 -.331-.117 6.693 6.693 0 0 0 -1.722-1.052c-.126-.057-.245-.1-.363-.152a4.335 4.335 0 0 1 -1.144-.609 1.8 1.8 0 0 1 -.666-1.932 2.245 2.245 0 0 1 .5-.76 3.086 3.086 0 0 0 .2-.241.668.668 0 0 0 .034-.759.7.7 0 0 0 -.684-.341 3.5 3.5 0 0 1 -2.045-.449 9.593 9.593 0 0 1 -1.439-1.055c-.3-.25-.6-.5-.917-.721a5.863 5.863 0 0 0 -3.1-1.042.706.706 0 0 0 -.537.21.594.594 0 0 0 -.182.448 2.9 2.9 0 0 1 -.706 2.015 3.021 3.021 0 0 1 -2.171.918.5.5 0 0 1 -.431-.259 12.762 12.762 0 0 1 -1.6-6.222c0-.375.021-.738.052-1.1a.5.5 0 0 1 .661-.431 3.948 3.948 0 0 0 2.662 0 9 9 0 0 0 .844-.391 5.28 5.28 0 0 1 1.862-.658 5.658 5.658 0 0 1 .767 0 5.014 5.014 0 0 0 .629 0c.272-.024.625-.134.722-.366a1.391 1.391 0 0 0 -.1-.866 1.734 1.734 0 0 1 1.1-2.52 1.463 1.463 0 0 0 .661-.447.9.9 0 0 0 -.2-.845 5.207 5.207 0 0 0 -.42-.46 5.623 5.623 0 0 1 -.563-.635 4.487 4.487 0 0 1 -.644-2.936.5.5 0 0 1 .32-.435 12.733 12.733 0 0 1 4.568-.833 12.9 12.9 0 0 1 8.043 2.82.5.5 0 0 1 -.073.829 5.641 5.641 0 0 1 -1.2.438l-.347.1a1.7 1.7 0 0 0 -1.111.759c-.2.449.082 1.034.375 1.653a2.982 2.982 0 0 1 .388 2.5 2.9 2.9 0 0 1 -.912 1.066 2.3 2.3 0 0 0 -.619.656c-.255.517.057 1.229.431 1.921l.076.138a31.978 31.978 0 0 0 3.013 4.795 4.329 4.329 0 0 0 1.359 1.232 1.751 1.751 0 0 0 .974.191.5.5 0 0 1 .491.764 13 13 0 0 1 -6.325 5.148.494.494 0 0 1 -.18.033zm-4.095-6.967a1.7 1.7 0 0 1 1.456.821 1.649 1.649 0 0 1 -.012 1.779c0 .007-.059.084-.064.09a3.949 3.949 0 0 1 -.265.32 1.441 1.441 0 0 0 -.307.429.834.834 0 0 0 .355.822 3.529 3.529 0 0 0 .891.458c.129.052.258.1.385.161a7.62 7.62 0 0 1 1.737 1.018 12 12 0 0 0 5.1-3.953 3.2 3.2 0 0 1 -.586-.219 5.3 5.3 0 0 1 -1.682-1.5 32.8 32.8 0 0 1 -3.11-4.94l-.078-.141a2.486 2.486 0 0 1 .426-3.824 2.108 2.108 0 0 0 .632-.69c.2-.467-.077-1.055-.372-1.677a2.963 2.963 0 0 1 -.386-2.488 2.587 2.587 0 0 1 1.728-1.307l.373-.108.2-.056a12.112 12.112 0 0 0 -10.611-1.408 3.155 3.155 0 0 0 .471 1.964 4.7 4.7 0 0 0 .464.517 6.105 6.105 0 0 1 .506.559 1.846 1.846 0 0 1 .287 1.917 2.189 2.189 0 0 1 -1.119.884c-.3.141-.58.273-.672.468a1.4 1.4 0 0 0 .1.857 2.162 2.162 0 0 1 .059 1.556 1.768 1.768 0 0 1 -1.552.962 5.954 5.954 0 0 1 -.758 0 4.788 4.788 0 0 0 -.632 0 4.474 4.474 0 0 0 -1.5.556 9.91 9.91 0 0 1 -.942.434 4.845 4.845 0 0 1 -2.718.178q-.009.205-.009.414a11.757 11.757 0 0 0 1.331 5.464 1.879 1.879 0 0 0 1.131-.572 1.913 1.913 0 0 0 .449-1.3 1.58 1.58 0 0 1 .474-1.195 1.735 1.735 0 0 1 1.288-.5 6.867 6.867 0 0 1 3.626 1.221c.343.236.666.505.988.775a8.7 8.7 0 0 0 1.28.948 2.5 2.5 0 0 0 1.445.329 1.726 1.726 0 0 1 .193-.023z" fill="#323c6b"/><path d="m33.76 49.72c-.36.67-1.47.67-1.8 1.37-.35.75.5 1.67.16 2.42a1.308 1.308 0 0 1 -1.14.67c-.46.04-.93-.04-1.39 0a10.662 10.662 0 0 0 -2.58 1.02 4.478 4.478 0 0 1 -3 0 12.438 12.438 0 0 1 7.98-10.56 3.961 3.961 0 0 0 .55 2.61c.29.4.68.7.98 1.09a1.353 1.353 0 0 1 .24 1.38z" fill="#fcd462"/><path d="m25.541 55.96a5.234 5.234 0 0 1 -1.694-.287.5.5 0 0 1 -.335-.515 12.985 12.985 0 0 1 8.3-10.986.5.5 0 0 1 .676.5 3.433 3.433 0 0 0 .457 2.287 4.7 4.7 0 0 0 .464.517 6.105 6.105 0 0 1 .506.559 1.846 1.846 0 0 1 .287 1.917 2.187 2.187 0 0 1 -1.116.879c-.3.141-.58.273-.672.468a1.4 1.4 0 0 0 .1.857 2.162 2.162 0 0 1 .059 1.556 1.768 1.768 0 0 1 -1.552.962 6.045 6.045 0 0 1 -.758 0 4.788 4.788 0 0 0 -.632 0 4.474 4.474 0 0 0 -1.5.556 9.91 9.91 0 0 1 -.942.434 4.676 4.676 0 0 1 -1.648.296zm-.992-1.122a3.883 3.883 0 0 0 2.285-.106 9 9 0 0 0 .844-.391 5.28 5.28 0 0 1 1.862-.658 5.658 5.658 0 0 1 .767 0 5.014 5.014 0 0 0 .629 0c.272-.024.625-.134.722-.366a1.4 1.4 0 0 0 -.1-.866 1.734 1.734 0 0 1 1.1-2.52 1.468 1.468 0 0 0 .66-.445.9.9 0 0 0 -.2-.847 5.207 5.207 0 0 0 -.42-.46 5.623 5.623 0 0 1 -.563-.635 3.892 3.892 0 0 1 -.658-2.149 11.99 11.99 0 0 0 -6.928 9.443z" fill="#323c6b"/><ellipse cx="43.806" cy="12.125" fill="#eeefee" rx="2.556" ry="2.56" transform="matrix(.972 -.237 .237 .972 -1.626 10.727)"/><circle cx="36.374" cy="9.564" fill="#eeefee" r="1.555" transform="matrix(.972 -.237 .237 .972 -1.23 8.893)"/><path d="m36.367 11.617a2.069 2.069 0 1 1 .492-.06 2.09 2.09 0 0 1 -.492.06zm.011-3.1a1.076 1.076 0 0 0 -.254.031 1.05 1.05 0 1 0 1.277.771 1.041 1.041 0 0 0 -.477-.649 1.057 1.057 0 0 0 -.547-.158z" fill="#323c6b"/><circle cx="45.358" cy="19.247" fill="#eeefee" r="1.555" transform="matrix(.972 -.237 .237 .972 -3.269 11.298)"/><path d="m45.356 21.3a2.052 2.052 0 1 1 1.068-3.808 2.035 2.035 0 0 1 .932 1.268 2.058 2.058 0 0 1 -2 2.54zm0-3.1a1.075 1.075 0 0 0 -.254.031 1.056 1.056 0 1 0 .254-.031z" fill="#323c6b"/><ellipse cx="50.19" cy="6.68" fill="#eeefee" rx="2.224" ry="2.22" transform="matrix(.972 -.237 .237 .972 -.153 12.085)"/><circle cx="36.679" cy="18.919" fill="#eeefee" r="3.219" transform="matrix(.972 -.237 .237 .972 -3.439 9.232)"/><path d="m44.41 14.61a2.544 2.544 0 0 1 -3.02-1.68 2.423 2.423 0 0 0 1.62.15 2.548 2.548 0 0 0 1.87-3.09 1.175 1.175 0 0 0 -.07-.2 2.516 2.516 0 0 1 1.48 1.73 2.554 2.554 0 0 1 -1.88 3.09z" fill="#e1e6e9"/><path d="m50.71 8.84a2.214 2.214 0 0 1 -2.67-1.6 2.1 2.1 0 0 0 1.27.07 2.232 2.232 0 0 0 1.64-2.69c0-.01-.01-.02-.01-.03a2.22 2.22 0 0 1 -.23 4.25z" fill="#e1e6e9"/><path d="m37.44 22.05a3.216 3.216 0 0 1 -3.7-1.83 3.189 3.189 0 0 0 2.3.3 3.236 3.236 0 0 0 2.36-3.9 2.467 2.467 0 0 0 -.18-.52 3.214 3.214 0 0 1 -.78 5.95z" fill="#e1e6e9"/><g fill="#323c6b"><path d="m46.438 73.08a.5.5 0 0 1 -.222-.948 16 16 0 0 0 5.941-5.885.5.5 0 0 1 .862.506 17.207 17.207 0 0 1 -6.36 6.275.5.5 0 0 1 -.221.052z"/><path d="m19.093 48.438a.5.5 0 0 1 -.45-.717l.074-.16c.039-.085.072-.159.172-.353a.5.5 0 1 1 .889.459c-.087.169-.117.233-.15.308l-.084.18a.5.5 0 0 1 -.451.283z"/><path d="m20.7 45.688a.5.5 0 0 1 -.4-.788 36.242 36.242 0 0 1 6.24-5.707.5.5 0 0 1 .5.866 36.3 36.3 0 0 0 -5.923 5.418.5.5 0 0 1 -.417.211z"/><path d="m53.818 64.911a.5.5 0 0 1 -.459-.7l.183-.44a.5.5 0 1 1 .925.381l-.188.454a.5.5 0 0 1 -.461.305z"/><path d="m36.375 72.959a16.7 16.7 0 0 1 -7.065-31.833v-10.564a.5.5 0 0 1 .5-.5h13.13a.5.5 0 0 1 .5.5v10.564a16.7 16.7 0 0 1 -7.065 31.833zm-6.065-41.9v10.389a.5.5 0 0 1 -.3.457 15.7 15.7 0 1 0 12.726 0 .5.5 0 0 1 -.3-.457v-10.386z"/><path d="m43.808 15.185a3.06 3.06 0 0 1 -.726-6.033 3.06 3.06 0 0 1 1.451 5.948 3.067 3.067 0 0 1 -.725.085zm-.008-5.121a2.04 2.04 0 0 0 -.484.059 2.052 2.052 0 1 0 .484-.059z"/><path d="m50.183 9.4a2.741 2.741 0 1 1 .649-.079 2.754 2.754 0 0 1 -.649.079zm.017-4.441a1.749 1.749 0 0 0 -.416.05 1.72 1.72 0 1 0 .816 3.343 1.72 1.72 0 0 0 -.4-3.393z"/><path d="m36.679 22.639a3.72 3.72 0 1 1 3.613-4.6 3.721 3.721 0 0 1 -3.613 4.6zm0-6.439a2.719 2.719 0 1 0 2.642 2.075 2.708 2.708 0 0 0 -2.642-2.075z"/></g></svg>