<svg id="color_line" height="512" viewBox="0 0 74 74" width="512" xmlns="http://www.w3.org/2000/svg" data-name="color line"><path d="m37.664 54.146-3.498 4.079h-11.662v-4.079z" fill="#eeefee"/><path d="m34.167 58.725h-11.667a.5.5 0 0 1 -.5-.5v-4.079a.5.5 0 0 1 .5-.5h15.164a.5.5 0 0 1 .379.826l-3.5 4.079a.5.5 0 0 1 -.376.174zm-11.167-1h10.937l2.64-3.079h-13.577z" fill="#323c6b"/><path d="m14.271 64.548h39.79v6.85h-39.79z" fill="#9297ab"/><path d="m44.994 26.458 2.952-5.194-14.988-8.49-13.847 24.417 14.988 8.49 8.047-14.195" fill="#eeefee"/><path d="m34.1 46.181a.5.5 0 0 1 -.246-.065l-14.989-8.491a.5.5 0 0 1 -.188-.682l13.846-24.416a.5.5 0 0 1 .682-.188l14.987 8.49a.5.5 0 0 1 .188.682l-2.952 5.194a.5.5 0 0 1 -.869-.494l2.7-4.758-14.117-8-13.349 23.547 14.117 8 7.8-13.76a.5.5 0 0 1 .87.493l-8.046 14.195a.5.5 0 0 1 -.434.253z" fill="#323c6b"/><path d="m18.842 40.915h11.575v8.009h-11.575z" fill="#e1e6e9" transform="matrix(.87 .493 -.493 .87 25.361 -6.304)"/><path d="m27.689 51.757a.5.5 0 0 1 -.246-.065l-10.069-5.71a.5.5 0 0 1 -.188-.682l3.95-6.967a.5.5 0 0 1 .3-.235.492.492 0 0 1 .38.047l10.069 5.71a.5.5 0 0 1 .188.682l-3.948 6.963a.5.5 0 0 1 -.436.257zm-9.387-6.4 9.2 5.216 3.457-6.1-9.2-5.217z" fill="#323c6b"/><path d="m36.86 10.589h10.572v6.878h-10.572z" fill="#e1e6e9" transform="matrix(.87 .493 -.493 .87 12.403 -18.963)"/><path d="m45.048 20.127a.5.5 0 0 1 -.247-.065l-9.2-5.215a.5.5 0 0 1 -.188-.682l3.392-5.983a.5.5 0 0 1 .3-.235.492.492 0 0 1 .38.047l9.2 5.215a.5.5 0 0 1 .188.682l-3.393 5.983a.5.5 0 0 1 -.435.253zm-8.515-5.9 8.326 4.722 2.9-5.113-8.327-4.725z" fill="#323c6b"/><path d="m37.704 6.689h14.571v4.65h-14.571z" fill="#9297ab" transform="matrix(.87 .493 -.493 .87 10.3 -21.018)"/><path d="m50.18 15.13a.5.5 0 0 1 -.247-.065l-12.675-7.187a.5.5 0 0 1 -.188-.678l2.294-4.045a.5.5 0 0 1 .3-.235.49.49 0 0 1 .38.047l12.676 7.183a.5.5 0 0 1 .188.682l-2.293 4.045a.5.5 0 0 1 -.435.253zm-11.993-7.875 11.8 6.694 1.8-3.175-11.8-6.694z" fill="#323c6b"/><path d="m59.272 44.09a16.508 16.508 0 0 1 -12.493 15.989l-1.46-4.222a12.039 12.039 0 0 0 .749-23.357 3.885 3.885 0 0 0 .583-4.442 16.5 16.5 0 0 1 12.621 16.032z" fill="#eeefee"/><path d="m59.27 44.09a16.509 16.509 0 0 1 -11.82 15.81 16.488 16.488 0 0 0 -.35-30.09 3.853 3.853 0 0 0 -.45-1.75 16.515 16.515 0 0 1 12.62 16.03z" fill="#e1e6e9"/><path d="m48.323 64.551h-17.215l3.258-9.43a1.446 1.446 0 0 1 1.367-.974h7.967a1.446 1.446 0 0 1 1.367.974z" fill="#9297ab"/><path d="m54.06 64.55v6.85h-39.79v-2.13h37.42v-4.72z" fill="#84879c"/><path d="m48.32 64.55h-2.58l-3.26-9.43a1.446 1.446 0 0 0 -1.37-.97h2.59a1.465 1.465 0 0 1 1.37.97z" fill="#84879c"/><circle cx="39.715" cy="59.349" fill="#fff" r="1.974"/><path d="m39.715 61.822a2.474 2.474 0 1 1 2.474-2.474 2.477 2.477 0 0 1 -2.474 2.474zm0-3.947a1.474 1.474 0 1 0 1.474 1.474 1.475 1.475 0 0 0 -1.474-1.474z" fill="#323c6b"/><path d="m46.779 60.579a.5.5 0 0 1 -.473-.336l-1.46-4.222a.5.5 0 0 1 .368-.652 11.539 11.539 0 0 0 .718-22.382.5.5 0 0 1 -.229-.822 3.384 3.384 0 0 0 .506-3.867.5.5 0 0 1 .559-.72 16.982 16.982 0 0 1 .132 32.986.52.52 0 0 1 -.121.015zm-.808-4.364 1.129 3.262a15.983 15.983 0 0 0 .366-30.677 4.411 4.411 0 0 1 -.563 3.442 12.539 12.539 0 0 1 -.931 23.97z" fill="#323c6b"/><circle cx="43.658" cy="29.873" fill="#9297ab" r="4.665"/><path d="m48.32 29.87a4.616 4.616 0 0 1 -2 3.82 4.511 4.511 0 0 0 .49-2.07 4.665 4.665 0 0 0 -4.66-4.66 4.564 4.564 0 0 0 -2.67.85 4.66 4.66 0 0 1 8.84 2.06z" fill="#84879c"/><g fill="#323c6b"><path d="m54.061 71.9h-39.79a.5.5 0 0 1 -.5-.5v-6.85a.5.5 0 0 1 .5-.5h39.79a.5.5 0 0 1 .5.5v6.85a.5.5 0 0 1 -.5.5zm-39.29-1h38.79v-5.85h-38.79z"/><path d="m48.323 65.051h-17.215a.5.5 0 0 1 -.473-.663l3.258-9.43a1.948 1.948 0 0 1 1.84-1.311h7.967a1.947 1.947 0 0 1 1.84 1.311l3.258 9.43a.5.5 0 0 1 -.473.663zm-16.513-1h15.811l-3.029-8.767a.946.946 0 0 0 -.895-.637h-7.964a.947.947 0 0 0 -.895.638z"/><path d="m43.658 35.038a5.165 5.165 0 1 1 5.165-5.165 5.171 5.171 0 0 1 -5.165 5.165zm0-9.33a4.165 4.165 0 1 0 4.165 4.165 4.17 4.17 0 0 0 -4.165-4.165z"/></g><path d="m25.979 19-3.899 6.875" fill="#d5d6db"/><path d="m22.079 26.375a.5.5 0 0 1 -.435-.747l3.9-6.875a.5.5 0 0 1 .87.493l-3.9 6.875a.5.5 0 0 1 -.435.254z" fill="#323c6b"/><path d="m27.167 16.904.277-.487" fill="#d5d6db"/><path d="m27.167 17.4a.5.5 0 0 1 -.435-.747l.277-.488a.5.5 0 1 1 .87.493l-.277.488a.5.5 0 0 1 -.435.254z" fill="#323c6b"/><path d="m11.271 69.75a.5.5 0 0 1 -.5-.5v-.625a.5.5 0 0 1 1 0v.625a.5.5 0 0 1 -.5.5z" fill="#323c6b"/><path d="m11.271 66.75a.5.5 0 0 1 -.5-.5v-4.7a.5.5 0 0 1 .5-.5h4.354a.5.5 0 0 1 0 1h-3.854v4.2a.5.5 0 0 1 -.5.5z" fill="#323c6b"/></svg>