<svg id="color_line" height="512" viewBox="0 0 74 74" width="512" xmlns="http://www.w3.org/2000/svg" data-name="color line"><path d="m67.71 16.13v24.16a30.71 30.71 0 1 1 -61.42 0v-24.16h13.83v24.03a16.9 16.9 0 0 0 16.88 16.88c9.31 0 16.88-8.56 16.88-17.87v-23.04z" fill="#eeefee"/><path d="m67.71 16.13v24.16a30.7 30.7 0 0 1 -47.54 25.68 30.71 30.71 0 0 0 43.19-28.06v-21.78z" fill="#e1e6e9"/><path d="m6.29 3h13.83v13.13h-13.83z" fill="#fe7058"/><path d="m20.12 16.63h-13.83a.5.5 0 0 1 -.5-.5v-13.13a.5.5 0 0 1 .5-.5h13.83a.5.5 0 0 1 .5.5v13.13a.5.5 0 0 1 -.5.5zm-13.33-1h12.83v-12.13h-12.83z" fill="#323c6b"/><path d="m53.88 3h13.83v13.13h-13.83z" fill="#05afd6"/><g fill="#323c6b"><path d="m15.185 10.017h-3.956a.5.5 0 1 1 0-1h3.956a.5.5 0 1 1 0 1z"/><path d="m62.771 10.017h-3.956a.5.5 0 1 1 0-1h3.956a.5.5 0 1 1 0 1z"/><path d="m60.793 12a.5.5 0 0 1 -.5-.5v-3.961a.5.5 0 0 1 1 0v3.961a.5.5 0 0 1 -.5.5z"/><path d="m60.679 64.708a.5.5 0 0 1 -.352-.855l.337-.328a.5.5 0 1 1 .715.7l-.349.339a.5.5 0 0 1 -.351.144z"/><path d="m3.615 34.917a.5.5 0 0 1 -.5-.5v-9.438a.5.5 0 0 1 1 0v9.438a.5.5 0 0 1 -.5.5z"/><path d="m3.615 37.792a.5.5 0 0 1 -.5-.5v-.583a.5.5 0 0 1 1 0v.583a.5.5 0 0 1 -.5.5z"/><path d="m62.693 62.542a.5.5 0 0 1 -.382-.823 33.4 33.4 0 0 0 5.018-8.005.5.5 0 0 1 .914.407 34.442 34.442 0 0 1 -5.168 8.245.5.5 0 0 1 -.382.176z"/><path d="m37 71.5a31.245 31.245 0 0 1 -31.21-31.21v-24.16a.5.5 0 0 1 .5-.5h13.83a.5.5 0 0 1 .5.5v24.03a16.4 16.4 0 0 0 16.38 16.38c8.726 0 16.38-8.117 16.38-17.37v-23.04a.5.5 0 0 1 .5-.5h13.83a.5.5 0 0 1 .5.5v24.16a31.245 31.245 0 0 1 -31.21 31.21zm-30.21-54.87v23.66a30.21 30.21 0 1 0 60.42 0v-23.66h-12.83v22.54c0 9.786-8.121 18.37-17.38 18.37a17.4 17.4 0 0 1 -17.38-17.38v-23.53z"/></g><path d="m63.36 3h4.35v13.13h-4.35z" fill="#27a2db"/><path d="m67.71 16.63h-13.83a.5.5 0 0 1 -.5-.5v-13.13a.5.5 0 0 1 .5-.5h13.83a.5.5 0 0 1 .5.5v13.13a.5.5 0 0 1 -.5.5zm-13.33-1h12.83v-12.13h-12.83z" fill="#323c6b"/></svg>