<svg id="color_line" height="512" viewBox="0 0 74 74" width="512" xmlns="http://www.w3.org/2000/svg" data-name="color line"><path d="m15.143 31.342h37.774a0 0 0 0 1 0 0v20.32a0 0 0 0 1 0 0h-37.774a3.065 3.065 0 0 1 -3.065-3.062v-14.193a3.065 3.065 0 0 1 3.065-3.065z" fill="#eeefee" transform="matrix(.707 -.707 .707 .707 -19.828 35.135)"/><path d="m17.73 63.082 3.735-3.735-6.812-6.812-3.735 3.735a1.707 1.707 0 0 0 0 2.414l4.4 4.4a1.707 1.707 0 0 0 2.412-.002z" fill="#9297ab"/><rect fill="#9297ab" height="25.495" rx=".766" transform="matrix(.707 -.707 .707 .707 -2.615 42.265)" width="7.847" x="45.787" y="11.541"/><path d="m50.252 12.965h15.248v6.317h-15.248z" fill="#eeefee" transform="matrix(.707 -.707 .707 .707 5.551 45.647)"/><g fill="#323c6b"><path d="m3 71.5a.5.5 0 0 1 -.354-.854l10.118-10.117a.5.5 0 0 1 .707.707l-10.117 10.118a.5.5 0 0 1 -.354.146z"/><path d="m38.4 27.332a.5.5 0 0 1 -.354-.146l-2.8-2.8a.5.5 0 0 1 .707-.707l2.8 2.8a.5.5 0 0 1 -.354.854z"/><path d="m32.537 31.756a.5.5 0 0 1 -.354-.146l-2.083-2.081a.5.5 0 0 1 .707-.707l2.084 2.078a.5.5 0 0 1 -.354.854z"/><path d="m28.112 37.616a.5.5 0 0 1 -.354-.146l-2.8-2.8a.5.5 0 0 1 .707-.707l2.8 2.8a.5.5 0 0 1 -.354.854z"/><path d="m17.827 47.9a.5.5 0 0 1 -.354-.146l-2.8-2.8a.5.5 0 0 1 .707-.707l2.8 2.8a.5.5 0 0 1 -.354.854z"/><path d="m22.252 42.041a.5.5 0 0 1 -.354-.146l-2.081-2.081a.5.5 0 0 1 .707-.707l2.081 2.081a.5.5 0 0 1 -.354.854z"/><path d="m31.027 62.083a.5.5 0 0 1 -.354-.854l.265-.264a.5.5 0 0 1 .707.708l-.265.264a.5.5 0 0 1 -.353.146z"/><path d="m25.243 65.355a6.537 6.537 0 0 1 -2.608-.541.5.5 0 1 1 .4-.918 5.623 5.623 0 0 0 6.146-1.17.5.5 0 0 1 .707.707 6.519 6.519 0 0 1 -4.645 1.922z"/><path d="m39.25 12.979a.5.5 0 0 1 -.354-.854l2.871-2.872a2.413 2.413 0 0 1 3.408 0l.85.851a.5.5 0 0 1 -.707.707l-.85-.851a1.413 1.413 0 0 0 -1.994 0l-2.874 2.873a.5.5 0 0 1 -.35.146z"/><path d="m47.948 13.234a.5.5 0 0 1 -.354-.146l-.4-.4a.5.5 0 0 1 .707-.708l.4.4a.5.5 0 0 1 -.354.854z"/></g><path d="m52.15 32.28-26.68 26.68a3.064 3.064 0 0 1 -4.2.1h-.084l.287.287 1.61 1.61a3.072 3.072 0 0 0 4.33 0l26.707-26.707z" fill="#e1e6e9"/><path d="m19.5 57.38-3.71 3.7a1.691 1.691 0 0 1 -2.352.047v.07l1.882 1.883a1.7 1.7 0 0 0 2.41 0l3.74-3.73z" fill="#84879c"/><path d="m60.96 29.99-1.79-1.79a.75.75 0 0 1 -.15.87l-4.47 4.47a.766.766 0 0 1 -.946.086v.108l.516.516 1.29 1.29a.779.779 0 0 0 1.08 0l4.47-4.47a.76.76 0 0 0 0-1.08z" fill="#84879c"/><path d="m63.71 14.77-.03.03-8.93 8.92-1.97-1.97 8.93-8.92.03-.03z" fill="#e1e6e9"/><path d="m59.17 28.2-4.45-4.45.03-.03 4.27 4.27a1 1 0 0 1 .15.21z" fill="#e1e6e9"/><path d="m25.243 62.355a3.542 3.542 0 0 1 -2.521-1.044l-10.034-10.034a3.563 3.563 0 0 1 0-5.042l26.712-26.71a.5.5 0 0 1 .707 0l14.368 14.369a.5.5 0 0 1 0 .707l-26.711 26.711a3.54 3.54 0 0 1 -2.521 1.043zm14.509-41.77-26.352 26.358a2.563 2.563 0 0 0 0 3.627l10.03 10.03a2.626 2.626 0 0 0 3.627 0l26.357-26.352z" fill="#323c6b"/><path d="m16.523 64.081a2.2 2.2 0 0 1 -1.561-.645l-4.4-4.4a2.207 2.207 0 0 1 0-3.121l3.738-3.734a.515.515 0 0 1 .707 0l6.813 6.813a.5.5 0 0 1 0 .707l-3.734 3.735a2.2 2.2 0 0 1 -1.563.645zm-1.871-10.84-3.381 3.381a1.207 1.207 0 0 0 0 1.707l4.4 4.4a1.21 1.21 0 0 0 1.707 0l3.381-3.381z" fill="#323c6b"/><path d="m55.951 36.26a1.254 1.254 0 0 1 -.9-.372l-16.941-16.943a1.268 1.268 0 0 1 0-1.79l4.466-4.466a1.267 1.267 0 0 1 1.79 0l16.946 16.944a1.268 1.268 0 0 1 0 1.79l-4.466 4.466a1.255 1.255 0 0 1 -.895.371zm-17.134-18.4a.268.268 0 0 0 0 .377l16.946 16.945a.274.274 0 0 0 .376 0l4.461-4.465a.268.268 0 0 0 0-.377l-16.941-16.94a.266.266 0 0 0 -.376 0z" fill="#323c6b"/><path d="m54.719 24.248a.5.5 0 0 1 -.354-.146l-4.465-4.467a.5.5 0 0 1 0-.707l10.781-10.782a.5.5 0 0 1 .707 0l4.467 4.467a.5.5 0 0 1 0 .707l-10.783 10.78a.5.5 0 0 1 -.353.148zm-3.76-4.967 3.76 3.76 10.075-10.075-3.76-3.76z" fill="#323c6b"/><rect fill="#9297ab" height="14.319" rx=".766" transform="matrix(.707 -.707 .707 .707 10.877 47.854)" width="4.994" x="60.706" y="3.637"/><path d="m69.49 13.55-1.8-1.8a.762.762 0 0 1 -.14.89l-2.45 2.44a.754.754 0 0 1 -1.037.028v.074l1.9 1.9a.761.761 0 0 0 1.08 0l2.45-2.44a.772.772 0 0 0 -.003-1.092z" fill="#84879c"/><path d="m66.5 17.807a1.261 1.261 0 0 1 -.895-.369l-9.042-9.038a1.265 1.265 0 0 1 0-1.791l2.447-2.448a1.27 1.27 0 0 1 1.79 0l9.043 9.039a1.264 1.264 0 0 1 0 1.791l-2.443 2.446a1.266 1.266 0 0 1 -.9.37zm-6.594-13.02a.27.27 0 0 0 -.189.078l-2.446 2.447a.266.266 0 0 0 0 .375l9.042 9.042a.269.269 0 0 0 .378 0l2.446-2.448a.266.266 0 0 0 0-.375l-9.042-9.042a.265.265 0 0 0 -.189-.077z" fill="#323c6b"/><path d="m47.173 22.372a.683.683 0 0 1 -.981-.012l-.246-.244a.694.694 0 1 1 .985-.977l.254.252a.683.683 0 0 1 -.012.981z" fill="#fff"/><path d="m53.594 28.844a.683.683 0 0 1 -.981-.012l-4.625-4.7a.685.685 0 0 1 0-.965l.012-.011a.69.69 0 0 1 .981.012l4.625 4.7a.683.683 0 0 1 -.012.976z" fill="#fff"/></svg>