<svg id="Capa_1" enable-background="new 0 0 512 512" height="512" viewBox="0 0 512 512" width="512" xmlns="http://www.w3.org/2000/svg"><path d="m436.727 504.471h-301.273c-6.627 0-12-5.373-12-12v-458.768h325.273v458.768c0 6.627-5.373 12-12 12z" fill="#e8f3ff"/><path d="m448.727 33.703h-34.227v424.494c0 6.653-5.394 12.047-12.047 12.047h-278.999v22.18c0 6.653 5.394 12.047 12.047 12.047h301.179c6.653 0 12.047-5.394 12.047-12.047z" fill="#c1e2ff"/><circle cx="159.953" cy="227.247" fill="#fcdd2e" r="96.68"/><path d="m208.948 143.91c8.467 14.37 13.342 31.109 13.342 48.994 0 53.395-43.285 96.68-96.68 96.68-17.886 0-34.624-4.876-48.994-13.342 16.809 28.53 47.828 47.686 83.337 47.686 53.395 0 96.68-43.285 96.68-96.68 0-35.51-19.156-66.529-47.685-83.338z" fill="#f9c301"/><path d="m274.967 242.824c-3.337 0-6.506.719-9.362 2.008-1.396.63-2.976-.37-2.976-1.901v-6.651c0-12.608-10.221-22.829-22.829-22.829-8.422 0-15.774 4.563-19.73 11.351-.61 1.046-1.961 1.351-2.975.689-3.583-2.341-7.863-3.703-12.463-3.703-12.608 0-22.829 10.221-22.829 22.829v6.04c0 1.532-1.58 2.531-2.976 1.901-2.857-1.289-6.025-2.008-9.362-2.008-12.608 0-22.829 10.221-22.829 22.829v5.614c0 12.608 10.221 22.829 22.829 22.829h12.338 35.167 10.491 35.167 12.338c12.608 0 22.829-10.221 22.829-22.829v-13.339c.001-12.609-10.22-22.83-22.828-22.83z" fill="#b3d8fb"/><path d="m275.852 242.847c2.448 3.637 3.878 8.017 3.878 12.731v13.339c0 12.608-10.221 22.829-22.829 22.829h-12.338-35.168-10.491-35.168-12.338c-.297 0-.591-.011-.885-.022 4.1 6.091 11.057 10.098 18.952 10.098h12.338 35.168 10.491 35.168 12.338c12.608 0 22.829-10.221 22.829-22.829v-13.339c-.001-12.312-9.748-22.342-21.945-22.807z" fill="#62b4fd"/><circle cx="240.549" cy="364.755" fill="#fcdd2e" r="22.024"/><path d="m255.175 449.492c0 8.077-6.548 14.625-14.625 14.625s-14.625-6.548-14.625-14.625c0-6.612 9.799-24.627 13.355-30.947.558-.991 1.982-.991 2.54 0 3.555 6.32 13.355 24.335 13.355 30.947z" fill="#62b4fd"/><path d="m448.727 98.268h-325.273v-78.739c0-6.627 5.373-12 12-12h301.273c6.627 0 12 5.373 12 12z" fill="#1690fb"/><path d="m436.68 7.529h-22.18v90.739h34.227v-78.692c0-6.653-5.394-12.047-12.047-12.047z" fill="#0571f9"/><path d="m302.888 203.595c-5.631 0-9.635-2.442-12.008-7.327-1.562-3.053-4.273-3.799-8.141-2.238-1.766.747-2.952 1.849-3.561 3.307-.611 1.46-.51 3.071.305 4.834 1.966 4.411 5.002 7.683 9.108 9.82 4.104 2.137 8.767 3.206 13.992 3.206 7.394 0 13.484-2.255 18.265-6.768 4.783-4.511 7.208-10.43 7.276-17.757 0-5.969-1.848-10.922-5.545-14.858-3.698-3.934-8.566-6.208-14.603-6.818-.34-.066-.56-.237-.661-.508-.103-.271-.051-.509.152-.712l13.229-13.331c1.764-1.763 2.68-3.595 2.748-5.495.27-4.07-1.053-6.106-3.968-6.106h-35.108c-2.849 0-4.273 2.036-4.273 6.106s1.424 6.106 4.273 6.106h20.556c-1.221.951-2.544 2.205-3.968 3.765l-8.752 9.158c-1.969 2.104-2.41 4.445-1.323 7.022.949 2.579 2.713 3.867 5.292 3.867 2.509 0 4.714.152 6.615.457 1.898.306 3.816.865 5.749 1.679s3.425 2.137 4.477 3.968c1.052 1.832 1.578 4.106 1.578 6.818 0 3.394-1.068 6.208-3.207 8.446-2.137 2.24-4.971 3.359-8.497 3.359z"/><path d="m385.417 190.773c0-4.544-.798-8.428-2.392-11.651-1.595-3.221-3.866-5.699-6.817-7.429-2.951-1.729-6.259-2.916-9.923-3.561-3.662-.644-7.768-.831-12.313-.56-1.221.068-1.968-.118-2.239-.56-.272-.441-.406-1.374-.406-2.798v-7.124c0-.814.118-1.357.356-1.628.237-.27.764-.407 1.577-.407h22.184c2.849 0 4.273-2.036 4.273-6.106s-1.424-6.106-4.273-6.106h-29.409c-2.986 0-5.088.679-6.309 2.036-1.222 1.357-1.832 3.765-1.832 7.225v18.928c0 5.698 3.357 8.175 10.074 7.428 4.409-.407 8.396-.491 11.957-.254 3.563.238 6.445 1.459 8.651 3.663 2.203 2.206 3.308 5.378 3.308 9.515-.07 3.528-1.12 6.445-3.155 8.751-2.036 2.307-4.783 3.46-8.243 3.46-2.849 0-5.174-.576-6.97-1.73-1.799-1.153-3.478-2.984-5.038-5.495-1.832-3.12-4.648-3.766-8.445-1.934-3.528 1.628-4.546 4.172-3.053 7.632 2.034 4.411 5.103 7.701 9.209 9.871 4.104 2.17 8.803 3.256 14.093 3.256 7.394 0 13.416-2.239 18.063-6.716 4.645-4.476 7.004-10.379 7.072-17.706z"/><path d="m410.433 143.612c-8.827 0-16.008 7.181-16.008 16.007s7.181 16.008 16.008 16.008 16.008-7.181 16.008-16.008-7.181-16.007-16.008-16.007zm0 22.638c-3.656 0-6.63-2.974-6.63-6.63 0-3.655 2.974-6.629 6.63-6.629s6.63 2.974 6.63 6.629c0 3.656-2.974 6.63-6.63 6.63z"/><path d="m358.12 357.225h-57.266c-4.158 0-7.529 3.371-7.529 7.529s3.371 7.529 7.529 7.529h57.266c4.158 0 7.529-3.371 7.529-7.529.001-4.158-3.37-7.529-7.529-7.529z"/><path d="m358.12 433.429h-57.266c-4.158 0-7.529 3.371-7.529 7.529s3.371 7.529 7.529 7.529h57.266c4.158 0 7.529-3.371 7.529-7.529s-3.37-7.529-7.529-7.529z"/><path d="m240.55 335.202c-16.296 0-29.553 13.257-29.553 29.553s13.257 29.553 29.553 29.553 29.553-13.257 29.553-29.553-13.258-29.553-29.553-29.553zm0 44.047c-7.992 0-14.494-6.502-14.494-14.494s6.502-14.494 14.494-14.494 14.494 6.502 14.494 14.494-6.502 14.494-14.494 14.494z"/><path d="m240.55 410.272c-3.241 0-6.242 1.755-7.832 4.58-9.504 16.891-14.322 28.546-14.322 34.639 0 12.216 9.938 22.155 22.155 22.155s22.155-9.938 22.155-22.155c0-6.093-4.819-17.747-14.323-34.64-1.592-2.824-4.593-4.579-7.833-4.579zm0 46.315c-3.913 0-7.096-3.183-7.096-7.083.049-1.715 2.056-7.525 7.096-17.42 5.035 9.887 7.044 15.695 7.096 17.416-.005 3.908-3.187 7.087-7.096 7.087z"/><path d="m436.68 0h-301.179c-10.795 0-19.577 8.782-19.577 19.577v113.129c-11.78 5.495-22.542 13.246-31.787 23.047-2.853 3.025-2.715 7.79.31 10.644s7.791 2.714 10.644-.31c17.026-18.049 40.061-27.989 64.862-27.989 41.664 0 77.392 29.204 86.746 68.625-2.218-.518-4.526-.8-6.9-.8-8.987 0-17.483 4.036-23.199 10.791-3.759-1.615-7.82-2.454-11.968-2.454-16.333 0-29.695 12.965-30.335 29.144-1.587-.254-3.2-.382-4.833-.382-16.74 0-30.359 13.619-30.359 30.359v5.614c0 16.74 13.619 30.359 30.359 30.359h25.319c-10.892 4.634-22.648 7.046-34.83 7.046-49.158 0-89.151-39.993-89.151-89.151 0-12.191 2.414-24.002 7.176-35.105 1.639-3.822-.131-8.249-3.952-9.888-3.821-1.638-8.249.13-9.888 3.952-5.57 12.989-8.395 26.797-8.395 41.04 0 41.735 24.665 77.812 60.18 94.437v170.74c0 10.795 8.782 19.577 19.577 19.577h301.18c10.795 0 19.577-8.782 19.577-19.577v-70.116c0-4.158-3.371-7.529-7.529-7.529s-7.529 3.371-7.529 7.529v70.116c0 2.491-2.026 4.518-4.518 4.518h-301.18c-2.491 0-4.518-2.026-4.518-4.518v-165.07c9.201 2.667 18.921 4.101 28.97 4.101 23.519 0 45.701-7.646 64.173-22.105h50.84c16.74 0 30.359-13.619 30.359-30.359v-13.339c0-16.74-13.619-30.359-30.359-30.359-1.627 0-3.234.127-4.815.379-.134-6.815-2.529-13.082-6.459-18.092-2.346-25.47-13.903-49.063-32.714-66.591-19.345-18.026-44.569-27.954-71.026-27.954-9.968 0-19.692 1.374-28.97 4.034v-21.274h279.626c4.158 0 7.529-3.371 7.529-7.529s-3.371-7.529-7.529-7.529h-279.625v-71.161c0-2.491 2.026-4.518 4.518-4.518h301.179c2.491 0 4.518 2.026 4.518 4.518v365.366c0 4.158 3.371 7.529 7.529 7.529s7.529-3.371 7.529-7.529v-365.366c0-10.795-8.782-19.577-19.576-19.577zm-167.98 251.696c1.974-.89 4.082-1.342 6.266-1.342 8.436 0 15.3 6.863 15.3 15.3v13.339c0 8.436-6.863 15.3-15.3 15.3h-105.502c-8.436 0-15.3-6.863-15.3-15.3v-5.614c0-8.436 6.863-15.3 15.3-15.3 2.184 0 4.293.451 6.268 1.343 3.001 1.353 6.442 1.097 9.204-.688 2.753-1.778 4.396-4.798 4.396-8.078v-6.04c0-8.436 6.863-15.3 15.3-15.3 2.978 0 5.864.857 8.346 2.478 2.207 1.442 4.942 1.921 7.502 1.316 2.552-.604 4.774-2.251 6.095-4.518 2.737-4.696 7.804-7.613 13.225-7.613 8.436 0 15.3 6.863 15.3 15.3v6.651c0 3.28 1.644 6.3 4.397 8.078 2.761 1.785 6.202 2.041 9.203.688z"/><path d="m198.638 29.808h-38.215c-4.158 0-7.529 3.371-7.529 7.529s3.371 7.529 7.529 7.529h38.215c4.158 0 7.529-3.371 7.529-7.529s-3.371-7.529-7.529-7.529z"/><path d="m198.638 59.76h-38.215c-4.158 0-7.529 3.371-7.529 7.529s3.371 7.529 7.529 7.529h38.215c4.158 0 7.529-3.371 7.529-7.529.001-4.158-3.371-7.529-7.529-7.529z"/></svg>