<svg width="24" height="24" viewBox="0 0 24 24" fill="none" xmlns="http://www.w3.org/2000/svg">
<path d="M21.7266 8.11678H20.75V7.14022C20.75 7.10431 20.743 7.06874 20.7292 7.03556C20.7155 7.00237 20.6954 6.97222 20.67 6.94683C20.6446 6.92143 20.6144 6.90129 20.5812 6.88756C20.548 6.87382 20.5125 6.86676 20.4766 6.86678H16.337C16.2146 5.80235 15.705 4.8201 14.9052 4.10706C14.1055 3.39403 13.0715 3 12 3C10.9285 3 9.8945 3.39403 9.09475 4.10706C8.295 4.8201 7.7854 5.80235 7.66297 6.86678H3.52344C3.48752 6.86676 3.45196 6.87382 3.41877 6.88756C3.38559 6.90129 3.35544 6.92143 3.33004 6.94683C3.30465 6.97222 3.28451 7.00237 3.27077 7.03556C3.25704 7.06874 3.24998 7.10431 3.25 7.14022V8.11678H2.27344C2.23752 8.11676 2.20196 8.12382 2.16877 8.13756C2.13559 8.15129 2.10544 8.17143 2.08004 8.19683C2.05465 8.22222 2.03451 8.25237 2.02077 8.28556C2.00704 8.31874 1.99998 8.35431 2 8.39022V19.7183C2.00004 19.7909 2.02887 19.8604 2.08016 19.9116L2.86141 20.6929C2.91266 20.7442 2.98218 20.773 3.05469 20.773H20.9453C21.0178 20.773 21.0873 20.7442 21.1386 20.6929L21.9198 19.9116C21.9711 19.8604 22 19.7909 22 19.7183V8.39022C22 8.35431 21.993 8.31874 21.9792 8.28556C21.9655 8.25237 21.9454 8.22222 21.92 8.19683C21.8946 8.17143 21.8644 8.15129 21.8312 8.13756C21.798 8.12382 21.7625 8.11676 21.7266 8.11678V8.11678ZM12 3.54647C12.9762 3.54768 13.915 3.92219 14.6241 4.59327C15.3331 5.26434 15.7586 6.18115 15.8134 7.15585V7.15585C15.8173 7.22553 15.8195 7.29569 15.8195 7.36647C15.8194 8.16206 15.571 8.93776 15.1088 9.58532C14.6466 10.2329 13.9938 10.72 13.2414 10.9787C13.1899 10.9964 13.1448 11.029 13.1119 11.0724L12 12.5455L10.8884 11.0721C10.8555 11.0287 10.8104 10.996 10.7589 10.9783C10.0065 10.7197 9.35369 10.2326 8.8915 9.58503C8.42931 8.93746 8.18085 8.16175 8.18078 7.36616C8.18078 7.29538 8.18297 7.22553 8.18688 7.15553C8.24179 6.18095 8.66731 5.26426 9.37625 4.59326C10.0852 3.92226 11.0239 3.54776 12 3.54647V3.54647ZM12.2734 18.6574L13.3633 17.5676H20.2031V18.9762H12.2734V18.6574ZM3.79688 7.41366H7.63391C7.64761 8.29956 7.92874 9.16064 8.44042 9.88396C8.95211 10.6073 9.67046 11.1591 10.5013 11.4669L11.7266 13.0912V17.8841L10.9433 17.1008C10.892 17.0496 10.8225 17.0207 10.75 17.0207H6.47188C6.39935 17.0207 6.3298 17.0495 6.27853 17.1008C6.22725 17.1521 6.19844 17.2216 6.19844 17.2941C6.19844 17.3666 6.22725 17.4362 6.27853 17.4875C6.3298 17.5388 6.39935 17.5676 6.47188 17.5676H10.6367L11.7266 18.6574V18.9762H3.79688V17.5676H5.04688C5.1194 17.5676 5.18894 17.5388 5.24022 17.4875C5.2915 17.4362 5.32031 17.3666 5.32031 17.2941C5.32031 17.2216 5.2915 17.1521 5.24022 17.1008C5.18894 17.0495 5.1194 17.0207 5.04688 17.0207H3.79688V7.41366ZM21.4531 19.6051L20.832 20.2262H3.16797L2.54688 19.6051V8.66366H3.25V19.2496C3.24998 19.2855 3.25704 19.3211 3.27077 19.3543C3.28451 19.3874 3.30465 19.4176 3.33004 19.443C3.35544 19.4684 3.38559 19.4885 3.41877 19.5023C3.45196 19.516 3.48752 19.5231 3.52344 19.523H20.4766C20.5125 19.5231 20.548 19.516 20.5812 19.5023C20.6144 19.4885 20.6446 19.4684 20.67 19.443C20.6954 19.4176 20.7155 19.3874 20.7292 19.3543C20.743 19.3211 20.75 19.2855 20.75 19.2496V15.8652C20.75 15.7927 20.7212 15.7232 20.6699 15.6719C20.6186 15.6206 20.5491 15.5918 20.4766 15.5918C20.404 15.5918 20.3345 15.6206 20.2832 15.6719C20.2319 15.7232 20.2031 15.7927 20.2031 15.8652V17.0207H13.25C13.1775 17.0207 13.108 17.0496 13.0567 17.1008L12.2734 17.8841V13.0912L13.4988 11.4669C14.3295 11.1591 15.0479 10.6073 15.5596 9.88396C16.0713 9.16064 16.3524 8.29956 16.3661 7.41366H20.2031V12.2399C20.2031 12.3124 20.2319 12.382 20.2832 12.4333C20.3345 12.4845 20.404 12.5133 20.4766 12.5133C20.5491 12.5133 20.6186 12.4845 20.6699 12.4333C20.7212 12.382 20.75 12.3124 20.75 12.2399V8.66366H21.4531V19.6051Z" fill="#666666"/>
<path d="M10.2617 6.72573C10.2976 6.72575 10.3332 6.71869 10.3664 6.70495C10.3996 6.69122 10.4297 6.67108 10.4551 6.64568C10.4805 6.62029 10.5006 6.59014 10.5144 6.55695C10.5281 6.52377 10.5352 6.4882 10.5352 6.45229V5.99791C10.5354 5.86472 10.5885 5.73706 10.6827 5.64292C10.7769 5.54878 10.9046 5.49585 11.0378 5.49573H12.9622C13.0733 5.49573 13.1814 5.53259 13.2693 5.60053C13.3573 5.66847 13.4203 5.76367 13.4484 5.87121C13.4765 5.97875 13.4681 6.09258 13.4246 6.19487C13.3811 6.29716 13.3049 6.38214 13.208 6.43651L12.003 7.1126C11.9606 7.1364 11.9253 7.17104 11.9008 7.21297C11.8762 7.2549 11.8633 7.30261 11.8633 7.35119V8.5426C11.8633 8.61512 11.8921 8.68467 11.9434 8.73595C11.9946 8.78723 12.0642 8.81604 12.1367 8.81604C12.2092 8.81604 12.2788 8.78723 12.3301 8.73595C12.3813 8.68467 12.4102 8.61512 12.4102 8.5426V7.51135L13.4755 6.91369C13.678 6.8002 13.8372 6.62273 13.9281 6.40907C14.019 6.19542 14.0365 5.95765 13.9778 5.733C13.9191 5.50835 13.7876 5.3095 13.6038 5.16761C13.42 5.02571 13.1944 4.94878 12.9622 4.94885H11.0378C10.7595 4.94914 10.4928 5.05981 10.296 5.25657C10.0992 5.45334 9.98857 5.72012 9.98828 5.99838V6.45276C9.98836 6.52521 10.0172 6.59466 10.0685 6.64585C10.1198 6.69704 10.1893 6.72577 10.2617 6.72573Z" fill="#666666"/>
<path d="M12.1367 9.3429C12.1008 9.34288 12.0652 9.34993 12.0321 9.36367C11.9989 9.3774 11.9687 9.39754 11.9433 9.42294C11.9179 9.44833 11.8978 9.47848 11.8841 9.51167C11.8703 9.54485 11.8633 9.58042 11.8633 9.61633V10.1051C11.8633 10.1776 11.8921 10.2472 11.9434 10.2984C11.9946 10.3497 12.0642 10.3785 12.1367 10.3785C12.2092 10.3785 12.2788 10.3497 12.3301 10.2984C12.3813 10.2472 12.4102 10.1776 12.4102 10.1051V9.61633C12.4102 9.58042 12.4031 9.54485 12.3894 9.51167C12.3756 9.47848 12.3555 9.44833 12.3301 9.42294C12.3047 9.39754 12.2746 9.3774 12.2414 9.36367C12.2082 9.34993 12.1726 9.34288 12.1367 9.3429V9.3429Z" fill="#666666"/>
<path d="M20.4766 13.3907C20.4406 13.3907 20.4051 13.3978 20.3719 13.4115C20.3387 13.4253 20.3086 13.4454 20.2832 13.4708C20.2578 13.4962 20.2376 13.5263 20.2239 13.5595C20.2102 13.5927 20.2031 13.6283 20.2031 13.6642V14.4411C20.2031 14.5136 20.2319 14.5831 20.2832 14.6344C20.3345 14.6857 20.404 14.7145 20.4766 14.7145C20.5491 14.7145 20.6186 14.6857 20.6699 14.6344C20.7212 14.5831 20.75 14.5136 20.75 14.4411V13.6642C20.75 13.6283 20.743 13.5927 20.7292 13.5595C20.7155 13.5263 20.6954 13.4962 20.67 13.4708C20.6446 13.4454 20.6144 13.4253 20.5812 13.4115C20.548 13.3978 20.5125 13.3907 20.4766 13.3907Z" fill="#666666"/>
</svg>
