<svg width="24" height="24" viewBox="0 0 24 24" fill="none" xmlns="http://www.w3.org/2000/svg">
<path d="M16.0864 7.14014C16.0905 7.21498 16.093 7.29014 16.093 7.36592C16.0928 8.21849 15.8265 9.04974 15.3312 9.74366C14.8359 10.4376 14.1363 10.9595 13.33 11.2367L12 12.9995L10.67 11.2367C9.86374 10.9595 9.16412 10.4376 8.6688 9.74366C8.17347 9.04974 7.90716 8.21849 7.90703 7.36592C7.90703 7.29014 7.90953 7.21498 7.91359 7.14014H3.52344V19.2495H20.4766V7.14014H16.0864Z" fill="#FFF5F5"/>
<path d="M3.52344 17.2941V19.2495H12V18.5441L10.75 17.2941H3.52344Z" fill="#FDBDB1"/>
<path d="M20.4766 17.2941H13.25C12.7619 17.7823 12.4881 18.0559 12 18.5441V19.2495H20.4766V17.2941Z" fill="#FDBDB1"/>
<path d="M20.4766 8.39014V19.2495H3.52344V8.39014H2.27344V19.7183L3.05469 20.4995H20.9453L21.7266 19.7183V8.39014H20.4766Z" fill="#474F54"/>
<path d="M16.0938 7.36601C16.0939 6.6139 15.8869 5.87628 15.4954 5.23411C15.1039 4.59194 14.543 4.07003 13.8744 3.72567C13.2057 3.38131 12.4551 3.22781 11.705 3.28201C10.9548 3.33621 10.2341 3.59602 9.62191 4.03293C9.00972 4.46983 8.52972 5.06695 8.23459 5.75873C7.93946 6.45052 7.84062 7.21024 7.9489 7.95451C8.05719 8.69878 8.36842 9.39884 8.84843 9.97785C9.32845 10.5569 9.95869 10.9924 10.67 11.2368L12 12.9996L13.33 11.2368C14.1364 10.9598 14.8362 10.4379 15.3317 9.74394C15.8271 9.05 16.0936 8.21868 16.0938 7.36601Z" fill="#FCD462"/>
<path d="M12.1367 8.81545C12.1008 8.81547 12.0652 8.80841 12.0321 8.79467C11.9989 8.78094 11.9687 8.7608 11.9433 8.7354C11.9179 8.71001 11.8978 8.67986 11.8841 8.64667C11.8703 8.61349 11.8633 8.57792 11.8633 8.54201V7.3506C11.8633 7.30202 11.8762 7.25431 11.9008 7.21238C11.9253 7.17045 11.9606 7.1358 12.003 7.11201L13.208 6.43592C13.3047 6.38144 13.3806 6.29647 13.424 6.19428C13.4673 6.09209 13.4756 5.97842 13.4475 5.87103C13.4194 5.76364 13.3566 5.66856 13.2688 5.60064C13.181 5.53273 13.0732 5.49579 12.9622 5.49561H11.0378C10.9045 5.49573 10.7768 5.54873 10.6825 5.64297C10.5883 5.73721 10.5353 5.86499 10.5352 5.99826V6.45264C10.5352 6.52516 10.5063 6.59471 10.4551 6.64599C10.4038 6.69726 10.3342 6.72607 10.2617 6.72607C10.1892 6.72607 10.1196 6.69726 10.0684 6.64599C10.0171 6.59471 9.98828 6.52516 9.98828 6.45264V5.99779C9.98869 5.71961 10.0994 5.45295 10.2962 5.25628C10.4929 5.05962 10.7596 4.94902 11.0378 4.94873H12.9622C13.1943 4.94872 13.4199 5.02568 13.6036 5.16756C13.7874 5.30945 13.9189 5.50825 13.9776 5.73285C14.0362 5.95746 14.0188 6.19517 13.9279 6.40879C13.8371 6.62242 13.678 6.79988 13.4755 6.91342L12.4102 7.51123V8.54248C12.4101 8.61493 12.3812 8.68438 12.3299 8.73557C12.2787 8.78676 12.2092 8.81549 12.1367 8.81545Z" fill="#FFF5F5"/>
<path d="M12.1367 10.3779C12.1008 10.378 12.0652 10.3709 12.0321 10.3572C11.9989 10.3434 11.9687 10.3233 11.9433 10.2979C11.9179 10.2725 11.8978 10.2423 11.8841 10.2092C11.8703 10.176 11.8633 10.1404 11.8633 10.1045V9.61621C11.8633 9.54369 11.8921 9.47414 11.9434 9.42286C11.9946 9.37158 12.0642 9.34277 12.1367 9.34277C12.2092 9.34277 12.2788 9.37158 12.3301 9.42286C12.3813 9.47414 12.4102 9.54369 12.4102 9.61621V10.105C12.4101 10.1774 12.3812 10.2469 12.3299 10.2981C12.2787 10.3492 12.2092 10.378 12.1367 10.3779Z" fill="#FFF5F5"/>
<path d="M12.2734 18.8199V12.6371L12 12.9996L11.7266 12.6371V18.8199C11.7266 18.8924 11.7554 18.962 11.8067 19.0132C11.8579 19.0645 11.9275 19.0933 12 19.0933C12.0725 19.0933 12.1421 19.0645 12.1933 19.0132C12.2446 18.962 12.2734 18.8924 12.2734 18.8199Z" fill="#FDBDB1"/>
<path d="M21.7266 8.11678H20.75V7.14022C20.75 7.10431 20.743 7.06874 20.7292 7.03556C20.7155 7.00237 20.6954 6.97222 20.67 6.94683C20.6446 6.92143 20.6144 6.90129 20.5812 6.88756C20.548 6.87382 20.5125 6.86676 20.4766 6.86678H16.337C16.2146 5.80235 15.705 4.8201 14.9052 4.10706C14.1055 3.39403 13.0715 3 12 3C10.9285 3 9.8945 3.39403 9.09475 4.10706C8.295 4.8201 7.7854 5.80235 7.66297 6.86678H3.52344C3.48752 6.86676 3.45196 6.87382 3.41877 6.88756C3.38559 6.90129 3.35544 6.92143 3.33004 6.94683C3.30465 6.97222 3.28451 7.00237 3.27077 7.03556C3.25704 7.06874 3.24998 7.10431 3.25 7.14022V8.11678H2.27344C2.23752 8.11676 2.20196 8.12382 2.16877 8.13756C2.13559 8.15129 2.10544 8.17143 2.08004 8.19683C2.05465 8.22222 2.03451 8.25237 2.02077 8.28556C2.00704 8.31874 1.99998 8.35431 2 8.39022V19.7183C2.00004 19.7909 2.02887 19.8604 2.08016 19.9116L2.86141 20.6929C2.91266 20.7442 2.98218 20.773 3.05469 20.773H20.9453C21.0178 20.773 21.0873 20.7442 21.1386 20.6929L21.9198 19.9116C21.9711 19.8604 22 19.7909 22 19.7183V8.39022C22 8.35431 21.993 8.31874 21.9792 8.28556C21.9655 8.25237 21.9454 8.22222 21.92 8.19683C21.8946 8.17143 21.8644 8.15129 21.8312 8.13756C21.798 8.12382 21.7625 8.11676 21.7266 8.11678ZM12 3.54647C12.9762 3.54768 13.915 3.92219 14.6241 4.59327C15.3331 5.26434 15.7586 6.18115 15.8134 7.15585C15.8173 7.22553 15.8195 7.29569 15.8195 7.36647C15.8194 8.16206 15.571 8.93776 15.1088 9.58532C14.6466 10.2329 13.9938 10.72 13.2414 10.9787C13.1899 10.9964 13.1448 11.029 13.1119 11.0724L12 12.5455L10.8884 11.0721C10.8555 11.0287 10.8104 10.996 10.7589 10.9783C10.0065 10.7197 9.35369 10.2326 8.8915 9.58503C8.42931 8.93746 8.18085 8.16175 8.18078 7.36616C8.18078 7.29538 8.18297 7.22553 8.18688 7.15553C8.24179 6.18095 8.66731 5.26426 9.37625 4.59326C10.0852 3.92226 11.0239 3.54776 12 3.54647ZM12.2734 18.6574L13.3633 17.5676H20.2031V18.9762H12.2734V18.6574ZM3.79688 7.41366H7.63391C7.64761 8.29956 7.92874 9.16064 8.44042 9.88396C8.95211 10.6073 9.67046 11.1591 10.5013 11.4669L11.7266 13.0912V17.8841L10.9433 17.1008C10.892 17.0496 10.8225 17.0207 10.75 17.0207H6.47188C6.39935 17.0207 6.3298 17.0495 6.27853 17.1008C6.22725 17.1521 6.19844 17.2216 6.19844 17.2941C6.19844 17.3666 6.22725 17.4362 6.27853 17.4875C6.3298 17.5388 6.39935 17.5676 6.47188 17.5676H10.6367L11.7266 18.6574V18.9762H3.79688V17.5676H5.04688C5.1194 17.5676 5.18895 17.5388 5.24022 17.4875C5.2915 17.4362 5.32031 17.3666 5.32031 17.2941C5.32031 17.2216 5.2915 17.1521 5.24022 17.1008C5.18895 17.0495 5.1194 17.0207 5.04688 17.0207H3.79688V7.41366ZM21.4531 19.6051L20.832 20.2262H3.16797L2.54688 19.6051V8.66366H3.25V19.2496C3.24998 19.2855 3.25704 19.3211 3.27077 19.3543C3.28451 19.3874 3.30465 19.4176 3.33004 19.443C3.35544 19.4684 3.38559 19.4885 3.41877 19.5023C3.45196 19.516 3.48752 19.5231 3.52344 19.523H20.4766C20.5125 19.5231 20.548 19.516 20.5812 19.5023C20.6144 19.4885 20.6446 19.4684 20.67 19.443C20.6954 19.4176 20.7155 19.3874 20.7292 19.3543C20.743 19.3211 20.75 19.2855 20.75 19.2496V15.8652C20.75 15.7927 20.7212 15.7232 20.6699 15.6719C20.6186 15.6206 20.5491 15.5918 20.4766 15.5918C20.404 15.5918 20.3345 15.6206 20.2832 15.6719C20.2319 15.7232 20.2031 15.7927 20.2031 15.8652V17.0207H13.25C13.1775 17.0207 13.108 17.0496 13.0567 17.1008L12.2734 17.8841V13.0912L13.4988 11.4669C14.3295 11.1591 15.0479 10.6073 15.5596 9.88396C16.0713 9.16064 16.3524 8.29956 16.3661 7.41366H20.2031V12.2399C20.2031 12.3124 20.2319 12.382 20.2832 12.4333C20.3345 12.4845 20.404 12.5133 20.4766 12.5133C20.5491 12.5133 20.6186 12.4845 20.6699 12.4333C20.7212 12.382 20.75 12.3124 20.75 12.2399V8.66366H21.4531V19.6051Z" fill="black"/>
<path d="M10.2617 6.72573C10.2976 6.72575 10.3332 6.71869 10.3664 6.70495C10.3996 6.69122 10.4297 6.67108 10.4551 6.64568C10.4805 6.62029 10.5006 6.59014 10.5144 6.55695C10.5281 6.52377 10.5352 6.4882 10.5352 6.45229V5.99791C10.5354 5.86472 10.5885 5.73706 10.6827 5.64292C10.7769 5.54878 10.9046 5.49585 11.0378 5.49573H12.9622C13.0733 5.49573 13.1814 5.53259 13.2693 5.60053C13.3573 5.66847 13.4203 5.76367 13.4484 5.87121C13.4765 5.97875 13.4681 6.09258 13.4246 6.19487C13.3811 6.29716 13.3049 6.38214 13.208 6.43651L12.003 7.1126C11.9606 7.1364 11.9253 7.17104 11.9008 7.21297C11.8762 7.2549 11.8633 7.30261 11.8633 7.35119V8.5426C11.8633 8.61512 11.8921 8.68467 11.9434 8.73595C11.9946 8.78723 12.0642 8.81604 12.1367 8.81604C12.2092 8.81604 12.2788 8.78723 12.3301 8.73595C12.3813 8.68467 12.4102 8.61512 12.4102 8.5426V7.51135L13.4755 6.91369C13.678 6.8002 13.8372 6.62273 13.9281 6.40907C14.019 6.19542 14.0365 5.95765 13.9778 5.733C13.9191 5.50835 13.7876 5.3095 13.6038 5.16761C13.42 5.02571 13.1944 4.94878 12.9622 4.94885H11.0378C10.7595 4.94914 10.4928 5.05981 10.296 5.25657C10.0992 5.45334 9.98857 5.72012 9.98828 5.99838V6.45276C9.98836 6.52521 10.0172 6.59466 10.0685 6.64585C10.1198 6.69704 10.1893 6.72577 10.2617 6.72573Z" fill="black"/>
<path d="M12.1367 9.3429C12.1008 9.34288 12.0652 9.34993 12.0321 9.36367C11.9989 9.3774 11.9687 9.39754 11.9433 9.42294C11.9179 9.44833 11.8978 9.47848 11.8841 9.51167C11.8703 9.54485 11.8633 9.58042 11.8633 9.61633V10.1051C11.8633 10.1776 11.8921 10.2472 11.9434 10.2984C11.9946 10.3497 12.0642 10.3785 12.1367 10.3785C12.2092 10.3785 12.2788 10.3497 12.3301 10.2984C12.3813 10.2472 12.4102 10.1776 12.4102 10.1051V9.61633C12.4102 9.58042 12.4031 9.54485 12.3894 9.51167C12.3756 9.47848 12.3555 9.44833 12.3301 9.42294C12.3047 9.39754 12.2746 9.3774 12.2414 9.36367C12.2082 9.34993 12.1726 9.34288 12.1367 9.3429Z" fill="black"/>
<path d="M20.4766 13.3907C20.4406 13.3907 20.4051 13.3978 20.3719 13.4115C20.3387 13.4253 20.3086 13.4454 20.2832 13.4708C20.2578 13.4962 20.2376 13.5263 20.2239 13.5595C20.2102 13.5927 20.2031 13.6283 20.2031 13.6642V14.4411C20.2031 14.5136 20.2319 14.5831 20.2832 14.6344C20.3345 14.6857 20.404 14.7145 20.4766 14.7145C20.5491 14.7145 20.6186 14.6857 20.6699 14.6344C20.7212 14.5831 20.75 14.5136 20.75 14.4411V13.6642C20.75 13.6283 20.743 13.5927 20.7292 13.5595C20.7155 13.5263 20.6954 13.4962 20.67 13.4708C20.6446 13.4454 20.6144 13.4253 20.5812 13.4115C20.548 13.3978 20.5125 13.3907 20.4766 13.3907Z" fill="black"/>
</svg>
