<svg width="24" height="24" viewBox="0 0 24 24" fill="none" xmlns="http://www.w3.org/2000/svg">
<path d="M12.8395 12.1318C12.5225 12.2568 12.1698 12.2568 11.8529 12.1318L5.70117 9.70537V14.9919C5.70117 15.3381 5.91283 15.6492 6.23492 15.7762L11.8298 17.9829C12.1616 18.1138 12.5309 18.1138 12.8627 17.9829L18.4575 15.776C18.7798 15.649 18.9914 15.338 18.9914 14.9917V9.7052L12.8395 12.1318Z" fill="#3E4B5A"/>
<path d="M13.6362 11.8179L12.8403 12.1317C12.6533 12.2056 12.4537 12.2353 12.2563 12.222V18.0779C12.4616 18.0911 12.6689 18.0598 12.8634 17.9829L13.6362 17.6781V11.8179Z" fill="#374451"/>
<path d="M12.3464 12.2257C12.1789 12.2257 12.0114 12.1943 11.8529 12.1318L5.70117 9.70544V14.9919C5.70117 15.3382 5.91283 15.6492 6.23492 15.7763L11.8298 17.983C11.9958 18.0484 12.171 18.0812 12.3464 18.0812V12.2257Z" fill="#576574"/>
<path d="M6.9904 15.5687V10.2139L5.70117 9.70544V14.9919C5.70117 15.3382 5.91299 15.6492 6.23492 15.7763L7.11662 16.1241C7.03522 15.9542 6.9904 15.7652 6.9904 15.5687Z" fill="#3E4B5A"/>
<path d="M22.5413 8.07241L12.8401 4.24601C12.5231 4.12096 12.1704 4.12096 11.8535 4.24601L2.15232 8.07241C1.94923 8.15264 1.94923 8.43999 2.15232 8.52022L11.8535 12.3466C12.1706 12.4717 12.5232 12.4717 12.8401 12.3466L22.5413 8.52022C22.7444 8.43999 22.7444 8.15264 22.5413 8.07241Z" fill="#576574"/>
<path d="M5.20327 8.52022C5.00018 8.43999 5.00018 8.15264 5.20327 8.07241L13.8724 4.6532L12.8401 4.24601C12.5232 4.12096 12.1706 4.12096 11.8535 4.24601L2.15232 8.07241C1.94923 8.15264 1.94923 8.43999 2.15232 8.52022L11.8535 12.3466C12.1706 12.4717 12.5232 12.4717 12.8401 12.3466L13.8724 11.9396L5.20327 8.52022Z" fill="#3E4B5A"/>
<path d="M12.2851 6.68576C11.8937 6.71144 11.5604 6.99661 11.4671 7.37762C11.4514 7.4414 11.4432 7.50401 11.4415 7.56494C11.4372 7.72724 11.5386 7.8721 11.6931 7.92144C11.8993 7.9869 12.1188 8.02249 12.3466 8.02249C12.5787 8.02249 12.8023 7.98556 13.0118 7.91758C13.1526 7.87176 13.2514 7.73966 13.2519 7.59162C13.2519 7.59078 13.2519 7.58978 13.2519 7.58894C13.2518 7.06861 12.8129 6.65084 12.2851 6.68576Z" fill="#3E4B5A"/>
<path d="M12.7964 7.9213C12.6418 7.87212 12.5404 7.72727 12.545 7.56496C12.5466 7.50386 12.5547 7.44126 12.5703 7.37764C12.6203 7.17304 12.7402 6.99663 12.9005 6.87259C12.7325 6.74268 12.5176 6.67034 12.2855 6.68561C11.8941 6.71146 11.5607 6.99663 11.4674 7.37764C11.4518 7.44126 11.4437 7.50386 11.442 7.56496C11.4375 7.72727 11.5389 7.87212 11.6935 7.9213C11.8996 7.98693 12.1191 8.02251 12.3469 8.02251C12.5376 8.02251 12.7222 7.99717 12.8983 7.95067C12.864 7.94161 12.83 7.93204 12.7964 7.9213Z" fill="#374451"/>
<path d="M2.41864 16.0558H1.58176C1.44731 16.0558 1.33838 16.1647 1.33838 16.2992V18.4597C1.33838 18.5941 1.44731 18.7031 1.58176 18.7031H2.41864C2.55309 18.7031 2.66202 18.5941 2.66202 18.4597V16.2992C2.66202 16.1647 2.55292 16.0558 2.41864 16.0558Z" fill="#FECA57"/>
<path d="M2.24072 18.4597V16.2992C2.24072 16.1758 2.33253 16.0742 2.45137 16.0581C2.44063 16.0568 2.42972 16.0558 2.41864 16.0558H1.58176C1.44731 16.0558 1.33838 16.1647 1.33838 16.2992V18.4597C1.33838 18.5941 1.44731 18.7031 1.58176 18.7031H2.41864C2.42972 18.7031 2.44063 18.7021 2.45137 18.7007C2.33253 18.6846 2.24072 18.5829 2.24072 18.4597Z" fill="#F4B537"/>
<path d="M22.6437 7.77218L13.1373 4.02265C12.9718 3.95719 12.7845 4.03843 12.7192 4.2041C12.6539 4.36976 12.7352 4.55691 12.9008 4.6222L22.2145 8.29586L12.706 12.0462C12.4582 12.1441 12.1905 12.1389 11.9559 12.0462L3.02692 8.52447L11.1359 7.7851C11.2014 7.99223 11.3625 8.15873 11.5799 8.22788C12.0584 8.38029 12.5908 8.38734 13.0955 8.22352C13.3715 8.13389 13.5576 7.88011 13.5585 7.58839C13.5585 6.89585 12.9752 6.3146 12.2482 6.36344C11.7801 6.39449 11.3682 6.70216 11.1933 7.13268L3.65349 7.82002L11.6333 4.67256C11.7989 4.60726 11.8802 4.42011 11.8149 4.25445C11.7496 4.08895 11.5623 4.00755 11.3968 4.07301L2.01816 7.77218C1.80164 7.85761 1.66182 8.06306 1.66182 8.29586V15.733H1.56564C1.25378 15.733 1 15.9868 1 16.2988V18.4591C1 18.7712 1.25378 19.025 1.56564 19.025H2.40253C2.71455 19.025 2.96834 18.7712 2.96834 18.4591V16.2988C2.96834 15.9868 2.71455 15.733 2.40253 15.733H2.30635V8.93318L5.36368 10.139V14.9914C5.36368 15.4881 5.66983 15.9052 6.10153 16.0756C6.17169 16.1033 9.75589 17.517 11.6962 18.2822C12.1054 18.4437 12.5562 18.4439 12.9656 18.2822L18.5606 16.0756C19.0088 15.8986 19.2985 15.4732 19.2985 14.9914V13.5891C19.2985 13.411 19.1541 13.2668 18.976 13.2668C18.7981 13.2668 18.6538 13.411 18.6538 13.5891V14.9914C18.6538 15.2066 18.5244 15.397 18.3241 15.4758C12.3063 17.8495 12.7259 17.6859 12.6533 17.7085V12.7307C12.7513 12.7112 12.8481 12.6832 12.9425 12.6459L18.6538 10.3931V12.085C18.6538 12.2631 18.7981 12.4073 18.976 12.4073C19.1541 12.4073 19.2983 12.2631 19.2983 12.085V10.139L22.6437 8.81954C22.8602 8.73411 23 8.5285 23 8.29586C23 8.06306 22.8602 7.85761 22.6437 7.77218ZM12.2907 7.00663C12.6296 6.98448 12.9139 7.25001 12.9139 7.5899C12.9139 7.59695 12.9064 7.60719 12.8965 7.61054C12.5354 7.7277 12.1373 7.72888 11.7753 7.61373C11.7581 7.60819 11.7476 7.59275 11.7481 7.57311C11.756 7.27838 11.9946 7.02627 12.2907 7.00663ZM2.32364 16.3777V18.3804H1.64453V16.3777H2.32364ZM12.0087 17.7087C11.9361 17.686 12.3542 17.849 6.33803 15.476C6.144 15.3995 6.00821 15.2125 6.00821 14.9914V10.3933L11.7192 12.6459C11.8147 12.6835 11.9152 12.7124 12.0087 12.7309V17.7087Z" fill="black"/>
</svg>
