<svg width="24" height="24" viewBox="0 0 24 24" fill="none" xmlns="http://www.w3.org/2000/svg">
<path d="M22.6437 7.77218L13.1373 4.02265C12.9718 3.95719 12.7845 4.03843 12.7192 4.2041C12.6539 4.36976 12.7352 4.55691 12.9008 4.6222L22.2145 8.29586L12.706 12.0462C12.4582 12.1441 12.1905 12.1389 11.9559 12.0462L3.02692 8.52447L11.1359 7.7851C11.2014 7.99223 11.3625 8.15873 11.5799 8.22788C12.0584 8.38029 12.5908 8.38734 13.0955 8.22352C13.3715 8.13389 13.5576 7.88011 13.5585 7.58839C13.5585 6.89585 12.9752 6.3146 12.2482 6.36344C11.7801 6.39449 11.3682 6.70216 11.1933 7.13268L3.65349 7.82002L11.6333 4.67256C11.7989 4.60726 11.8802 4.42011 11.8149 4.25445C11.7496 4.08895 11.5623 4.00755 11.3968 4.07301L2.01816 7.77218C1.80164 7.85761 1.66182 8.06306 1.66182 8.29586V15.733H1.56564C1.25378 15.733 1 15.9868 1 16.2988V18.4591C1 18.7712 1.25378 19.025 1.56564 19.025H2.40253C2.71455 19.025 2.96834 18.7712 2.96834 18.4591V16.2988C2.96834 15.9868 2.71455 15.733 2.40253 15.733H2.30635V8.93318L5.36368 10.139V14.9914C5.36368 15.4881 5.66983 15.9052 6.10153 16.0756C6.17169 16.1033 9.75589 17.517 11.6962 18.2822C12.1054 18.4437 12.5562 18.4439 12.9656 18.2822L18.5606 16.0756C19.0088 15.8986 19.2985 15.4732 19.2985 14.9914V13.5891C19.2985 13.411 19.1541 13.2668 18.976 13.2668C18.7981 13.2668 18.6538 13.411 18.6538 13.5891V14.9914C18.6538 15.2066 18.5244 15.397 18.3241 15.4758C12.3063 17.8495 12.7259 17.6859 12.6533 17.7085V12.7307C12.7513 12.7112 12.8481 12.6832 12.9425 12.6459L18.6538 10.3931V12.085C18.6538 12.2631 18.7981 12.4073 18.976 12.4073C19.1541 12.4073 19.2983 12.2631 19.2983 12.085V10.139L22.6437 8.81954C22.8602 8.73411 23 8.5285 23 8.29586C23 8.06306 22.8602 7.85761 22.6437 7.77218V7.77218ZM12.2907 7.00663C12.6296 6.98448 12.9139 7.25001 12.9139 7.5899C12.9139 7.59695 12.9064 7.60719 12.8965 7.61054C12.5354 7.7277 12.1373 7.72888 11.7753 7.61373C11.7581 7.60819 11.7476 7.59275 11.7481 7.57311C11.756 7.27838 11.9946 7.02627 12.2907 7.00663ZM2.32364 16.3777V18.3804H1.64453V16.3777H2.32364ZM12.0087 17.7087C11.9361 17.686 12.3542 17.849 6.33803 15.476C6.144 15.3995 6.00821 15.2125 6.00821 14.9914V10.3933L11.7192 12.6459C11.8147 12.6835 11.9152 12.7124 12.0087 12.7309V17.7087Z" fill="#666666"/>
</svg>
