<svg width="24" height="24" viewBox="0 0 24 24" fill="none" xmlns="http://www.w3.org/2000/svg">
<path d="M11.9603 21.24C16.7321 21.24 20.6003 17.3717 20.6003 12.6C20.6003 7.82822 16.7321 3.95996 11.9603 3.95996C7.18857 3.95996 3.32031 7.82822 3.32031 12.6C3.32031 17.3717 7.18857 21.24 11.9603 21.24Z" fill="#BD53B5"/>
<path d="M11.96 21.5599C7.01936 21.5599 3 17.5405 3 12.5999C3 7.65925 7.01936 3.63989 11.96 3.63989C16.9006 3.63989 20.92 7.65925 20.92 12.5999C20.92 17.5405 16.9006 21.5599 11.96 21.5599ZM11.96 4.27989C7.37232 4.27989 3.64 8.01221 3.64 12.5999C3.64 17.1876 7.37232 20.9199 11.96 20.9199C16.5478 20.9199 20.28 17.1876 20.28 12.5999C20.28 8.01221 16.5478 4.27989 11.96 4.27989Z" fill="black"/>
<path d="M5.71974 4.48221C5.91985 4.48221 6.08206 4.31999 6.08206 4.11989C6.08206 3.91978 5.91985 3.75757 5.71974 3.75757C5.51964 3.75757 5.35742 3.91978 5.35742 4.11989C5.35742 4.31999 5.51964 4.48221 5.71974 4.48221Z" fill="black"/>
<path d="M20.44 19.5222C20.6401 19.5222 20.8023 19.36 20.8023 19.1599C20.8023 18.9598 20.6401 18.7976 20.44 18.7976C20.2399 18.7976 20.0776 18.9598 20.0776 19.1599C20.0776 19.36 20.2399 19.5222 20.44 19.5222Z" fill="black"/>
<path d="M20.4119 5.05236C20.3301 5.05236 20.2482 5.02108 20.1857 4.9586L19.2807 4.05365C19.1558 3.92869 19.1558 3.72613 19.2807 3.60117C19.4057 3.47621 19.6083 3.47621 19.7332 3.60117L20.6382 4.50613C20.7631 4.63109 20.7631 4.83364 20.6382 4.9586C20.5757 5.02116 20.4938 5.05236 20.4119 5.05236Z" fill="black"/>
<path d="M19.507 5.05236C19.4251 5.05236 19.3432 5.02108 19.2807 4.9586C19.1558 4.83364 19.1558 4.63109 19.2807 4.50613L20.1857 3.60117C20.3106 3.47621 20.5132 3.47621 20.6382 3.60117C20.7631 3.72613 20.7631 3.92869 20.6382 4.05365L19.7332 4.9586C19.6707 5.02116 19.5888 5.05236 19.507 5.05236Z" fill="black"/>
<path d="M17.3066 15.3412C17.3066 15.3412 18.5866 14.0612 16.9866 12.4612H13.7866L14.1066 14.9501C14.1066 14.9501 15.3866 16.9412 16.6666 15.0212L17.3066 15.3412Z" fill="#6B4F5B"/>
<path d="M15.4617 16.1764C15.4579 16.1764 15.4542 16.1764 15.4504 16.1764C14.5201 16.1686 13.8645 15.1658 13.8373 15.123C13.8113 15.0832 13.7951 15.038 13.7889 14.9908L13.4689 12.502C13.4573 12.4107 13.4854 12.3188 13.5461 12.2498C13.607 12.1808 13.6945 12.1412 13.7864 12.1412H16.9864C17.0714 12.1412 17.1526 12.175 17.2126 12.235C19.0179 14.0403 17.5477 15.5525 17.5326 15.5675C17.4348 15.6648 17.2861 15.6883 17.1633 15.6275L16.7661 15.4289C16.3745 15.9252 15.9366 16.1764 15.4617 16.1764ZM14.4138 14.8328C14.5851 15.07 15.011 15.5338 15.4573 15.5364C15.766 15.543 16.0923 15.3052 16.4001 14.8436C16.4898 14.7096 16.6654 14.6625 16.8094 14.7349L17.2194 14.9399C17.4538 14.5919 17.7888 13.7869 16.8507 12.7812H14.1501L14.4138 14.8328Z" fill="black"/>
<path d="M15.48 10.9999C14.84 8.43995 16.2092 6.02019 17.3655 4.75451C17.3655 4.75451 13.1508 5.45939 12.92 9.07995C12.92 9.07995 11.5461 5.51131 12.6 3.31995C12.6 3.31995 10.4901 5.34275 10.598 9.52434C10.598 9.52434 8.6318 8.35171 9.39996 5.87995C9.39996 5.87995 7.76452 8.32371 8.92364 10.3941C8.92364 10.3941 7.72524 10.5316 6.77148 9.56347C6.77148 9.56347 7.09908 11.1295 8.11996 11.6399C9.39996 12.2799 10.247 11.9321 10.247 11.9321" fill="#FFCE56"/>
<path d="M9.61516 12.3453C9.20172 12.3453 8.6386 12.2568 7.977 11.9261C6.83076 11.353 6.47308 9.69909 6.45844 9.62893C6.4294 9.49005 6.49548 9.34845 6.62044 9.28141C6.74572 9.21389 6.90012 9.23781 6.99964 9.33893C7.4818 9.82829 8.0334 9.99877 8.41524 10.0552C7.64036 7.97405 9.0682 5.80045 9.13412 5.70189C9.22244 5.56989 9.39428 5.52285 9.53804 5.59109C9.68148 5.65949 9.75292 5.82293 9.70572 5.97485C9.26028 7.40829 9.81964 8.34941 10.2798 8.84093C10.397 5.03325 12.2932 3.17061 12.3785 3.08893C12.4904 2.98189 12.6626 2.97021 12.7879 3.06077C12.9132 3.15157 12.9554 3.31909 12.8885 3.45861C12.2676 4.74941 12.5598 6.59797 12.861 7.79021C13.8588 5.05037 17.2738 4.44533 17.3128 4.43877C17.4488 4.41693 17.5816 4.48173 17.6469 4.60141C17.7119 4.72141 17.6941 4.86941 17.602 4.97013C16.3498 6.34109 15.216 8.62469 15.7904 10.9221C15.8335 11.0937 15.7291 11.2674 15.5576 11.3103C15.3866 11.3536 15.2123 11.2487 15.1697 11.0775C14.6356 8.94125 15.4188 6.83421 16.4916 5.32917C16.1578 5.44853 15.7663 5.61589 15.374 5.84541C14.0456 6.62261 13.3275 7.71773 13.2393 9.10013C13.2296 9.25029 13.1172 9.37341 12.9684 9.39605C12.8218 9.41789 12.6752 9.33509 12.6212 9.19477C12.5764 9.07853 11.7643 6.93317 11.8956 4.90725C11.3852 5.89709 10.8641 7.43085 10.9179 9.51581C10.921 9.63237 10.8602 9.74141 10.7596 9.80037C10.6591 9.85925 10.5343 9.85877 10.4341 9.79893C10.4182 9.78941 9.27508 9.08829 8.97444 7.67405C8.77628 8.44565 8.7254 9.38485 9.20284 10.2376C9.25516 10.3309 9.25724 10.4444 9.20844 10.5396C9.15964 10.6349 9.06644 10.6996 8.96004 10.7118C8.91988 10.7162 8.20908 10.7904 7.41972 10.4141C7.60644 10.7812 7.8802 11.162 8.263 11.3533C9.38116 11.9124 10.118 11.6386 10.1253 11.6358C10.2892 11.5683 10.4756 11.6466 10.543 11.8102C10.61 11.9736 10.5319 12.1607 10.3684 12.2277C10.3476 12.2368 10.0731 12.3453 9.61516 12.3453Z" fill="black"/>
<path d="M14.1064 14.0824C14.99 14.0824 15.7064 13.4883 15.7064 12.6H16.9864C16.9864 11.3563 15.9835 10.0264 14.7464 10.0264H12.918C9.86292 10.0264 7.38636 12.7118 7.38636 15.783V16.782H8.47092C7.2078 16.782 6.15132 17.5692 5.86572 18.7236C7.42812 20.2784 9.58172 21.2398 11.96 21.2398C13.3352 21.2398 14.6345 20.917 15.7887 20.3454V19.6398V19.3541C15.7887 17.864 14.5871 16.782 13.1048 16.782H14.1063V14.0824H14.1064Z" fill="white"/>
<path d="M11.9598 21.5599C9.57525 21.5599 7.33077 20.6331 5.63965 18.9505C5.55997 18.8711 5.52781 18.7558 5.55477 18.6467C5.76213 17.8086 6.31869 17.1467 7.06605 16.78V15.783C7.06605 12.4891 9.74573 9.70642 12.9177 9.70642H14.7461C16.2113 9.70642 17.3061 11.2341 17.3061 12.6C17.3061 12.7767 17.1629 12.92 16.9861 12.92H15.9985C15.8635 13.6875 15.2469 14.2608 14.4261 14.3797V16.7467C15.4305 17.2097 16.1085 18.1917 16.1085 19.3543V20.3455C16.1085 20.4672 16.0395 20.5783 15.9304 20.6323C14.6873 21.2479 13.3514 21.5599 11.9598 21.5599ZM6.22605 18.6282C7.77981 20.1075 9.80837 20.9199 11.9598 20.9199C13.1861 20.9199 14.3651 20.6591 15.4685 20.1443V19.3543C15.4685 18.0703 14.4523 17.1021 13.1045 17.1021C12.9276 17.1021 12.7845 16.9588 12.7845 16.7821C12.7845 16.6054 12.9276 16.4621 13.1045 16.4621H13.7861V14.0826C13.7861 13.9059 13.9292 13.7626 14.1061 13.7626C14.8477 13.7626 15.3861 13.2737 15.3861 12.6001C15.3861 12.4234 15.5292 12.2801 15.7061 12.2801H16.6411C16.4939 11.3252 15.718 10.3465 14.7461 10.3465H12.9177C10.0927 10.3465 7.70605 12.8362 7.70605 15.7831V16.4621H8.47077C8.64749 16.4621 8.79077 16.6054 8.79077 16.7821C8.79077 16.9588 8.64749 17.1021 8.47077 17.1021C7.41421 17.102 6.53437 17.7082 6.22605 18.6282Z" fill="black"/>
<path d="M11.9604 11.3199C11.9604 12.0268 12.5335 12.5999 13.2404 12.5999H16.9868C16.9867 11.425 16.0912 10.1746 14.9491 10.0399H13.2404C12.5335 10.0399 11.9604 10.613 11.9604 11.3199Z" fill="#E66353"/>
<path d="M16.9864 12.9198H13.2401C12.358 12.9198 11.6401 12.202 11.6401 11.3198C11.6401 10.4377 12.358 9.71985 13.2401 9.71985H14.9489C14.9613 9.71985 14.9738 9.72065 14.9864 9.72201C16.3742 9.88577 17.3064 11.3422 17.3064 12.5998C17.3064 12.7766 17.1633 12.9198 16.9864 12.9198ZM13.2401 10.3598C12.7108 10.3598 12.2801 10.7905 12.2801 11.3198C12.2801 11.8492 12.7108 12.2798 13.2401 12.2798H16.6417C16.4986 11.3366 15.7486 10.4675 14.9293 10.3598H13.2401Z" fill="black"/>
<path d="M14.3063 11.9464C14.4831 11.9464 14.6263 11.8031 14.6263 11.6264C14.6263 11.4497 14.4831 11.3064 14.3063 11.3064C14.1296 11.3064 13.9863 11.4497 13.9863 11.6264C13.9863 11.8031 14.1296 11.9464 14.3063 11.9464Z" fill="black"/>
<path d="M16.666 15.3411C16.6051 15.3411 16.5436 15.3237 16.4888 15.2873L15.5288 14.6473C15.3816 14.5493 15.342 14.3506 15.4401 14.2036C15.5376 14.0564 15.736 14.0165 15.8839 14.1149L16.8439 14.7549C16.9911 14.8529 17.0308 15.0516 16.9326 15.1986C16.8711 15.2911 16.7695 15.3411 16.666 15.3411Z" fill="black"/>
</svg>
