<svg width="24" height="24" viewBox="0 0 24 24" fill="none" xmlns="http://www.w3.org/2000/svg">
<path d="M20.92 12.5999C20.92 9.74088 19.5548 7.06585 17.2575 5.37817C17.3714 5.23361 17.4866 5.09632 17.6018 4.97024C17.694 4.86944 17.7118 4.72153 17.6468 4.60153C17.5815 4.48185 17.4486 4.41696 17.3127 4.43888C17.2989 4.4412 16.8618 4.51913 16.2596 4.73921C15.1916 4.15409 14.0079 3.79665 12.7926 3.68321C12.822 3.60689 12.8533 3.53161 12.8884 3.45865C12.9553 3.31913 12.9131 3.1516 12.7878 3.0608C12.6625 2.97016 12.4902 2.98192 12.3784 3.08896C12.353 3.1132 12.1664 3.29849 11.9158 3.64105C6.99552 3.66505 3 7.67416 3 12.5999C3 15.0841 4.01672 17.3347 5.6552 18.9593C5.66376 18.967 5.6704 18.976 5.67984 18.9827C7.298 20.5751 9.51576 21.5599 11.96 21.5599C13.3754 21.5599 14.7143 21.2288 15.9056 20.6419C15.9138 20.6387 15.9206 20.6341 15.9283 20.6302C18.8832 19.1642 20.92 16.1162 20.92 12.5999V12.5999ZM20.28 12.5999C20.28 15.6774 18.5993 18.3678 16.1087 19.8071V19.3543C16.1087 18.1918 15.4306 17.2098 14.4262 16.7468V15.7659C14.6972 15.9834 15.0479 16.1731 15.4503 16.1765H15.4616C15.9366 16.1765 16.3744 15.9252 16.766 15.4288L17.1632 15.6274C17.286 15.6882 17.4348 15.6647 17.5326 15.5674C17.5474 15.5526 18.9714 14.0854 17.2899 12.3163C17.185 11.333 16.5494 10.3301 15.6458 9.91145C15.5774 8.42337 16.1542 6.98825 16.8822 5.89617C19.0134 7.46369 20.28 9.9464 20.28 12.5999ZM13.24 10.3599C13.2636 10.3599 13.2844 10.3514 13.3066 10.3465H14.7462C15.7181 10.3465 16.4939 11.3251 16.6412 12.2799H13.24C12.7106 12.2799 12.28 11.8493 12.28 11.3199C12.28 10.7906 12.7106 10.3599 13.24 10.3599ZM15.9987 12.9201H16.9712C17.7557 13.8614 17.4425 14.6093 17.2194 14.9401L16.8269 14.7437L15.8837 14.1149C15.7358 14.0166 15.5374 14.0565 15.4399 14.2036C15.3418 14.3506 15.3815 14.5494 15.5286 14.6474L16.2063 15.0991C15.9574 15.3908 15.7018 15.5416 15.457 15.5364C15.0195 15.5338 14.6036 15.0898 14.4261 14.8485V14.3797C15.2472 14.2609 15.8638 13.6876 15.9987 12.9201V12.9201ZM14.9966 9.72273C14.9144 9.71281 14.8311 9.70657 14.7462 9.70657H12.9178C11.3103 9.70657 9.83112 10.4231 8.7612 11.5569C8.59648 11.5026 8.42984 11.437 8.2632 11.3538C7.8804 11.1623 7.60664 10.7816 7.41992 10.4146C8.20928 10.7908 8.92008 10.7166 8.96024 10.7122C9.06664 10.7001 9.15992 10.6354 9.20864 10.5401C9.25736 10.4448 9.25536 10.3314 9.20304 10.2379C8.72552 9.38529 8.77648 8.44609 8.97464 7.67449C9.27528 9.08873 10.4184 9.78977 10.4343 9.79937C10.5345 9.85921 10.6593 9.85969 10.7598 9.80081C10.8604 9.74193 10.9212 9.63281 10.9181 9.51625C10.8643 7.43129 11.3854 5.89753 11.8958 4.90769C11.7645 6.93361 12.5767 9.07897 12.6214 9.19521C12.6754 9.33553 12.822 9.41833 12.9686 9.39649C13.1173 9.37385 13.2298 9.25073 13.2395 9.10057C13.3277 7.71825 14.0458 6.62304 15.3742 5.84584C15.7686 5.6152 16.1618 5.44729 16.4964 5.32785C15.8254 6.27017 14.9747 7.84088 14.9966 9.72273V9.72273ZM15.493 5.06697C14.498 5.55841 13.3678 6.39856 12.861 7.79025C12.6212 6.84137 12.3888 5.47729 12.6164 4.30888C13.6142 4.38784 14.5909 4.64401 15.493 5.06697V5.06697ZM11.4933 4.29377C10.949 5.23817 10.3443 6.74265 10.2797 8.84105C9.81952 8.34945 9.26016 7.4084 9.7056 5.97496C9.7528 5.82312 9.68136 5.65969 9.53792 5.59121C9.39416 5.52289 9.22232 5.56993 9.134 5.70201C9.06808 5.80057 7.64024 7.97417 8.41512 10.0553C8.03328 9.99873 7.48152 9.82841 6.99952 9.33905C6.9 9.23793 6.7456 9.21409 6.62032 9.28153C6.49536 9.34857 6.4292 9.49009 6.45832 9.62905C6.47304 9.69921 6.83064 11.3531 7.97704 11.9262C8.09176 11.9836 8.20712 12.0348 8.32232 12.0808C7.54152 13.1146 7.06624 14.4022 7.06624 15.7831V16.7802C6.48344 17.0662 6.01936 17.5333 5.74376 18.1218C4.4364 16.6516 3.64 14.7174 3.64 12.5999C3.64 8.16896 7.122 4.53681 11.4933 4.29377V4.29377ZM6.23512 18.6286C6.54456 17.7106 7.41592 17.1021 8.47096 17.1021C8.64768 17.1021 8.79096 16.9588 8.79096 16.7821C8.79096 16.6054 8.64768 16.4621 8.47096 16.4621H7.70624V15.783C7.70624 13.1994 9.5408 10.968 11.8968 10.4569C11.7359 10.7064 11.64 11.0016 11.64 11.3199C11.64 12.2021 12.3578 12.9199 13.24 12.9199H15.3372C15.1946 13.4216 14.7232 13.7626 14.1062 13.7626C13.9294 13.7626 13.7862 13.9058 13.7862 14.0826V16.4621H13.1046C12.9278 16.4621 12.7846 16.6054 12.7846 16.7821C12.7846 16.9588 12.9278 17.1021 13.1046 17.1021C14.4525 17.1021 15.4687 18.0704 15.4687 19.3542V20.1413C14.4018 20.6397 13.2133 20.9198 11.96 20.9198C9.74328 20.9199 7.72792 20.0468 6.23512 18.6286V18.6286Z" fill="#666666"/>
<path d="M5.71974 4.48237C5.9199 4.48237 6.08214 4.32013 6.08214 4.11997C6.08214 3.91981 5.9199 3.75757 5.71974 3.75757C5.51966 3.75757 5.35742 3.91981 5.35742 4.11997C5.35742 4.32013 5.51966 4.48237 5.71974 4.48237Z" fill="#666666"/>
<path d="M20.44 18.7976C20.2399 18.7976 20.0776 18.9598 20.0776 19.16C20.0776 19.3601 20.2399 19.5224 20.44 19.5224C20.6401 19.5224 20.8024 19.3602 20.8024 19.16C20.8024 18.9598 20.6401 18.7976 20.44 18.7976V18.7976Z" fill="#666666"/>
<path d="M19.2813 4.95881C19.3438 5.02129 19.4257 5.05257 19.5075 5.05257C19.5894 5.05257 19.6713 5.02129 19.7338 4.95881L19.96 4.73249L20.1862 4.95873C20.2487 5.02121 20.3306 5.05249 20.4125 5.05249C20.4943 5.05249 20.5762 5.02121 20.6387 4.95873C20.7637 4.83377 20.7637 4.63121 20.6387 4.50625L20.4125 4.28001L20.6387 4.05377C20.7637 3.92881 20.7637 3.72625 20.6387 3.60129C20.5137 3.47633 20.3112 3.47633 20.1862 3.60129L19.96 3.82753L19.7338 3.60129C19.6088 3.47633 19.4062 3.47633 19.2813 3.60129C19.1563 3.72625 19.1563 3.92881 19.2813 4.05377L19.5075 4.28001L19.2813 4.50625C19.1562 4.63129 19.1562 4.83377 19.2813 4.95881V4.95881Z" fill="#666666"/>
<path d="M14.3063 11.9464C14.4831 11.9464 14.6263 11.8031 14.6263 11.6264C14.6263 11.4497 14.4831 11.3064 14.3063 11.3064C14.1296 11.3064 13.9863 11.4497 13.9863 11.6264C13.9863 11.8031 14.1296 11.9464 14.3063 11.9464Z" fill="#666666"/>
</svg>
