<svg width="24" height="24" viewBox="0 0 24 24" fill="none" xmlns="http://www.w3.org/2000/svg">
<path d="M13.8707 12.0003C13.775 11.9297 13.6484 11.901 13.5251 11.9392L10.2439 12.9549C10.0803 13.0055 9.96875 13.1568 9.96875 13.328V17.5468C9.96875 17.7532 10.1457 17.9374 10.3594 17.9374C10.3981 17.9374 13.7561 16.9043 13.7561 16.9043C13.9197 16.8537 14.0312 16.7024 14.0312 16.5312C14.0312 16.5312 14.0312 12.3187 14.0312 12.3124C14.0312 12.1833 13.9664 12.0708 13.8707 12.0003ZM13.25 16.2432L10.75 17.017V13.6161L13.25 12.8422V16.2432Z" fill="#666666"/>
<path d="M11.8452 10.3382C11.9381 10.4057 12.0735 10.4333 12.1885 10.3973L13.7561 9.91217C13.9615 9.8485 14.0772 9.6294 14.0135 9.42354C13.9511 9.22163 13.7264 9.10319 13.5249 9.16608C13.5249 9.16608 11.9611 9.65014 11.9577 9.65124C11.7558 9.71374 11.6374 9.93784 11.6998 10.1395C11.7246 10.2194 11.7775 10.2889 11.8452 10.3382V10.3382Z" fill="#666666"/>
<path d="M13.8692 18.0133C13.7725 17.9436 13.6453 17.9175 13.5247 17.9551C13.5247 17.9551 11.9603 18.4394 11.9575 18.4402C11.7541 18.5032 11.6366 18.7248 11.6997 18.9285C11.761 19.1262 11.9834 19.2504 12.1884 19.1864L13.7559 18.7012C13.9614 18.6375 14.077 18.4184 14.0134 18.2126C13.9878 18.1298 13.9357 18.0612 13.8692 18.0133Z" fill="#666666"/>
<path d="M11.845 8.38504C11.9423 8.4545 12.0698 8.48118 12.1885 8.44411L13.7561 7.95895C13.9615 7.89528 14.0771 7.67618 14.0135 7.47032C13.9509 7.26786 13.7272 7.14969 13.5248 7.21286C13.5248 7.21286 11.9605 7.69711 11.9576 7.69801C11.7554 7.76063 11.6375 7.98469 11.6998 8.18668C11.7251 8.2686 11.7778 8.33703 11.845 8.38504V8.38504Z" fill="#666666"/>
<path d="M13.8688 5.31834C13.7719 5.24877 13.6447 5.22271 13.5246 5.25978C13.5246 5.25978 11.9614 5.74369 11.9574 5.74494C11.7587 5.80646 11.6385 6.03576 11.6996 6.23361C11.762 6.43591 11.9864 6.55412 12.1882 6.49103C12.1882 6.49103 13.7546 6.00627 13.7558 6.00587C13.9594 5.94287 14.0763 5.72091 14.0132 5.51724C13.9876 5.43462 13.9354 5.36619 13.8688 5.31834V5.31834Z" fill="#666666"/>
<path d="M7.34999 14.6737L4.06874 13.6581C3.86261 13.5943 3.64386 13.7096 3.58007 13.9157C3.51628 14.1218 3.63163 14.3406 3.83773 14.4044L7.11898 15.42C7.15745 15.4319 7.19636 15.4376 7.2346 15.4376C7.40132 15.4376 7.55574 15.33 7.60761 15.1624C7.67144 14.9563 7.55609 14.7375 7.34999 14.6737V14.6737Z" fill="#666666"/>
<path d="M4.61555 5.84881L6.3343 6.39568C6.37372 6.40822 6.4136 6.41416 6.45286 6.41416C6.6184 6.41416 6.77211 6.30807 6.825 6.14189C6.8904 5.93631 6.7768 5.71662 6.57122 5.65119L4.85247 5.10432C4.64684 5.03889 4.42719 5.15252 4.36176 5.35811C4.29633 5.56373 4.40997 5.78342 4.61555 5.84881Z" fill="#666666"/>
<path d="M3.94664 7.60238L4.69293 7.83339C4.7314 7.8453 4.77027 7.85097 4.80855 7.85097C4.97527 7.85097 5.12968 7.74339 5.18156 7.57577C5.24535 7.36968 5.13 7.15093 4.9239 7.0871L4.17761 6.85609C3.9716 6.79226 3.75273 6.90765 3.68894 7.11374C3.62519 7.3198 3.74054 7.53855 3.94664 7.60238V7.60238Z" fill="#666666"/>
<path d="M7.35019 7.83781L6.60386 7.60679C6.3978 7.54304 6.17902 7.65832 6.11523 7.86445C6.05144 8.07054 6.16679 8.28929 6.37288 8.35308L7.11921 8.5841C7.15765 8.59601 7.19656 8.60168 7.2348 8.60168C7.40156 8.60168 7.55597 8.4941 7.60784 8.32644C7.67163 8.12039 7.55628 7.9016 7.35019 7.83781V7.83781Z" fill="#666666"/>
<path d="M7.34999 16.6268L4.06874 15.6112C3.86261 15.5474 3.64386 15.6627 3.58007 15.8688C3.51628 16.0749 3.63163 16.2937 3.83773 16.3575L7.11898 17.3731C7.15745 17.3851 7.19636 17.3907 7.2346 17.3907C7.40132 17.3907 7.55574 17.2831 7.60761 17.1155C7.67144 16.9094 7.55609 16.6906 7.34999 16.6268V16.6268Z" fill="#666666"/>
<path d="M7.34999 18.5799L4.06874 17.5643C3.86261 17.5005 3.64386 17.6159 3.58007 17.822C3.51628 18.0281 3.63163 18.2469 3.83773 18.3107L7.11898 19.3263C7.15745 19.3382 7.19636 19.3439 7.2346 19.3439C7.40132 19.3439 7.55574 19.2363 7.60761 19.0687C7.67144 18.8625 7.55609 18.6437 7.34999 18.5799V18.5799Z" fill="#666666"/>
<path d="M21.6094 14.9648C21.3941 14.9648 21.2188 15.1402 21.2188 15.3559C21.2188 15.5711 21.3941 15.7461 21.6094 15.7461C21.8246 15.7461 22 15.5711 22 15.3559C22 15.1402 21.8246 14.9648 21.6094 14.9648Z" fill="#666666"/>
<path d="M21.7234 3.97004C21.7234 3.97004 15.3172 2.01731 15.3167 2.01719C15.2434 1.99492 15.1643 1.99418 15.0892 2.01707L8.79688 3.93551L2.50457 2.01711C2.38613 1.98102 2.25762 2.00313 2.15816 2.07684C2.05867 2.15051 2 2.26696 2 2.39074V19.6564C2 19.8282 2.1123 19.9799 2.27668 20.03C2.27668 20.03 8.67879 21.9819 8.68293 21.9831C8.71965 21.9943 8.7584 22.0001 8.79691 22.0001C8.83352 22.0001 8.90938 21.9836 8.91078 21.9831L15.2034 20.0647L21.4953 21.9833C21.5324 21.9943 21.5711 22.0001 21.6098 22.0001C21.6938 22.0001 21.7738 21.9736 21.8418 21.9236C21.941 21.8501 22 21.7329 22 21.6095V17.1134C22 16.8982 21.8246 16.7232 21.6094 16.7232C21.3941 16.7232 21.2188 16.8982 21.2188 17.1134V21.0822L15.5938 19.3669V2.91809L21.2188 4.63332V13.5978C21.2188 13.8134 21.3941 13.9884 21.6094 13.9884C21.8246 13.9884 22 13.8134 22 13.5978V4.34387C22 4.17082 21.8887 4.02082 21.7234 3.97004V3.97004ZM2.78125 2.91824L8.40625 4.63317V21.082L2.78125 19.3671V2.91824ZM9.1875 4.63317L14.8125 2.91824V19.3671L9.1875 21.082V4.63317Z" fill="#666666"/>
<path d="M20.1624 15.1424C20.1624 15.1424 16.8869 14.1286 16.8811 14.1268C16.6343 14.0504 16.375 14.2429 16.375 14.4999V18.3281C16.375 18.4993 16.4865 18.6506 16.6501 18.7012L19.9314 19.7169C19.9693 19.7286 20.0081 19.7343 20.0468 19.7343C20.2597 19.7343 20.4375 19.556 20.4375 19.3437V15.5156C20.4375 15.3443 20.326 15.193 20.1624 15.1424ZM19.6562 18.8139L17.1562 18.0401V15.0298L19.6562 15.8036V18.8139Z" fill="#666666"/>
<path d="M16.6501 8.93563L19.9314 9.95126C20.1785 10.0278 20.4375 9.83602 20.4375 9.57809V5.74997C20.4375 5.57872 20.326 5.42743 20.1624 5.3768C20.1624 5.3768 16.8853 4.36247 16.8811 4.36118C16.6334 4.2845 16.375 4.47637 16.375 4.73434V8.56247C16.375 8.73372 16.4866 8.88501 16.6501 8.93563ZM17.1562 5.26419L19.6562 6.03802V9.04829L17.1562 8.27446V5.26419Z" fill="#666666"/>
<path d="M20.1625 13.2674L16.8812 12.2518C16.6751 12.188 16.4564 12.3034 16.3926 12.5095C16.3288 12.7156 16.4441 12.9344 16.6502 12.9982C16.6502 12.9982 19.926 14.0121 19.9315 14.0138C20.1301 14.0753 20.357 13.9602 20.4201 13.7561C20.4839 13.55 20.3686 13.3312 20.1625 13.2674Z" fill="#666666"/>
<path d="M20.1625 11.3143L16.8812 10.2987C16.6751 10.2349 16.4564 10.3503 16.3926 10.5564C16.3288 10.7625 16.4441 10.9813 16.6502 11.045C16.6502 11.045 19.9312 12.0606 19.9315 12.0607C20.1307 12.1223 20.3567 12.0079 20.4201 11.803C20.4839 11.5969 20.3686 11.3781 20.1625 11.3143Z" fill="#666666"/>
<path d="M10.3984 10.9063C10.6142 10.9063 10.7891 10.7314 10.7891 10.5156C10.7891 10.2999 10.6142 10.125 10.3984 10.125C10.1827 10.125 10.0078 10.2999 10.0078 10.5156C10.0078 10.7314 10.1827 10.9063 10.3984 10.9063Z" fill="#666666"/>
<path d="M10.3984 8.99219C10.6142 8.99219 10.7891 8.8173 10.7891 8.60156C10.7891 8.38583 10.6142 8.21094 10.3984 8.21094C10.1827 8.21094 10.0078 8.38583 10.0078 8.60156C10.0078 8.8173 10.1827 8.99219 10.3984 8.99219Z" fill="#666666"/>
<path d="M10.3984 7.03906C10.6142 7.03906 10.7891 6.86417 10.7891 6.64844C10.7891 6.4327 10.6142 6.25781 10.3984 6.25781C10.1827 6.25781 10.0078 6.4327 10.0078 6.64844C10.0078 6.86417 10.1827 7.03906 10.3984 7.03906Z" fill="#666666"/>
<path d="M10.3984 19.7344C10.6142 19.7344 10.7891 19.5595 10.7891 19.3438C10.7891 19.128 10.6142 18.9531 10.3984 18.9531C10.1827 18.9531 10.0078 19.128 10.0078 19.3438C10.0078 19.5595 10.1827 19.7344 10.3984 19.7344Z" fill="#666666"/>
</svg>
