<svg id="color_line" height="512" viewBox="0 0 74 74" width="512" xmlns="http://www.w3.org/2000/svg" data-name="color line"><rect fill="#9297ab" height="6.827" rx="1.479" width="24.462" x="30.831" y="3"/><path d="m21.836 42.102-8.968-9.47 8.56-8.105 7.475 7.895z" fill="#eeefee"/><path d="m21.836 42.6a.5.5 0 0 1 -.363-.156l-8.973-9.468a.5.5 0 0 1 .019-.707l8.56-8.105a.512.512 0 0 1 .357-.137.5.5 0 0 1 .35.156l7.475 7.9a.5.5 0 0 1 .041.639l-7.062 9.678a.5.5 0 0 1 -.372.2zm-8.261-9.95 8.211 8.67 6.467-8.858-6.845-7.23z" fill="#323c6b"/><rect fill="#9297ab" height="5.482" rx="1.273" transform="matrix(.726 -.688 .688 .726 -14.107 17.782)" width="15.585" x="7.469" y="23.853"/><path d="m55.29 4.48v3.87a1.483 1.483 0 0 1 -1.48 1.48h-.72v-3.04a1.477 1.477 0 0 0 -1.48-1.48h-20.78v-.83a1.477 1.477 0 0 1 1.48-1.48h21.5a1.477 1.477 0 0 1 1.48 1.48z" fill="#84879c"/><path d="m21.88 24.1-1.78 1.68a1.268 1.268 0 0 0 .03-1.77l-2.02-2.14a1.268 1.268 0 0 0 -1.8-.04l1.8-1.71a1.277 1.277 0 0 1 1.8.05l2.02 2.13a1.277 1.277 0 0 1 -.05 1.8z" fill="#84879c"/><g fill="#323c6b"><path d="m22.51 65.922a.5.5 0 0 1 -.391-.188c-.093-.117-.185-.234-.274-.354a.5.5 0 0 1 .8-.595c.081.11.166.217.251.324a.5.5 0 0 1 -.39.812z"/><path d="m21.019 63.833a.5.5 0 0 1 -.43-.244 26.114 26.114 0 0 1 -3.3-8.836.5.5 0 0 1 .984-.175 25.131 25.131 0 0 0 3.173 8.5.5.5 0 0 1 -.429.756z"/><path d="m55.5 27.25a.5.5 0 0 1 -.5-.5v-.812a.5.5 0 0 1 1 0v.813a.5.5 0 0 1 -.5.499z"/><path d="m63.592 35.25a.5.5 0 0 1 -.4-.2 25.169 25.169 0 0 0 -5.786-5.577.5.5 0 1 1 .57-.821 26.158 26.158 0 0 1 6.016 5.8.5.5 0 0 1 -.4.8z"/></g><path d="m65.755 50.16a22.691 22.691 0 0 1 -13.703 20.84h-17.983a22.7 22.7 0 0 1 -.443-41.482v-19.691h18.869v19.691a22.677 22.677 0 0 1 13.26 20.642z" fill="#eeefee"/><path d="m65.75 50.16a22.692 22.692 0 0 1 -13.7 20.84h-1.9a22.7 22.7 0 0 0 -.88-40.86v-20.31h3.22v19.69a22.664 22.664 0 0 1 13.26 20.64z" fill="#e1e6e9"/><path d="m61.75 50.16a18.674 18.674 0 0 1 -10.57 16.84h-16.24a18.669 18.669 0 0 1 -9.63-22.67 15.881 15.881 0 0 1 4.82.17c4.2.81 8.03 2.87 12.08 4.24s8.7 1.97 12.45-.08c2.06-1.14 3.7-2.98 5.93-3.76.12-.04.25-.08.37-.11a18.512 18.512 0 0 1 .79 5.37z" fill="#05afd6"/><path d="m61.75 50.16a18.674 18.674 0 0 1 -10.57 16.84h-3.35a18.674 18.674 0 0 0 10.57-16.84 18.107 18.107 0 0 0 -.4-3.83 10.409 10.409 0 0 1 2.59-1.43c.12-.04.25-.08.37-.11a18.512 18.512 0 0 1 .79 5.37z" fill="#27a2db"/><circle cx="32.981" cy="54.587" fill="#27a2db" r="2.131"/><circle cx="44.69" cy="61.238" fill="#27a2db" r="1.844"/><circle cx="53.375" cy="54.823" fill="#27a2db" r="1.895"/><path d="m52.052 71.5h-17.983a.5.5 0 0 1 -.2-.041 23.2 23.2 0 0 1 -.743-42.259v-19.373a.5.5 0 0 1 .5-.5h18.874a.5.5 0 0 1 .5.5v19.373a23.2 23.2 0 0 1 -.746 42.259.493.493 0 0 1 -.202.041zm-17.879-1h17.775a22.2 22.2 0 0 0 .34-40.526.5.5 0 0 1 -.288-.455v-19.192h-17.874v19.192a.5.5 0 0 1 -.292.455 22.2 22.2 0 0 0 .339 40.526z" fill="#323c6b"/><path d="m51.18 67.5h-16.24a.5.5 0 0 1 -.217-.05 19.3 19.3 0 0 1 -10.853-17.29 19.1 19.1 0 0 1 .965-5.987.5.5 0 0 1 .413-.339 16.448 16.448 0 0 1 4.973.174 42.551 42.551 0 0 1 7.891 2.624c1.389.565 2.824 1.15 4.258 1.635 4.925 1.649 8.979 1.635 12.05-.045a20.165 20.165 0 0 0 2.292-1.565 14.005 14.005 0 0 1 3.713-2.228c.139-.046.282-.09.415-.123a.5.5 0 0 1 .6.341 19.029 19.029 0 0 1 .812 5.515 19.3 19.3 0 0 1 -10.852 17.288.5.5 0 0 1 -.22.05zm-16.125-1h16.01a18.292 18.292 0 0 0 10.185-16.34 18.053 18.053 0 0 0 -.629-4.74 13.515 13.515 0 0 0 -3.308 2.035 20.925 20.925 0 0 1 -2.413 1.645c-3.33 1.819-7.652 1.858-12.851.117-1.464-.5-2.914-1.085-4.316-1.656a41.784 41.784 0 0 0 -7.7-2.567 15.608 15.608 0 0 0 -4.348-.2 18.084 18.084 0 0 0 -.817 5.37 18.292 18.292 0 0 0 10.187 16.336z" fill="#323c6b"/><path d="m53.813 10.327h-21.503a1.981 1.981 0 0 1 -1.979-1.979v-3.869a1.981 1.981 0 0 1 1.979-1.979h21.5a1.982 1.982 0 0 1 1.979 1.979v3.869a1.982 1.982 0 0 1 -1.976 1.979zm-21.503-6.827a.98.98 0 0 0 -.979.979v3.869a.98.98 0 0 0 .979.979h21.5a.98.98 0 0 0 .979-.979v-3.869a.98.98 0 0 0 -.979-.979z" fill="#323c6b"/><path d="m11.538 33.915a1.767 1.767 0 0 1 -1.288-.553l-2.019-2.132a1.774 1.774 0 0 1 .069-2.505l9.467-8.968a1.774 1.774 0 0 1 2.505.068l2.02 2.132a1.774 1.774 0 0 1 -.067 2.506l-9.469 8.967a1.765 1.765 0 0 1 -1.218.485zm7.446-13.643a.771.771 0 0 0 -.531.211l-9.467 8.968a.774.774 0 0 0 -.029 1.092l2.019 2.132a.773.773 0 0 0 1.093.03l9.467-8.967a.774.774 0 0 0 .029-1.093l-2.02-2.132a.771.771 0 0 0 -.561-.241z" fill="#323c6b"/><path d="m41.917 52.6a.6.6 0 0 1 -.192-.032c-1.465-.5-2.917-1.087-4.321-1.659-1.28-.521-2.6-1.06-3.917-1.517a.6.6 0 1 1 .395-1.133c1.343.467 2.681 1.012 3.975 1.539 1.388.565 2.822 1.149 4.253 1.633a.6.6 0 0 1 -.192 1.168z" fill="#fff"/><path d="m31.25 48.66a.6.6 0 0 1 -.143-.017q-.283-.069-.569-.131a.6.6 0 0 1 .252-1.173q.3.064.6.138a.6.6 0 0 1 -.142 1.183z" fill="#fff"/></svg>