<svg id="color_line" height="512" viewBox="0 0 74 74" width="512" xmlns="http://www.w3.org/2000/svg" data-name="color line"><path d="m66.586 69.5h-6v-56.08a3.09 3.09 0 0 0 -3.086-3.087h-40.747a3.09 3.09 0 0 0 -3.086 3.086v56.081h-6v-56.08a9.1 9.1 0 0 1 9.086-9.086h40.747a9.1 9.1 0 0 1 9.086 9.086z" fill="#eeefee"/><path d="m66.59 13.42v56.08h-2.51v-53.82a9.1 9.1 0 0 0 -9.09-9.09h-40.74a8.971 8.971 0 0 0 -4.71 1.32 9.036 9.036 0 0 1 7.21-3.58h40.75a9.1 9.1 0 0 1 9.09 9.09z" fill="#e1e6e9"/><path d="m23.857 64.5h25.949v5h-25.949z" fill="#9297ab"/><path d="m49.806 70h-25.949a.5.5 0 0 1 -.5-.5v-5a.5.5 0 0 1 .5-.5h25.949a.5.5 0 0 1 .5.5v5a.5.5 0 0 1 -.5.5zm-25.449-1h24.949v-4h-24.949z" fill="#323c6b"/><path d="m41.35 35.81v16.11h-9.04v-16.15a6.257 6.257 0 0 0 3.74 1.23h1.6a6.282 6.282 0 0 0 3.7-1.19z" fill="#eeefee"/><path d="m31.31 51.917h11.043a2.27 2.27 0 0 1 2.27 2.27v10.313a0 0 0 0 1 0 0h-15.583a0 0 0 0 1 0 0v-10.313a2.27 2.27 0 0 1 2.27-2.27z" fill="#eeefee"/><path d="m32.313 45.583h-6.23a.5.5 0 1 1 0-1h6.229a.5.5 0 0 1 0 1z" fill="#323c6b"/><path d="m27.458 47.708a.5.5 0 0 1 -.5-.5v-4.25a.5.5 0 0 1 1 0v4.25a.5.5 0 0 1 -.5.5z" fill="#323c6b"/><path d="m44.623 56.25h6.627a2.042 2.042 0 0 1 2.042 2.042 2.042 2.042 0 0 1 -2.042 2.042h-6.627a0 0 0 0 1 0 0v-4.084a0 0 0 0 1 0 0z" fill="#9297ab"/><g fill="#323c6b"><path d="m51.25 60.833h-6.626a.5.5 0 0 1 -.5-.5v-4.083a.5.5 0 0 1 .5-.5h6.626a2.542 2.542 0 0 1 0 5.083zm-6.126-1h6.126a1.542 1.542 0 0 0 0-3.083h-6.126z"/><path d="m60.167 58.792h-6.875a.5.5 0 0 1 0-1h6.875a.5.5 0 0 1 0 1z"/><path d="m5.085 10.833a.5.5 0 0 1 -.485-.633l.035-.13c.038-.145.077-.29.122-.433a.5.5 0 0 1 .954.3c-.041.127-.075.258-.109.388l-.036.134a.5.5 0 0 1 -.481.374z"/><path d="m6.165 8.125a.5.5 0 0 1 -.437-.741 12.68 12.68 0 0 1 9.113-6.39.5.5 0 0 1 .151.988 11.674 11.674 0 0 0 -8.392 5.884.5.5 0 0 1 -.435.259z"/><path d="m44.35 46.125a.5.5 0 0 1 -.5-.5v-7.312a.5.5 0 0 1 1 0v7.313a.5.5 0 0 1 -.5.499z"/><path d="m44.35 48.75a.5.5 0 0 1 -.5-.5v-.531a.5.5 0 0 1 1 0v.531a.5.5 0 0 1 -.5.5z"/><path d="m66.586 70h-6a.5.5 0 0 1 -.5-.5v-56.08a2.589 2.589 0 0 0 -2.586-2.587h-40.747a2.589 2.589 0 0 0 -2.586 2.586v56.081a.5.5 0 0 1 -.5.5h-6a.5.5 0 0 1 -.5-.5v-56.08a9.6 9.6 0 0 1 9.586-9.586h40.747a9.6 9.6 0 0 1 9.586 9.586v56.08a.5.5 0 0 1 -.5.5zm-5.5-1h5v-55.58a8.6 8.6 0 0 0 -8.586-8.587h-40.747a8.6 8.6 0 0 0 -8.586 8.587v55.58h5v-55.58a3.591 3.591 0 0 1 3.586-3.586h40.747a3.591 3.591 0 0 1 3.586 3.586z"/></g><path d="m37.609 37h-1.6a6.186 6.186 0 0 1 -6.17-5.2 4.344 4.344 0 0 1 -.05-.609 8.11 8.11 0 0 1 1.868-5.256 17.1 17.1 0 0 0 3.283-8.326s8.769 5.272 8.935 13.153a6.209 6.209 0 0 1 -6.266 6.238z" fill="#fcd462"/><path d="m41.35 35.81v16.11h-2.58v-15.02a6.171 6.171 0 0 0 2.58-1.09z" fill="#e1e6e9"/><path d="m44.62 54.19v10.31h-2.58v-10.31a2.268 2.268 0 0 0 -2.27-2.27h2.58a2.262 2.262 0 0 1 2.27 2.27z" fill="#e1e6e9"/><path d="m43.87 30.77a6.163 6.163 0 0 1 -5.01 6.11c-.03 0-.06.01-.09.01a5.989 5.989 0 0 1 -1.12.11h-1.6c-.16 0-.3-.01-.46-.02a.17.17 0 0 1 .07-.01 4.072 4.072 0 0 0 .61-.09c.01 0 .02-.01.03 0 .18-.04.35-.08.52-.13a2.945 2.945 0 0 0 .5-.17 6.159 6.159 0 0 0 3.97-5.81c-.11-5.24-4.01-9.32-6.62-11.48a16.762 16.762 0 0 0 .27-1.68s8.77 5.27 8.93 13.16z" fill="#f7be56"/><path d="m38.77 36.89v.01a5.986 5.986 0 0 1 -1.12.1 5.989 5.989 0 0 0 1.12-.11z" fill="#eeefee"/><path d="m37.65 37.5a.5.5 0 0 1 0-1 5.509 5.509 0 0 0 1.027-.1.5.5 0 0 1 .593.491v.01a.5.5 0 0 1 -.407.491 6.471 6.471 0 0 1 -1.213.108z" fill="#323c6b"/><path d="m37.242 37h-.842a3.271 3.271 0 0 1 -3.263-2.746 2.3 2.3 0 0 1 -.027-.322 4.288 4.288 0 0 1 .99-2.782 9.042 9.042 0 0 0 1.736-4.4s4.637 2.788 4.725 6.955a3.283 3.283 0 0 1 -3.319 3.295z" fill="#fe7058"/><path d="m37.243 37.5h-.843a3.779 3.779 0 0 1 -3.758-3.174 2.7 2.7 0 0 1 -.032-.394 4.807 4.807 0 0 1 1.1-3.092 8.6 8.6 0 0 0 1.628-4.131.5.5 0 0 1 .756-.388c.2.12 4.874 2.98 4.967 7.373a3.651 3.651 0 0 1 -1.061 2.646 3.876 3.876 0 0 1 -2.757 1.16zm-1.043-9.89a9.181 9.181 0 0 1 -1.719 3.853 3.769 3.769 0 0 0 -.878 2.458 1.8 1.8 0 0 0 .021.257 2.774 2.774 0 0 0 2.776 2.322h.845a2.871 2.871 0 0 0 2.04-.857 2.66 2.66 0 0 0 .773-1.928c-.064-2.948-2.634-5.2-3.858-6.105z" fill="#323c6b"/><path d="m41.35 52.42h-9.04a.5.5 0 0 1 -.5-.5v-16.15a.5.5 0 0 1 .8-.4 5.726 5.726 0 0 0 3.44 1.13h1.6a5.775 5.775 0 0 0 3.407-1.1.5.5 0 0 1 .793.405v16.115a.5.5 0 0 1 -.5.5zm-8.54-1h8.04v-14.71a6.793 6.793 0 0 1 -3.2.79h-1.6a6.74 6.74 0 0 1 -3.24-.818z" fill="#323c6b"/><path d="m44.624 65h-15.584a.5.5 0 0 1 -.5-.5v-10.313a2.773 2.773 0 0 1 2.77-2.77h11.044a2.773 2.773 0 0 1 2.77 2.77v10.313a.5.5 0 0 1 -.5.5zm-15.084-1h14.584v-9.813a1.772 1.772 0 0 0 -1.77-1.77h-11.044a1.772 1.772 0 0 0 -1.77 1.77z" fill="#323c6b"/><path d="m37.608 37.5h-1.6a6.7 6.7 0 0 1 -6.666-5.622 4.8 4.8 0 0 1 -.056-.682 8.652 8.652 0 0 1 1.977-5.567 16.719 16.719 0 0 0 3.175-8.054.5.5 0 0 1 .756-.388c.368.221 9.007 5.507 9.177 13.571a6.465 6.465 0 0 1 -1.871 4.684 6.885 6.885 0 0 1 -4.892 2.058zm-2.275-19.028a17.2 17.2 0 0 1 -3.286 7.78 7.565 7.565 0 0 0 -1.758 4.936 3.8 3.8 0 0 0 .045.545 5.694 5.694 0 0 0 5.676 4.767h1.6a5.88 5.88 0 0 0 4.177-1.755 5.471 5.471 0 0 0 1.589-3.966c-.134-6.279-6.046-10.917-8.043-12.307z" fill="#323c6b"/></svg>