<svg id="color_line" height="512" viewBox="0 0 74 74" width="512" xmlns="http://www.w3.org/2000/svg" data-name="color line"><rect fill="#9297ab" height="4.879" rx="2.392" transform="matrix(.778 .628 -.628 .778 20.509 -23.611)" width="18.609" x="34.396" y="14.807"/><path d="m49.607 2.95a6.745 6.745 0 0 1 6.745 6.745v7.2a0 0 0 0 1 0 0h-13.489a0 0 0 0 1 0 0v-7.2a6.745 6.745 0 0 1 6.744-6.745z" fill="#9297ab" transform="matrix(.778 .628 -.628 .778 17.22 -28.942)"/><path d="m47.417 23.377-14.991 18.59a6.731 6.731 0 0 1 -7.415 2.152l-2.741 3.4a2.319 2.319 0 0 1 -3.61-2.911l2.741-3.4a6.738 6.738 0 0 1 .526-7.707l14.991-18.59z" fill="#e1e6e9"/><path d="m41.542 12.375-1.692-1.365a2.385 2.385 0 0 0 -3.36.36l-.06.07a2.4 2.4 0 0 0 .36 3.37l1.38 1.11a2.4 2.4 0 0 1 .03-2.98l.06-.07a2.392 2.392 0 0 1 3.282-.418z" fill="#84879c"/><path d="m56.47 9.2a6.765 6.765 0 0 0 -11.23-1.08l-3.54 4.38-1.72-1.39 4.52-5.6a6.742 6.742 0 0 1 11.97 3.69z" fill="#84879c"/><path d="m47.42 23.38-.04.04-8.69-7.01-14.99 18.59a6.735 6.735 0 0 0 -.52 7.71l-2.74 3.4a2.33 2.33 0 0 0 -.39 2.23 2.231 2.231 0 0 1 -1.04-.47 2.31 2.31 0 0 1 -.35-3.26l2.74-3.4a6.737 6.737 0 0 1 .53-7.71l14.99-18.59z" fill="#e1e6e9"/><path d="m26.431 27.917-4.5 5.584a6.738 6.738 0 0 0 -.526 7.707l-2.741 3.4a2.319 2.319 0 1 0 3.61 2.911l2.741-3.4a6.731 6.731 0 0 0 7.415-2.152l11.33-14.05z" fill="#89c5cd"/><path d="m26.515 54.528c0-1.474 2.669-5.76 2.669-5.76s2.669 4.285 2.669 5.76a2.669 2.669 0 1 1 -5.339 0z" fill="#89c5cd"/><path d="m29.185 57.7a3.173 3.173 0 0 1 -3.17-3.169c0-1.572 2.465-5.573 2.745-6.024a.5.5 0 0 1 .425-.235.5.5 0 0 1 .425.236c.28.451 2.744 4.452 2.744 6.023a3.173 3.173 0 0 1 -3.169 3.169zm0-7.963c-.973 1.647-2.17 3.953-2.17 4.794a2.169 2.169 0 1 0 4.339 0c0-.844-1.198-3.15-2.169-4.797z" fill="#323c6b"/><path d="m17.506 64.116c0-1.474 2.669-5.76 2.669-5.76s2.669 4.285 2.669 5.76a2.669 2.669 0 0 1 -5.339 0z" fill="#89c5cd"/><path d="m20.175 67.286a3.173 3.173 0 0 1 -3.169-3.169c0-1.572 2.464-5.573 2.744-6.024a.52.52 0 0 1 .85 0c.28.451 2.745 4.452 2.745 6.024a3.173 3.173 0 0 1 -3.17 3.169zm0-7.964c-.972 1.647-2.169 3.954-2.169 4.794a2.169 2.169 0 1 0 4.339 0c0-.841-1.198-3.147-2.17-4.794z" fill="#323c6b"/><path d="m26.515 68.331c0-1.474 2.669-5.76 2.669-5.76s2.669 4.285 2.669 5.76a2.669 2.669 0 1 1 -5.339 0z" fill="#89c5cd"/><g fill="#323c6b"><path d="m29.185 71.5a3.173 3.173 0 0 1 -3.17-3.169c0-1.572 2.465-5.573 2.745-6.024a.5.5 0 0 1 .425-.236.5.5 0 0 1 .425.236c.28.451 2.744 4.452 2.744 6.024a3.173 3.173 0 0 1 -3.169 3.169zm0-7.964c-.973 1.647-2.17 3.954-2.17 4.794a2.169 2.169 0 1 0 4.339 0c0-.841-1.198-3.146-2.169-4.794z"/><path d="m58.27 14.938a.5.5 0 0 1 -.438-.741 9.28 9.28 0 0 0 1-6.048.5.5 0 0 1 .406-.579.506.506 0 0 1 .578.407 10.283 10.283 0 0 1 -1.1 6.7.5.5 0 0 1 -.446.261z"/><path d="m56.367 17.563a.5.5 0 0 1 -.39-.813l.453-.562a.5.5 0 0 1 .779.627l-.453.563a.5.5 0 0 1 -.389.185z"/><path d="m24.879 25.563a.5.5 0 0 1 -.389-.814l.3-.375a.5.5 0 1 1 .78.626l-.3.375a.5.5 0 0 1 -.391.188z"/><path d="m26.517 23.531a.5.5 0 0 1 -.39-.814l4.158-5.156a.5.5 0 0 1 .779.628l-4.158 5.156a.5.5 0 0 1 -.389.186z"/><path d="m20.459 48.881a2.818 2.818 0 0 1 -2.188-4.588l2.529-3.134a7.266 7.266 0 0 1 .739-7.972l14.99-18.587a.5.5 0 0 1 .7-.075l10.5 8.466a.5.5 0 0 1 .076.7l-14.99 18.59a7.264 7.264 0 0 1 -7.628 2.419l-2.527 3.134a2.8 2.8 0 0 1 -1.9 1.033 2.89 2.89 0 0 1 -.301.014zm16.535-33.267-14.677 18.2a6.26 6.26 0 0 0 -.487 7.135.5.5 0 0 1 -.039.572l-2.741 3.4a1.814 1.814 0 0 0 .273 2.557 1.823 1.823 0 0 0 1.334.392 1.8 1.8 0 0 0 1.223-.67l2.741-3.4a.5.5 0 0 1 .551-.159 6.258 6.258 0 0 0 6.864-1.993l14.678-18.2z"/></g><path d="m31.427 39.576a.693.693 0 0 1 -1.07-.881l3.837-4.828a.693.693 0 1 1 1.07.881z" fill="#fff"/><path d="m36.651 33.056a.693.693 0 0 1 -1.073-.878l.173-.217a.693.693 0 1 1 1.076.874l-.173.217z" fill="#fff"/><path d="m49.046 24.515a2.867 2.867 0 0 1 -1.81-.641l-10.761-8.68a2.891 2.891 0 0 1 -.437-4.066 2.936 2.936 0 0 1 2-1.134 2.873 2.873 0 0 1 2.123.625l10.766 8.681a2.9 2.9 0 0 1 .437 4.066 2.9 2.9 0 0 1 -2.317 1.151zm-1.183-1.415a1.892 1.892 0 0 0 2.66-.285 1.915 1.915 0 0 0 -.225-2.734l-10.761-8.681a1.892 1.892 0 0 0 -2.66.285 1.945 1.945 0 0 0 -.469 1.463 1.882 1.882 0 0 0 .693 1.271z" fill="#323c6b"/><path d="m50.481 20.081a.5.5 0 0 1 -.313-.111l-10.5-8.47a.5.5 0 0 1 -.076-.7l4.518-5.6a7.245 7.245 0 0 1 11.28 9.1l-4.519 5.6a.5.5 0 0 1 -.39.181zm-9.8-9.043 9.722 7.84 4.2-5.213a6.244 6.244 0 1 0 -9.722-7.84z" fill="#323c6b"/></svg>