<svg id="color_line" height="512" viewBox="0 0 74 74" width="512" xmlns="http://www.w3.org/2000/svg" data-name="color line"><path d="m8.473 4.462h57.054a2.292 2.292 0 0 1 2.292 2.292v37.562a0 0 0 0 1 0 0h-61.637a0 0 0 0 1 0 0v-37.563a2.292 2.292 0 0 1 2.291-2.291z" fill="#bbbbcd"/><path d="m71.053 45.577v4.657a1.272 1.272 0 0 1 -1.287 1.257h-65.532a1.272 1.272 0 0 1 -1.287-1.257v-4.657a1.272 1.272 0 0 1 1.287-1.257h65.532a1.272 1.272 0 0 1 1.287 1.257z" fill="#9297ab"/><path d="m67.82 6.75v37.57h-2.69v-34.84a2.3 2.3 0 0 0 -2.29-2.29h-56.66v-.44a2.3 2.3 0 0 1 2.29-2.29h57.06a2.3 2.3 0 0 1 2.29 2.29z" fill="#9297ab"/><path d="m71.05 45.58v4.65a1.266 1.266 0 0 1 -1.28 1.26h-2.69a1.274 1.274 0 0 0 1.29-1.26v-4.65a1.274 1.274 0 0 0 -1.29-1.26h2.69a1.266 1.266 0 0 1 1.28 1.26z" fill="#84879c"/><path d="m22.37 51.49h29.27v5.18h-29.27z" fill="#e7aa6c"/><path d="m29.72 56.67-7.09 14.97a2.216 2.216 0 1 1 -4.08-1.73l6.5-13.24z" fill="#e7aa6c"/><path d="m20.58 73.5a2.711 2.711 0 0 1 -2.489-3.788l6.509-13.262a.5.5 0 0 1 .449-.28h4.67a.5.5 0 0 1 .452.714l-7.09 14.97a2.7 2.7 0 0 1 -2.501 1.646zm4.781-16.33-6.361 12.96a1.7 1.7 0 0 0 .038 1.4 1.695 1.695 0 0 0 1.543.968 1.711 1.711 0 0 0 1.588-1.052l6.761-14.276z" fill="#323c6b"/><path d="m53.98 72.93a2.233 2.233 0 0 1 -2.61-1.29l-7.09-14.97h4.67l6.5 13.24a2.214 2.214 0 0 1 -1.47 3.02z" fill="#e7aa6c"/><path d="m49.27 51.49h2.37v5.18h-2.37z" fill="#d09865"/><path d="m53.98 72.93a2.2 2.2 0 0 1 -.56.07 2.274 2.274 0 0 1 -1.2-.35 2.181 2.181 0 0 0 .85-2.74l-6.5-13.24h2.38l6.5 13.24a2.214 2.214 0 0 1 -1.47 3.02z" fill="#d09865"/><path d="m39.32 56.67v14.01a2.32 2.32 0 0 1 -4.64 0v-14.01z" fill="#e7aa6c"/><path d="m37 73.5a2.824 2.824 0 0 1 -2.82-2.82v-14.01a.5.5 0 0 1 .5-.5h4.64a.5.5 0 0 1 .5.5v14.01a2.824 2.824 0 0 1 -2.82 2.82zm-1.82-16.33v13.51a1.82 1.82 0 0 0 3.641 0v-13.51z" fill="#323c6b"/><path d="m53.867 33.344-5.603-5.512-2.26 2.3 5.563 5.482z" fill="#eeefee"/><path d="m51.567 36.114a.5.5 0 0 1 -.351-.144l-5.563-5.482a.5.5 0 0 1 -.006-.707l2.26-2.3a.634.634 0 0 1 .356-.149.5.5 0 0 1 .351.144l5.6 5.512a.5.5 0 0 1 .149.356.5.5 0 0 1 -.148.356l-2.3 2.27a.5.5 0 0 1 -.348.144zm-4.856-5.988 4.856 4.786 1.588-1.567-4.885-4.806z" fill="#323c6b"/><path d="m49.154 15.6a3.336 3.336 0 1 0 -3.862-3.292 3.3 3.3 0 0 0 .828 2.192" fill="#fe7058"/><g fill="#323c6b"><path d="m49.153 16.1a.5.5 0 0 1 -.076-.994 2.836 2.836 0 1 0 -3.284-2.8 2.816 2.816 0 0 0 .7 1.862.5.5 0 0 1 -.752.66 3.837 3.837 0 1 1 6.728-2.522 3.863 3.863 0 0 1 -3.238 3.794.516.516 0 0 1 -.078 0z"/><path d="m24.6 11.351h-12.264a.5.5 0 0 1 0-1h12.264a.5.5 0 0 1 0 1z"/><path d="m18.469 17.2h-6.133a.5.5 0 0 1 0-1h6.133a.5.5 0 0 1 0 1z"/><path d="m2.947 9.94a.5.5 0 0 1 -.5-.5v-.371a.5.5 0 0 1 1 0v.371a.5.5 0 0 1 -.5.5z"/><path d="m2.947 7.439a.494.494 0 0 1 -.5-.493 6.182 6.182 0 0 1 5.961-6.196h.02a.5.5 0 0 1 .02 1 5.182 5.182 0 0 0 -5 5.183.506.506 0 0 1 -.501.506z"/><path d="m71.053 33.93a.5.5 0 0 1 -.5-.5v-6.513a.5.5 0 0 1 1 0v6.513a.5.5 0 0 1 -.5.5z"/><path d="m71.053 36.255a.5.5 0 0 1 -.5-.5v-.3a.5.5 0 0 1 1 0v.3a.5.5 0 0 1 -.5.5z"/></g><circle cx="54.729" cy="36.513" fill="#05afd6" r="3.293"/><path d="m54.729 40.306a3.793 3.793 0 1 1 3.793-3.793 3.8 3.8 0 0 1 -3.793 3.793zm0-6.586a2.793 2.793 0 1 0 2.793 2.793 2.8 2.8 0 0 0 -2.793-2.793z" fill="#323c6b"/><path d="m44.164 19.66 2.388-6.16a1.615 1.615 0 0 1 3.011 1.17l-2.473 6.386z" fill="#eeefee"/><path d="m47.09 21.556a.5.5 0 0 1 -.216-.049l-2.926-1.4a.5.5 0 0 1 -.25-.632l2.388-6.155a2.115 2.115 0 1 1 3.942 1.532l-2.473 6.381a.5.5 0 0 1 -.466.319zm-2.29-2.148 2.021.964 2.279-5.878a1.115 1.115 0 1 0 -2.079-.807z" fill="#323c6b"/><path d="m38 27.055a5.621 5.621 0 1 0 -.133-3.269" fill="#fcd462"/><path d="m43.3 31.324a6.1 6.1 0 0 1 -5.771-4.1.5.5 0 1 1 .945-.326 5.123 5.123 0 1 0 -.12-2.981.5.5 0 1 1 -.969-.25 6.118 6.118 0 1 1 5.915 7.657z" fill="#323c6b"/><path d="m30.933 22.975 7.895.921a1.618 1.618 0 1 1 -.367 3.214l-7.7-.9" fill="#eeefee"/><path d="m38.643 27.62a2.213 2.213 0 0 1 -.233-.013l-7.705-.9a.5.5 0 1 1 .115-.993l7.7.9a1.117 1.117 0 1 0 .252-2.221l-7.9-.921a.5.5 0 1 1 .115-.993l7.895.921a2.117 2.117 0 0 1 -.243 4.22z" fill="#323c6b"/><circle cx="27.939" cy="24.44" fill="#27ccbc" r="3.339"/><path d="m27.939 28.279a3.839 3.839 0 1 1 3.839-3.838 3.843 3.843 0 0 1 -3.839 3.838zm0-6.677a2.839 2.839 0 1 0 2.839 2.839 2.842 2.842 0 0 0 -2.839-2.841z" fill="#323c6b"/><path d="m10.743 40.338a.693.693 0 0 1 -1.386-.015l-.022-7.385a.693.693 0 1 1 1.386.015z" fill="#fff"/><path d="m10.737 30.548a.693.693 0 0 1 -1.386-.011v-.278a.693.693 0 1 1 1.386.006z" fill="#fff"/><path d="m51.64 57.17h-29.27a.5.5 0 0 1 -.5-.5v-5.18a.5.5 0 0 1 .5-.5h29.27a.5.5 0 0 1 .5.5v5.18a.5.5 0 0 1 -.5.5zm-28.77-1h28.27v-4.18h-28.27z" fill="#323c6b"/><path d="m53.42 73.5a2.711 2.711 0 0 1 -2.512-1.667l-7.08-14.949a.5.5 0 0 1 .452-.714h4.67a.5.5 0 0 1 .449.28l6.5 13.24a2.714 2.714 0 0 1 -1.79 3.723 2.723 2.723 0 0 1 -.689.087zm-8.35-16.33 6.752 14.256a1.716 1.716 0 1 0 3.169-1.318l-6.352-12.938z" fill="#323c6b"/><path d="m67.818 44.816h-61.636a.5.5 0 0 1 -.5-.5v-37.563a2.8 2.8 0 0 1 2.792-2.791h57.052a2.8 2.8 0 0 1 2.792 2.792v37.562a.5.5 0 0 1 -.5.5zm-61.137-1h60.637v-37.063a1.794 1.794 0 0 0 -1.792-1.792h-57.052a1.794 1.794 0 0 0 -1.792 1.792z" fill="#323c6b"/><path d="m69.766 51.99h-65.532a1.774 1.774 0 0 1 -1.787-1.757v-4.656a1.774 1.774 0 0 1 1.787-1.757h65.532a1.774 1.774 0 0 1 1.787 1.757v4.657a1.774 1.774 0 0 1 -1.787 1.756zm-65.532-7.17a.773.773 0 0 0 -.787.757v4.657a.773.773 0 0 0 .787.757h65.532a.773.773 0 0 0 .787-.757v-4.657a.773.773 0 0 0 -.787-.757z" fill="#323c6b"/></svg>