<svg id="color_line" height="512" viewBox="0 0 74 74" width="512" xmlns="http://www.w3.org/2000/svg" data-name="color line"><g fill="#323c6b"><path d="m37 71.75c-9.375 0-16.719-15.264-16.719-34.75s7.344-34.75 16.719-34.75 16.719 15.264 16.719 34.75-7.344 34.75-16.719 34.75zm0-68c-8.392 0-15.219 14.916-15.219 33.25s6.827 33.25 15.219 33.25 15.219-14.916 15.219-33.25-6.827-33.25-15.219-33.25z"/><path d="m19.159 59.667c-5.959 0-10.26-1.839-12.253-5.292-4.688-8.119 4.859-22.111 21.734-31.854 7.958-4.595 16.294-7.46 23.471-8.068 7.377-.624 12.7 1.212 14.983 5.172 4.688 8.119-4.859 22.111-21.734 31.854-7.958 4.595-16.294 7.46-23.471 8.068q-1.416.12-2.73.12zm35.7-43.835q-1.258 0-2.625.115c-6.962.589-15.076 3.385-22.848 7.872-15.873 9.168-25.377 22.538-21.186 29.806 1.979 3.428 6.793 5 13.558 4.428 6.962-.589 15.076-3.385 22.848-7.872 15.881-9.168 25.385-22.538 21.194-29.806-1.717-2.966-5.553-4.543-10.937-4.543z"/><path d="m54.841 59.667q-1.312 0-2.729-.12c-7.177-.608-15.513-3.473-23.471-8.068-16.876-9.743-26.423-23.735-21.735-31.854 2.287-3.96 7.607-5.8 14.983-5.172 7.177.608 15.513 3.473 23.471 8.068 16.875 9.743 26.422 23.735 21.734 31.854-1.994 3.453-6.294 5.292-12.253 5.292zm-35.7-43.835c-5.384 0-9.22 1.577-10.932 4.543-4.2 7.268 5.308 20.638 21.186 29.806 7.771 4.487 15.886 7.283 22.848 7.872 6.766.572 11.579-1 13.558-4.428 4.2-7.268-5.308-20.638-21.186-29.806-7.771-4.487-15.886-7.283-22.848-7.872q-1.367-.115-2.63-.115z"/><path d="m37 45.875a8.875 8.875 0 1 1 8.875-8.875 8.885 8.885 0 0 1 -8.875 8.875zm0-16.25a7.375 7.375 0 1 0 7.375 7.375 7.384 7.384 0 0 0 -7.375-7.375z"/></g><circle cx="12.401" cy="16.707" fill="#fe7058" r="4.37"/><circle cx="67.167" cy="25.592" fill="#27ccbc" r="4.37"/><circle cx="29.834" cy="67.096" fill="#fcd462" r="4.37"/><path d="m16.77 16.71a4.386 4.386 0 0 1 -2.28 3.84 4.315 4.315 0 0 0 .45-1.93 4.374 4.374 0 0 0 -4.37-4.37 4.257 4.257 0 0 0 -2.08.53 4.363 4.363 0 0 1 8.28 1.93z" fill="#ea6453"/><path d="m71.54 25.59a4.359 4.359 0 0 1 -2.29 3.84 4.273 4.273 0 0 0 .45-1.92 4.368 4.368 0 0 0 -4.37-4.37 4.257 4.257 0 0 0 -2.08.53 4.367 4.367 0 0 1 8.29 1.92z" fill="#21b3a9"/><path d="m34.2 67.1a4.386 4.386 0 0 1 -2.28 3.84 4.315 4.315 0 0 0 .45-1.93 4.374 4.374 0 0 0 -4.37-4.37 4.314 4.314 0 0 0 -2.08.53 4.363 4.363 0 0 1 8.28 1.93z" fill="#f7be56"/><path d="m12.4 21.577a4.87 4.87 0 1 1 4.87-4.87 4.875 4.875 0 0 1 -4.87 4.87zm0-8.739a3.87 3.87 0 1 0 3.87 3.87 3.874 3.874 0 0 0 -3.87-3.87z" fill="#323c6b"/><path d="m67.167 30.461a4.869 4.869 0 1 1 4.87-4.869 4.875 4.875 0 0 1 -4.87 4.869zm0-8.739a3.869 3.869 0 1 0 3.87 3.87 3.874 3.874 0 0 0 -3.87-3.869z" fill="#323c6b"/><path d="m29.834 71.965a4.87 4.87 0 1 1 4.866-4.865 4.875 4.875 0 0 1 -4.866 4.865zm0-8.739a3.87 3.87 0 1 0 3.866 3.874 3.874 3.874 0 0 0 -3.866-3.874z" fill="#323c6b"/></svg>