<svg id="color_line" height="512" viewBox="0 0 74 74" width="512" xmlns="http://www.w3.org/2000/svg" data-name="color line"><path d="m43.762 11.6h7.425a3.041 3.041 0 0 1 3.041 3.041v49.454a3.041 3.041 0 0 1 -3.041 3.041h-41.164a3.041 3.041 0 0 1 -3.041-3.041v-49.451a3.041 3.041 0 0 1 3.041-3.044h7.417" fill="#e7aa6c"/><path d="m54.23 14.64v49.45a3.047 3.047 0 0 1 -3.04 3.05h-41.17a3.048 3.048 0 0 1 -2.99-2.5 2.565 2.565 0 0 0 .39.03h41.16a3.047 3.047 0 0 0 3.04-3.05v-49.45a3.1 3.1 0 0 0 -.05-.54 3.029 3.029 0 0 1 2.66 3.01z" fill="#d09865"/><path d="m43.761 16.33h5.849v46.076h-38.01v-46.076h5.839" fill="#eeefee"/><g fill="#323c6b"><path d="m49.61 62.906h-38.01a.5.5 0 0 1 -.5-.5v-46.076a.5.5 0 0 1 .5-.5h5.839a.5.5 0 0 1 0 1h-5.339v45.076h37.01v-45.076h-5.349a.5.5 0 0 1 0-1h5.849a.5.5 0 0 1 .5.5v46.076a.5.5 0 0 1 -.5.5z"/><path d="m19.428 29.823a.5.5 0 0 1 -.354-.146l-2.074-2.077a.5.5 0 0 1 .707-.707l1.719 1.718 5.189-5.189a.5.5 0 0 1 .707.707l-5.543 5.542a.5.5 0 0 1 -.351.152z"/><path d="m19.428 42.64a.5.5 0 0 1 -.354-.146l-2.074-2.073a.5.5 0 0 1 .707-.707l1.719 1.719 5.189-5.189a.5.5 0 0 1 .707.707l-5.543 5.543a.5.5 0 0 1 -.351.146z"/><path d="m18.392 55.456a.5.5 0 0 1 -.354-.854l5.543-5.543a.5.5 0 0 1 .707.707l-5.543 5.543a.5.5 0 0 1 -.353.147z"/><path d="m23.935 55.456a.5.5 0 0 1 -.354-.146l-5.543-5.543a.5.5 0 0 1 .707-.707l5.544 5.54a.5.5 0 0 1 -.354.854z"/><path d="m43.854 25.654h-14.125a.5.5 0 0 1 0-1h14.125a.5.5 0 0 1 0 1z"/><path d="m38.542 30.591h-8.813a.5.5 0 0 1 0-1h8.813a.5.5 0 0 1 0 1z"/><path d="m43.854 37.4h-14.125a.5.5 0 0 1 0-1h14.125a.5.5 0 0 1 0 1z"/><path d="m38.542 42.337h-8.813a.5.5 0 0 1 0-1h8.813a.5.5 0 0 1 0 1z"/><path d="m43.854 50.518h-14.125a.5.5 0 0 1 0-1h14.125a.5.5 0 0 1 0 1z"/><path d="m38.542 55.456h-8.813a.5.5 0 0 1 0-1h8.813a.5.5 0 0 1 0 1z"/><path d="m3.982 24.5a.5.5 0 0 1 -.5-.5v-.437a.5.5 0 0 1 1 0v.437a.5.5 0 0 1 -.5.5z"/><path d="m3.982 33.25a.5.5 0 0 1 -.5-.5v-6.5a.5.5 0 0 1 1 0v6.5a.5.5 0 0 1 -.5.5z"/></g><path d="m43.762 11.743v5.111a1.39 1.39 0 0 1 -1.39 1.39h-23.543a1.39 1.39 0 0 1 -1.39-1.39v-5.111a3.261 3.261 0 0 1 3.261-3.262h5.377l.669-2.281a4.007 4.007 0 0 1 3.854-2.887 4.008 4.008 0 0 1 3.85 2.893l.659 2.276h5.391a3.261 3.261 0 0 1 3.262 3.261z" fill="#9297ab"/><path d="m43.76 11.74v5.11a1.387 1.387 0 0 1 -1.39 1.39h-.57v-4.71a3.261 3.261 0 0 0 -3.26-3.26h-5.38l-.66-2.27a4.014 4.014 0 0 0 -3.85-2.9h-.01a3.942 3.942 0 0 0 -1.57.33 4 4 0 0 1 3.53-2.12 4.018 4.018 0 0 1 3.85 2.9l.66 2.27h5.39a3.261 3.261 0 0 1 3.26 3.26z" fill="#84879c"/><circle cx="30.605" cy="7.563" fill="#323c6b" r="1.625"/><path d="m68.917 64.542a.5.5 0 0 1 -.437-.256l-.116-.208a.5.5 0 0 1 .873-.487l.116.208a.5.5 0 0 1 -.436.744z" fill="#323c6b"/><path d="m70.313 72.114a.5.5 0 0 1 -.428-.757 4.378 4.378 0 0 0 .084-4.4l-.512-.918a.5.5 0 0 1 .873-.487l.517.927a5.43 5.43 0 0 1 -.1 5.4.5.5 0 0 1 -.434.235z" fill="#323c6b"/><path d="m51.187 67.635h-41.165a3.545 3.545 0 0 1 -3.541-3.541v-49.45a3.545 3.545 0 0 1 3.541-3.544h7.417a.5.5 0 0 1 0 1h-7.417a2.543 2.543 0 0 0 -2.541 2.541v49.454a2.543 2.543 0 0 0 2.541 2.541h41.165a2.544 2.544 0 0 0 2.541-2.541v-49.451a2.544 2.544 0 0 0 -2.541-2.544h-7.425a.5.5 0 0 1 0-1h7.425a3.545 3.545 0 0 1 3.541 3.541v49.454a3.545 3.545 0 0 1 -3.541 3.54z" fill="#323c6b"/><path d="m47.699 39.735h9.971v10.313h-9.971z" fill="#e1e6e9"/><path d="m59.351 37.989a1.743 1.743 0 0 1 -1.68 1.746h-9.971a1.744 1.744 0 0 1 -1.174-2.979 1.729 1.729 0 0 1 1.233-.506h9.854a1.738 1.738 0 0 1 1.738 1.739z" fill="#9297ab"/><path d="m59.35 37.99a1.706 1.706 0 0 1 -.51 1.23 1.763 1.763 0 0 1 -1.17.52h-2a1.763 1.763 0 0 0 1.17-.52 1.706 1.706 0 0 0 .51-1.23 1.741 1.741 0 0 0 -1.74-1.74h2a1.741 1.741 0 0 1 1.74 1.74z" fill="#84879c"/><path d="m57.672 50.045h-9.972l-10.122 18.136a1.919 1.919 0 0 0 1.694 2.819h26.828a1.919 1.919 0 0 0 1.694-2.819z" fill="#e1e6e9"/><path d="m55.25 39.74h2.42v10.31h-2.42z" fill="#d5d6db"/><path d="m66.1 71h-2.42a1.916 1.916 0 0 0 1.69-2.82l-10.1-18.13h-.02v-.01h2.42v.01l10.12 18.13a1.919 1.919 0 0 1 -1.69 2.82z" fill="#d5d6db"/><ellipse cx="55.27" cy="50.05" fill="#e1e6e9" rx=".007" ry=".011" transform="matrix(.447 -.894 .894 .447 -14.214 77.102)"/><path d="m64.25 68h-23.14l3.96-7.09a4.483 4.483 0 0 0 2.75.17 11.026 11.026 0 0 0 2.85-1.93c2.19-1.56 5.13-1.74 7.9-1.34z" fill="#27ccbc"/><path d="m64.25 68h-2.57l-5.24-10.37a15.308 15.308 0 0 1 2.13.18z" fill="#21b3a9"/><path d="m57.67 50.548h-9.97a.5.5 0 0 1 -.5-.5v-10.313a.5.5 0 0 1 .5-.5h9.97a.5.5 0 0 1 .5.5v10.313a.5.5 0 0 1 -.5.5zm-9.471-1h8.971v-9.313h-8.97z" fill="#323c6b"/><path d="m66.1 71.5h-26.828a2.419 2.419 0 0 1 -2.136-3.554l10.124-18.146a.5.5 0 0 1 .437-.256h9.975a.5.5 0 0 1 .437.256l10.118 18.137a2.418 2.418 0 0 1 -2.127 3.563zm-18.11-20.956-9.976 17.88a1.419 1.419 0 0 0 1.258 2.076h26.828a1.419 1.419 0 0 0 1.253-2.084l-9.975-17.872z" fill="#323c6b"/><path d="m64.25 68.5h-23.14a.5.5 0 0 1 -.437-.744l3.96-7.09a.5.5 0 0 1 .6-.229 3.969 3.969 0 0 0 2.442.164 5.779 5.779 0 0 0 1.846-1.183c.282-.233.563-.466.859-.676 2.03-1.445 4.809-1.927 8.261-1.427a.5.5 0 0 1 .365.251l5.68 10.19a.5.5 0 0 1 -.437.744zm-22.288-1h21.438l-5.145-9.229c-2.171-.285-5.119-.264-7.294 1.286-.275.2-.539.415-.8.632a6.61 6.61 0 0 1 -2.188 1.368 4.708 4.708 0 0 1 -2.662-.049z" fill="#323c6b"/><path d="m47.7 40.235a2.244 2.244 0 0 1 -1.528-3.835 2.227 2.227 0 0 1 1.586-.653h9.854a2.243 2.243 0 0 1 .075 4.485zm.059-3.485a1.234 1.234 0 0 0 -.879.36 1.244 1.244 0 0 0 .836 2.126h9.954a1.243 1.243 0 0 0 -.059-2.485z" fill="#323c6b"/><path d="m42.372 18.744h-23.542a1.893 1.893 0 0 1 -1.89-1.89v-5.111a3.766 3.766 0 0 1 3.76-3.762h5l.563-1.918a4.514 4.514 0 0 1 8.668 0l.554 1.915h5.015a3.766 3.766 0 0 1 3.762 3.762v5.111a1.893 1.893 0 0 1 -1.89 1.893zm-21.672-9.763a2.765 2.765 0 0 0 -2.762 2.762v5.111a.891.891 0 0 0 .89.89h23.544a.891.891 0 0 0 .89-.89v-5.111a2.766 2.766 0 0 0 -2.762-2.762h-5.386a.5.5 0 0 1 -.48-.361l-.659-2.275a3.514 3.514 0 0 0 -6.747 0l-.67 2.279a.5.5 0 0 1 -.479.359z" fill="#323c6b"/><path d="m20.393 15.978a.653.653 0 0 1 0-1.305h7.484a.653.653 0 1 1 0 1.305z" fill="#fff"/><path d="m30.369 15.971a.653.653 0 0 1 0-1.305h.261a.653.653 0 1 1 .01 1.305h-.261z" fill="#fff"/></svg>