<svg id="color_line" height="512" viewBox="0 0 74 74" width="512" xmlns="http://www.w3.org/2000/svg" data-name="color line"><path d="m43.445 17.926h11.621v14.826h-11.621z" fill="#eeefee"/><path d="m57.025 15.891a2.031 2.031 0 0 1 -1.958 2.035h-11.622a2.032 2.032 0 0 1 -1.368-3.472 2.015 2.015 0 0 1 1.437-.59h11.486a2.026 2.026 0 0 1 2.025 2.027z" fill="#9297ab"/><path d="m43.445 18.426a2.532 2.532 0 0 1 -1.722-4.326 2.514 2.514 0 0 1 1.791-.736h11.486a2.531 2.531 0 0 1 .084 5.061zm.069-4.062a1.522 1.522 0 0 0 -1.083.443 1.533 1.533 0 0 0 1.03 2.619h11.605a1.532 1.532 0 0 0 -.066-3.062z" fill="#323c6b"/><path d="m55.068 32.748h-11.626l-11.793 21.137a2.236 2.236 0 0 0 1.975 3.286h31.263a2.236 2.236 0 0 0 1.975-3.286z" fill="#eeefee"/><path d="m52.44 17.93h2.63v14.82h-2.63z" fill="#e1e6e9"/><path d="m64.89 57.17h-2.63a2.236 2.236 0 0 0 1.98-3.28l-11.8-21.14h2.63l11.79 21.14a2.235 2.235 0 0 1 -1.97 3.28z" fill="#e1e6e9"/><path d="m63.59 54.17h-28.67l5.97-10.71a4.776 4.776 0 0 0 2.7.05c1.29-.41 2.22-1.47 3.32-2.25 2.38-1.7 5.51-1.99 8.55-1.65z" fill="#05afd6"/><path d="m45.307 46.28a.6.6 0 0 1 -.369-1.074c.2-.159.4-.325.606-.491.333-.276.668-.552 1.019-.8a9.694 9.694 0 0 1 3.261-1.48.6.6 0 1 1 .3 1.163 8.508 8.508 0 0 0 -2.862 1.295c-.329.233-.639.491-.95.748-.21.174-.42.347-.634.513a.6.6 0 0 1 -.371.126z" fill="#fff"/><path d="m42.407 47.427h-.036a.6.6 0 0 1 0-1.2h.032a3.638 3.638 0 0 0 .495-.033.6.6 0 1 1 .162 1.189 4.911 4.911 0 0 1 -.653.044z" fill="#fff"/><path d="m63.59 54.17h-28.67l1.22-2.18h23.44l-6.98-12.49a18.243 18.243 0 0 1 2.86.11z" fill="#27a2db"/><path d="m6.874 21.877h5.421v5.143h-5.421z" fill="#bbbbcd"/><path d="m22.467 11.81v7.725h-6.568v-7.725" fill="#bbbbcd"/><path d="m15.899 29.372h6.568v35.528h-6.568z" fill="#bbbbcd"/><rect fill="#fcd462" height="9.838" rx="1.75" width="13.777" x="12.295" y="19.535"/><path d="m13.028 64.905h12.309a6.095 6.095 0 0 1 6.095 6.095 0 0 0 0 1 0 0h-24.498a0 0 0 0 1 0 0 6.095 6.095 0 0 1 6.094-6.095z" fill="#9297ab"/><g fill="#323c6b"><path d="m31.432 71.5h-24.498a.5.5 0 0 1 -.5-.5 6.6 6.6 0 0 1 6.595-6.595h12.308a6.6 6.6 0 0 1 6.595 6.595.5.5 0 0 1 -.5.5zm-23.977-1h23.455a5.6 5.6 0 0 0 -5.573-5.095h-12.309a5.6 5.6 0 0 0 -5.572 5.095z"/><path d="m68.165 59.518a.5.5 0 0 1 -.312-.891 4.736 4.736 0 0 0 1.187-5.97.5.5 0 0 1 .883-.47 5.745 5.745 0 0 1 -.119 5.7 5.687 5.687 0 0 1 -1.327 1.52.5.5 0 0 1 -.312.111z"/><path d="m68.443 51.063a.5.5 0 0 1 -.437-.256l-.279-.5a.5.5 0 0 1 .873-.487l.279.5a.5.5 0 0 1 -.436.744z"/><path d="m55.066 33.252h-11.621a.5.5 0 0 1 -.5-.5v-14.826a.5.5 0 0 1 .5-.5h11.621a.5.5 0 0 1 .5.5v14.826a.5.5 0 0 1 -.5.5zm-11.122-1h10.622v-13.826h-10.621z"/><path d="m64.887 57.671h-31.263a2.736 2.736 0 0 1 -2.417-4.021l11.799-21.15a.5.5 0 0 1 .437-.256h11.625a.5.5 0 0 1 .437.256l11.795 21.141a2.736 2.736 0 0 1 -2.411 4.03zm-21.151-24.423-11.651 20.88a1.737 1.737 0 0 0 1.539 2.542h31.263a1.736 1.736 0 0 0 1.533-2.55l-11.646-20.872z"/></g><path d="m26.071 21.877h33.465v5.143h-33.465z" fill="#bbbbcd"/><path d="m6.87 21.88h5.42v2.14h-5.42z" fill="#9297ab"/><path d="m20.22 11.81h2.25v7.72h-2.25z" fill="#9297ab"/><path d="m20.22 29.37h2.25v35.53h-2.25z" fill="#9297ab"/><path d="m59.54 21.88v5.14h-2.25v-3h-31.22v-2.14z" fill="#9297ab"/><path d="m12.294 27.521h-5.42a.5.5 0 0 1 -.5-.5v-5.144a.5.5 0 0 1 .5-.5h5.42a.5.5 0 0 1 .5.5v5.144a.5.5 0 0 1 -.5.5zm-4.92-1h4.42v-4.144h-4.42z" fill="#323c6b"/><path d="m59.536 27.521h-33.465a.5.5 0 0 1 -.5-.5v-5.144a.5.5 0 0 1 .5-.5h33.465a.5.5 0 0 1 .5.5v5.144a.5.5 0 0 1 -.5.5zm-32.964-1h32.464v-4.144h-32.465z" fill="#323c6b"/><path d="m22.467 20.035h-6.567a.5.5 0 0 1 -.5-.5v-7.725a.5.5 0 0 1 1 0v7.225h5.568v-7.225a.5.5 0 0 1 1 0v7.725a.5.5 0 0 1 -.501.5z" fill="#323c6b"/><path d="m22.467 65.4h-6.567a.5.5 0 0 1 -.5-.5v-35.528a.5.5 0 0 1 .5-.5h6.568a.5.5 0 0 1 .5.5v35.528a.5.5 0 0 1 -.501.5zm-6.068-1h5.568v-34.528h-5.567z" fill="#323c6b"/><circle cx="19.183" cy="8.019" fill="#fcd462" r="5.019"/><path d="m26.07 21.28v6.34a1.746 1.746 0 0 1 -1.75 1.75h-.12v-6.35a1.752 1.752 0 0 0 -1.75-1.75h-10.16a1.756 1.756 0 0 1 1.75-1.74h10.28a1.752 1.752 0 0 1 1.75 1.75z" fill="#f7be56"/><path d="m24.2 8.02a5.027 5.027 0 0 1 -2.66 4.43 4.962 4.962 0 0 0 .79-2.69 5.017 5.017 0 0 0 -5.02-5.02 4.916 4.916 0 0 0 -2.36.59 5.015 5.015 0 0 1 9.25 2.69z" fill="#f7be56"/><path d="m11.339 10.125a.5.5 0 0 1 -.489-.4c-.041-.2-.08-.4-.106-.6a.5.5 0 0 1 .991-.125c.023.179.059.353.095.527a.5.5 0 0 1 -.39.59.506.506 0 0 1 -.101.008z" fill="#323c6b"/><path d="m11.236 7.563a.5.5 0 0 1 -.5-.56 8.558 8.558 0 0 1 5-6.768.5.5 0 0 1 .406.914 7.553 7.553 0 0 0 -4.409 5.973.5.5 0 0 1 -.497.441z" fill="#323c6b"/><path d="m63.59 54.67h-28.67a.5.5 0 0 1 -.437-.744l5.97-10.71a.5.5 0 0 1 .57-.238 4.233 4.233 0 0 0 2.419.054 6.791 6.791 0 0 0 2.167-1.386c.331-.273.663-.547 1.011-.793 2.195-1.568 5.189-2.154 8.895-1.739a.5.5 0 0 1 .381.253l8.13 14.56a.5.5 0 0 1 -.437.744zm-27.819-1h26.967l-7.588-13.59c-3.335-.332-6.008.2-7.949 1.587-.329.234-.641.492-.953.75a7.639 7.639 0 0 1 -2.506 1.57 5.079 5.079 0 0 1 -2.6.051z" fill="#323c6b"/><path d="m24.322 29.872h-10.278a2.252 2.252 0 0 1 -2.25-2.25v-6.338a2.252 2.252 0 0 1 2.25-2.25h10.278a2.252 2.252 0 0 1 2.25 2.25v6.338a2.252 2.252 0 0 1 -2.25 2.25zm-10.278-9.837a1.251 1.251 0 0 0 -1.25 1.25v6.338a1.251 1.251 0 0 0 1.25 1.25h10.278a1.251 1.251 0 0 0 1.25-1.25v-6.339a1.251 1.251 0 0 0 -1.25-1.25z" fill="#323c6b"/><path d="m19.183 13.539a5.519 5.519 0 1 1 5.517-5.52 5.526 5.526 0 0 1 -5.517 5.52zm0-10.039a4.519 4.519 0 1 0 4.517 4.519 4.524 4.524 0 0 0 -4.517-4.519z" fill="#323c6b"/></svg>