<svg id="color_line" height="512" viewBox="0 0 74 74" width="512" xmlns="http://www.w3.org/2000/svg" data-name="color line"><path d="m9.662 44.383h-3.787a2.414 2.414 0 0 1 -2.4-2.431v-11.438a2.414 2.414 0 0 1 2.4-2.431h4.625" fill="#9297ab"/><path d="m9.662 44.883h-3.787a2.917 2.917 0 0 1 -2.9-2.931v-11.438a2.917 2.917 0 0 1 2.9-2.931h4.625a.5.5 0 0 1 0 1h-4.625a1.916 1.916 0 0 0 -1.9 1.931v11.439a1.916 1.916 0 0 0 1.9 1.931h3.787a.5.5 0 0 1 0 1z" fill="#323c6b"/><path d="m63.515 28.083h4.625a2.414 2.414 0 0 1 2.4 2.431v11.439a2.414 2.414 0 0 1 -2.4 2.431h-3.787" fill="#9297ab"/><path d="m68.14 44.883h-3.786a.5.5 0 0 1 0-1h3.786a1.916 1.916 0 0 0 1.9-1.931v-11.438a1.916 1.916 0 0 0 -1.9-1.931h-4.625a.5.5 0 0 1 0-1h4.625a2.917 2.917 0 0 1 2.9 2.931v11.439a2.917 2.917 0 0 1 -2.9 2.93z" fill="#323c6b"/><path d="m33.672 47.636.528-1.336a3.018 3.018 0 0 1 2.8-1.9 3.018 3.018 0 0 1 2.8 1.9l.532 1.336a8.2 8.2 0 0 0 7.734 5.477h2.435a16.141 16.141 0 0 0 16.106-16.1c.012-8.874-7.72-16.129-16.594-16.129h-26.524a16.113 16.113 0 0 0 0 32.226h2.449a8.2 8.2 0 0 0 7.734-5.474z" fill="#9297ab"/><path d="m50.02 20.89h-26.53a16.082 16.082 0 0 0 -12.78 6.31 15.984 15.984 0 0 1 10.36-3.79h26.54c8.87 0 16.6 7.25 16.59 16.13a15.919 15.919 0 0 1 -3.34 9.78c.36-.3.71-.62 1.04-.95a16.04 16.04 0 0 0 4.72-11.35c.01-8.88-7.72-16.13-16.6-16.13z" fill="#84879c"/><path d="m37.015 40.274a7.585 7.585 0 0 0 -7.153 5.06 4.553 4.553 0 0 1 -4.293 3.037h-2.076a11.382 11.382 0 0 1 -11.34-12.137 11.626 11.626 0 0 1 11.733-10.606h26.258a11.626 11.626 0 0 1 11.733 10.607 11.382 11.382 0 0 1 -11.34 12.137h-2.077a4.553 4.553 0 0 1 -4.293-3.037 7.585 7.585 0 0 0 -7.152-5.061z" fill="#eeefee"/><g fill="#323c6b"><path d="m50.536 48.872h-2.076a5.06 5.06 0 0 1 -4.76-3.372 7.085 7.085 0 0 0 -13.362 0 5.061 5.061 0 0 1 -4.765 3.371h-2.08a11.883 11.883 0 0 1 -11.84-12.671 12.1 12.1 0 0 1 12.233-11.072h26.258a12.1 12.1 0 0 1 12.231 11.072 11.883 11.883 0 0 1 -11.839 12.672zm-13.521-9.1a8.1 8.1 0 0 1 7.625 5.394 4.057 4.057 0 0 0 3.821 2.7h2.076a10.882 10.882 0 0 0 10.841-11.6 11.1 11.1 0 0 0 -11.234-10.14h-26.258a11.1 11.1 0 0 0 -11.234 10.14 10.882 10.882 0 0 0 10.842 11.6h2.076a4.059 4.059 0 0 0 3.821-2.7 8.1 8.1 0 0 1 7.624-5.392z"/><path d="m59.688 54.249a.5.5 0 0 1 -.241-.938c.082-.045.161-.094.241-.143l.186-.112a.5.5 0 0 1 .5.864l-.167.1c-.093.057-.187.114-.282.166a.5.5 0 0 1 -.237.063z"/><path d="m51.375 56.571a.5.5 0 0 1 -.022-1 18.54 18.54 0 0 0 6.208-1.371.5.5 0 1 1 .379.926 19.547 19.547 0 0 1 -6.54 1.444z"/><path d="m9.53 24.5a.5.5 0 0 1 -.366-.841 19.726 19.726 0 0 1 5.954-4.359.5.5 0 0 1 .432.9 18.73 18.73 0 0 0 -5.65 4.141.5.5 0 0 1 -.37.159z"/><path d="m17.125 19.505a.5.5 0 0 1 -.168-.971c.135-.048.273-.09.412-.131l.229-.07a.5.5 0 1 1 .3.952l-.249.076c-.121.036-.242.072-.36.114a.5.5 0 0 1 -.164.03z"/><path d="m50.512 53.613h-2.435a8.711 8.711 0 0 1 -8.205-5.813l-.524-1.318a2.519 2.519 0 0 0 -4.68 0l-.528 1.328a8.711 8.711 0 0 1 -8.2 5.8h-2.451a16.613 16.613 0 0 1 0-33.227h26.536a17.433 17.433 0 0 1 12.23 5.126 16.2 16.2 0 0 1 4.863 11.5 16.641 16.641 0 0 1 -16.606 16.6zm-13.504-9.713a3.5 3.5 0 0 1 3.269 2.217l.532 1.337a7.717 7.717 0 0 0 7.269 5.162h2.435a15.641 15.641 0 0 0 15.606-15.6 15.209 15.209 0 0 0 -4.571-10.8 16.427 16.427 0 0 0 -11.523-4.833h-26.536a15.613 15.613 0 0 0 0 31.227h2.449a7.709 7.709 0 0 0 7.262-5.14l.007-.019.532-1.337a3.5 3.5 0 0 1 3.269-2.214z"/></g><path d="m16.312 49.32a.594.594 0 0 1 -.31-.087s-.339-.2-.458-.279a.6.6 0 0 1 .661-1c.1.067.418.255.418.255a.6.6 0 0 1 -.311 1.113z" fill="#fff"/><path d="m13.745 47.357a.6.6 0 0 1 -.417-.168 13.431 13.431 0 0 1 -4.084-7.915.6.6 0 1 1 1.189-.159 12.242 12.242 0 0 0 3.729 7.21.6.6 0 0 1 -.417 1.032z" fill="#fff"/></svg>