<svg id="color_line" height="512" viewBox="0 0 74 74" width="512" xmlns="http://www.w3.org/2000/svg" data-name="color line"><path d="m34.86 35.56v32.53h-17.55v-43.64a13.991 13.991 0 0 1 -6.34 4.94v14.09a1.293 1.293 0 0 1 -1.29 1.29h-5.4a1.291 1.291 0 0 1 -1.28-1.29v-17.88a3.291 3.291 0 0 1 .72-2.06l6.15-7.77a3.273 3.273 0 0 1 1.67-1.13l12.55-3.69-3.24 5.84 3.24 3.28-1.62 2.48z" fill="#eeefee"/><path d="m34.86 68.59h-17.55a.5.5 0 0 1 -.5-.5v-42.139a14.975 14.975 0 0 1 -5.34 3.779v13.75a1.792 1.792 0 0 1 -1.79 1.79h-5.4a1.787 1.787 0 0 1 -1.78-1.79v-17.88a3.77 3.77 0 0 1 .828-2.372l6.15-7.769a3.778 3.778 0 0 1 1.923-1.3l12.548-3.689a.5.5 0 0 1 .578.722l-3.059 5.512 2.977 3.013a.5.5 0 0 1 .063.625l-1.4 2.148 12.115 12.725a.5.5 0 0 1 .138.345v32.53a.5.5 0 0 1 -.501.5zm-17.051-1h16.551v-31.83l-12.253-12.865a.5.5 0 0 1 -.057-.618l1.4-2.142-2.956-2.993a.5.5 0 0 1 -.082-.594l2.648-4.773-11.379 3.345a2.784 2.784 0 0 0 -1.416.958l-6.154 7.773a2.78 2.78 0 0 0 -.611 1.749v17.88a.8.8 0 0 0 .78.79h5.4a.791.791 0 0 0 .79-.79v-14.09a.5.5 0 0 1 .331-.471 13.584 13.584 0 0 0 6.088-4.738.5.5 0 0 1 .921.269z" fill="#323c6b"/><path d="m49.91 10.95-10.77 20.07v32.64h-4.28v-32.64l-10.77-20.07 2.06-3.43a3.319 3.319 0 0 1 2.85-1.61h15.88a3.31 3.31 0 0 1 2.8 1.54z" fill="#d5d6db"/><path d="m39.14 64.16h-4.28a.5.5 0 0 1 -.5-.5v-32.514l-10.711-19.959a.5.5 0 0 1 .012-.494l2.061-3.43a3.84 3.84 0 0 1 3.278-1.853h15.88a3.8 3.8 0 0 1 3.22 1.772l2.23 3.5a.5.5 0 0 1 .019.5l-10.709 19.964v32.514a.5.5 0 0 1 -.5.5zm-3.779-1h3.279v-32.14a.5.5 0 0 1 .06-.236l10.631-19.812-2.073-3.253a2.8 2.8 0 0 0 -2.378-1.309h-15.88a2.836 2.836 0 0 0 -2.421 1.367l-1.914 3.187 10.635 19.82a.5.5 0 0 1 .06.236z" fill="#323c6b"/><path d="m71 25.6v17.88a1.291 1.291 0 0 1 -1.28 1.29h-5.4a1.293 1.293 0 0 1 -1.29-1.29v-14.09a13.991 13.991 0 0 1 -6.34-4.94v43.64h-17.55v-32.53l12.39-13.01-1.62-2.48 3.24-3.28-3.24-5.84 12.55 3.69a3.273 3.273 0 0 1 1.67 1.13l6.15 7.77a3.291 3.291 0 0 1 .72 2.06z" fill="#eeefee"/><path d="m54.55 24.583h2.14v43.507h-2.14z" fill="#e1e6e9"/><path d="m71 25.6v17.88a1.291 1.291 0 0 1 -1.28 1.29h-.86v-17.67a3.291 3.291 0 0 0 -.72-2.06l-6.15-7.77a3.273 3.273 0 0 0 -1.67-1.13l-9-2.65-1.41-2.54 12.55 3.69a3.273 3.273 0 0 1 1.67 1.13l6.15 7.77a3.291 3.291 0 0 1 .72 2.06z" fill="#e1e6e9"/><path d="m31.384 40.021h-.084a.5.5 0 0 1 0-1 .539.539 0 0 1 .544.5.465.465 0 0 1 -.46.5z" fill="#323c6b"/><path d="m31.384 46.731h-.084a.5.5 0 0 1 0-1 .539.539 0 0 1 .544.5.465.465 0 0 1 -.46.5z" fill="#323c6b"/><path d="m31.384 53.441h-.084a.5.5 0 0 1 0-1 .539.539 0 0 1 .544.5.465.465 0 0 1 -.46.5z" fill="#323c6b"/><path d="m31.384 60.152h-.084a.5.5 0 0 1 0-1 .539.539 0 0 1 .544.5.465.465 0 0 1 -.46.5z" fill="#323c6b"/><path d="m21.766 56.581h6.09a0 0 0 0 1 0 0v5.372a1.377 1.377 0 0 1 -1.377 1.377h-3.337a1.377 1.377 0 0 1 -1.377-1.377v-5.372a0 0 0 0 1 .001 0z" fill="#eeefee"/><path d="m26.479 63.83h-3.336a1.879 1.879 0 0 1 -1.877-1.876v-5.372a.5.5 0 0 1 .5-.5h6.091a.5.5 0 0 1 .5.5v5.372a1.879 1.879 0 0 1 -1.878 1.876zm-4.214-6.748v4.872a.878.878 0 0 0 .877.876h3.337a.878.878 0 0 0 .877-.876v-4.872z" fill="#323c6b"/><path d="m28.775 57.082h-7.928a.5.5 0 0 1 0-1h7.929a.5.5 0 1 1 0 1z" fill="#323c6b"/><path d="m46.144 56.581h6.09a0 0 0 0 1 0 0v5.372a1.377 1.377 0 0 1 -1.377 1.377h-3.336a1.377 1.377 0 0 1 -1.377-1.377v-5.372a0 0 0 0 1 0 0z" fill="#eeefee"/><path d="m50.857 63.83h-3.336a1.879 1.879 0 0 1 -1.877-1.876v-5.372a.5.5 0 0 1 .5-.5h6.091a.5.5 0 0 1 .5.5v5.372a1.879 1.879 0 0 1 -1.878 1.876zm-4.214-6.748v4.872a.878.878 0 0 0 .877.876h3.337a.878.878 0 0 0 .877-.876v-4.872z" fill="#323c6b"/><path d="m53.153 57.082h-7.928a.5.5 0 1 1 0-1h7.929a.5.5 0 0 1 0 1z" fill="#323c6b"/><path d="m14.308 63.833a.5.5 0 0 1 -.5-.5v-7.708a.5.5 0 0 1 1 0v7.708a.5.5 0 0 1 -.5.5z" fill="#323c6b"/><path d="m14.308 54.063a.5.5 0 0 1 -.5-.5v-.437a.5.5 0 0 1 1 0v.438a.5.5 0 0 1 -.5.499z" fill="#323c6b"/><path d="m60.375 11.4a.5.5 0 0 1 -.141-.02l-.406-.119a.5.5 0 0 1 .281-.96l.406.119a.5.5 0 0 1 -.141.98z" fill="#323c6b"/><path d="m68.293 16.69a.5.5 0 0 1 -.393-.19l-1.808-2.285a5.783 5.783 0 0 0 -2.924-1.973l-1-.292a.5.5 0 0 1 .281-.96l1 .292a6.784 6.784 0 0 1 3.428 2.313l1.808 2.285a.5.5 0 0 1 -.393.81z" fill="#323c6b"/><path d="m49.91 20.07 1.62 2.48-12.39 13.01v-4.54l10.77-20.07 3.24 5.84z" fill="#eeefee"/><path d="m39.14 36.06a.5.5 0 0 1 -.5-.5v-4.54a.5.5 0 0 1 .06-.236l10.77-20.07a.5.5 0 0 1 .437-.264.5.5 0 0 1 .438.257l3.24 5.84a.5.5 0 0 1 -.082.594l-2.953 2.993 1.4 2.142a.5.5 0 0 1 -.057.618l-12.393 13.006a.5.5 0 0 1 -.36.16zm.5-4.915v3.165l11.26-11.818-1.4-2.148a.5.5 0 0 1 .063-.625l2.977-3.013-2.614-4.711z" fill="#323c6b"/><path d="m34.86 31.02v4.54l-12.39-13.01 1.62-2.48-3.24-3.28 3.24-5.84z" fill="#eeefee"/><g fill="#323c6b"><path d="m34.86 36.06a.5.5 0 0 1 -.36-.16l-12.393-13.005a.5.5 0 0 1 -.057-.618l1.4-2.142-2.956-2.993a.5.5 0 0 1 -.082-.594l3.24-5.84a.5.5 0 0 1 .438-.257.5.5 0 0 1 .437.264l10.773 20.069a.5.5 0 0 1 .06.236v4.54a.5.5 0 0 1 -.5.5zm-11.76-13.568 11.26 11.818v-3.164l-10.277-19.152-2.614 4.711 2.977 3.013a.5.5 0 0 1 .063.625z"/><path d="m56.69 68.59h-17.55a.5.5 0 0 1 -.5-.5v-32.53a.5.5 0 0 1 .138-.345l12.122-12.723-1.4-2.148a.5.5 0 0 1 .063-.625l2.977-3.013-3.059-5.512a.5.5 0 0 1 .578-.722l12.55 3.69a3.778 3.778 0 0 1 1.924 1.3l6.147 7.767a3.765 3.765 0 0 1 .82 2.371v17.88a1.787 1.787 0 0 1 -1.78 1.79h-5.4a1.792 1.792 0 0 1 -1.79-1.79v-13.75a14.975 14.975 0 0 1 -5.34-3.779v42.139a.5.5 0 0 1 -.5.5zm-17.051-1h16.551v-43.14a.5.5 0 0 1 .921-.269 13.584 13.584 0 0 0 6.089 4.738.5.5 0 0 1 .331.471v14.09a.791.791 0 0 0 .79.79h5.4a.8.8 0 0 0 .78-.79v-17.88a2.776 2.776 0 0 0 -.611-1.749l-6.15-7.771a2.784 2.784 0 0 0 -1.417-.96l-11.384-3.346 2.648 4.773a.5.5 0 0 1 -.082.594l-2.955 2.993 1.4 2.142a.5.5 0 0 1 -.057.618l-12.253 12.866z"/><path d="m34.861 68.587h-17.553a.5.5 0 0 1 -.5-.5v-42.138a15 15 0 0 1 -5.343 3.784v13.75a1.787 1.787 0 0 1 -1.784 1.785h-5.4a1.787 1.787 0 0 1 -1.781-1.784v-17.884a3.832 3.832 0 0 1 .824-2.369l6.151-7.777a3.8 3.8 0 0 1 1.919-1.294l12.559-3.686a.5.5 0 0 1 .581.244l10.766 20.061a.5.5 0 0 1 .06.236v37.072a.5.5 0 0 1 -.499.5zm-17.054-1h16.554v-36.446l-10.516-19.592-12.169 3.571a2.8 2.8 0 0 0 -1.415.955l-6.153 7.778a2.826 2.826 0 0 0 -.608 1.747v17.884a.785.785 0 0 0 .784.785h5.4a.785.785 0 0 0 .784-.785v-14.091a.5.5 0 0 1 .331-.471 13.607 13.607 0 0 0 6.091-4.744.5.5 0 0 1 .921.269z"/><path d="m39.139 36.062a.5.5 0 0 1 -.362-.845l12.117-12.727-1.405-2.142a.5.5 0 0 1 .063-.626l2.981-3.012-3.064-5.51-2.21-3.48a2.8 2.8 0 0 0 -2.378-1.307h-15.881a2.829 2.829 0 0 0 -2.42 1.368l-2.058 3.431-3.055 5.5 2.981 3.012a.5.5 0 0 1 .063.626l-1.405 2.14 12.118 12.727a.5.5 0 1 1 -.725.689l-12.391-13.014a.5.5 0 0 1 -.056-.619l1.4-2.135-2.961-2.991a.5.5 0 0 1 -.082-.594l3.245-5.84 2.066-3.445a3.834 3.834 0 0 1 3.28-1.855h15.881a3.8 3.8 0 0 1 3.219 1.771l2.226 3.5 3.261 5.866a.5.5 0 0 1 -.082.594l-2.961 2.991 1.4 2.135a.5.5 0 0 1 -.056.619l-12.388 13.018a.5.5 0 0 1 -.361.155z"/><path d="m39.139 64.162h-4.278a.5.5 0 1 1 0-1h4.277a.5.5 0 0 1 0 1z"/><path d="m56.692 68.587h-17.553a.5.5 0 0 1 -.5-.5v-37.071a.5.5 0 0 1 .06-.236l10.767-20.062a.5.5 0 0 1 .581-.244l12.558 3.686a3.8 3.8 0 0 1 1.919 1.295l6.152 7.778a3.835 3.835 0 0 1 .824 2.367v17.884a1.787 1.787 0 0 1 -1.784 1.785h-5.4a1.787 1.787 0 0 1 -1.784-1.785v-13.751a15 15 0 0 1 -5.343-3.784v42.138a.5.5 0 0 1 -.497.5zm-17.054-1h16.554v-43.139a.5.5 0 0 1 .921-.269 13.607 13.607 0 0 0 6.087 4.743.5.5 0 0 1 .331.471v14.091a.785.785 0 0 0 .784.785h5.4a.785.785 0 0 0 .784-.785v-17.884a2.829 2.829 0 0 0 -.607-1.748l-6.153-7.778a2.8 2.8 0 0 0 -1.415-.956l-12.169-3.569-10.516 19.592z"/><path d="m31.384 40.021h-.084a.5.5 0 0 1 0-1 .539.539 0 0 1 .544.5.465.465 0 0 1 -.46.5z"/><path d="m31.384 46.731h-.084a.5.5 0 0 1 0-1 .539.539 0 0 1 .544.5.465.465 0 0 1 -.46.5z"/><path d="m31.384 53.441h-.084a.5.5 0 0 1 0-1 .539.539 0 0 1 .544.5.465.465 0 0 1 -.46.5z"/><path d="m31.384 60.152h-.084a.5.5 0 0 1 0-1 .539.539 0 0 1 .544.5.465.465 0 0 1 -.46.5z"/><path d="m26.479 63.83h-3.336a1.879 1.879 0 0 1 -1.877-1.876v-5.372a.5.5 0 0 1 .5-.5h6.091a.5.5 0 0 1 .5.5v5.372a1.879 1.879 0 0 1 -1.878 1.876zm-4.214-6.748v4.872a.878.878 0 0 0 .877.876h3.337a.878.878 0 0 0 .877-.876v-4.872z"/><path d="m28.775 57.082h-7.928a.5.5 0 0 1 0-1h7.929a.5.5 0 1 1 0 1z"/><path d="m50.857 63.83h-3.336a1.879 1.879 0 0 1 -1.877-1.876v-5.372a.5.5 0 0 1 .5-.5h6.091a.5.5 0 0 1 .5.5v5.372a1.879 1.879 0 0 1 -1.878 1.876zm-4.214-6.748v4.872a.878.878 0 0 0 .877.876h3.337a.878.878 0 0 0 .877-.876v-4.872z"/><path d="m53.153 57.082h-7.928a.5.5 0 1 1 0-1h7.929a.5.5 0 0 1 0 1z"/></g></svg>