<svg id="color_line" height="512" viewBox="0 0 74 74" width="512" xmlns="http://www.w3.org/2000/svg" data-name="color line"><path d="m14.72 41.6 2.485-14.3a2.946 2.946 0 0 0 -2.561-3.27 2.946 2.946 0 0 0 -3.173 2.029l-7.405 18.069a7.662 7.662 0 0 0 .748 7.205l9.444 14.39v4.333h20.562v-4.833a17.214 17.214 0 0 0 -8.688-15.881l-7.574-7.624a2.792 2.792 0 0 0 -3.838-.118 2.792 2.792 0 0 0 -.452 3.653l5.375 7.913" fill="#fcd462"/><path d="m7.73 51.33 9.44 14.39v4.34h-2.91v-4.34l-9.45-14.39a7.634 7.634 0 0 1 -.74-7.2l7.4-18.07a2.935 2.935 0 0 1 2.8-2.05 2.363 2.363 0 0 1 .37.02 2.925 2.925 0 0 1 1.1.37 2.846 2.846 0 0 0 -1.35 1.66l-7.41 18.07a7.664 7.664 0 0 0 .75 7.2z" fill="#f7be56"/><path d="m59.28 41.6-2.485-14.3a2.946 2.946 0 0 1 2.561-3.27 2.946 2.946 0 0 1 3.173 2.029l7.406 18.073a7.662 7.662 0 0 1 -.748 7.205l-9.444 14.39v4.333h-20.563v-4.837a17.214 17.214 0 0 1 8.688-15.881l7.574-7.624a2.792 2.792 0 0 1 3.838-.118 2.792 2.792 0 0 1 .452 3.653l-5.375 7.913" fill="#fcd462"/><path d="m69.19 51.33-9.45 14.39v4.34h-2.75v-5.08l9.45-14.39a7.653 7.653 0 0 0 .74-7.21l-7.4-18.07a2.812 2.812 0 0 0 -.76-1.21 1.866 1.866 0 0 1 .34-.07 2.363 2.363 0 0 1 .37-.02 2.935 2.935 0 0 1 2.8 2.05l7.4 18.07a7.634 7.634 0 0 1 -.74 7.2z" fill="#f7be56"/><g fill="#323c6b"><path d="m37 40.546c-5.035 0-8.979-8.149-8.979-18.551s3.944-18.552 8.979-18.552 8.979 8.149 8.979 18.551-3.944 18.552-8.979 18.552zm0-36.1c-4.325 0-7.979 8.038-7.979 17.551s3.654 17.549 7.979 17.549 7.979-8.038 7.979-17.551-3.654-17.552-7.979-17.552z"/><path d="m27.528 34.131c-3.2 0-5.517-.994-6.594-2.86-1.235-2.139-.666-5.111 1.6-8.371a31.324 31.324 0 0 1 9.973-8.68 31.346 31.346 0 0 1 12.5-4.3c3.963-.333 6.816.658 8.051 2.8s.666 5.111-1.6 8.371a31.336 31.336 0 0 1 -9.973 8.68 31.337 31.337 0 0 1 -12.5 4.3q-.756.06-1.457.06zm18.958-23.273q-.664 0-1.388.061a30.332 30.332 0 0 0 -12.088 4.167 30.331 30.331 0 0 0 -9.652 8.385c-2.035 2.923-2.589 5.516-1.559 7.3s3.546 2.6 7.1 2.3a30.332 30.332 0 0 0 12.09-4.171 30.343 30.343 0 0 0 9.652-8.385c2.036-2.915 2.588-5.515 1.559-7.296-.89-1.542-2.894-2.361-5.714-2.361z"/><path d="m46.472 34.131q-.7 0-1.457-.064a31.337 31.337 0 0 1 -12.5-4.3 31.336 31.336 0 0 1 -9.973-8.68c-2.27-3.26-2.839-6.232-1.6-8.371s4.089-3.129 8.051-2.8a31.346 31.346 0 0 1 12.5 4.3 31.324 31.324 0 0 1 9.973 8.68c2.27 3.26 2.839 6.232 1.6 8.371-1.078 1.87-3.392 2.864-6.594 2.864zm-18.958-23.273c-2.819 0-4.823.819-5.714 2.361-1.029 1.784-.477 4.376 1.559 7.3a30.343 30.343 0 0 0 9.652 8.381 30.332 30.332 0 0 0 12.089 4.171c3.558.3 6.071-.517 7.1-2.3s.477-4.376-1.559-7.3a30.331 30.331 0 0 0 -9.652-8.385 30.332 30.332 0 0 0 -12.089-4.167c-.48-.041-.944-.061-1.386-.061z"/><path d="m37 26.809a4.814 4.814 0 1 1 4.813-4.814 4.819 4.819 0 0 1 -4.813 4.814zm0-8.627a3.814 3.814 0 1 0 3.813 3.813 3.818 3.818 0 0 0 -3.813-3.814z"/><path d="m3.985 56.1a.5.5 0 0 1 -.418-.226l-.246-.374a.5.5 0 0 1 .836-.549l.246.375a.5.5 0 0 1 -.418.774z"/><path d="m2.606 53.938a.5.5 0 0 1 -.418-.226l-.3-.458a10.926 10.926 0 0 1 -1.869-6.629.476.476 0 0 1 .521-.479.5.5 0 0 1 .479.521 9.925 9.925 0 0 0 1.701 6.033l.3.464a.5.5 0 0 1 -.418.774z"/><path d="m65.509 25.917a.5.5 0 0 1 -.463-.31l-.167-.407a5.416 5.416 0 0 0 -4.368-3.6.5.5 0 1 1 .145-.989 6.4 6.4 0 0 1 5.159 4.24l.157.38a.5.5 0 0 1 -.273.652.487.487 0 0 1 -.19.034z"/><path d="m66.482 28.292a.5.5 0 0 1 -.463-.31l-.205-.5a.5.5 0 0 1 .926-.38l.205.5a.5.5 0 0 1 -.273.652.487.487 0 0 1 -.19.038z"/><path d="m59.743 70.557h-20.563a.5.5 0 0 1 -.5-.5v-4.834a17.738 17.738 0 0 1 8.88-16.279l7.528-7.578a3.3 3.3 0 0 1 3.512-.754l-2.3-13.23a3.446 3.446 0 0 1 6.7-1.482l7.4 18.039a8.147 8.147 0 0 1 -.8 7.675l-9.357 14.259v4.184a.5.5 0 0 1 -.5.5zm-20.063-1h19.563v-3.834a.5.5 0 0 1 .082-.274l9.443-14.39a7.149 7.149 0 0 0 .7-6.741l-7.403-18.073a2.448 2.448 0 0 0 -4.774.993l2.452 14.114a3.3 3.3 0 0 1 .4 4.183l-5.374 7.913a.5.5 0 0 1 -.828-.562l5.374-7.913a2.3 2.3 0 0 0 -.368-3l-.006-.005a2.291 2.291 0 0 0 -3.146.1l-7.574 7.625a.487.487 0 0 1 -.1.08 16.77 16.77 0 0 0 -8.442 15.427z"/><path d="m34.82 70.557h-20.563a.5.5 0 0 1 -.5-.5v-4.184l-9.357-14.265a8.142 8.142 0 0 1 -.8-7.669l7.406-18.073a3.446 3.446 0 0 1 6.694 1.489l-2.3 13.256a3.294 3.294 0 0 1 3.512.754l7.528 7.578a17.752 17.752 0 0 1 8.879 16.305v4.808a.5.5 0 0 1 -.499.501zm-20.063-1h19.563v-4.334a16.784 16.784 0 0 0 -8.439-15.448.487.487 0 0 1 -.1-.08l-7.581-7.625a2.293 2.293 0 0 0 -3.147-.1 2.3 2.3 0 0 0 -.369 3l5.374 7.913a.5.5 0 0 1 -.828.562l-5.374-7.913a3.3 3.3 0 0 1 .4-4.183l2.456-14.141a2.447 2.447 0 0 0 -4.765-1l-7.42 18.11a7.145 7.145 0 0 0 .7 6.735l9.447 14.4a.5.5 0 0 1 .082.274z"/><path d="m34.82 70.557h-20.563a.5.5 0 0 1 -.5-.5v-4.184l-9.357-14.265a8.142 8.142 0 0 1 -.8-7.669l7.406-18.073a3.446 3.446 0 0 1 6.694 1.489l-2.3 13.256a3.294 3.294 0 0 1 3.512.754l7.528 7.578a17.752 17.752 0 0 1 8.879 16.305v4.808a.5.5 0 0 1 -.499.501zm-20.063-1h19.563v-4.334a16.784 16.784 0 0 0 -8.439-15.448.487.487 0 0 1 -.1-.08l-7.581-7.625a2.293 2.293 0 0 0 -3.147-.1 2.3 2.3 0 0 0 -.369 3l5.374 7.913a.5.5 0 0 1 -.828.562l-5.374-7.913a3.3 3.3 0 0 1 .4-4.183l2.456-14.141a2.447 2.447 0 0 0 -4.765-1l-7.42 18.11a7.145 7.145 0 0 0 .7 6.735l9.447 14.4a.5.5 0 0 1 .082.274z"/><path d="m59.743 70.557h-20.563a.5.5 0 0 1 -.5-.5v-4.834a17.738 17.738 0 0 1 8.88-16.279l7.528-7.578a3.3 3.3 0 0 1 3.512-.754l-2.3-13.23a3.446 3.446 0 0 1 6.7-1.482l7.4 18.039a8.147 8.147 0 0 1 -.8 7.675l-9.357 14.259v4.184a.5.5 0 0 1 -.5.5zm-20.063-1h19.563v-3.834a.5.5 0 0 1 .082-.274l9.443-14.39a7.149 7.149 0 0 0 .7-6.741l-7.403-18.073a2.448 2.448 0 0 0 -4.774.993l2.452 14.114a3.3 3.3 0 0 1 .4 4.183l-5.374 7.913a.5.5 0 0 1 -.828-.562l5.374-7.913a2.3 2.3 0 0 0 -.368-3l-.006-.005a2.291 2.291 0 0 0 -3.146.1l-7.574 7.625a.487.487 0 0 1 -.1.08 16.77 16.77 0 0 0 -8.442 15.427z"/><path d="m37 40.546c-5.035 0-8.979-8.149-8.979-18.551s3.944-18.552 8.979-18.552 8.979 8.149 8.979 18.551-3.944 18.552-8.979 18.552zm0-36.1c-4.325 0-7.979 8.038-7.979 17.551s3.654 17.549 7.979 17.549 7.979-8.038 7.979-17.551-3.654-17.552-7.979-17.552z"/><path d="m27.528 34.131c-3.2 0-5.517-.994-6.594-2.86-1.235-2.139-.666-5.111 1.6-8.371a31.324 31.324 0 0 1 9.973-8.68 31.346 31.346 0 0 1 12.5-4.3c3.963-.333 6.816.658 8.051 2.8s.666 5.111-1.6 8.371a31.336 31.336 0 0 1 -9.973 8.68 31.337 31.337 0 0 1 -12.5 4.3q-.756.06-1.457.06zm18.958-23.273q-.664 0-1.388.061a30.332 30.332 0 0 0 -12.088 4.167 30.331 30.331 0 0 0 -9.652 8.385c-2.035 2.923-2.589 5.516-1.559 7.3s3.546 2.6 7.1 2.3a30.332 30.332 0 0 0 12.09-4.171 30.343 30.343 0 0 0 9.652-8.385c2.036-2.915 2.588-5.515 1.559-7.296-.89-1.542-2.894-2.361-5.714-2.361z"/><path d="m46.472 34.131q-.7 0-1.457-.064a31.337 31.337 0 0 1 -12.5-4.3 31.336 31.336 0 0 1 -9.973-8.68c-2.27-3.26-2.839-6.232-1.6-8.371s4.089-3.129 8.051-2.8a31.346 31.346 0 0 1 12.5 4.3 31.324 31.324 0 0 1 9.973 8.68c2.27 3.26 2.839 6.232 1.6 8.371-1.078 1.87-3.392 2.864-6.594 2.864zm-18.958-23.273c-2.819 0-4.823.819-5.714 2.361-1.029 1.784-.477 4.376 1.559 7.3a30.343 30.343 0 0 0 9.652 8.381 30.332 30.332 0 0 0 12.089 4.171c3.558.3 6.071-.517 7.1-2.3s.477-4.376-1.559-7.3a30.331 30.331 0 0 0 -9.652-8.385 30.332 30.332 0 0 0 -12.089-4.167c-.48-.041-.944-.061-1.386-.061z"/><path d="m37 26.809a4.814 4.814 0 1 1 4.813-4.814 4.819 4.819 0 0 1 -4.813 4.814zm0-8.627a3.814 3.814 0 1 0 3.813 3.813 3.818 3.818 0 0 0 -3.813-3.814z"/></g><path d="m42.855 67.338a.611.611 0 0 1 .021-1.223l6.653.02a.611.611 0 1 1 -.021 1.223z" fill="#fff"/><path d="m51.538 67.385a.611.611 0 0 1 .018-1.223h.244a.611.611 0 1 1 -.013 1.223z" fill="#fff"/></svg>