<svg id="color_line" height="512" viewBox="0 0 74 74" width="512" xmlns="http://www.w3.org/2000/svg" data-name="color line"><path d="m69.059 2.125-8.959 10.99v51.742a5.268 5.268 0 0 1 -5.268 5.268h-41.623a5.268 5.268 0 0 1 -5.268-5.268v-62.732z" fill="#eeefee"/><path d="m69.06 2.12-8.96 10.99v51.75a5.262 5.262 0 0 1 -5.27 5.26h-41.62a5.256 5.256 0 0 1 -4.74-2.96 5.011 5.011 0 0 0 1.74.3h41.62a5.271 5.271 0 0 0 5.27-5.27v-51.74l6.79-8.33z" fill="#e1e6e9"/><path d="m53.231 39.933v23.319h-38.424v-27.952a15.181 15.181 0 0 1 4.4 1.841c1.8.989 3.682 2.019 5.742 2.047 2.528.041 4.822-1.442 7.24-2.184 3.778-1.154 7.844-.495 11.663.522 3.114.827 6.205 1.898 9.379 2.407z" fill="#fe7058"/><path d="m53.23 39.93v23.32h-38.42v-2.69h35.67v-21.2c.91.23 1.83.42 2.75.57z" fill="#ea6453"/><g fill="#323c6b"><path d="m53.23 15.213h-1.28a.5.5 0 0 1 0-1h1.28a.5.5 0 0 1 0 1z"/><path d="m53.23 21.624h-2.159a.5.5 0 0 1 0-1h2.159a.5.5 0 0 1 0 1z"/><path d="m53.23 28.035h-1.28a.5.5 0 0 1 0-1h1.28a.5.5 0 0 1 0 1z"/><path d="m53.23 34.445h-2.159a.5.5 0 0 1 0-1h2.159a.5.5 0 0 1 0 1z"/><path d="m63.1 19.328a.5.5 0 0 1 -.5-.5v-4.645a.5.5 0 0 1 .112-.316l1.813-2.224a.5.5 0 1 1 .775.632l-1.7 2.085v4.468a.5.5 0 0 1 -.5.5z"/><path d="m63.1 21.879a.5.5 0 0 1 -.5-.5v-.51a.5.5 0 1 1 1 0v.51a.5.5 0 0 1 -.5.5z"/><path d="m9.782 72.866a.5.5 0 0 1 -.207-.045 8.78 8.78 0 0 1 -5.134-7.964.5.5 0 0 1 1 0 7.778 7.778 0 0 0 4.549 7.054.5.5 0 0 1 -.208.955z"/><path d="m4.941 63.292a.5.5 0 0 1 -.5-.5v-.4a.5.5 0 0 1 1 0v.4a.5.5 0 0 1 -.5.5z"/><path d="m54.833 70.625h-41.624a5.775 5.775 0 0 1 -5.769-5.768v-62.732a.5.5 0 0 1 .5-.5h61.119a.5.5 0 0 1 .388.816l-8.847 10.851v51.565a5.775 5.775 0 0 1 -5.767 5.768zm-46.393-68v62.232a4.774 4.774 0 0 0 4.769 4.768h41.624a4.774 4.774 0 0 0 4.767-4.768v-51.742a.5.5 0 0 1 .112-.316l8.294-10.174z"/><path d="m53.23 63.752h-38.423a.5.5 0 0 1 -.5-.5v-27.952a.5.5 0 0 1 .181-.385.509.509 0 0 1 .411-.107 15.538 15.538 0 0 1 4.547 1.9c1.75.962 3.563 1.958 5.506 1.984a12.075 12.075 0 0 0 4.687-1.256c.778-.322 1.583-.656 2.4-.907 4.125-1.26 8.547-.386 11.938.517.949.251 1.9.524 2.843.8a55.153 55.153 0 0 0 6.491 1.6.5.5 0 0 1 .421.494v23.312a.5.5 0 0 1 -.502.5zm-37.923-1h37.423v-22.4a59.664 59.664 0 0 1 -6.189-1.552c-.94-.272-1.879-.543-2.821-.792-3.262-.868-7.5-1.712-11.389-.527-.771.237-1.553.561-2.309.875a13.317 13.317 0 0 1 -5.085 1.332c-2.191-.03-4.2-1.134-5.975-2.109a17.137 17.137 0 0 0 -3.655-1.65z"/></g><path d="m16.963 44.634a.759.759 0 0 1 1.518 0l.051 7.41a.759.759 0 1 1 -1.518 0z" fill="#fff"/><path d="m17.04 54.69a.759.759 0 0 1 1.518-.006v.3a.759.759 0 1 1 -1.514.016v-.3z" fill="#fff"/></svg>