<svg id="color_line" height="512" viewBox="0 0 74 74" width="512" xmlns="http://www.w3.org/2000/svg" data-name="color line"><path d="m34.1 10.3-28.559 54.078a3.279 3.279 0 0 0 2.9 4.811h57.118a3.279 3.279 0 0 0 2.9-4.811l-28.559-54.078a3.279 3.279 0 0 0 -5.8 0z" fill="#27ccbc"/><path d="m65.56 69.19h-57.12a3.261 3.261 0 0 1 -3.24-2.83h55.65a3.286 3.286 0 0 0 2.9-4.82l-27.88-52.78a3.256 3.256 0 0 1 4.03 1.54l28.56 54.08a3.281 3.281 0 0 1 -2.9 4.81z" fill="#21b3a9"/><path d="m14.12 62.656 22.88-43.323 22.88 43.323z" fill="#eeefee"/><path d="m59.88 62.66h-2.94l-21.41-40.55 1.47-2.78z" fill="#e1e6e9"/><path d="m28.229 50.563c.195-9.193 10.424-15.343 10.424-15.343a19.948 19.948 0 0 0 3.83 9.713 9.461 9.461 0 0 1 2.179 6.132 5.068 5.068 0 0 1 -.059.71 7.217 7.217 0 0 1 -7.2 6.058h-1.864a7.243 7.243 0 0 1 -7.31-7.27z" fill="#fcd462"/><path d="m44.66 51.06a5.2 5.2 0 0 1 -.06.72 7.212 7.212 0 0 1 -7.2 6.05h-1.86a7.71 7.71 0 0 1 -1.53-.16h.94a7.209 7.209 0 0 0 7.19-6.06 5.2 5.2 0 0 0 .06-.71 9.391 9.391 0 0 0 -2.18-6.13 19.131 19.131 0 0 1 -3.56-7.99 23.923 23.923 0 0 1 2.19-1.56 20.016 20.016 0 0 0 3.83 9.71 9.429 9.429 0 0 1 2.18 6.13z" fill="#f7be56"/><path d="m48.8 58.333h-23.214a.5.5 0 0 1 0-1h23.214a.5.5 0 0 1 0 1z" fill="#323c6b"/><path d="m32.1 53.989c.1-4.861 5.512-8.113 5.512-8.113a10.548 10.548 0 0 0 2.025 5.136 5 5 0 0 1 1.152 3.242 2.68 2.68 0 0 1 -.031.376 3.816 3.816 0 0 1 -3.807 3.2h-.986a3.83 3.83 0 0 1 -3.865-3.841z" fill="#fe7058"/><g fill="#323c6b"><path d="m36.952 58.333h-.986a4.437 4.437 0 0 1 -3.153-1.325 4.177 4.177 0 0 1 -1.211-3.03c.107-5.079 5.523-8.393 5.753-8.531a.5.5 0 0 1 .756.388 10.113 10.113 0 0 0 1.917 4.865 5.529 5.529 0 0 1 1.262 3.563 3.219 3.219 0 0 1 -.036.439 4.325 4.325 0 0 1 -4.302 3.631zm.282-11.595c-1.386 1.012-4.558 3.711-4.634 7.262a3.185 3.185 0 0 0 .926 2.309 3.433 3.433 0 0 0 2.439 1.025h.986a3.32 3.32 0 0 0 3.312-2.775 2.269 2.269 0 0 0 .026-.3 4.484 4.484 0 0 0 -1.042-2.93 10.675 10.675 0 0 1 -2.013-4.59z"/><path d="m62.75 72.689h-8.75a.5.5 0 0 1 0-1h8.75a.5.5 0 0 1 0 1z"/><path d="m51.5 72.689h-.437a.5.5 0 0 1 0-1h.437a.5.5 0 0 1 0 1z"/><path d="m28.589 14.813a.5.5 0 0 1 -.442-.733l.2-.375a.5.5 0 0 1 .885.467l-.2.375a.5.5 0 0 1 -.443.266z"/><path d="m29.909 12.313a.5.5 0 0 1 -.441-.733l1.538-2.912a6.791 6.791 0 0 1 5.006-3.538.5.5 0 0 1 .145.989 5.79 5.79 0 0 0 -4.267 3.016l-1.538 2.912a.5.5 0 0 1 -.443.266z"/><path d="m65.559 69.689h-57.118a3.779 3.779 0 0 1 -3.341-5.544l28.558-54.077a3.779 3.779 0 0 1 6.684 0l28.558 54.077a3.779 3.779 0 0 1 -3.342 5.544zm-31.017-59.154-28.559 54.076a2.779 2.779 0 0 0 2.458 4.078h57.118a2.779 2.779 0 0 0 2.458-4.078l-28.559-54.076a2.78 2.78 0 0 0 -4.916 0z"/><path d="m59.88 63.156h-45.76a.5.5 0 0 1 -.442-.733l22.88-43.323a.52.52 0 0 1 .884 0l22.88 43.322a.5.5 0 0 1 -.442.733zm-44.93-1h44.1l-22.05-41.756z"/><path d="m37.4 58.333h-1.861a7.947 7.947 0 0 1 -5.646-2.373 7.459 7.459 0 0 1 -2.164-5.408c.2-9.361 10.238-15.5 10.666-15.761a.5.5 0 0 1 .756.388 19.586 19.586 0 0 0 3.721 9.44 10.015 10.015 0 0 1 2.289 6.453 5.547 5.547 0 0 1 -.064.774 7.731 7.731 0 0 1 -7.697 6.487zm-9.174-7.77.5.011a6.465 6.465 0 0 0 1.878 4.687 6.942 6.942 0 0 0 4.932 2.072h1.864a6.727 6.727 0 0 0 6.7-5.63 4.649 4.649 0 0 0 .053-.639 8.907 8.907 0 0 0 -2.07-5.819 20.022 20.022 0 0 1 -3.835-9.166c-2.226 1.532-9.369 7.026-9.527 14.495z"/></g><path d="m19.73 42.861a.653.653 0 0 1 1.145.627l-4.01 7.4a.653.653 0 1 1 -1.145-.627z" fill="#fff"/><path d="m14.323 52.848a.653.653 0 0 1 1.147.624l-.122.231a.653.653 0 1 1 -1.149-.62l.122-.231z" fill="#fff"/></svg>