<svg id="color_line" height="512" viewBox="0 0 74 74" width="512" xmlns="http://www.w3.org/2000/svg" data-name="color line"><path d="m51.641 65.127c-4.293 3.649-9.297 5.873-14.641 5.873s-10.348-2.224-14.641-5.873l-11.168-16.366a44.765 44.765 0 0 1 -3.061-15.936c0-18.377 12.926-29.825 28.87-29.825s28.87 11.448 28.87 29.825a44.765 44.765 0 0 1 -3.061 15.936z" fill="#9297ab"/><path d="m37 3a29.24 29.24 0 0 0 -17.45 5.5 29.913 29.913 0 0 1 14.14-3.42c15.94 0 28.87 11.45 28.87 29.83a44.94 44.94 0 0 1 -3.06 15.93l-9.292 13.618h1.892l10.71-15.698a44.732 44.732 0 0 0 3.06-15.94c0-18.37-12.93-29.82-28.87-29.82z" fill="#84879c"/><path d="m29.99 21.867a51.8 51.8 0 0 0 -11.2.13 4.967 4.967 0 0 0 -4.313 5.51l.761 6.509a4.96 4.96 0 0 0 6.024 4.266c6.075-1.428 10.105-4.662 12.565-9.28a4.913 4.913 0 0 0 -3.837-7.135z" fill="#89c5cd"/><path d="m20.152 38.91a5.426 5.426 0 0 1 -3.114-.986 5.485 5.485 0 0 1 -2.3-3.849l-.761-6.509a5.466 5.466 0 0 1 4.75-6.065 52.561 52.561 0 0 1 11.312-.131 5.413 5.413 0 0 1 4.226 7.867c-2.626 4.932-6.964 8.139-12.892 9.532a5.332 5.332 0 0 1 -1.221.141zm4.848-16.784a51.553 51.553 0 0 0 -6.148.368 4.464 4.464 0 0 0 -3.882 4.956l.761 6.509a4.488 4.488 0 0 0 1.881 3.147 4.4 4.4 0 0 0 3.532.69c5.714-1.343 9.718-4.3 12.238-9.028a4.413 4.413 0 0 0 -3.44-6.4c-1.642-.162-3.294-.242-4.942-.242z" fill="#323c6b"/><path d="m44.01 21.867a51.8 51.8 0 0 1 11.2.13 4.967 4.967 0 0 1 4.313 5.51l-.761 6.509a4.96 4.96 0 0 1 -6.024 4.266c-6.072-1.428-10.102-4.661-12.562-9.282a4.913 4.913 0 0 1 3.834-7.133z" fill="#89c5cd"/><path d="m53.848 38.91a5.332 5.332 0 0 1 -1.221-.141c-5.928-1.394-10.266-4.6-12.892-9.532a5.413 5.413 0 0 1 4.226-7.867 52.623 52.623 0 0 1 11.312.131 5.466 5.466 0 0 1 4.75 6.065l-.761 6.509a5.485 5.485 0 0 1 -2.3 3.849 5.428 5.428 0 0 1 -3.114.986zm-9.79-16.545a4.413 4.413 0 0 0 -3.44 6.4c2.52 4.731 6.523 7.685 12.238 9.028a4.4 4.4 0 0 0 3.532-.69 4.488 4.488 0 0 0 1.881-3.147l.761-6.509a4.464 4.464 0 0 0 -3.876-4.956 51.563 51.563 0 0 0 -11.1-.129z" fill="#323c6b"/><circle cx="37" cy="51.452" fill="#84879c" r="9.298"/><path d="m37 61.25a9.8 9.8 0 1 1 9.8-9.8 9.809 9.809 0 0 1 -9.8 9.8zm0-18.6a8.8 8.8 0 1 0 8.8 8.8 8.808 8.808 0 0 0 -8.8-8.796z" fill="#323c6b"/><circle cx="37" cy="46.72" fill="#9297ab" r="1.42"/><circle cx="37" cy="56.184" fill="#9297ab" r="1.42"/><circle cx="41.732" cy="51.452" fill="#9297ab" r="1.42"/><circle cx="32.268" cy="51.452" fill="#9297ab" r="1.42"/><g fill="#323c6b"><path d="m66.909 46.447a.491.491 0 0 1 -.141-.021.5.5 0 0 1 -.338-.621 48.357 48.357 0 0 0 1.62-7.905.5.5 0 1 1 .993.118 49.357 49.357 0 0 1 -1.655 8.071.5.5 0 0 1 -.479.358z"/><path d="m15.083 8.893a.5.5 0 0 1 -.348-.859l.155-.151c.1-.1.159-.156.315-.3a.5.5 0 1 1 .671.741c-.141.128-.2.183-.285.27l-.161.157a.5.5 0 0 1 -.347.142z"/><path d="m17.941 6.5a.5.5 0 0 1 -.3-.9 31.357 31.357 0 0 1 8.615-4.415.5.5 0 0 1 .312.95 30.349 30.349 0 0 0 -8.332 4.265.5.5 0 0 1 -.295.1z"/><path d="m68.713 36.154a.483.483 0 0 1 -.059 0 .5.5 0 0 1 -.438-.555 3.345 3.345 0 0 0 0-.562.5.5 0 0 1 .463-.534.49.49 0 0 1 .534.463 4.34 4.34 0 0 1 -.008.75.5.5 0 0 1 -.492.438z"/><path d="m37 71.5c-5.178 0-10.353-2.072-14.965-5.992a.493.493 0 0 1 -.089-.1l-11.168-16.366a.521.521 0 0 1 -.054-.1 45.361 45.361 0 0 1 -3.094-16.117c0-17.855 12.078-30.325 29.37-30.325s29.37 12.47 29.37 30.325a45.361 45.361 0 0 1 -3.094 16.115.521.521 0 0 1 -.054.1l-11.168 16.369a.493.493 0 0 1 -.089.1c-4.612 3.919-9.787 5.991-14.965 5.991zm-14.266-6.711c4.415 3.736 9.347 5.711 14.266 5.711s9.851-1.975 14.266-5.71l11.1-16.263a44.338 44.338 0 0 0 3.006-15.7c-.002-17.268-11.672-29.327-28.372-29.327s-28.37 12.059-28.37 29.325a44.338 44.338 0 0 0 3.006 15.7z"/></g><ellipse cx="12.468" cy="58.73" fill="#9297ab" rx="5.254" ry="9.71" transform="matrix(.942 -.337 .337 .942 -19.036 7.62)"/><path d="m14.725 68.547a5.843 5.843 0 0 1 -3.779-1.729 15.218 15.218 0 0 1 -3.9-6.151c-1.923-5.392-1.052-10.467 1.986-11.551 1.5-.538 3.264.005 4.958 1.526a15.225 15.225 0 0 1 3.9 6.152c1.926 5.392 1.055 10.465-1.982 11.551a3.479 3.479 0 0 1 -1.183.202zm-4.515-18.632a2.493 2.493 0 0 0 -.842.143c-2.427.867-3.057 5.572-1.377 10.272a14.214 14.214 0 0 0 3.623 5.744c1.408 1.264 2.812 1.735 3.953 1.33 2.427-.867 3.058-5.572 1.378-10.272a14.217 14.217 0 0 0 -3.623-5.745 4.89 4.89 0 0 0 -3.112-1.472z" fill="#323c6b"/><path d="m23.512 64.648c2.732-.976 3.484-5.862 1.68-10.912s-5.482-8.352-8.215-7.376l-7.777 3.226c2.732-.976 6.41 2.326 8.215 7.376s1.052 9.935-1.68 10.912z" fill="#84879c"/><path d="m15.735 68.374a.5.5 0 0 1 -.191-.962l.252-.1c2.236-1.074 2.774-5.627 1.149-10.177a14.217 14.217 0 0 0 -3.623-5.745c-1.408-1.265-2.813-1.736-3.953-1.329a.5.5 0 0 1 -.36-.933l7.777-3.228c3.058-1.091 6.95 2.278 8.877 7.669s1.058 10.452-1.97 11.546l-7.482 3.1c-.1.047-.2.089-.308.127a.5.5 0 0 1 -.168.032zm-4.172-19.227a7.112 7.112 0 0 1 2.426 1.495 15.225 15.225 0 0 1 3.9 6.152c1.345 3.766 1.326 7.376.157 9.582l5.278-2.189.023-.009c2.426-.867 3.057-5.572 1.377-10.272s-5.151-7.937-7.576-7.074z" fill="#323c6b"/><ellipse cx="61.532" cy="58.73" fill="#9297ab" rx="9.71" ry="5.254" transform="matrix(.337 -.942 .942 .337 -14.478 96.911)"/><path d="m59.275 68.547a3.479 3.479 0 0 1 -1.178-.2c-3.038-1.085-3.909-6.159-1.982-11.551a15.225 15.225 0 0 1 3.9-6.152c1.695-1.521 3.455-2.064 4.958-1.526 3.038 1.086 3.909 6.159 1.982 11.551a15.218 15.218 0 0 1 -3.9 6.151 5.843 5.843 0 0 1 -3.78 1.727zm-2.219-11.416c-1.68 4.7-1.049 9.405 1.378 10.272 1.141.405 2.544-.065 3.953-1.33a14.214 14.214 0 0 0 3.623-5.744c1.68-4.7 1.049-9.405-1.377-10.272-1.142-.407-2.545.064-3.953 1.329a14.217 14.217 0 0 0 -3.623 5.745z" fill="#323c6b"/><path d="m50.488 64.648c-2.732-.976-3.484-5.862-1.68-10.912s5.482-8.352 8.215-7.376l7.777 3.226c-2.732-.976-6.41 2.326-8.215 7.376s-1.052 9.935 1.68 10.912z" fill="#84879c"/><path d="m58.265 68.374a.5.5 0 0 1 -.168-.029c-.1-.038-.208-.08-.308-.127l-7.482-3.1c-3.028-1.095-3.894-6.162-1.97-11.546s5.816-8.772 8.853-7.682l7.8 3.235a.5.5 0 0 1 -.36.933c-1.142-.407-2.545.064-3.953 1.329a14.217 14.217 0 0 0 -3.623 5.745c-1.625 4.55-1.087 9.1 1.149 10.177l.252.1a.5.5 0 0 1 -.191.962zm-2.25-21.69c-2.319 0-5.239 3.029-6.737 7.221-1.68 4.7-1.049 9.405 1.377 10.272l.023.009 5.278 2.189c-1.169-2.205-1.188-5.816.157-9.582a15.225 15.225 0 0 1 3.9-6.152 7.119 7.119 0 0 1 2.426-1.495l-5.605-2.325a2.409 2.409 0 0 0 -.819-.137z" fill="#323c6b"/><path d="m12.726 43.059a.756.756 0 0 1 -.721-.591 36.606 36.606 0 0 1 -1.1-8.5.756.756 0 0 1 .743-.769.769.769 0 0 1 .769.743 35.146 35.146 0 0 0 1.059 8.191.756.756 0 0 1 -.573.9.772.772 0 0 1 -.177.026z" fill="#fff"/><path d="m11.7 32.088h-.029a.757.757 0 0 1 -.71-.8l.053-.638a.743.743 0 0 1 .808-.7.756.756 0 0 1 .7.808l-.052.62a.756.756 0 0 1 -.77.71z" fill="#fff"/></svg>