<svg id="color_line" height="512" viewBox="0 0 74 74" width="512" xmlns="http://www.w3.org/2000/svg" data-name="color line"><path d="m42.674 26.356-5.814 7.134v33.589a3.42 3.42 0 0 1 -3.42 3.42h-27.02a3.42 3.42 0 0 1 -3.42-3.42v-40.723z" fill="#eeefee"/><path d="m42.67 26.36-5.81 7.13v33.59a3.418 3.418 0 0 1 -3.42 3.42h-27.02a3.411 3.411 0 0 1 -3.28-2.46 2.416 2.416 0 0 0 .47.04h27.02a3.425 3.425 0 0 0 3.42-3.42v-32.4l4.8-5.9z" fill="#e1e6e9"/><path d="m33.357 50.434v16.3h-26.857v-19.534a10.611 10.611 0 0 1 3.073 1.287 8.846 8.846 0 0 0 4.014 1.431c1.767.029 3.37-1.008 5.06-1.527 2.641-.807 5.483-.346 8.152.365 2.179.573 4.34 1.322 6.558 1.678z" fill="#fe7058"/><path d="m33.36 50.43v16.3h-26.86v-2.33h24.5v-14.47c.78.2 1.57.38 2.36.5z" fill="#ea6453"/><path d="m32.4 35.028h-.831a.5.5 0 0 1 0-1h.831a.5.5 0 0 1 0 1z" fill="#323c6b"/><path d="m32.4 39.189h-1.4a.5.5 0 1 1 0-1h1.4a.5.5 0 0 1 0 1z" fill="#323c6b"/><path d="m32.4 43.351h-.831a.5.5 0 0 1 0-1h.831a.5.5 0 0 1 0 1z" fill="#323c6b"/><path d="m32.4 47.513h-1.4a.5.5 0 0 1 0-1h1.4a.5.5 0 0 1 0 1z" fill="#323c6b"/><path d="m71 15.69a6.584 6.584 0 0 1 -.08.98 5.991 5.991 0 0 1 -6.89 4.93l-10.46-1.72a8.967 8.967 0 0 1 1-4.46 26.14 26.14 0 0 0 1.76-4.29 6.446 6.446 0 0 0 .07-2.93l9.59 1.58a6 6 0 0 1 5.01 5.91z" fill="#fe7058"/><path d="m56.33 11.13a26.14 26.14 0 0 1 -1.76 4.29 8.967 8.967 0 0 0 -1 4.46l-12.45-2.04 1.95-11.82 13.13 2.15.2.03a6.446 6.446 0 0 1 -.07 2.93z" fill="#eeefee"/><path d="m71 15.69a6.584 6.584 0 0 1 -.08.98 5.953 5.953 0 0 1 -1.67 3.25 6.288 6.288 0 0 0 .38-1.32 6.584 6.584 0 0 0 .08-.98 6 6 0 0 0 -5.01-5.91l-8.23-1.36a5.969 5.969 0 0 0 -.07-2.15l9.59 1.58a6 6 0 0 1 5.01 5.91z" fill="#ea6453"/><path d="m56.47 10.35-13.74-2.25.34-2.08 13.13 2.15.2.03a5.969 5.969 0 0 1 .07 2.15z" fill="#e1e6e9"/><path d="m28.607 26.356a9.174 9.174 0 0 1 7.9-9.807l1.84-10.371c-2.747-.724-18.419.655-21.717 20.178z" fill="#fe7058"/><path d="m38.35 6.18-.3 1.71c-4.99.24-15.96 3.52-19.27 18.47h-2.15c3.3-19.53 18.97-20.91 21.72-20.18z" fill="#ea6453"/><path d="m38.481 5.437-1.9 11.474a2.312 2.312 0 0 0 4.562.754l1.9-11.474a2.312 2.312 0 0 0 -4.562-.754z" fill="#9297ab"/><path d="m40.79 5.48a2.317 2.317 0 0 1 1.91 2.645h.02l.32-1.935a2.311 2.311 0 1 0 -4.56-.75l-.29 1.76a2.286 2.286 0 0 1 2.6-1.72z" fill="#84879c"/><g fill="#323c6b"><path d="m36.063 73.433a.5.5 0 0 1 -.205-.956 5.934 5.934 0 0 0 3.5-5.4.5.5 0 0 1 1 0 6.935 6.935 0 0 1 -4.093 6.31.5.5 0 0 1 -.202.046z"/><path d="m39.86 65.516a.5.5 0 0 1 -.5-.5v-.406a.5.5 0 0 1 1 0v.406a.5.5 0 0 1 -.5.5z"/><path d="m47.22 4.158a.5.5 0 0 1 -.081-.006l-.375-.061a.5.5 0 0 1 .16-.987l.375.061a.5.5 0 0 1 -.079.994z"/><path d="m56.626 5.7a.516.516 0 0 1 -.082-.006l-7.281-1.194a.5.5 0 0 1 .162-.987l7.281 1.187a.5.5 0 0 1 -.08.994z"/><path d="m33.44 71h-27.02a3.924 3.924 0 0 1 -3.92-3.92v-40.724a.5.5 0 0 1 .5-.5h39.675a.5.5 0 0 1 .388.816l-5.7 7v33.407a3.924 3.924 0 0 1 -3.923 3.921zm-29.94-44.144v40.223a2.923 2.923 0 0 0 2.92 2.921h27.02a2.923 2.923 0 0 0 2.92-2.92v-33.59a.5.5 0 0 1 .112-.316l5.149-6.318z"/><path d="m33.356 67.233h-26.856a.5.5 0 0 1 -.5-.5v-19.533a.5.5 0 0 1 .592-.491 10.974 10.974 0 0 1 3.223 1.34 8.446 8.446 0 0 0 3.778 1.368 7.729 7.729 0 0 0 3.216-.866c.547-.227 1.113-.462 1.691-.639 2.921-.893 6.039-.276 8.428.36.663.175 1.325.367 1.987.558a38.49 38.49 0 0 0 4.521 1.112.5.5 0 0 1 .421.494v16.3a.5.5 0 0 1 -.501.497zm-26.356-1h25.856v-15.378a42.917 42.917 0 0 1 -4.219-1.066c-.655-.189-1.311-.379-1.967-.552-2.26-.6-5.2-1.188-7.879-.371-.531.164-1.075.389-1.6.606a8.935 8.935 0 0 1 -3.613.942 9.323 9.323 0 0 1 -4.247-1.493 12.858 12.858 0 0 0 -2.331-1.083z"/><path d="m65.011 22.181a6.486 6.486 0 0 1 -1.062-.087l-10.46-1.72a.5.5 0 0 1 -.417-.444 9.5 9.5 0 0 1 1.042-4.714c.154-.346.317-.692.48-1.038a17.311 17.311 0 0 0 1.25-3.167 5.966 5.966 0 0 0 .068-2.7.5.5 0 0 1 .123-.455.49.49 0 0 1 .445-.151l9.59 1.58a6.476 6.476 0 0 1 5.429 6.4 7.163 7.163 0 0 1 -.086 1.055 6.505 6.505 0 0 1 -6.402 5.441zm-10.965-2.73 10.065 1.656a5.506 5.506 0 0 0 6.315-4.519 6.175 6.175 0 0 0 .073-.9 5.479 5.479 0 0 0 -4.593-5.417l-8.9-1.466a7.307 7.307 0 0 1 -.19 2.442 18.2 18.2 0 0 1 -1.316 3.353c-.161.34-.32.679-.474 1.021a9.189 9.189 0 0 0 -.98 3.83z"/><path d="m53.57 20.38a.5.5 0 0 1 -.081-.006l-12.45-2.04a.5.5 0 0 1 -.412-.575l1.95-11.82a.5.5 0 0 1 .574-.412l13.324 2.18a.5.5 0 0 1 .412.381 6.964 6.964 0 0 1 -.072 3.161 18.216 18.216 0 0 1 -1.315 3.351c-.161.34-.32.679-.474 1.021a8.6 8.6 0 0 0 -.958 4.207.5.5 0 0 1 -.5.549zm-11.87-2.953 11.35 1.86a10.365 10.365 0 0 1 1.069-4.072c.154-.346.317-.692.48-1.038a17.391 17.391 0 0 0 1.25-3.166 6.209 6.209 0 0 0 .131-2.371l-12.498-2.046z"/><path d="m38.871 20.1a2.816 2.816 0 0 1 -2.78-3.271l1.9-11.474a2.812 2.812 0 1 1 5.548.917l-1.9 11.474a2.813 2.813 0 0 1 -2.768 2.354zm1.888-16.1a1.813 1.813 0 0 0 -1.784 1.517l-1.9 11.474a1.812 1.812 0 1 0 3.575.591l1.9-11.474a1.813 1.813 0 0 0 -1.791-2.108z"/><path d="m28.606 26.856h-11.976a.5.5 0 0 1 -.493-.583c1.688-9.986 6.6-15.024 10.425-17.492 5.124-3.306 10.328-3.504 11.917-3.081a.5.5 0 0 1 .365.571l-1.844 10.365a.5.5 0 0 1 -.452.411 8.652 8.652 0 0 0 -7.445 9.292.5.5 0 0 1 -.5.517zm-11.38-1h10.874a9.654 9.654 0 0 1 7.984-9.756l1.688-9.513a17.919 17.919 0 0 0 -10.672 3.035c-5.178 3.343-8.5 8.803-9.873 16.234z"/></g><path d="m8.575 54.118a.5.5 0 0 1 1 .011l.02 4.7a.5.5 0 1 1 -1-.011z" fill="#fff"/><path d="m8.585 60.476a.5.5 0 0 1 1 .008v.2a.5.5 0 1 1 -1 0v-.2z" fill="#fff"/></svg>