<svg id="color_line" height="512" viewBox="0 0 74 74" width="512" xmlns="http://www.w3.org/2000/svg" data-name="color line"><g fill="#d5d6db"><path d="m34.259 13.8a.745.745 0 0 1 -.374-.1l-10.085-5.821a.75.75 0 0 1 .75-1.3l10.08 5.82a.75.75 0 0 1 -.376 1.4z"/><path d="m8.681 13.8a.75.75 0 0 1 -.381-1.4l10.1-5.82a.75.75 0 0 1 .75 1.3l-10.095 5.82a.749.749 0 0 1 -.374.1z"/><path d="m18.77 40.72a.751.751 0 0 1 -.375-.1l-10.08-5.83a.75.75 0 0 1 .752-1.3l10.08 5.83a.75.75 0 0 1 -.377 1.4z"/><path d="m24.181 40.72a.75.75 0 0 1 -.376-1.4l10.07-5.82a.75.75 0 1 1 .75 1.3l-10.07 5.82a.745.745 0 0 1 -.374.1z"/><path d="m65.319 13.8a.749.749 0 0 1 -.374-.1l-10.09-5.82a.75.75 0 0 1 .75-1.3l10.095 5.82a.75.75 0 0 1 -.376 1.4z"/><path d="m39.741 13.8a.75.75 0 0 1 -.376-1.4l10.08-5.82a.75.75 0 0 1 .75 1.3l-10.08 5.82a.745.745 0 0 1 -.374.1z"/><path d="m49.819 40.72a.745.745 0 0 1 -.374-.1l-10.07-5.82a.75.75 0 1 1 .75-1.3l10.075 5.82a.75.75 0 0 1 -.376 1.4z"/><path d="m55.231 40.72a.75.75 0 0 1 -.377-1.4l10.08-5.83a.75.75 0 0 1 .752 1.3l-10.08 5.83a.751.751 0 0 1 -.375.1z"/><path d="m68.05 30.279a.75.75 0 0 1 -.75-.75v-11.86a.75.75 0 1 1 1.5 0v11.86a.75.75 0 0 1 -.75.75z"/><path d="m5.95 30.279a.75.75 0 0 1 -.75-.75v-11.86a.75.75 0 0 1 1.5 0v11.86a.75.75 0 0 1 -.75.75z"/><path d="m37 30.279a.75.75 0 0 1 -.75-.75v-11.86a.75.75 0 1 1 1.5 0v11.86a.75.75 0 0 1 -.75.75z"/><path d="m49.819 40.72a.745.745 0 0 1 -.374-.1l-10.07-5.82a.75.75 0 1 1 .75-1.3l10.075 5.82a.75.75 0 0 1 -.376 1.4z"/><path d="m24.181 40.72a.75.75 0 0 1 -.376-1.4l10.07-5.82a.75.75 0 1 1 .75 1.3l-10.07 5.82a.745.745 0 0 1 -.374.1z"/><path d="m21.47 57.08a.75.75 0 0 1 -.75-.75v-11.681a.75.75 0 0 1 1.5 0v11.681a.75.75 0 0 1 -.75.75z"/><path d="m34.249 67.589a.745.745 0 0 1 -.374-.1l-10.08-5.82a.75.75 0 1 1 .75-1.3l10.08 5.82a.75.75 0 0 1 -.376 1.4z"/><path d="m39.751 67.589a.75.75 0 0 1 -.376-1.4l10.08-5.82a.75.75 0 1 1 .75 1.3l-10.08 5.82a.745.745 0 0 1 -.374.1z"/><path d="m52.53 57.08a.75.75 0 0 1 -.75-.75v-11.681a.75.75 0 0 1 1.5 0v11.681a.75.75 0 0 1 -.75.75z"/></g><circle cx="21.473" cy="5.67" fill="#fcd462" r="3.125"/><path d="m21.474 9.294a3.625 3.625 0 1 1 3.626-3.625 3.629 3.629 0 0 1 -3.626 3.625zm0-6.25a2.625 2.625 0 1 0 2.626 2.625 2.628 2.628 0 0 0 -2.626-2.625z" fill="#323c6b"/><circle cx="5.947" cy="14.545" fill="#eeefee" r="3.125"/><path d="m5.947 18.169a3.625 3.625 0 1 1 3.625-3.625 3.629 3.629 0 0 1 -3.625 3.625zm0-6.25a2.625 2.625 0 1 0 2.625 2.625 2.628 2.628 0 0 0 -2.625-2.625z" fill="#323c6b"/><circle cx="21.473" cy="41.527" fill="#eeefee" r="3.125"/><path d="m21.474 45.151a3.625 3.625 0 1 1 3.626-3.625 3.629 3.629 0 0 1 -3.626 3.625zm0-6.25a2.625 2.625 0 1 0 2.626 2.625 2.628 2.628 0 0 0 -2.626-2.626z" fill="#323c6b"/><circle cx="5.947" cy="32.652" fill="#05afd6" r="3.125"/><path d="m5.947 36.276a3.625 3.625 0 1 1 3.625-3.625 3.629 3.629 0 0 1 -3.625 3.625zm0-6.25a2.625 2.625 0 1 0 2.625 2.625 2.628 2.628 0 0 0 -2.625-2.625z" fill="#323c6b"/><circle cx="52.527" cy="5.67" fill="#fcd462" r="3.125"/><path d="m52.526 9.294a3.625 3.625 0 1 1 3.625-3.625 3.629 3.629 0 0 1 -3.625 3.625zm0-6.25a2.625 2.625 0 1 0 2.625 2.625 2.628 2.628 0 0 0 -2.625-2.625z" fill="#323c6b"/><circle cx="68.053" cy="14.545" fill="#eeefee" r="3.125"/><path d="m68.053 18.169a3.625 3.625 0 1 1 3.625-3.625 3.629 3.629 0 0 1 -3.625 3.625zm0-6.25a2.625 2.625 0 1 0 2.625 2.625 2.628 2.628 0 0 0 -2.625-2.625z" fill="#323c6b"/><circle cx="37" cy="14.545" fill="#27ccbc" r="3.125"/><path d="m37 18.169a3.625 3.625 0 1 1 3.625-3.625 3.629 3.629 0 0 1 -3.625 3.625zm0-6.25a2.625 2.625 0 1 0 2.625 2.625 2.628 2.628 0 0 0 -2.625-2.625z" fill="#323c6b"/><circle cx="52.527" cy="41.527" fill="#fcd462" r="3.125"/><path d="m52.526 45.151a3.625 3.625 0 1 1 3.625-3.625 3.629 3.629 0 0 1 -3.625 3.625zm0-6.25a2.625 2.625 0 1 0 2.625 2.625 2.628 2.628 0 0 0 -2.625-2.626z" fill="#323c6b"/><circle cx="68.053" cy="32.652" fill="#05afd6" r="3.125"/><path d="m68.053 36.276a3.625 3.625 0 1 1 3.625-3.625 3.629 3.629 0 0 1 -3.625 3.625zm0-6.25a2.625 2.625 0 1 0 2.625 2.625 2.628 2.628 0 0 0 -2.625-2.625z" fill="#323c6b"/><circle cx="37" cy="32.652" fill="#fe7058" r="3.125"/><path d="m37 36.276a3.625 3.625 0 1 1 3.625-3.625 3.629 3.629 0 0 1 -3.625 3.625zm0-6.25a2.625 2.625 0 1 0 2.625 2.625 2.628 2.628 0 0 0 -2.625-2.625z" fill="#323c6b"/><circle cx="21.473" cy="59.455" fill="#05afd6" r="3.125"/><path d="m21.474 63.081a3.625 3.625 0 1 1 3.626-3.625 3.629 3.629 0 0 1 -3.626 3.625zm0-6.25a2.625 2.625 0 1 0 2.626 2.625 2.628 2.628 0 0 0 -2.626-2.625z" fill="#323c6b"/><circle cx="52.527" cy="59.455" fill="#27ccbc" r="3.125"/><path d="m52.526 63.081a3.625 3.625 0 1 1 3.625-3.625 3.629 3.629 0 0 1 -3.625 3.625zm0-6.25a2.625 2.625 0 1 0 2.625 2.625 2.628 2.628 0 0 0 -2.625-2.625z" fill="#323c6b"/><circle cx="37" cy="68.33" fill="#fcd462" r="3.125"/><path d="m37 71.956a3.625 3.625 0 1 1 3.625-3.625 3.629 3.629 0 0 1 -3.625 3.625zm0-6.25a2.625 2.625 0 1 0 2.625 2.625 2.628 2.628 0 0 0 -2.625-2.625z" fill="#323c6b"/></svg>