<svg id="color_line" height="512" viewBox="0 0 74 74" width="512" xmlns="http://www.w3.org/2000/svg" data-name="color line"><rect fill="#e7aa6c" height="8.561" rx="1.168" width="68" x="2" y="32.109"/><path d="m6.03 40.67h59.94v30.327h-59.94z" fill="#e7aa6c"/><path d="m70 33.278v6.222a1.168 1.168 0 0 1 -1.168 1.168h-2.082v-8.558h2.082a1.168 1.168 0 0 1 1.168 1.168z" fill="#d09865"/><path d="m65.97 40.67v30.33h-59.94v-2.94h56.69v-27.39z" fill="#d09865"/><path d="m55.69 21.95v8.45a1.716 1.716 0 0 1 -1.71 1.71h-10.33a1.707 1.707 0 0 1 -1.7-1.71v-5.59a3.031 3.031 0 0 1 2.14-1.44c2.45-.54 4.97.5 7.45.28a7.963 7.963 0 0 0 4.15-1.7z" fill="#fe7058"/><path d="m57.77 17.26-2.08 2.63v2.06a7.963 7.963 0 0 1 -4.15 1.7c-2.48.22-5-.82-7.45-.28a3.031 3.031 0 0 0 -2.14 1.44v-8.73a1.287 1.287 0 0 1 1.29-1.29h13.33a1.527 1.527 0 0 1 1.2 2.47z" fill="#eeefee"/><path d="m55.69 21.95v8.45a1.716 1.716 0 0 1 -1.71 1.71h-10.33a1.707 1.707 0 0 1 -1.7-1.71v-.17h10.11a1.716 1.716 0 0 0 1.71-1.71v-5.44a8.132 8.132 0 0 0 1.92-1.13z" fill="#ea6453"/><path d="m57.77 17.26-2.08 2.63v2.06a8.132 8.132 0 0 1 -1.92 1.13v-3.19l2.08-2.63a1.527 1.527 0 0 0 -1.2-2.47h1.92a1.527 1.527 0 0 1 1.2 2.47z" fill="#e1e6e9"/><path d="m52.142 21.554h-.822a.5.5 0 0 1 0-1h.822a.5.5 0 0 1 0 1z" fill="#323c6b"/><path d="m52.142 25.38h-.274a.5.5 0 0 1 0-1h.274a.5.5 0 0 1 0 1z" fill="#323c6b"/><path d="m52.142 29.207h-.549a.5.5 0 0 1 0-1h.549a.5.5 0 0 1 0 1z" fill="#323c6b"/><path d="m33.86 22.94a9.986 9.986 0 0 1 -6.02 9.17h-7.91a9.979 9.979 0 0 1 -6.03-9.17 9.864 9.864 0 0 1 .18-1.9h.01a5.849 5.849 0 0 1 4.1-.58 40.909 40.909 0 0 1 5.32 1.86 6.95 6.95 0 0 0 5.48-.04 17.788 17.788 0 0 1 2.6-1.65 3.513 3.513 0 0 1 1.98-.07 9.822 9.822 0 0 1 .29 2.38z" fill="#27ccbc"/><path d="m33.57 20.56a3.513 3.513 0 0 0 -1.98.07 17.788 17.788 0 0 0 -2.6 1.65 6.95 6.95 0 0 1 -5.48.04 40.909 40.909 0 0 0 -5.32-1.86 5.849 5.849 0 0 0 -4.1.58 9.966 9.966 0 0 1 5.64-7.17v-6.87h8.3v6.87a9.982 9.982 0 0 1 5.54 6.69z" fill="#eeefee"/><path d="m33.86 22.94a9.986 9.986 0 0 1 -6.02 9.17h-2.25a9.979 9.979 0 0 0 5.77-11.38 2.275 2.275 0 0 1 .23-.1 3.513 3.513 0 0 1 1.98-.07 9.822 9.822 0 0 1 .29 2.38z" fill="#21b3a9"/><path d="m33.57 20.56a3.513 3.513 0 0 0 -1.98.07 2.429 2.429 0 0 0 -.37.16 9.915 9.915 0 0 0 -5.31-5.91v-7.88h2.12v6.87a9.982 9.982 0 0 1 5.54 6.69z" fill="#e1e6e9"/><rect fill="#9297ab" height="3.995" rx="1.146" width="10.757" x="18.505" y="3.003"/><path d="m28.116 7.5h-8.466a1.648 1.648 0 0 1 -1.65-1.648v-1.7a1.648 1.648 0 0 1 1.65-1.652h8.466a1.648 1.648 0 0 1 1.646 1.646v1.7a1.648 1.648 0 0 1 -1.646 1.654zm-8.466-4a.647.647 0 0 0 -.65.648v1.7a.647.647 0 0 0 .646.646h8.466a.647.647 0 0 0 .646-.646v-1.7a.647.647 0 0 0 -.646-.646z" fill="#323c6b"/><path d="m33.58 21.06h-.01a.5.5 0 1 1 .01 0z" fill="#323c6b"/><circle cx="19.17" cy="25.058" fill="#21b3a9" r="1.111"/><circle cx="24.429" cy="28.691" fill="#21b3a9" r=".962"/><circle cx="28.86" cy="25.737" fill="#21b3a9" r=".988"/><g fill="#323c6b"><path d="m65.391 29.609h-.812a.5.5 0 0 1 0-1h.813a.5.5 0 0 1 0 1z"/><path d="m73 33.917a.5.5 0 0 1 -.5-.5v-1.9a1.905 1.905 0 0 0 -1.9-1.9h-2.959a.5.5 0 0 1 0-1h2.959a2.907 2.907 0 0 1 2.9 2.9v1.9a.5.5 0 0 1 -.5.5z"/><path d="m3.03 58.688a.5.5 0 0 1 -.5-.5v-.375a.5.5 0 0 1 1 0v.375a.5.5 0 0 1 -.5.5z"/><path d="m3.03 56.25a.5.5 0 0 1 -.5-.5v-7.25a.5.5 0 0 1 1 0v7.25a.5.5 0 0 1 -.5.5z"/><path d="m68.832 41.17h-65.664a1.67 1.67 0 0 1 -1.668-1.67v-6.222a1.67 1.67 0 0 1 1.668-1.668h65.664a1.67 1.67 0 0 1 1.668 1.668v6.222a1.67 1.67 0 0 1 -1.668 1.67zm-65.664-8.561a.669.669 0 0 0 -.668.668v6.223a.669.669 0 0 0 .668.668h65.664a.669.669 0 0 0 .668-.668v-6.222a.669.669 0 0 0 -.668-.668z"/><path d="m65.97 71.5h-59.94a.5.5 0 0 1 -.5-.5v-30.33a.5.5 0 0 1 .5-.5h59.94a.5.5 0 0 1 .5.5v30.33a.5.5 0 0 1 -.5.5zm-59.44-1h58.94v-29.33h-58.94z"/><path d="m53.98 32.61h-10.33a2.208 2.208 0 0 1 -2.2-2.21v-5.59a.489.489 0 0 1 .059-.234 3.485 3.485 0 0 1 2.476-1.695 12.189 12.189 0 0 1 4.3.07 14.384 14.384 0 0 0 3.207.2 7.425 7.425 0 0 0 3.884-1.594.5.5 0 0 1 .81.393v8.45a2.212 2.212 0 0 1 -2.206 2.21zm-11.53-7.668v5.458a1.206 1.206 0 0 0 1.2 1.21h10.33a1.211 1.211 0 0 0 1.209-1.21v-7.488a8.288 8.288 0 0 1 -3.6 1.235 15.237 15.237 0 0 1 -3.434-.206 11.3 11.3 0 0 0 -3.957-.083 2.562 2.562 0 0 0 -1.748 1.084z"/><path d="m41.95 25.31a.5.5 0 0 1 -.5-.5v-8.73a1.792 1.792 0 0 1 1.79-1.79h13.33a2.027 2.027 0 0 1 1.592 3.28l-1.973 2.494v1.886a.5.5 0 1 1 -1 0v-2.06a.5.5 0 0 1 .107-.31l2.08-2.63a1.026 1.026 0 0 0 -.807-1.66h-13.329a.791.791 0 0 0 -.79.79v8.73a.5.5 0 0 1 -.5.5z"/><path d="m26.5 23.369a9.923 9.923 0 0 1 -3.147-.576c-.644-.217-1.275-.474-1.907-.73a17.712 17.712 0 0 0 -3.346-1.112 5.372 5.372 0 0 0 -3.745.515.5.5 0 0 1 -.753-.52 10.462 10.462 0 0 1 5.632-7.392v-6.554a.5.5 0 0 1 .5-.5h8.3a.5.5 0 0 1 .5.5v6.554a10.549 10.549 0 0 1 5.525 6.887.5.5 0 0 1 -.595.607 3.014 3.014 0 0 0 -1.707.054 5.487 5.487 0 0 0 -1.439.877 9.45 9.45 0 0 1 -1.081.738 5.655 5.655 0 0 1 -2.737.652zm-9.645-3.541a7.45 7.45 0 0 1 1.433.141 18.686 18.686 0 0 1 3.534 1.167c.613.249 1.226.5 1.851.709 1.426.48 3.465.87 5.082-.006a8.484 8.484 0 0 0 .96-.66 6.327 6.327 0 0 1 1.714-1.022 3.7 3.7 0 0 1 1.451-.2 9.545 9.545 0 0 0 -5.055-5.633.5.5 0 0 1 -.292-.455v-6.369h-7.3v6.37a.5.5 0 0 1 -.292.455 9.478 9.478 0 0 0 -5.113 5.824 6.305 6.305 0 0 1 2.025-.321z"/><path d="m27.84 32.61h-7.91a.494.494 0 0 1 -.2-.041 10.474 10.474 0 0 1 -6.33-9.629 10.323 10.323 0 0 1 .189-2 .5.5 0 1 1 .98.193 9.509 9.509 0 0 0 5.465 10.477h7.7a9.481 9.481 0 0 0 5.625-8.67 9.341 9.341 0 0 0 -.275-2.259.5.5 0 0 1 .971-.242 10.355 10.355 0 0 1 .3 2.5 10.479 10.479 0 0 1 -6.322 9.629.5.5 0 0 1 -.193.042z"/></g><path d="m22.015 44.957a.866.866 0 0 1 .019-1.732l9.426-.035a.866.866 0 1 1 -.019 1.732z" fill="#fff"/><path d="m34.717 44.941a.866.866 0 0 1 .014-1.732h.347a.866.866 0 1 1 -.007 1.733h-.353z" fill="#fff"/></svg>