<svg id="color_line" height="512" viewBox="0 0 74 74" width="512" xmlns="http://www.w3.org/2000/svg" data-name="color line"><path d="m72 44.01v9.7a4.067 4.067 0 0 1 -4.07 4.07h-59.86a4.067 4.067 0 0 1 -4.07-4.07v-9.7z" fill="#eeefee"/><path d="m72 9.04v34.97h-68v-34.97a4.074 4.074 0 0 1 4.07-4.07h59.86a4.074 4.074 0 0 1 4.07 4.07z" fill="#89c5cd"/><path d="m72 44.01v9.7a4.067 4.067 0 0 1 -4.07 4.07h-3a4.067 4.067 0 0 0 4.07-4.07v-9.7z" fill="#e1e6e9"/><path d="m72 9.04v34.97h-3v-32.17a4.074 4.074 0 0 0 -4.07-4.07h-59.86a3.821 3.821 0 0 0 -.9.1 4.08 4.08 0 0 1 3.9-2.9h59.86a4.074 4.074 0 0 1 4.07 4.07z" fill="#6eaaad"/><path d="m50.294 66.313h-24.588l3.132-8.532h18.324z" fill="#e1e6e9"/><path d="m50.294 66.813h-24.588a.5.5 0 0 1 -.469-.672l3.132-8.531a.5.5 0 0 1 .469-.328h18.324a.5.5 0 0 1 .469.328l3.132 8.531a.5.5 0 0 1 -.469.672zm-23.872-1h23.156l-2.765-7.531h-17.625z" fill="#323c6b"/><rect fill="#eeefee" height="4.342" rx="2.171" width="32.332" x="21.834" y="66.312"/><path d="m52 71.155h-28a2.671 2.671 0 0 1 0-5.342h28a2.671 2.671 0 0 1 0 5.342zm-28-4.342a1.671 1.671 0 0 0 0 3.342h28a1.671 1.671 0 0 0 0-3.342z" fill="#323c6b"/><circle cx="38" cy="50.591" fill="#27ccbc" r="2.028"/><g fill="#323c6b"><path d="m38 40.183c-4.3 0-7.663-6.918-7.663-15.75s3.363-15.75 7.663-15.75 7.663 6.918 7.663 15.75-3.363 15.75-7.663 15.75zm0-30.5c-3.611 0-6.663 6.755-6.663 14.75s3.052 14.75 6.663 14.75 6.663-6.755 6.663-14.75-3.052-14.75-6.663-14.75z"/><path d="m30.028 34.776c-2.659 0-4.711-.811-5.668-2.468-1.059-1.834-.577-4.375 1.358-7.155a26.559 26.559 0 0 1 8.45-7.356c7.648-4.416 15.323-4.959 17.472-1.239s-2.161 10.1-9.809 14.511c-4.242 2.45-8.492 3.707-11.803 3.707zm15.994-19.66a24.242 24.242 0 0 0 -11.354 3.546 25.543 25.543 0 0 0 -8.129 7.061c-1.7 2.444-2.167 4.6-1.313 6.084 1.806 3.127 9.182 2.392 16.105-1.6 6.924-4 11.248-10.018 9.442-13.145-.755-1.313-2.486-1.945-4.751-1.945z"/><path d="m45.972 34.776c-3.311 0-7.561-1.258-11.8-3.707a26.565 26.565 0 0 1 -8.45-7.356c-1.935-2.78-2.417-5.321-1.358-7.155 2.15-3.722 9.824-3.176 17.472 1.239s11.957 10.79 9.809 14.511c-.962 1.657-3.015 2.468-5.673 2.468zm-15.994-19.659c-2.266 0-4 .632-4.752 1.941-.854 1.479-.388 3.64 1.313 6.084a25.549 25.549 0 0 0 8.129 7.058c6.924 4 14.3 4.734 16.105 1.6s-2.519-9.148-9.442-13.145a24.248 24.248 0 0 0 -11.353-3.538z"/><path d="m38 28.577a4.144 4.144 0 1 1 4.145-4.144 4.149 4.149 0 0 1 -4.145 4.144zm0-7.289a3.144 3.144 0 1 0 3.145 3.145 3.148 3.148 0 0 0 -3.145-3.144z"/><path d="m21.958 61.281h-8.558a.5.5 0 1 1 0-1h8.563a.5.5 0 0 1 0 1z"/><path d="m11.271 61.281h-.625a.5.5 0 1 1 0-1h.625a.5.5 0 0 1 0 1z"/><path d="m1.512 6.917a.5.5 0 0 1 -.464-.687 7.541 7.541 0 0 1 7.023-4.757.5.5 0 0 1 0 1 6.545 6.545 0 0 0 -6.1 4.13.5.5 0 0 1 -.459.314z"/><path d="m10.484 2.473h-.359a.5.5 0 0 1 0-1h.359a.5.5 0 0 1 0 1z"/><path d="m67.93 58.28h-59.86a4.575 4.575 0 0 1 -4.57-4.57v-9.7a.5.5 0 0 1 .5-.5h68a.5.5 0 0 1 .5.5v9.7a4.575 4.575 0 0 1 -4.57 4.57zm-63.43-13.77v9.2a3.574 3.574 0 0 0 3.57 3.57h59.86a3.574 3.574 0 0 0 3.57-3.57v-9.2z"/><path d="m72 44.51h-68a.5.5 0 0 1 -.5-.5v-34.97a4.575 4.575 0 0 1 4.57-4.57h59.86a4.575 4.575 0 0 1 4.57 4.57v34.97a.5.5 0 0 1 -.5.5zm-67.5-1h67v-34.47a3.574 3.574 0 0 0 -3.57-3.57h-59.86a3.574 3.574 0 0 0 -3.57 3.57z"/></g><path d="m54.02 41.62a.707.707 0 0 1 0-1.414l8.313-.01a.707.707 0 1 1 0 1.414z" fill="#fff"/><path d="m65.171 41.587a.707.707 0 0 1 -.005-1.414h.283a.707.707 0 1 1 .011 1.414h-.283z" fill="#fff"/></svg>