<svg id="color_line" height="512" viewBox="0 0 74 74" width="512" xmlns="http://www.w3.org/2000/svg" data-name="color line"><path d="m29.331 46.943-10.842 3.171a12.154 12.154 0 0 0 -8.566 11.613v8.924a2.7 2.7 0 0 0 2.7 2.7h49.755a2.7 2.7 0 0 0 2.7-2.7v-9.924a12.154 12.154 0 0 0 -8.566-11.612l-9.669-2.115" fill="#eeefee"/><path d="m65.08 60.73v9.92a2.7 2.7 0 0 1 -2.7 2.7h-49.76a2.705 2.705 0 0 1 -2.69-2.45h49.71a2.7 2.7 0 0 0 2.7-2.7v-9.92a12.067 12.067 0 0 0 -2.79-7.73 12.134 12.134 0 0 1 5.53 10.18z" fill="#e1e6e9"/><path d="m44.489 40.36.658 4.205-7.151 4.751-7.143-4.751.658-4.205" fill="#fcd462"/><path d="m38 49.816a.5.5 0 0 1 -.277-.083l-7.142-4.751a.5.5 0 0 1 -.217-.494l.658-4.205a.5.5 0 0 1 .988.154l-.61 3.889 6.6 4.39 6.607-4.39-.608-3.889a.5.5 0 0 1 .988-.154l.658 4.205a.5.5 0 0 1 -.217.494l-7.151 4.751a.5.5 0 0 1 -.277.083z" fill="#323c6b"/><path d="m58.79 64.52a.5.5 0 0 1 -.11-.012l-1.627-.369a.5.5 0 0 1 .221-.976l1.14.258.824-3.638a4.2 4.2 0 1 0 -8.19-1.854l-.824 3.638 1.14.258a.5.5 0 0 1 -.221.976l-1.627-.368a.5.5 0 0 1 -.377-.6l.934-4.125a5.2 5.2 0 1 1 10.138 2.292l-.934 4.125a.5.5 0 0 1 -.488.39z" fill="#323c6b"/><path d="m19.12 56.34a.5.5 0 0 1 -.488-.392l-1.22-5.52a.5.5 0 0 1 .977-.216l1.22 5.52a.5.5 0 0 1 -.38.6.515.515 0 0 1 -.109.008z" fill="#323c6b"/><path d="m56.23 54.78a.506.506 0 0 1 -.107-.012.5.5 0 0 1 -.381-.6l1.07-4.89a.5.5 0 1 1 .977.214l-1.07 4.89a.5.5 0 0 1 -.489.398z" fill="#323c6b"/><circle cx="20.562" cy="59.211" fill="#9297ab" r="3.667"/><g fill="#323c6b"><path d="m20.562 63.379a4.167 4.167 0 1 1 4.167-4.167 4.172 4.172 0 0 1 -4.167 4.167zm0-7.335a3.167 3.167 0 1 0 3.167 3.167 3.171 3.171 0 0 0 -3.167-3.167z"/><circle cx="20.562" cy="59.211" r="1.511"/><path d="m49.437 4.6a.5.5 0 0 1 -.291-.094 20.334 20.334 0 0 0 -6.468-2.878.5.5 0 0 1 .268-.964 21.289 21.289 0 0 1 6.782 3.03.5.5 0 0 1 -.292.906z"/><path d="m51.984 7.063a.5.5 0 0 1 -.4-.195l-.12-.158c-.1-.127-.192-.255-.3-.382a.5.5 0 0 1 .755-.656c.125.145.236.29.346.436l.114.149a.5.5 0 0 1 -.4.805z"/><path d="m6.923 71a.5.5 0 0 1 -.5-.5v-6.773a.5.5 0 0 1 1 0v6.773a.5.5 0 0 1 -.5.5z"/><path d="m7.108 61.917a.511.511 0 0 1 -.077-.006.5.5 0 0 1 -.418-.57c.027-.178.065-.353.1-.527l.054-.254a.5.5 0 0 1 .98.194l-.057.271c-.034.155-.067.31-.092.468a.5.5 0 0 1 -.49.424z"/></g><path d="m52.159 25.566a3.909 3.909 0 0 1 1.188 2.912c0 1.961-1.243 3.551-2.777 3.551a2.2 2.2 0 0 1 -.37-.029h-24.407a2.2 2.2 0 0 1 -.365.03c-1.534 0-2.777-1.59-2.777-3.551a3.909 3.909 0 0 1 1.188-2.912z" fill="#fcd462"/><path d="m50.569 32.53a2.719 2.719 0 0 1 -.447-.037l-24.329.007a1.743 1.743 0 0 1 -.365.03c-1.807 0-3.277-1.817-3.277-4.051a4.429 4.429 0 0 1 1.355-3.285.5.5 0 0 1 .333-.127h28.32a.5.5 0 0 1 .333.127 4.429 4.429 0 0 1 1.355 3.285c0 2.233-1.471 4.051-3.278 4.051zm-.369-1.03a2.751 2.751 0 0 0 .365.03c1.256 0 2.277-1.369 2.277-3.051a3.5 3.5 0 0 0 -.889-2.412h-27.913a3.5 3.5 0 0 0 -.889 2.412c0 1.683 1.021 3.051 2.277 3.051a1.679 1.679 0 0 0 .282-.023z" fill="#323c6b"/><path d="m50.107 27.82q.093-.632.152-1.247a6.868 6.868 0 0 0 -6.745-7.506 16 16 0 0 1 -7.354-2.027l-.26-.14a6.875 6.875 0 0 0 -10.013 6.129v5.092c-1.712-1.784-4.132-5.121-4.253-8.521 0 0 1.111-1.3-.1-2.176 0 0 .053-1.119.791-1.491.791-.365-.51-1.758-.51-1.758l.464-.746s.6-7.427 6.772-5.524c0 0 1.21-6.308 10.3-4.5 9.055 1.811 10.721 5.014 11.787 7.054 0 0 2.557.738 1.628 3.059a4.735 4.735 0 0 1 1.575 2.511c.332 1.443.072 8.348-4.234 11.791z" fill="#707583"/><path d="m50.11 27.82c.06-.42.11-.84.15-1.25a5.248 5.248 0 0 0 .03-.56 15.734 15.734 0 0 0 1.54-8.35 4.731 4.731 0 0 0 -1.58-2.51c.93-2.32-1.63-3.06-1.63-3.06-1.06-2.04-2.73-5.24-11.78-7.05a11.61 11.61 0 0 0 -6.3.19c1.38-1.45 3.99-2.78 8.82-1.82 9.05 1.81 10.72 5.01 11.78 7.05 0 0 2.56.74 1.63 3.06a4.781 4.781 0 0 1 1.58 2.51c.32 1.44.06 8.35-4.24 11.79z" fill="#62667c"/><path d="m50.11 27.82v3.86a9.64 9.64 0 0 1 -2.56 6.77c-2.84 2.95-5.56 6.28-9.55 6.39-3.99-.11-6.71-3.44-9.55-6.39a9.586 9.586 0 0 1 -2.56-6.77v-8.65a6.876 6.876 0 0 1 10.01-6.13c.09.05.17.09.26.14a16.021 16.021 0 0 0 7.35 2.03 6.859 6.859 0 0 1 6.75 7.5c-.04.41-.09.83-.15 1.25z" fill="#fcd462"/><path d="m50.11 27.82v3.86a9.64 9.64 0 0 1 -2.56 6.77c-2.84 2.95-5.56 6.28-9.55 6.39a7.283 7.283 0 0 1 -2.53-.54c3.93-.15 6.64-3.45 9.45-6.38a9.586 9.586 0 0 0 2.56-6.77v-3.86c.06-.42.11-.84.16-1.25a6.845 6.845 0 0 0 -4.2-6.97h.07a6.859 6.859 0 0 1 6.75 7.5c-.04.41-.09.83-.15 1.25z" fill="#f7be56"/><path d="m62.378 73.85h-49.756a3.2 3.2 0 0 1 -3.2-3.2v-8.923a12.593 12.593 0 0 1 8.918-12.09l10.85-3.174a.5.5 0 1 1 .28.96l-10.841 3.171a11.6 11.6 0 0 0 -8.206 11.132v8.924a2.2 2.2 0 0 0 2.2 2.2h49.755a2.2 2.2 0 0 0 2.2-2.2v-9.923a11.6 11.6 0 0 0 -8.213-11.135l-9.627-2.107a.5.5 0 1 1 .214-.977l9.668 2.118a12.6 12.6 0 0 1 8.958 12.1v9.924a3.2 3.2 0 0 1 -3.2 3.2z" fill="#323c6b"/><path d="m33.691 53.95-4.538-7.074 1.697-2.312 7.148 4.756z" fill="#fff"/><path d="m33.691 54.45h-.044a.5.5 0 0 1 -.376-.228l-4.538-7.074a.5.5 0 0 1 .018-.566l1.7-2.312a.5.5 0 0 1 .68-.121l7.144 4.751a.5.5 0 0 1 .089.757l-4.307 4.629a.5.5 0 0 1 -.366.164zm-3.931-7.55 4 6.242 3.467-3.727-6.257-4.17z" fill="#323c6b"/><path d="m42.305 53.95 4.538-7.074-1.696-2.312-7.149 4.756z" fill="#fff"/><path d="m42.305 54.45a.5.5 0 0 1 -.366-.16l-4.307-4.629a.5.5 0 0 1 .089-.757l7.148-4.756a.5.5 0 0 1 .68.121l1.7 2.312a.5.5 0 0 1 .018.566l-4.541 7.073a.5.5 0 0 1 -.376.228zm-3.54-5.039 3.467 3.727 4-6.242-1.21-1.65z" fill="#323c6b"/><path d="m38.014 45.34c-3.825-.1-6.495-2.925-9.076-5.653-.282-.3-.564-.6-.848-.89a10.013 10.013 0 0 1 -2.7-7.153v-8.614a7.376 7.376 0 0 1 10.739-6.574l.272.146a15.623 15.623 0 0 0 7.116 1.968 7.359 7.359 0 0 1 7.24 8.047c-.04.407-.088.822-.147 1.238v3.825a10.057 10.057 0 0 1 -2.7 7.116c-.284.295-.566.593-.848.891-2.581 2.728-5.25 5.548-9.048 5.653zm-5.246-28.709a6.405 6.405 0 0 0 -6.377 6.4v8.65a9.174 9.174 0 0 0 2.42 6.423c.285.3.569.6.853.9 2.554 2.7 4.966 5.248 8.35 5.34 3.356-.093 5.769-2.642 8.323-5.34.284-.3.568-.6.853-.9a9.167 9.167 0 0 0 2.422-6.388v-3.9a.488.488 0 0 1 0-.071c.059-.413.108-.825.147-1.228a6.273 6.273 0 0 0 -1.6-4.837 6.39 6.39 0 0 0 -4.659-2.11 16.623 16.623 0 0 1 -7.579-2.088l-.268-.145a6.285 6.285 0 0 0 -2.885-.706z" fill="#323c6b"/><path d="m25.887 28.625a.5.5 0 0 1 -.361-.154c-.993-1.037-4.245-4.741-4.391-8.85a.5.5 0 0 1 .119-.343 1.442 1.442 0 0 0 .341-.928.76.76 0 0 0 -.353-.518.5.5 0 0 1 -.207-.429 2.352 2.352 0 0 1 1.065-1.914 3.228 3.228 0 0 0 -.65-.97.5.5 0 0 1 -.059-.605l.4-.647c.076-.685.547-3.9 2.771-5.4a5 5 0 0 1 4.144-.57 6.709 6.709 0 0 1 2.6-3.358c2.007-1.351 4.749-1.692 8.147-1.015 9.03 1.802 10.963 5.076 12.041 7.134a3.274 3.274 0 0 1 1.745 1.478 2.474 2.474 0 0 1 .112 1.836 5.032 5.032 0 0 1 1.486 2.571c.339 1.488.09 8.664-4.418 12.268a.5.5 0 0 1 -.625-.781c4.149-3.317 4.336-10.085 4.063-11.285a4.281 4.281 0 0 0 -1.4-2.23.5.5 0 0 1 -.154-.577 1.623 1.623 0 0 0 .035-1.363 2.429 2.429 0 0 0 -1.338-1.031.5.5 0 0 1 -.3-.249c-1.049-2.006-2.629-5.032-11.443-6.795-3.523-.7-6.32-.215-8.083 1.408a5.571 5.571 0 0 0 -1.631 2.692.5.5 0 0 1 -.638.382 4.263 4.263 0 0 0 -3.776.3c-2.046 1.383-2.348 4.75-2.35 4.784a.5.5 0 0 1 -.074.223l-.27.434a2.272 2.272 0 0 1 .628 1.606.9.9 0 0 1 -.527.653 1.177 1.177 0 0 0 -.469.831 1.669 1.669 0 0 1 .521 1.014 2.309 2.309 0 0 1 -.446 1.525c.22 3.688 3.189 7.063 4.106 8.02a.5.5 0 0 1 -.361.846z" fill="#323c6b"/><path d="m37.989 15.317a.5.5 0 0 1 -.267-.078 11.5 11.5 0 0 0 -4.955-1.479 9.284 9.284 0 0 0 -1.381.115.5.5 0 1 1 -.147-.989 10.266 10.266 0 0 1 1.528-.125 12.314 12.314 0 0 1 5.49 1.635.5.5 0 0 1 -.268.922z" fill="#fff"/><path d="m29.055 14.467a.5.5 0 0 1 -.193-.961l.326-.132a.528.528 0 0 1 .677.268.476.476 0 0 1 -.251.639l-.365.147a.494.494 0 0 1 -.194.039z" fill="#fff"/></svg>