<svg id="color_line" height="512" viewBox="0 0 74 74" width="512" xmlns="http://www.w3.org/2000/svg" data-name="color line"><path d="m60.595 47.405a23.595 23.595 0 1 1 -33.158-21.572v-14.923h19.126v14.923a23.584 23.584 0 0 1 14.032 21.572z" fill="#eeefee"/><path d="m60.59 47.41a23.6 23.6 0 0 1 -34.88 20.72 23.6 23.6 0 0 0 17.42-43.82v-13.4h3.43v14.92a23.584 23.584 0 0 1 14.03 21.58z" fill="#e1e6e9"/><path d="m42.107 63.441c1.88-.335 2.768-2.035 2.931-3.847a3.379 3.379 0 0 1 .989-2.814 12.075 12.075 0 0 0 4.343-6.2 18.806 18.806 0 0 0 .64-5 14.011 14.011 0 0 0 -28.02 0 18.806 18.806 0 0 0 .64 5 12.075 12.075 0 0 0 4.343 6.2 3.379 3.379 0 0 1 .989 2.814c.162 1.813 1.051 3.513 2.931 3.847z" fill="#9297ab"/><path d="m50.37 50.58a12.1 12.1 0 0 1 -4.34 6.2 3.345 3.345 0 0 0 -.99 2.81c-.17 1.82-1.05 3.52-2.93 3.85h-.06a5.169 5.169 0 0 0 .78-2.41 3.377 3.377 0 0 1 .99-2.81 12.081 12.081 0 0 0 4.34-6.21 18.67 18.67 0 0 0 .64-5 13.837 13.837 0 0 0 -14.01-13.82 14.378 14.378 0 0 0 -6.61 1.61 14.2 14.2 0 0 1 8.82-3.05 13.839 13.839 0 0 1 14.01 13.83 18.7 18.7 0 0 1 -.64 5z" fill="#84879c"/><g fill="#323c6b"><path d="m60.7 59.938a.493.493 0 0 1 -.227-.055.5.5 0 0 1 -.219-.672 25.842 25.842 0 0 0 2.62-8.462.5.5 0 0 1 .992.128 26.852 26.852 0 0 1 -2.722 8.788.5.5 0 0 1 -.444.273z"/><path d="m58.863 63a.5.5 0 0 1 -.411-.785l.144-.2c.068-.1.137-.19.2-.289a.5.5 0 0 1 .836.55c-.072.11-.149.216-.226.322l-.133.188a.5.5 0 0 1 -.41.214z"/><path d="m19 28.356a.5.5 0 0 1 -.339-.868l.135-.125c.18-.167.359-.333.545-.493a.5.5 0 1 1 .652.757c-.176.152-.347.311-.518.469l-.137.126a.5.5 0 0 1 -.338.134z"/><path d="m21.813 26.089a.5.5 0 0 1 -.286-.91 27.2 27.2 0 0 1 2.411-1.513v-6.228a.5.5 0 0 1 1 0v6.526a.5.5 0 0 1 -.264.44 25.8 25.8 0 0 0 -2.574 1.596.5.5 0 0 1 -.287.089z"/><ellipse cx="31.41" cy="43.75" rx="2.157" ry="1.872"/><ellipse cx="42.59" cy="43.75" rx="2.157" ry="1.872"/><path d="m36.585 50.25c-1.118 0-2.024 1.931-2.024 2.9 0 1.384.906 1.756 2.024 1.756s2.024-.373 2.024-1.756c-.001-.969-.909-2.9-2.024-2.9z"/><path d="m32.9 63.941a.5.5 0 0 1 -.5-.5v-2.6a.5.5 0 0 1 1 0v2.6a.5.5 0 0 1 -.5.5z"/><path d="m37 63.941a.5.5 0 0 1 -.5-.5v-3.25a.5.5 0 0 1 1 0v3.25a.5.5 0 0 1 -.5.5z"/><path d="m41.1 63.941a.5.5 0 0 1 -.5-.5v-2.6a.5.5 0 0 1 1 0v2.6a.5.5 0 0 1 -.5.5z"/><ellipse cx="31.41" cy="43.75" rx="2.157" ry="1.872"/><ellipse cx="42.59" cy="43.75" rx="2.157" ry="1.872"/><path d="m36.585 50.25c-1.118 0-2.024 1.931-2.024 2.9 0 1.384.906 1.756 2.024 1.756s2.024-.373 2.024-1.756c-.001-.969-.909-2.9-2.024-2.9z"/><path d="m32.9 63.941a.5.5 0 0 1 -.5-.5v-2.6a.5.5 0 0 1 1 0v2.6a.5.5 0 0 1 -.5.5z"/><path d="m37 63.941a.5.5 0 0 1 -.5-.5v-3.25a.5.5 0 0 1 1 0v3.25a.5.5 0 0 1 -.5.5z"/><path d="m41.1 63.941a.5.5 0 0 1 -.5-.5v-2.6a.5.5 0 0 1 1 0v2.6a.5.5 0 0 1 -.5.5z"/></g><rect fill="#9297ab" height="7.915" rx="1.875" width="24.625" x="24.687" y="3"/><path d="m49.31 4.88v4.16a1.876 1.876 0 0 1 -1.87 1.88h-.75v-3.77a1.878 1.878 0 0 0 -1.88-1.88h-20.12v-.39a1.876 1.876 0 0 1 1.87-1.88h20.88a1.876 1.876 0 0 1 1.87 1.88z" fill="#84879c"/><path d="m37 71.5a24.1 24.1 0 0 1 -10.062-45.989v-14.601a.5.5 0 0 1 .5-.5h19.125a.5.5 0 0 1 .5.5v14.6a24.1 24.1 0 0 1 -10.063 45.99zm-9.062-60.09v14.423a.5.5 0 0 1 -.3.457 23.095 23.095 0 1 0 18.719 0 .5.5 0 0 1 -.3-.457v-14.423z" fill="#323c6b"/><path d="m47.438 11.416h-20.875a2.378 2.378 0 0 1 -2.375-2.375v-4.166a2.378 2.378 0 0 1 2.375-2.375h20.875a2.378 2.378 0 0 1 2.375 2.375v4.166a2.378 2.378 0 0 1 -2.375 2.375zm-20.875-7.916a1.377 1.377 0 0 0 -1.375 1.375v4.166a1.377 1.377 0 0 0 1.375 1.375h20.875a1.377 1.377 0 0 0 1.375-1.375v-4.166a1.377 1.377 0 0 0 -1.375-1.375z" fill="#323c6b"/><path d="m42.106 63.941h-10.212c-1.969-.342-3.218-1.948-3.429-4.3-.01-.11-.014-.24-.018-.384a2.471 2.471 0 0 0 -.787-2.085 12.455 12.455 0 0 1 -4.513-6.472 19.554 19.554 0 0 1 -.657-5.1 14.272 14.272 0 0 1 14.51-14.35 14.266 14.266 0 0 1 14.51 14.327 19.605 19.605 0 0 1 -.657 5.126 12.455 12.455 0 0 1 -4.513 6.465 2.471 2.471 0 0 0 -.787 2.085c0 .144-.008.274-.018.385-.211 2.354-1.46 3.96-3.341 4.295a.486.486 0 0 1 -.088.008zm-5.106-31.691a13.277 13.277 0 0 0 -13.51 13.327 18.589 18.589 0 0 0 .624 4.874 11.494 11.494 0 0 0 4.173 5.939 3.428 3.428 0 0 1 1.16 2.837c0 .12 0 .229.014.321.081.9.487 3.039 2.521 3.4l10.079-.008c2-.383 2.4-2.5 2.479-3.392.009-.093.011-.2.014-.321a3.428 3.428 0 0 1 1.16-2.837 11.494 11.494 0 0 0 4.173-5.939 18.57 18.57 0 0 0 .625-4.828 13.288 13.288 0 0 0 -13.512-13.373z" fill="#323c6b"/></svg>