<svg id="color_line" height="512" viewBox="0 0 74 74" width="512" xmlns="http://www.w3.org/2000/svg" data-name="color line"><circle cx="37" cy="37" fill="#fcd462" r="34"/><path d="m71 37a33.928 33.928 0 0 1 -12.72 26.52 34 34 0 0 0 -45.39-50.49 34 34 0 0 1 58.11 23.97z" fill="#f7be56"/><circle cx="37" cy="37" fill="#eeefee" r="27.75"/><path d="m37 65.25a28.25 28.25 0 1 1 28.25-28.25 28.282 28.282 0 0 1 -28.25 28.25zm0-55.5a27.25 27.25 0 1 0 27.25 27.25 27.281 27.281 0 0 0 -27.25-27.25z" fill="#323c6b"/><path d="m32.847 32.09-8.916-12.955a21.992 21.992 0 0 1 26.131 0l-8.915 12.946" fill="#bbbbcd"/><path d="m34.932 42.869-6.765 14.2a22 22 0 0 1 -13.067-22.64l15.67 1.248" fill="#bbbbcd"/><path d="m43.224 35.677 15.676-1.248a21.99 21.99 0 0 1 -13.07 22.634l-6.76-14.194" fill="#bbbbcd"/><path d="m50.06 19.14-8.91 12.94h-3.37l8.19-11.9a21.891 21.891 0 0 0 -13.06-4.3 22.289 22.289 0 0 0 -3.4.26 21.985 21.985 0 0 1 20.55 3z" fill="#9297ab"/><path d="m17.79 39.54a22 22 0 0 0 5.57 14.64 21.962 21.962 0 0 1 -8.26-19.75l15.67 1.25 1.48 2.55-14.32-1.14a22.085 22.085 0 0 0 -.14 2.45z" fill="#9297ab"/><path d="m59.04 36.88a22.025 22.025 0 0 1 -9.23 17.92 21.926 21.926 0 0 0 6.01-17.7l-14.06 1.11 1.46-2.53 15.68-1.25a21.947 21.947 0 0 1 .14 2.45z" fill="#9297ab"/><g fill="#323c6b"><path d="m59.819 66.583a.5.5 0 0 1 -.31-.893 36.939 36.939 0 0 0 7.018-7.318.5.5 0 0 1 .809.588 37.965 37.965 0 0 1 -7.207 7.516.5.5 0 0 1 -.31.107z"/><path d="m57.469 68.4a.5.5 0 0 1 -.261-.927l.286-.167c.111-.064.223-.128.331-.2a.5.5 0 1 1 .537.844c-.121.077-.246.149-.371.22l-.262.154a.5.5 0 0 1 -.26.076z"/><path d="m13.8 8.728a.5.5 0 0 1 -.314-.889 37.393 37.393 0 0 1 9.154-5.476.5.5 0 1 1 .385.923 36.4 36.4 0 0 0 -8.91 5.33.5.5 0 0 1 -.315.112z"/><path d="m25.25 2.424a.5.5 0 0 1 -.159-.974c.178-.06.357-.115.536-.17l.224-.069a.5.5 0 1 1 .3.954l-.229.071c-.171.052-.342.1-.512.162a.49.49 0 0 1 -.16.026z"/></g><circle cx="37" cy="36.876" fill="#9297ab" r="6.342"/><path d="m37 43.718a6.842 6.842 0 1 1 6.842-6.842 6.85 6.85 0 0 1 -6.842 6.842zm0-12.684a5.842 5.842 0 1 0 5.842 5.842 5.849 5.849 0 0 0 -5.842-5.842z" fill="#323c6b"/><path d="m37 71.5a34.5 34.5 0 1 1 34.5-34.5 34.539 34.539 0 0 1 -34.5 34.5zm0-68a33.5 33.5 0 1 0 33.5 33.5 33.538 33.538 0 0 0 -33.5-33.5z" fill="#323c6b"/><path d="m32.847 32.59a.5.5 0 0 1 -.412-.216l-8.915-12.955a.5.5 0 0 1 .115-.686 22.49 22.49 0 0 1 26.725 0 .5.5 0 0 1 .115.686l-8.916 12.946a.5.5 0 0 1 -.824-.567l8.639-12.543a21.494 21.494 0 0 0 -24.753 0l8.639 12.552a.5.5 0 0 1 -.129.7.494.494 0 0 1 -.284.083z" fill="#323c6b"/><path d="m28.168 57.571a.506.506 0 0 1 -.2-.042 22.5 22.5 0 0 1 -13.368-23.155.5.5 0 0 1 .537-.443l15.673 1.248a.5.5 0 0 1 -.08 1l-15.184-1.213c-.06.649-.088 1.278-.088 1.91a21.564 21.564 0 0 0 12.47 19.538l6.553-13.76a.5.5 0 1 1 .9.43l-6.764 14.2a.5.5 0 0 1 -.449.287z" fill="#323c6b"/><path d="m20.416 45.121a.6.6 0 0 1 -.581-.451q-.059-.229-.108-.459a.6.6 0 1 1 1.173-.251c.029.138.062.275.1.412a.6.6 0 0 1 -.432.73.609.609 0 0 1 -.152.019z" fill="#fff"/><path d="m26.9 52.992a.59.59 0 0 1 -.274-.067 13.784 13.784 0 0 1 -5.9-5.947.6.6 0 0 1 1.07-.544 12.574 12.574 0 0 0 5.381 5.426.6.6 0 0 1 -.276 1.133z" fill="#fff"/><path d="m45.834 57.563a.5.5 0 0 1 -.451-.285l-6.765-14.194a.5.5 0 0 1 .9-.431l6.554 13.752a21.555 21.555 0 0 0 12.469-19.53c0-.635-.028-1.264-.087-1.91l-15.19 1.211a.5.5 0 0 1 -.08-1l15.681-1.248a.5.5 0 0 1 .537.443 22.259 22.259 0 0 1 .142 2.5 22.559 22.559 0 0 1 -13.509 20.65.506.506 0 0 1 -.201.042z" fill="#323c6b"/></svg>