<svg id="color_line" height="512" viewBox="0 0 74 74" width="512" xmlns="http://www.w3.org/2000/svg" data-name="color line"><rect fill="#e7aa6c" height="68" rx="3.446" width="36.5" x="18.75" y="1"/><path d="m55.25 4.45v61.1a3.444 3.444 0 0 1 -3.45 3.45h-29.6a3.435 3.435 0 0 1 -3.4-2.89 3.5 3.5 0 0 0 .65.06h29.6a3.45 3.45 0 0 0 3.45-3.45v-61.11a2.5 2.5 0 0 0 -.05-.55 3.438 3.438 0 0 1 2.8 3.39z" fill="#d09865"/><path d="m44.35 57.305a7.35 7.35 0 1 1 -10.314-6.725v-35.655a2.964 2.964 0 1 1 5.929 0v35.655a7.35 7.35 0 0 1 4.385 6.725z" fill="#eeefee"/><path d="m39.964 50.58v-17.149h-5.928v17.149a7.35 7.35 0 1 0 5.929 0z" fill="#fe7058"/><g fill="#323c6b"><path d="m27.483 15.083h-3.6a.5.5 0 0 1 0-1h3.6a.5.5 0 0 1 0 1z"/><path d="m26.414 20.619h-2.527a.5.5 0 0 1 0-1h2.527a.5.5 0 0 1 0 1z"/><path d="m27.483 26.154h-3.6a.5.5 0 0 1 0-1h3.6a.5.5 0 0 1 0 1z"/><path d="m26.414 31.69h-2.527a.5.5 0 0 1 0-1h2.527a.5.5 0 0 1 0 1z"/><path d="m27.483 37.226h-3.6a.5.5 0 0 1 0-1h3.6a.5.5 0 1 1 0 1z"/><path d="m26.414 42.761h-2.527a.5.5 0 0 1 0-1h2.527a.5.5 0 0 1 0 1z"/><path d="m27.483 48.3h-3.6a.5.5 0 0 1 0-1h3.6a.5.5 0 1 1 0 1z"/><path d="m50.113 15.083h-3.6a.5.5 0 0 1 0-1h3.6a.5.5 0 0 1 0 1z"/><path d="m50.113 20.619h-2.527a.5.5 0 0 1 0-1h2.527a.5.5 0 0 1 0 1z"/><path d="m50.113 26.154h-3.6a.5.5 0 0 1 0-1h3.6a.5.5 0 0 1 0 1z"/><path d="m50.113 31.69h-2.527a.5.5 0 0 1 0-1h2.527a.5.5 0 0 1 0 1z"/><path d="m50.113 37.226h-3.6a.5.5 0 0 1 0-1h3.6a.5.5 0 0 1 0 1z"/><path d="m50.113 42.761h-2.527a.5.5 0 0 1 0-1h2.527a.5.5 0 0 1 0 1z"/><path d="m50.113 48.3h-3.6a.5.5 0 0 1 0-1h3.6a.5.5 0 0 1 0 1z"/><path d="m37 65.155a7.85 7.85 0 0 1 -3.464-14.894v-35.336a3.464 3.464 0 1 1 6.929 0v35.337a7.85 7.85 0 0 1 -3.465 14.893zm0-52.695a2.467 2.467 0 0 0 -2.464 2.464v35.656a.5.5 0 0 1 -.3.458 6.85 6.85 0 1 0 5.524 0 .5.5 0 0 1 -.3-.458v-35.655a2.461 2.461 0 0 0 -2.46-2.465z"/></g><rect fill="#fff" height="3.167" rx="1.583" width="8.167" x="32.917" y="4.708"/><path d="m39.5 8.375h-5a2.083 2.083 0 1 1 0-4.167h5a2.083 2.083 0 1 1 0 4.167zm-5-3.167a1.083 1.083 0 1 0 0 2.167h5a1.083 1.083 0 1 0 0-2.167z" fill="#323c6b"/><path d="m51.8 69.5h-29.6a3.95 3.95 0 0 1 -3.946-3.946v-61.108a3.95 3.95 0 0 1 3.946-3.946h29.6a3.95 3.95 0 0 1 3.95 3.946v61.108a3.95 3.95 0 0 1 -3.95 3.946zm-29.6-68a2.949 2.949 0 0 0 -2.95 2.946v61.108a2.949 2.949 0 0 0 2.95 2.946h29.6a2.949 2.949 0 0 0 2.946-2.946v-61.108a2.949 2.949 0 0 0 -2.946-2.946z" fill="#323c6b"/><path d="m51.8 72.5a.5.5 0 0 1 0-1 5.972 5.972 0 0 0 5.71-4.3.5.5 0 1 1 .961.276 6.977 6.977 0 0 1 -6.671 5.024z" fill="#323c6b"/><path d="m15.75 18.833a.5.5 0 0 1 -.5-.5v-.417a.5.5 0 0 1 1 0v.417a.5.5 0 0 1 -.5.5z" fill="#323c6b"/><path d="m15.75 16.125a.5.5 0 0 1 -.5-.5v-9.333a.5.5 0 1 1 1 0v9.333a.5.5 0 0 1 -.5.5z" fill="#323c6b"/><path d="m58.25 65.417a.5.5 0 0 1 -.5-.5v-.583a.5.5 0 0 1 1 0v.583a.5.5 0 0 1 -.5.5z" fill="#323c6b"/></svg>