<svg id="color_line" height="512" viewBox="0 0 74 74" width="512" xmlns="http://www.w3.org/2000/svg" data-name="color line"><path d="m63.89 13.89v42.37h-40.07v-53.26h29.18z" fill="#27ccbc"/><path d="m63.89 13.89v42.37h-3.62v-45.99z" fill="#21b3a9"/><path d="m23.82 3v53.26h-6.34a7.37 7.37 0 0 0 -7.37 7.37v-55.6a5.034 5.034 0 0 1 5.03-5.03z" fill="#9297ab"/><path d="m10.11 64.13a.5.5 0 0 1 -.5-.5v-55.6a5.536 5.536 0 0 1 5.53-5.53h8.68a.5.5 0 0 1 .5.5v53.26a.5.5 0 0 1 -.5.5h-6.34a6.878 6.878 0 0 0 -6.87 6.87.5.5 0 0 1 -.5.5zm5.03-60.63a4.535 4.535 0 0 0 -4.53 4.53v51.763a7.876 7.876 0 0 1 6.87-4.034h5.84v-52.259z" fill="#323c6b"/><path d="m63.89 71h-46.41a7.354 7.354 0 0 1 -5.21-2.15 6.659 6.659 0 0 1 -.69-.82 7.277 7.277 0 0 1 -1.47-4.4 7.37 7.37 0 0 1 7.37-7.37h46.41c-5.49 5.23-5.16 10.13 0 14.74z" fill="#eeefee"/><path d="m63.89 71h-46.41a7.354 7.354 0 0 1 -5.21-2.15 6.659 6.659 0 0 1 -.69-.82l46.75-.11c-2.27-2.98-2.35-7.04 1.49-11.66h4.07c-5.49 5.23-5.16 10.13 0 14.74z" fill="#e1e6e9"/><path d="m32.268 21.957v6.687l5.791 3.343 5.792-3.343v-6.687l-5.792-3.344z" fill="#fcd462"/><path d="m43.851 21.957v6.687l5.791 3.343 5.791-3.343v-6.687l-5.791-3.344z" fill="#eeefee"/><path d="m38.059 31.996v6.687l5.792 3.344 5.791-3.344v-6.687l-5.791-3.344z" fill="#fe7058"/><path d="m43.85 21.96v6.68l-5.79 3.35-.06-.03 3.64-2.11v-6.69l-5.73-3.31 2.15-1.24z" fill="#f7be56"/><path d="m55.43 21.96v6.68l-5.79 3.35-.06-.03 3.64-2.11v-6.69l-5.73-3.31 2.15-1.24z" fill="#e1e6e9"/><path d="m49.64 32v6.68l-5.79 3.35-.06-.03 3.64-2.11v-6.69l-5.73-3.31 2.15-1.24z" fill="#ea6453"/><path d="m63.89 3v10.89l-10.89-10.89z" fill="#9297ab"/><path d="m53.459 61.594h-33.959a.5.5 0 0 1 0-1h33.959a.5.5 0 1 1 0 1z" fill="#323c6b"/><path d="m53.459 66.668h-33.959a.5.5 0 0 1 0-1h33.959a.5.5 0 1 1 0 1z" fill="#323c6b"/><path d="m63.89 56.76h-40.07a.5.5 0 0 1 -.5-.5v-53.26a.5.5 0 0 1 .5-.5h29.18a.5.5 0 0 1 .354.146l10.89 10.89a.5.5 0 0 1 .146.354v42.37a.5.5 0 0 1 -.5.5zm-39.57-1h39.07v-41.66l-10.597-10.6h-28.473z" fill="#323c6b"/><path d="m63.89 3v10.89l-3.62-3.62v-7.27z" fill="#84879c"/><g fill="#323c6b"><path d="m63.89 14.39a.5.5 0 0 1 -.354-.146l-10.89-10.89a.5.5 0 0 1 .354-.854h10.89a.5.5 0 0 1 .5.5v10.89a.5.5 0 0 1 -.5.5zm-9.683-10.89 9.183 9.183v-9.183z"/><path d="m38.06 32.487a.5.5 0 0 1 -.25-.067l-5.792-3.343a.5.5 0 0 1 -.25-.433v-6.687a.5.5 0 0 1 .25-.433l5.792-3.344a.5.5 0 0 1 .5 0l5.79 3.343a.5.5 0 0 1 .25.433v6.688a.5.5 0 0 1 -.25.433l-5.79 3.343a.5.5 0 0 1 -.25.067zm-5.292-4.132 5.292 3.055 5.291-3.055v-6.11l-5.291-3.055-5.292 3.055z"/><path d="m49.642 32.487a.5.5 0 0 1 -.25-.067l-5.792-3.343a.5.5 0 0 1 -.25-.433v-6.687a.5.5 0 0 1 .25-.433l5.792-3.343a.5.5 0 0 1 .5 0l5.791 3.343a.5.5 0 0 1 .25.433v6.688a.5.5 0 0 1 -.25.433l-5.791 3.342a.5.5 0 0 1 -.25.067zm-5.292-4.132 5.292 3.055 5.291-3.055v-6.11l-5.291-3.055-5.292 3.055z"/><path d="m43.851 42.527a.5.5 0 0 1 -.25-.067l-5.791-3.344a.5.5 0 0 1 -.25-.433v-6.683a.5.5 0 0 1 .25-.433l5.79-3.348a.5.5 0 0 1 .5 0l5.792 3.344a.5.5 0 0 1 .25.433v6.687a.5.5 0 0 1 -.25.433l-5.792 3.344a.5.5 0 0 1 -.249.067zm-5.291-4.132 5.291 3.055 5.292-3.055v-6.11l-5.292-3.055-5.291 3.055z"/></g><path d="m10.95 71.688c.217.177.442.342.671.5" fill="#fff"/><path d="m11.62 72.688a.5.5 0 0 1 -.283-.088c-.24-.165-.475-.338-.7-.524a.5.5 0 0 1 .631-.775c.207.168.421.326.639.476a.5.5 0 0 1 -.284.912z" fill="#323c6b"/><path d="m7.584 60.625a10.176 10.176 0 0 0 -.47 3.006 10.282 10.282 0 0 0 1.667 5.619" fill="#fff"/><path d="m8.782 69.75a.5.5 0 0 1 -.42-.228 10.649 10.649 0 0 1 -1.256-9.044.5.5 0 0 1 .956.294 9.648 9.648 0 0 0 1.138 8.206.5.5 0 0 1 -.419.772z" fill="#323c6b"/><path d="m66.89 29.292a.5.5 0 0 1 -.5-.5v-9.084a.5.5 0 1 1 1 0v9.083a.5.5 0 0 1 -.5.501z" fill="#323c6b"/><path d="m66.89 31.792a.5.5 0 0 1 -.5-.5v-.417a.5.5 0 0 1 1 0v.417a.5.5 0 0 1 -.5.5z" fill="#323c6b"/><path d="m63.89 71.5h-46.41a7.812 7.812 0 0 1 -5.563-2.3 7.083 7.083 0 0 1 -.748-.89 7.714 7.714 0 0 1 -1.559-4.68 7.879 7.879 0 0 1 7.87-7.87h46.41a.5.5 0 0 1 .345.862c-2.584 2.462-3.876 4.895-3.839 7.228.036 2.261 1.324 4.542 3.827 6.778a.5.5 0 0 1 -.333.873zm-46.41-14.74a6.878 6.878 0 0 0 -6.87 6.87 6.739 6.739 0 0 0 1.369 4.1 6.161 6.161 0 0 0 .651.776 6.815 6.815 0 0 0 4.85 2h45.161c-2.118-2.16-3.208-4.387-3.245-6.635-.037-2.341 1.07-4.727 3.294-7.105z" fill="#323c6b"/></svg>