<svg id="color_line" height="512" viewBox="0 0 74 74" width="512" xmlns="http://www.w3.org/2000/svg" data-name="color line"><path d="m19.785 48.877v-22.186a4.615 4.615 0 0 1 -4.661-.364v22.55" fill="#eeefee"/><path d="m31.252 12.9-8.912 8.729a4.651 4.651 0 0 0 -3.058-3.543l8.847-8.652a4.679 4.679 0 0 0 3.123 3.466z" fill="#eeefee"/><path d="m47.446 10.563h-10.6a4.524 4.524 0 0 0 .5-2.1 4.657 4.657 0 0 0 -.761-2.563h10.861z" fill="#eeefee"/><path d="m37.35 8.465a4.524 4.524 0 0 1 -.5 2.1 4.653 4.653 0 0 1 -4.158 2.564 4.582 4.582 0 0 1 -1.436-.224 4.679 4.679 0 0 1 -3.123-3.468 4.751 4.751 0 0 1 -.1-.97 4.661 4.661 0 1 1 9.323 0z" fill="#9297ab"/><path d="m22.424 22.5a4.641 4.641 0 0 1 -2.638 4.2 4.615 4.615 0 0 1 -4.661-.364 4.654 4.654 0 0 1 2.638-8.493 4.808 4.808 0 0 1 1.52.252 4.651 4.651 0 0 1 3.058 3.543 4.411 4.411 0 0 1 .083.862z" fill="#9297ab"/><rect fill="#9297ab" height="9.894" rx="1.587" width="18.374" x="47.443" y="3"/><path d="m50.458 12.894h12.342a0 0 0 0 1 0 0v5.559a6.172 6.172 0 0 1 -6.172 6.172 6.172 6.172 0 0 1 -6.172-6.172v-5.559a0 0 0 0 1 .002 0z" fill="#eeefee"/><path d="m19.79 26.69v22.19h-2.03v-21.72a4.591 4.591 0 0 0 2.03-.47z" fill="#e1e6e9"/><path d="m28.13 9.43a4.622 4.622 0 0 0 .76 1.74l-8.02 7.86a4.719 4.719 0 0 0 -1.59-.94z" fill="#e1e6e9"/><path d="m47.45 5.9v4.66h-.04v-2.91h-10.13a4.622 4.622 0 0 0 -.69-1.75z" fill="#e1e6e9"/><path d="m62.8 12.89v5.56a6.18 6.18 0 0 1 -6.17 6.17 5.643 5.643 0 0 1 -1.37-.16 6.007 6.007 0 0 0 3-1.65 6.11 6.11 0 0 0 1.81-4.36v-5.56z" fill="#e1e6e9"/><path d="m5.191 64.217h24.528a.75.75 0 0 1 .75.75v.54a5.492 5.492 0 0 1 -5.493 5.493h-15.043a5.492 5.492 0 0 1 -5.492-5.492v-.54a.75.75 0 0 1 .75-.75z" fill="#84879c" transform="matrix(-1 0 0 -1 34.909 135.217)"/><path d="m29.719 71.5h-24.529a1.251 1.251 0 0 1 -1.25-1.25v-.541a6 6 0 0 1 5.992-5.992h15.045a6 6 0 0 1 5.992 5.992v.541a1.251 1.251 0 0 1 -1.25 1.25zm-19.786-6.783a5 5 0 0 0 -4.993 4.992v.541a.25.25 0 0 0 .25.25h24.529a.25.25 0 0 0 .25-.25v-.541a5 5 0 0 0 -4.992-4.992z" fill="#323c6b"/><path d="m10.513 48.878h13.887a0 0 0 0 1 0 0v11.945a3.394 3.394 0 0 1 -3.4 3.394h-7.093a3.394 3.394 0 0 1 -3.394-3.394v-11.945a0 0 0 0 1 0 0z" fill="#9297ab" transform="matrix(-1 0 0 -1 34.909 113.095)"/><path d="m37.35 8.47a4.571 4.571 0 0 1 -.5 2.09 4.77 4.77 0 0 1 -1.78 1.92l.15-.27a4.5 4.5 0 0 0 .51-2.1 4.6 4.6 0 0 0 -.77-2.56 4.671 4.671 0 0 0 -3.9-2.1 4.551 4.551 0 0 0 -2.39.67 4.627 4.627 0 0 1 4.02-2.32 4.647 4.647 0 0 1 4.66 4.67z" fill="#84879c"/><path d="m22.42 22.5a4.624 4.624 0 0 1 -2.26 3.99 4.572 4.572 0 0 0 .64-2.35 4.934 4.934 0 0 0 -.08-.87 4.68 4.68 0 0 0 -3.06-3.54 4.8 4.8 0 0 0 -1.52-.25 4.689 4.689 0 0 0 -2.41.67 4.656 4.656 0 0 1 4.03-2.32 4.755 4.755 0 0 1 1.52.26 4.646 4.646 0 0 1 3.06 3.54 4.143 4.143 0 0 1 .08.87z" fill="#84879c"/><path d="m65.82 4.59v6.72a1.586 1.586 0 0 1 -1.59 1.58h-.66v-6.14a1.588 1.588 0 0 0 -1.59-1.59h-14.54v-.57a1.588 1.588 0 0 1 1.59-1.59h15.2a1.588 1.588 0 0 1 1.59 1.59z" fill="#84879c"/><path d="m24.4 52.27v11.95h-2.5v-11.95a3.4 3.4 0 0 0 -3.4-3.39h2.5a3.4 3.4 0 0 1 3.4 3.39z" fill="#84879c"/><circle cx="17.455" cy="54.435" fill="#fff" r="2.435"/><path d="m17.455 57.369a2.935 2.935 0 1 1 2.935-2.935 2.938 2.938 0 0 1 -2.935 2.935zm0-4.869a1.935 1.935 0 1 0 1.935 1.935 1.937 1.937 0 0 0 -1.935-1.935z" fill="#323c6b"/><path d="m49.175 33.8a.5.5 0 0 1 -.349-.142l-4.391-4.266a4.017 4.017 0 0 1 -1.23-3.081 3.581 3.581 0 0 1 1.342-2.682c.142-.116 4.08-3.484 5.586-4.772a.5.5 0 1 1 .65.76c-.918.785-5.5 4.706-5.614 4.795a2.593 2.593 0 0 0 -.965 1.944 3.019 3.019 0 0 0 .926 2.316l4.394 4.269a.5.5 0 0 1 -.349.858z" fill="#323c6b"/><path d="m64.086 33.8a.5.5 0 0 1 -.349-.858l4.39-4.266a3.022 3.022 0 0 0 .93-2.318 2.6 2.6 0 0 0 -.967-1.947c-.111-.087-4.7-4.008-5.613-4.793a.5.5 0 1 1 .65-.76c1.506 1.288 5.444 4.656 5.588 4.773a3.582 3.582 0 0 1 1.341 2.682 4.019 4.019 0 0 1 -1.235 3.087l-4.387 4.264a.5.5 0 0 1 -.348.136z" fill="#323c6b"/><path d="m68.636 45.636v23.8a1.565 1.565 0 0 1 -1.566 1.564h-20.88a1.565 1.565 0 0 1 -1.565-1.565v-23.8a6.791 6.791 0 0 1 4.156-6.26 3.612 3.612 0 0 0 2.219-3.325h11.256a3.612 3.612 0 0 0 2.224 3.326 6.791 6.791 0 0 1 4.156 6.26z" fill="#eeefee"/><rect fill="#9297ab" height="5.925" rx="1.392" width="14.578" x="49.341" y="30.125"/><path d="m44.624 46.702h24.012v16.595h-24.012z" fill="#fcd462"/><path d="m66.18 46.542h2.46v-.9a6.775 6.775 0 0 0 -3.63-6.01 6.764 6.764 0 0 1 1.17 3.82z" fill="#e1e6e9"/><path d="m66.18 63.75v3.5a1.562 1.562 0 0 1 -1.56 1.56h-20v.62a1.573 1.573 0 0 0 1.57 1.57h20.88a1.573 1.573 0 0 0 1.57-1.57v-5.68z" fill="#e1e6e9"/><path d="m63.92 31.52v3.14a1.387 1.387 0 0 1 -1.39 1.39h-2.46a1.387 1.387 0 0 0 1.39-1.39v-3.14a1.4 1.4 0 0 0 -1.39-1.4h2.46a1.4 1.4 0 0 1 1.39 1.4z" fill="#84879c"/><path d="m66.18 46.7h2.46v16.6h-2.46z" fill="#f7be56"/><path d="m58.18 56.45-2.35 1.92a2.654 2.654 0 1 1 -3.36-4.11l2.35-1.92z" fill="#eeefee"/><path d="m54.154 59.47a3.155 3.155 0 0 1 -2-5.6l2.35-1.919a.5.5 0 0 1 .7.071l3.359 4.11a.5.5 0 0 1 -.07.7l-2.35 1.92a3.137 3.137 0 0 1 -1.989.718zm.595-6.427-1.963 1.6a2.155 2.155 0 1 0 2.728 3.336l1.963-1.6z" fill="#323c6b"/><path d="m60.52 54.54-2.34 1.91-3.36-4.11 2.35-1.92a2.655 2.655 0 0 1 3.35 4.12z" fill="#fe7058"/><g fill="#323c6b"><path d="m58.18 56.95a.5.5 0 0 1 -.387-.184l-3.359-4.11a.5.5 0 0 1 .07-.7l2.35-1.92a3.155 3.155 0 0 1 3.982 4.895l-2.34 1.91a.5.5 0 0 1 -.316.109zm-2.656-4.54 2.728 3.336 1.948-1.593a2.155 2.155 0 1 0 -2.718-3.345z"/><path d="m67.07 71.5h-20.881a2.068 2.068 0 0 1 -2.065-2.065v-23.8a7.276 7.276 0 0 1 4.462-6.721 3.108 3.108 0 0 0 1.914-2.864.5.5 0 0 1 .5-.5h11.256a.5.5 0 0 1 .5.5 3.11 3.11 0 0 0 1.918 2.865 7.275 7.275 0 0 1 4.462 6.721v23.8a2.068 2.068 0 0 1 -2.066 2.064zm-15.6-34.95a4.112 4.112 0 0 1 -2.5 3.287 6.278 6.278 0 0 0 -3.85 5.8v23.8a1.066 1.066 0 0 0 1.069 1.063h20.881a1.066 1.066 0 0 0 1.065-1.065v-23.8a6.277 6.277 0 0 0 -3.851-5.8 4.112 4.112 0 0 1 -2.5-3.287z"/><path d="m68.636 63.8h-24.012a.5.5 0 0 1 -.5-.5v-16.6a.5.5 0 0 1 .5-.5h24.012a.5.5 0 0 1 .5.5v16.6a.5.5 0 0 1 -.5.5zm-23.512-1h23.012v-15.6h-23.012z"/><path d="m62.527 36.55h-11.795a1.894 1.894 0 0 1 -1.892-1.892v-3.141a1.894 1.894 0 0 1 1.892-1.892h11.795a1.894 1.894 0 0 1 1.892 1.892v3.141a1.894 1.894 0 0 1 -1.892 1.892zm-11.795-5.925a.893.893 0 0 0 -.892.892v3.141a.893.893 0 0 0 .892.892h11.795a.893.893 0 0 0 .892-.892v-3.141a.893.893 0 0 0 -.892-.892z"/><path d="m19.785 49.377a.5.5 0 0 1 -.5-.5v-21.45a5.18 5.18 0 0 1 -3.661-.237v21.687a.5.5 0 0 1 -1 0v-22.549a.5.5 0 0 1 .787-.41 4.182 4.182 0 0 0 4.153.325.5.5 0 0 1 .721.449v22.185a.5.5 0 0 1 -.5.5z"/><path d="m22.34 22.129a.5.5 0 0 1 -.491-.409 4.156 4.156 0 0 0 -2.729-3.161.5.5 0 0 1 -.187-.83l8.847-8.652a.5.5 0 0 1 .839.254 4.182 4.182 0 0 0 2.79 3.1.5.5 0 0 1 .194.833l-8.913 8.726a.5.5 0 0 1 -.35.139zm-2.177-4.2a5.164 5.164 0 0 1 2.431 2.756l7.77-7.607a5.2 5.2 0 0 1 -2.474-2.706z"/><path d="m47.446 11.063h-10.6a.5.5 0 0 1 -.443-.732 4.028 4.028 0 0 0 .447-1.866 4.149 4.149 0 0 0 -.683-2.289.5.5 0 0 1 .418-.775h10.861a.5.5 0 0 1 .5.5v4.662a.5.5 0 0 1 -.5.5zm-9.85-1h9.35v-3.663h-9.523a5.178 5.178 0 0 1 .427 2.064 5.12 5.12 0 0 1 -.25 1.599z"/><path d="m56.63 25.125a6.68 6.68 0 0 1 -6.672-6.672v-5.559a.5.5 0 0 1 .5-.5h12.342a.5.5 0 0 1 .5.5v5.559a6.68 6.68 0 0 1 -6.67 6.672zm-5.672-11.731v5.059a5.672 5.672 0 0 0 11.344 0v-5.059z"/><path d="m32.688 13.626a5.092 5.092 0 0 1 -1.591-.249 5.184 5.184 0 0 1 -3.458-3.84 5.343 5.343 0 0 1 -.113-1.072 5.162 5.162 0 1 1 10.323 0 5.049 5.049 0 0 1 -.561 2.33 5.124 5.124 0 0 1 -4.6 2.831zm0-9.323a4.166 4.166 0 0 0 -4.162 4.162 4.307 4.307 0 0 0 .093.87 4.18 4.18 0 0 0 2.789 3.093 4.048 4.048 0 0 0 1.28.2 4.133 4.133 0 0 0 3.712-2.29 4.046 4.046 0 0 0 .45-1.873 4.153 4.153 0 0 0 -4.162-4.165z"/><path d="m17.763 27.658a5.186 5.186 0 0 1 -5.163-5.158 5.167 5.167 0 0 1 5.162-5.162 5.282 5.282 0 0 1 1.678.278 5.155 5.155 0 0 1 3.391 3.925 4.887 4.887 0 0 1 .093.958 5.165 5.165 0 0 1 -2.924 4.644 5.092 5.092 0 0 1 -2.237.515zm0-9.323a4.166 4.166 0 0 0 -4.163 4.165 4.125 4.125 0 0 0 1.8 3.418 4.156 4.156 0 0 0 6.524-3.418 3.993 3.993 0 0 0 -.074-.77 4.158 4.158 0 0 0 -2.73-3.167 4.293 4.293 0 0 0 -1.357-.229z"/><path d="m64.23 13.394h-15.2a2.089 2.089 0 0 1 -2.087-2.087v-6.721a2.089 2.089 0 0 1 2.087-2.086h15.2a2.089 2.089 0 0 1 2.087 2.086v6.72a2.089 2.089 0 0 1 -2.087 2.088zm-15.2-9.894a1.088 1.088 0 0 0 -1.087 1.086v6.72a1.088 1.088 0 0 0 1.087 1.087h15.2a1.088 1.088 0 0 0 1.087-1.087v-6.72a1.088 1.088 0 0 0 -1.087-1.086z"/><path d="m24.4 64.717h-13.887a.5.5 0 0 1 -.5-.5v-11.945a3.9 3.9 0 0 1 3.895-3.895h7.092a3.9 3.9 0 0 1 3.9 3.895v11.945a.5.5 0 0 1 -.5.5zm-13.384-1h12.884v-11.445a2.9 2.9 0 0 0 -2.9-2.895h-7.093a2.9 2.9 0 0 0 -2.895 2.895z"/><path d="m71.636 68.667a.5.5 0 0 1 -.5-.5v-7.417a.5.5 0 0 1 1 0v7.417a.5.5 0 0 1 -.5.5z"/><path d="m71.636 59a.5.5 0 0 1 -.5-.5v-.583a.5.5 0 1 1 1 0v.583a.5.5 0 0 1 -.5.5z"/><path d="m12.124 40.875a.5.5 0 0 1 -.5-.5v-.583a.5.5 0 0 1 1 0v.583a.5.5 0 0 1 -.5.5z"/><path d="m12.124 38a.5.5 0 0 1 -.5-.5v-6.625a.5.5 0 0 1 1 0v6.625a.5.5 0 0 1 -.5.5z"/></g><path d="m19.444 66.973a.636.636 0 0 1 -.014 1.272l-6.924.026a.636.636 0 1 1 .013-1.271l6.924-.026z" fill="#fff"/><path d="m10.151 66.946a.636.636 0 0 1 -.01 1.272h-.255a.636.636 0 1 1 .005-1.273h.26z" fill="#fff"/></svg>