<svg id="color_line" height="512" viewBox="0 0 74 74" width="512" xmlns="http://www.w3.org/2000/svg" data-name="color line"><path d="m44.404 45.783-14.808 5.377v-17.801h14.808z" fill="#eeefee"/><path d="m69.498 3h-64.996l25.094 30.359h14.808z" fill="#eeefee"/><path d="m44.4 33.36v12.42l-2.75 1v-13.42z" fill="#e1e6e9"/><path d="m69.5 3-25.1 30.36h-3.2l22.88-27.69h-57.37l-2.21-2.67z" fill="#e1e6e9"/><path d="m37.31 58.346c0-1.934 3.5-6.85 3.5-6.85s3.5 4.916 3.5 6.85a3.5 3.5 0 1 1 -7 0z" fill="#89c5cd"/><path d="m28.01 67.5c0-1.934 3.5-6.85 3.5-6.85s3.5 4.916 3.5 6.85a3.5 3.5 0 1 1 -7 0z" fill="#89c5cd"/><path d="m44.31 58.35a3.5 3.5 0 0 1 -6.39 1.97 3.4 3.4 0 0 0 1.02.15 3.5 3.5 0 0 0 3.5-3.5c0-1.1-1.15-3.19-2.12-4.77.3-.43.49-.7.49-.7s3.5 4.91 3.5 6.85z" fill="#6eaaad"/><path d="m35.01 67.5a3.5 3.5 0 0 1 -6.39 1.97 3.4 3.4 0 0 0 1.02.15 3.5 3.5 0 0 0 3.5-3.5c0-1.1-1.15-3.19-2.12-4.77.3-.43.49-.7.49-.7s3.5 4.91 3.5 6.85z" fill="#6eaaad"/><g fill="#323c6b"><path d="m15.073 8.633h-6.327a.5.5 0 0 1 0-1h6.327a.5.5 0 1 1 0 1z"/><path d="m17.2 13.818h-4.171a.5.5 0 0 1 0-1h4.171a.5.5 0 0 1 0 1z"/><path d="m23.52 19h-6.2a.5.5 0 0 1 0-1h6.2a.5.5 0 0 1 0 1z"/><path d="m25.661 24.189h-4.055a.5.5 0 0 1 0-1h4.055a.5.5 0 0 1 0 1z"/><path d="m31.978 29.375h-6.088a.5.5 0 0 1 0-1h6.088a.5.5 0 0 1 0 1z"/><path d="m29.6 51.661a.5.5 0 0 1 -.5-.5v-17.8a.5.5 0 0 1 .5-.5h14.8a.5.5 0 0 1 .5.5v12.422a.5.5 0 0 1 -.329.47l-14.804 5.378a.5.5 0 0 1 -.167.03zm.5-17.8v16.586l13.8-5.014v-11.574z"/><path d="m43.281 49.773a.5.5 0 0 1 -.171-.97l3.827-1.39v-3.757a.5.5 0 0 1 1 0v4.107a.5.5 0 0 1 -.329.47l-4.156 1.509a.512.512 0 0 1 -.171.031z"/><path d="m47.438 41.938a.5.5 0 0 1 -.5-.5v-.312a.5.5 0 0 1 1 0v.313a.5.5 0 0 1 -.5.499z"/><path d="m44.4 33.859h-14.8a.5.5 0 0 1 -.386-.182l-25.098-30.359a.5.5 0 0 1 .384-.818h65a.5.5 0 0 1 .386.818l-25.096 30.36a.5.5 0 0 1 -.39.181zm-14.573-1h14.342l24.268-29.359h-62.874z"/><path d="m40.813 62.348a4.006 4.006 0 0 1 -4-4c0-2.035 3.227-6.623 3.595-7.14a.5.5 0 0 1 .407-.21.5.5 0 0 1 .407.21c.368.517 3.594 5.1 3.594 7.14a4.006 4.006 0 0 1 -4.003 4zm0-9.974c-1.1 1.63-3 4.7-3 5.972a3 3 0 1 0 6 0c0-1.277-1.896-4.346-3-5.972z"/><path d="m31.512 71.5a4.006 4.006 0 0 1 -4-4c0-2.035 3.226-6.623 3.594-7.14a.518.518 0 0 1 .814 0c.368.517 3.595 5.1 3.595 7.14a4.006 4.006 0 0 1 -4.003 4zm0-9.974c-1.1 1.63-3 4.695-3 5.972a3 3 0 1 0 6 0c.002-1.277-1.896-4.342-3-5.972z"/><path d="m11.424 16.583a.5.5 0 0 1 -.386-.182l-.373-.452a.5.5 0 0 1 .771-.637l.373.452a.5.5 0 0 1 -.386.818z"/><path d="m9.847 14.675a.5.5 0 0 1 -.386-.182l-4.682-5.663a.5.5 0 0 1 .771-.637l4.682 5.664a.5.5 0 0 1 -.386.818z"/></g></svg>