<svg id="color_line" height="512" viewBox="0 0 74 74" width="512" xmlns="http://www.w3.org/2000/svg" data-name="color line"><path d="m17.626 26.253a.5.5 0 0 1 -.5-.5v-10.023a6.473 6.473 0 0 1 12.946 0v2.025a.5.5 0 0 1 -1 0v-2.025a5.473 5.473 0 0 0 -10.946 0v10.023a.5.5 0 0 1 -.5.5z" fill="#323c6b"/><path d="m48.2 21.844h-16.183a.5.5 0 0 1 0-1h16.183a.5.5 0 0 1 0 1z" fill="#323c6b"/><path d="m27.128 21.844h-2.836a.5.5 0 0 1 0-1h2.836a.5.5 0 1 1 0 1z" fill="#323c6b"/><path d="m55.928 21.844h-2.836a.5.5 0 0 1 0-1h2.836a.5.5 0 1 1 0 1z" fill="#323c6b"/><path d="m22.134 25.753h-9.015a1.792 1.792 0 1 0 0 3.584h9.015a1.792 1.792 0 0 0 0-3.584z" fill="#9297ab"/><path d="m22.134 29.837h-9.015a2.292 2.292 0 1 1 0-4.584h9.015a2.292 2.292 0 1 1 0 4.584zm-9.015-3.584a1.292 1.292 0 1 0 0 2.584h9.015a1.292 1.292 0 1 0 0-2.584z" fill="#323c6b"/><path d="m22.29 46.83a4.645 4.645 0 0 1 -9.29 0l-.01-8.27a7.439 7.439 0 0 1 3.5.24 21.678 21.678 0 0 0 3.63.83 5.25 5.25 0 0 0 2.16-.26z" fill="#27ccbc"/><path d="m17.64 51.97a5.146 5.146 0 0 1 -5.14-5.14l-.01-8.27a.5.5 0 0 1 .39-.488 7.948 7.948 0 0 1 3.737.244c.3.078.608.164.914.25a13.822 13.822 0 0 0 2.629.564 4.758 4.758 0 0 0 1.951-.232.5.5 0 0 1 .669.47l.01 7.46a5.144 5.144 0 0 1 -5.15 5.14zm-4.149-12.991.009 7.851a4.145 4.145 0 0 0 8.29 0l-.009-6.8a5.972 5.972 0 0 1 -1.7.1 14.786 14.786 0 0 1 -2.818-.6c-.3-.084-.6-.168-.895-.246a7.789 7.789 0 0 0 -2.877-.305z" fill="#323c6b"/><path d="m22.28 39.13v.24a5.25 5.25 0 0 1 -2.16.26 21.678 21.678 0 0 1 -3.63-.83 7.439 7.439 0 0 0 -3.5-.24l-.01-9.22h9.29z" fill="#eeefee"/><path d="m20.579 40.149q-.25 0-.5-.021a14.786 14.786 0 0 1 -2.818-.6c-.3-.084-.6-.168-.895-.246a7.056 7.056 0 0 0 -3.265-.236.5.5 0 0 1 -.61-.487l-.01-9.22a.5.5 0 0 1 .5-.5h9.289a.5.5 0 0 1 .5.5l.011 9.79v.24a.5.5 0 0 1 -.331.471 5.631 5.631 0 0 1 -1.871.309zm-6.455-2.209a9.878 9.878 0 0 1 2.493.376c.3.078.608.164.914.25a13.822 13.822 0 0 0 2.629.564 4.924 4.924 0 0 0 1.62-.13l-.01-9.162h-8.289l.008 8.132a6.06 6.06 0 0 1 .635-.03z" fill="#323c6b"/><path d="m63.8 27.937a.5.5 0 0 1 -.5-.5v-11.1a6.079 6.079 0 0 0 -12.157 0v1.419a.5.5 0 0 1 -1 0v-1.42a7.079 7.079 0 0 1 14.157 0v11.1a.5.5 0 0 1 -.5.501z" fill="#323c6b"/><path d="m58.652 27.437h10.3a2.048 2.048 0 1 1 0 4.1h-10.3a2.048 2.048 0 0 1 0-4.1z" fill="#9297ab"/><path d="m68.952 32.032h-10.3a2.548 2.548 0 1 1 0-5.1h10.3a2.548 2.548 0 1 1 0 5.1zm-10.3-4.1a1.548 1.548 0 1 0 0 3.1h10.3a1.548 1.548 0 1 0 0-3.1z" fill="#323c6b"/><path d="m69.092 43.75v-1.426l.017-10.794h-10.615l-.009 10.794v1.426z" fill="#eeefee"/><path d="m69.092 44.25h-10.607a.5.5 0 0 1 -.5-.5l.009-12.22a.5.5 0 0 1 .5-.5h10.614a.5.5 0 0 1 .5.5l-.016 12.22a.5.5 0 0 1 -.5.5zm-10.106-1h9.606l.016-11.22h-9.614z" fill="#323c6b"/><path d="m58.485 44.625v1.938l-.008 5.537a5.3 5.3 0 0 0 5.29 5.3h.017a5.293 5.293 0 0 0 5.3-5.3l.009-5.539v-1.936z" fill="#fe7058"/><path d="m63.784 57.9a5.805 5.805 0 0 1 -5.808-5.8l.009-7.477a.5.5 0 0 1 .5-.5h10.607a.5.5 0 0 1 .5.5l-.009 7.477a5.805 5.805 0 0 1 -5.799 5.8zm-4.8-12.776-.007 6.976a4.8 4.8 0 0 0 9.606 0l.009-6.977z" fill="#323c6b"/><path d="m50.646 60.362a.5.5 0 0 1 -.5-.5v-13.469a2.452 2.452 0 0 1 2.449-2.449h4.857a.5.5 0 0 1 0 1h-4.857a1.451 1.451 0 0 0 -1.449 1.449v13.47a.5.5 0 0 1 -.5.499z" fill="#323c6b"/><path d="m48.8 59.862h3.684a4.38 4.38 0 0 1 4.38 4.38 0 0 0 0 1 0 0h-12.44a0 0 0 0 1 0 0 4.38 4.38 0 0 1 4.376-4.38z" fill="#9297ab"/><path d="m56.868 64.742h-12.444a.5.5 0 0 1 -.5-.5 4.886 4.886 0 0 1 4.88-4.88h3.685a4.886 4.886 0 0 1 4.88 4.88.5.5 0 0 1 -.501.5zm-11.912-1h11.38a3.886 3.886 0 0 0 -3.848-3.38h-3.688a3.886 3.886 0 0 0 -3.844 3.38z" fill="#323c6b"/><path d="m7.38 59.862h3.684a4.38 4.38 0 0 1 4.38 4.38 0 0 0 0 1 0 0h-12.444a0 0 0 0 1 0 0 4.38 4.38 0 0 1 4.38-4.38z" fill="#9297ab"/><path d="m15.444 64.742h-12.444a.5.5 0 0 1 -.5-.5 4.886 4.886 0 0 1 4.88-4.88h3.685a4.886 4.886 0 0 1 4.88 4.88.5.5 0 0 1 -.501.5zm-11.912-1h11.38a3.886 3.886 0 0 0 -3.848-3.38h-3.684a3.886 3.886 0 0 0 -3.848 3.38z" fill="#323c6b"/><path d="m9.223 60.362a.5.5 0 0 1 -.5-.5v-5.175a3.721 3.721 0 0 1 3.716-3.717h5.206a.5.5 0 0 1 0 1h-5.207a2.72 2.72 0 0 0 -2.716 2.717v5.176a.5.5 0 0 1 -.499.499z" fill="#323c6b"/><rect fill="#9297ab" height="4.239" rx="1.103" width="12.679" x="57.452" y="42.324"/><path d="m69.029 47.063h-10.474a1.6 1.6 0 0 1 -1.6-1.6v-2.036a1.6 1.6 0 0 1 1.6-1.6h10.474a1.6 1.6 0 0 1 1.6 1.6v2.033a1.6 1.6 0 0 1 -1.6 1.603zm-10.475-4.24a.6.6 0 0 0 -.6.6v2.037a.6.6 0 0 0 .6.6h10.475a.6.6 0 0 0 .6-.6v-2.033a.6.6 0 0 0 -.6-.6z" fill="#323c6b"/><path d="m32.015 31.231v-13.476h-4.886v13.636a13 13 0 0 0 12.98 12.98v-5.046a8.1 8.1 0 0 1 -8.094-8.094z" fill="#eeefee"/><path d="m40.109 44.872a13.5 13.5 0 0 1 -13.48-13.48v-13.637a.5.5 0 0 1 .5-.5h4.887a.5.5 0 0 1 .5.5v13.476a7.6 7.6 0 0 0 7.594 7.594.5.5 0 0 1 .5.5v5.047a.5.5 0 0 1 -.501.5zm-12.48-26.617v13.136a12.5 12.5 0 0 0 11.98 12.471v-4.051a8.6 8.6 0 0 1 -8.094-8.58v-12.976z" fill="#323c6b"/><path d="m48.2 17.755v13.476a8.1 8.1 0 0 1 -8.094 8.094v5.047a13 13 0 0 0 12.98-12.98v-13.637z" fill="#eeefee"/><path d="m40.109 44.872a.5.5 0 0 1 -.5-.5v-5.047a.5.5 0 0 1 .5-.5 7.6 7.6 0 0 0 7.591-7.594v-13.476a.5.5 0 0 1 .5-.5h4.886a.5.5 0 0 1 .5.5v13.636a13.5 13.5 0 0 1 -13.477 13.481zm.5-5.061v4.051a12.5 12.5 0 0 0 11.98-12.471v-13.136h-3.889v12.976a8.6 8.6 0 0 1 -8.091 8.58z" fill="#323c6b"/><path d="m27.129 17.755h4.886v4.536h-4.886z" fill="#fe7058"/><path d="m32.016 22.792h-4.887a.5.5 0 0 1 -.5-.5v-4.537a.5.5 0 0 1 .5-.5h4.887a.5.5 0 0 1 .5.5v4.536a.5.5 0 0 1 -.5.501zm-4.387-1h3.887v-3.537h-3.887z" fill="#323c6b"/><path d="m48.203 17.755h4.887v4.536h-4.887z" fill="#27ccbc"/><g fill="#323c6b"><path d="m53.089 22.792h-4.889a.5.5 0 0 1 -.5-.5v-4.537a.5.5 0 0 1 .5-.5h4.886a.5.5 0 0 1 .5.5v4.536a.5.5 0 0 1 -.497.501zm-4.386-1h3.886v-3.537h-3.889z"/><path d="m70.6 57.292a.5.5 0 0 1 -.412-.783l.106-.146c.04-.054.081-.108.116-.166a.5.5 0 1 1 .852.524c-.051.082-.108.16-.166.238l-.084.116a.5.5 0 0 1 -.412.217z"/><path d="m71.715 55a.5.5 0 0 1 -.146-.022.5.5 0 0 1 -.332-.625 7.65 7.65 0 0 0 .347-2.247l.007-4.024a.5.5 0 0 1 .5-.5.5.5 0 0 1 .5.5l-.007 4.023a8.674 8.674 0 0 1 -.39 2.539.5.5 0 0 1 -.479.356z"/><path d="m32.833 46.057a.5.5 0 0 1 -.211-.046c-.238-.111-.476-.224-.709-.346a.5.5 0 1 1 .465-.886c.218.114.441.22.666.324a.5.5 0 0 1 -.211.954z"/><path d="m30.125 44.341a.5.5 0 0 1 -.313-.111 16.638 16.638 0 0 1 -4.669-6.014.5.5 0 1 1 .91-.415 15.638 15.638 0 0 0 4.386 5.65.5.5 0 0 1 -.313.889z"/></g><path d="m15.614 46.689a.538.538 0 0 1 -1.075-.012l-.014-4.02a.538.538 0 1 1 1.075.012z" fill="#fff"/><path d="m15.612 41.051a.538.538 0 0 1 -1.076-.008v-.215a.538.538 0 1 1 1.076 0v.219z" fill="#fff"/></svg>