<svg id="color_line" height="512" viewBox="0 0 74 74" width="512" xmlns="http://www.w3.org/2000/svg" data-name="color line"><path d="m6.88 67.862a.5.5 0 0 1 -.5-.5v-60.724a.5.5 0 0 1 1 0v60.724a.5.5 0 0 1 -.5.5z" fill="#323c6b"/><path d="m65.4 67.862a.5.5 0 0 1 -.5-.5v-60.724a.5.5 0 1 1 1 0v60.724a.5.5 0 0 1 -.5.5z" fill="#323c6b"/><path d="m71 12.961h-68a.5.5 0 0 1 0-1h68a.5.5 0 0 1 0 1z" fill="#323c6b"/><path d="m71 46.082h-68a.5.5 0 0 1 0-1h68a.5.5 0 0 1 0 1z" fill="#323c6b"/><path d="m43.029 8.375h14.232a1.081 1.081 0 0 0 1.069-1.093v-2.525a1.081 1.081 0 0 0 -1.069-1.093h-14.232a1.081 1.081 0 0 0 -1.069 1.093v2.525a1.081 1.081 0 0 0 1.069 1.093z" fill="#9297ab"/><path d="m55.417 69.49a.5.5 0 0 1 -.256-.93 9.269 9.269 0 0 0 4.213-5.492.5.5 0 0 1 .963.269 10.261 10.261 0 0 1 -4.664 6.083.5.5 0 0 1 -.256.07z" fill="#323c6b"/><path d="m52.791 70.545a.5.5 0 0 1 -.121-.985c.071-.018.144-.033.216-.047s.148-.029.219-.05a.5.5 0 1 1 .29.957c-.1.031-.208.053-.314.074l-.168.036a.5.5 0 0 1 -.122.015z" fill="#323c6b"/><path d="m14.241 30.875a.5.5 0 0 1 -.477-.351l-.04-.124c-.034-.1-.067-.207-.1-.313a.5.5 0 0 1 .966-.258c.024.088.052.175.08.261l.043.135a.5.5 0 0 1 -.477.649z" fill="#323c6b"/><path d="m13.806 28.583a.5.5 0 0 1 -.5-.468l-.009-.129c-.012-.178-.024-.355-.024-.535v-5.368a.5.5 0 0 1 1 0v5.368c0 .157.011.311.022.465l.009.135a.5.5 0 0 1 -.467.531z" fill="#323c6b"/><path d="m16.735 8.375h14.232a1.081 1.081 0 0 0 1.069-1.093v-2.525a1.081 1.081 0 0 0 -1.069-1.093h-14.232a1.081 1.081 0 0 0 -1.069 1.093v2.525a1.081 1.081 0 0 0 1.069 1.093z" fill="#9297ab"/><path d="m43.029 41.243h14.232a1.081 1.081 0 0 0 1.069-1.093v-2.525a1.081 1.081 0 0 0 -1.069-1.093h-14.232a1.081 1.081 0 0 0 -1.069 1.093v2.526a1.081 1.081 0 0 0 1.069 1.092z" fill="#9297ab"/><path d="m16.735 41.243h14.232a1.081 1.081 0 0 0 1.069-1.093v-2.525a1.081 1.081 0 0 0 -1.069-1.093h-14.232a1.081 1.081 0 0 0 -1.069 1.093v2.526a1.081 1.081 0 0 0 1.069 1.092z" fill="#9297ab"/><path d="m58.33 4.76v2.52a1.084 1.084 0 0 1 -1.07 1.1h-2.25a1.084 1.084 0 0 0 1.07-1.1v-2.52a1.084 1.084 0 0 0 -1.07-1.1h2.25a1.084 1.084 0 0 1 1.07 1.1z" fill="#84879c"/><path d="m32.04 4.76v2.52a1.084 1.084 0 0 1 -1.07 1.1h-2.25a1.084 1.084 0 0 0 1.07-1.1v-2.52a1.084 1.084 0 0 0 -1.07-1.1h2.25a1.084 1.084 0 0 1 1.07 1.1z" fill="#84879c"/><path d="m58.33 37.62v2.53a1.082 1.082 0 0 1 -1.07 1.09h-2.25a1.082 1.082 0 0 0 1.07-1.09v-2.53a1.082 1.082 0 0 0 -1.07-1.09h2.25a1.082 1.082 0 0 1 1.07 1.09z" fill="#84879c"/><path d="m32.04 37.62v2.53a1.082 1.082 0 0 1 -1.07 1.09h-2.25a1.082 1.082 0 0 0 1.07-1.09v-2.53a1.082 1.082 0 0 0 -1.07-1.09h2.25a1.082 1.082 0 0 1 1.07 1.09z" fill="#84879c"/><path d="m18.172 19.5c1.259.258 2.135 1.379 3.25 2.018a7 7 0 0 0 5.832.041c1.162-.43 2.264-1.005 3.381-1.542v-11.642h-13.569v11.167a2.422 2.422 0 0 1 1.106-.042z" fill="#eeefee"/><path d="m27.255 21.554a7 7 0 0 1 -5.832-.041c-1.115-.639-1.991-1.76-3.25-2.018a2.422 2.422 0 0 0 -1.106.047v7.909a6.785 6.785 0 1 0 13.57 0v-7.439c-1.119.537-2.221 1.112-3.382 1.542z" fill="#fe7058"/><path d="m43.36 41.243v10.357a10.324 10.324 0 0 1 1.356.464 7.406 7.406 0 0 0 3.833.91c1.438-.222 2.62-1.377 4.069-1.51a8.307 8.307 0 0 1 3.247.769 5.925 5.925 0 0 0 1.065.244v-11.234z" fill="#eeefee"/><path d="m52.618 51.468c-1.449.133-2.631 1.288-4.069 1.51a7.406 7.406 0 0 1 -3.833-.91 10.324 10.324 0 0 0 -1.356-.468v8.977a6.785 6.785 0 0 0 13.57 0v-8.1a5.925 5.925 0 0 1 -1.065-.244 8.307 8.307 0 0 0 -3.247-.765z" fill="#89c5cd"/><path d="m51.524 20.959a18.9 18.9 0 0 1 -2.1.831c-1.28.215-2.442-.686-3.521-1.407a4.45 4.45 0 0 0 -2.543-.862v7.931a6.785 6.785 0 1 0 13.57 0v-5.659a6.872 6.872 0 0 1 -1.385-.259c-1.32-.387-2.702-.964-4.021-.575z" fill="#fcd462"/><path d="m43.36 8.375v11.145a4.45 4.45 0 0 1 2.543.862c1.079.721 2.241 1.622 3.521 1.407a18.9 18.9 0 0 0 2.1-.831c1.319-.389 2.7.188 4.021.575a6.872 6.872 0 0 0 1.385.259v-13.417z" fill="#eeefee"/><path d="m20.072 53.2c1.059.422 1.919 1.423 3.059 1.441.96.015 1.768-.679 2.673-1 1.586-.559 3.287.068 4.831.815v-13.213h-13.569v12.349a3.238 3.238 0 0 1 3.006-.392z" fill="#eeefee"/><path d="m25.8 53.642c-.905.319-1.714 1.013-2.673 1-1.14-.018-2-1.019-3.059-1.441a3.238 3.238 0 0 0 -3.006.393v6.989a6.785 6.785 0 0 0 13.57 0v-6.126c-1.541-.747-3.241-1.374-4.832-.815z" fill="#27ccbc"/><path d="m30.64 8.38v11.63c-.82.39-1.62.8-2.45 1.16v-12.79z" fill="#e1e6e9"/><path d="m30.64 20.01v7.44a6.781 6.781 0 0 1 -11.18 5.17 6.62 6.62 0 0 0 1.95.29 6.781 6.781 0 0 0 6.78-6.79v-4.95c.83-.36 1.63-.77 2.45-1.16z" fill="#ea6453"/><path d="m56.93 41.24v11.24a6.383 6.383 0 0 1 -1.07-.24c-.46-.15-.92-.33-1.38-.48v-10.52z" fill="#e1e6e9"/><path d="m56.93 52.48v8.1a6.788 6.788 0 0 1 -6.79 6.78 6.714 6.714 0 0 1 -4.38-1.62 6.487 6.487 0 0 0 1.93.29 6.788 6.788 0 0 0 6.79-6.78v-7.49c.46.15.92.33 1.38.48a6.383 6.383 0 0 0 1.07.24z" fill="#6eaaad"/><path d="m56.93 21.79v5.66a6.79 6.79 0 0 1 -6.79 6.79 6.714 6.714 0 0 1 -4.38-1.62 6.487 6.487 0 0 0 1.93.29 6.79 6.79 0 0 0 6.79-6.79v-4.91c.36.1.71.22 1.06.32a6.438 6.438 0 0 0 1.39.26z" fill="#f7be56"/><path d="m56.93 8.38v13.41a6.438 6.438 0 0 1 -1.39-.26c-.35-.1-.7-.22-1.06-.32v-12.83z" fill="#e1e6e9"/><path d="m30.64 41.24v13.22a11.341 11.341 0 0 0 -2.45-.91v-12.31z" fill="#e1e6e9"/><path d="m30.64 54.46v6.12a6.781 6.781 0 0 1 -11.18 5.16 6.62 6.62 0 0 0 1.95.29 6.779 6.779 0 0 0 6.78-6.78v-5.7a11.341 11.341 0 0 1 2.45.91z" fill="#21b3a9"/><g fill="#323c6b"><path d="m24.106 22.67a5.838 5.838 0 0 1 -2.932-.724 9.9 9.9 0 0 1 -1.22-.87 4.762 4.762 0 0 0 -1.882-1.091 1.909 1.909 0 0 0 -.878.041.492.492 0 0 1 -.433-.087.5.5 0 0 1 -.195-.4v-11.164a.5.5 0 0 1 .5-.5h13.57a.5.5 0 0 1 .5.5v11.638a.5.5 0 0 1 -.284.451l-.71.345c-.873.426-1.776.867-2.713 1.214a9.632 9.632 0 0 1 -3.323.647zm-5.833-3.664a5.56 5.56 0 0 1 2.3 1.287 9.034 9.034 0 0 0 1.1.786c1.854 1.063 4.185.46 5.41.006.891-.33 1.771-.76 2.622-1.175l.433-.21v-10.825h-12.572v10.082a2.856 2.856 0 0 1 .707.049z"/><path d="m23.856 34.741a7.3 7.3 0 0 1 -7.29-7.29v-7.909a.5.5 0 0 1 .373-.483 2.9 2.9 0 0 1 1.334-.053 5.56 5.56 0 0 1 2.3 1.287 9.034 9.034 0 0 0 1.1.786c1.854 1.063 4.185.46 5.41.006.891-.33 1.771-.76 2.622-1.175l.717-.348a.5.5 0 0 1 .716.451v7.438a7.294 7.294 0 0 1 -7.282 7.29zm-6.29-14.782v7.492a6.285 6.285 0 1 0 12.57 0v-6.64c-.872.425-1.772.865-2.708 1.211a7.4 7.4 0 0 1 -6.255-.076 9.9 9.9 0 0 1 -1.22-.87 4.762 4.762 0 0 0 -1.882-1.091 1.806 1.806 0 0 0 -.505-.026z"/><path d="m48.007 53.519a8.4 8.4 0 0 1 -3.179-.862l-.3-.126a9.6 9.6 0 0 0 -1.289-.442.5.5 0 0 1 -.375-.484v-10.362a.5.5 0 0 1 .5-.5h13.566a.5.5 0 0 1 .5.5v11.238a.5.5 0 0 1 -.17.375.492.492 0 0 1 -.395.12 6.356 6.356 0 0 1 -1.157-.265c-.231-.076-.462-.159-.694-.243a5.56 5.56 0 0 0 -2.352-.5 5.568 5.568 0 0 0 -1.941.712 7.02 7.02 0 0 1 -2.1.794 4.039 4.039 0 0 1 -.614.045zm-4.147-2.293c.328.1.673.226 1.047.381l.306.127a6.372 6.372 0 0 0 3.26.75 6.181 6.181 0 0 0 1.8-.7 6.4 6.4 0 0 1 2.3-.816 6.412 6.412 0 0 1 2.783.559c.222.081.443.161.665.233.136.044.273.084.41.117v-10.134h-12.571z"/><path d="m50.14 67.861a7.288 7.288 0 0 1 -7.28-7.28v-8.981a.5.5 0 0 1 .625-.484 10.7 10.7 0 0 1 1.422.487l.306.127a6.372 6.372 0 0 0 3.26.75 6.181 6.181 0 0 0 1.8-.7 6.4 6.4 0 0 1 2.3-.816 6.441 6.441 0 0 1 2.783.559c.222.081.443.161.665.233a5.349 5.349 0 0 0 .974.224.5.5 0 0 1 .436.5v8.1a7.293 7.293 0 0 1 -7.291 7.281zm-6.28-15.584v8.3a6.285 6.285 0 0 0 12.57 0v-7.677a6.42 6.42 0 0 1 -.721-.192c-.231-.076-.462-.159-.694-.243a5.56 5.56 0 0 0 -2.352-.5 5.568 5.568 0 0 0 -1.941.712 7.02 7.02 0 0 1 -2.1.794 7.062 7.062 0 0 1 -3.8-.815l-.3-.126c-.231-.096-.452-.18-.662-.253z"/><path d="m50.14 34.741a7.294 7.294 0 0 1 -7.28-7.29v-7.931a.5.5 0 0 1 .471-.5 4.923 4.923 0 0 1 2.85.945l.31.209c.929.631 1.893 1.285 2.852 1.121a4.017 4.017 0 0 0 1.056-.4 6.232 6.232 0 0 1 .984-.413 6.3 6.3 0 0 1 3.7.392c.2.063.4.125.6.183a6.4 6.4 0 0 0 1.283.24.5.5 0 0 1 .461.5v5.659a7.3 7.3 0 0 1 -7.287 7.285zm-6.28-14.7v7.405a6.285 6.285 0 1 0 12.57 0v-5.207a7.551 7.551 0 0 1 -1.026-.225c-.2-.06-.409-.124-.616-.189a5.508 5.508 0 0 0 -3.123-.387 5.476 5.476 0 0 0 -.828.352 4.807 4.807 0 0 1 -1.33.492c-1.356.227-2.537-.573-3.579-1.28l-.3-.205a4.605 4.605 0 0 0 -1.768-.751z"/><path d="m49.033 22.322a5.8 5.8 0 0 1 -3.104-1.322l-.3-.205a3.973 3.973 0 0 0 -2.237-.779.5.5 0 0 1 -.529-.5v-11.141a.5.5 0 0 1 .5-.5h13.567a.5.5 0 0 1 .5.5v13.417a.5.5 0 0 1 -.161.367.519.519 0 0 1 -.378.131 7.425 7.425 0 0 1 -1.487-.277c-.2-.06-.409-.124-.616-.189a5.509 5.509 0 0 0 -3.124-.387 5.542 5.542 0 0 0 -.828.352 4.807 4.807 0 0 1 -1.33.492 2.873 2.873 0 0 1 -.473.041zm-5.173-3.285a5.549 5.549 0 0 1 2.321.93l.31.209c.929.631 1.893 1.285 2.852 1.121a4.017 4.017 0 0 0 1.056-.4 6.232 6.232 0 0 1 .984-.413 6.3 6.3 0 0 1 3.705.392c.2.063.4.125.6.183a6.648 6.648 0 0 0 .745.172v-12.356h-12.573z"/><path d="m23.163 55.141h-.04a4.133 4.133 0 0 1 -2.183-.879 6.242 6.242 0 0 0 -1.054-.6 2.747 2.747 0 0 0 -2.532.338.5.5 0 0 1 -.788-.409v-12.348a.5.5 0 0 1 .5-.5h13.57a.5.5 0 0 1 .5.5v13.214a.5.5 0 0 1 -.718.45c-1.4-.676-3.016-1.3-4.448-.793a6.923 6.923 0 0 0 -.864.4 4.216 4.216 0 0 1 -1.943.627zm-2.906-2.406a7.063 7.063 0 0 1 1.23.688 3.353 3.353 0 0 0 1.653.717 3.873 3.873 0 0 0 1.508-.515 7.812 7.812 0 0 1 .991-.455 6.158 6.158 0 0 1 4.5.506v-11.933h-12.573v11.014a3.662 3.662 0 0 1 2.691-.022z"/><path d="m23.856 67.861a7.293 7.293 0 0 1 -7.29-7.28v-6.989a.5.5 0 0 1 .212-.409 3.723 3.723 0 0 1 3.479-.448 7.063 7.063 0 0 1 1.23.688 3.353 3.353 0 0 0 1.653.717 3.873 3.873 0 0 0 1.508-.515 7.812 7.812 0 0 1 .991-.455c1.776-.626 3.633.072 5.215.836a.5.5 0 0 1 .282.45v6.124a7.288 7.288 0 0 1 -7.28 7.281zm-6.29-14v6.715a6.285 6.285 0 0 0 12.57 0v-5.803a5.7 5.7 0 0 0 -4.166-.659 6.923 6.923 0 0 0 -.864.4 4.168 4.168 0 0 1 -1.983.626 4.133 4.133 0 0 1 -2.183-.879 6.242 6.242 0 0 0 -1.054-.6 2.737 2.737 0 0 0 -2.32.205z"/><path d="m57.261 8.875h-14.232a1.583 1.583 0 0 1 -1.569-1.593v-2.525a1.583 1.583 0 0 1 1.569-1.593h14.232a1.583 1.583 0 0 1 1.569 1.593v2.525a1.583 1.583 0 0 1 -1.569 1.593zm-14.232-4.711a.582.582 0 0 0 -.569.593v2.525a.582.582 0 0 0 .569.593h14.232a.582.582 0 0 0 .569-.593v-2.525a.582.582 0 0 0 -.569-.593z"/><path d="m30.967 8.875h-14.232a1.583 1.583 0 0 1 -1.569-1.593v-2.525a1.583 1.583 0 0 1 1.569-1.593h14.232a1.583 1.583 0 0 1 1.569 1.593v2.525a1.583 1.583 0 0 1 -1.569 1.593zm-14.232-4.711a.582.582 0 0 0 -.569.593v2.525a.582.582 0 0 0 .569.593h14.232a.582.582 0 0 0 .569-.593v-2.525a.582.582 0 0 0 -.569-.593z"/><path d="m57.261 41.743h-14.232a1.582 1.582 0 0 1 -1.569-1.592v-2.526a1.583 1.583 0 0 1 1.569-1.593h14.232a1.583 1.583 0 0 1 1.569 1.593v2.526a1.582 1.582 0 0 1 -1.569 1.592zm-14.232-4.711a.582.582 0 0 0 -.569.593v2.526a.582.582 0 0 0 .569.592h14.232a.582.582 0 0 0 .569-.592v-2.526a.582.582 0 0 0 -.569-.593z"/><path d="m30.967 41.743h-14.232a1.582 1.582 0 0 1 -1.569-1.592v-2.526a1.583 1.583 0 0 1 1.569-1.593h14.232a1.583 1.583 0 0 1 1.569 1.593v2.526a1.582 1.582 0 0 1 -1.569 1.592zm-14.232-4.711a.582.582 0 0 0 -.569.593v2.526a.582.582 0 0 0 .569.592h14.232a.582.582 0 0 0 .569-.592v-2.526a.582.582 0 0 0 -.569-.593z"/></g></svg>