<svg id="color_line" height="512" viewBox="0 0 74 74" width="512" xmlns="http://www.w3.org/2000/svg" data-name="color line"><path d="m43.956 42.608 1.919 4.224 7.291 1.868a13.649 13.649 0 0 1 10.419 13.587v10.088h-53.17v-10.088a13.649 13.649 0 0 1 10.419-13.587l7.291-1.868 1.919-4.224" fill="#27ccbc"/><path d="m61.26 54.34a13.961 13.961 0 0 0 -8.09-5.64l-7.29-1.87-1.92-4.22h-3.054l.458 1.446 2.336 4.636 6.32 1.638a13.65 13.65 0 0 1 10.42 13.58v5.15h-50.02v3.32h53.16v-10.09a14.009 14.009 0 0 0 -2.32-7.95z" fill="#21b3a9"/><path d="m43.956 42.608 1.919 4.224.035.015a17.557 17.557 0 0 1 -6.82 4.311 6.516 6.516 0 0 1 -4.182 0 17.557 17.557 0 0 1 -6.82-4.311l.037-.015 1.919-4.224z" fill="#fcd462"/><path d="m53.655 72.875h-33.31a.5.5 0 0 1 -.5-.5v-12.56a.5.5 0 0 1 1 0v12.06h32.31v-12.06a.5.5 0 0 1 1 0v12.56a.5.5 0 0 1 -.5.5z" fill="#323c6b"/><path d="m65.958 58.063a.5.5 0 0 1 -.482-.37l-.059-.226c-.032-.128-.065-.256-.1-.382a.5.5 0 0 1 .955-.3c.044.142.081.287.118.431l.055.211a.5.5 0 0 1 -.483.63z" fill="#323c6b"/><path d="m65.082 55.563a.5.5 0 0 1 -.457-.295 15.124 15.124 0 0 0 -1.308-2.35 16.092 16.092 0 0 0 -3.02-3.275.5.5 0 0 1 .637-.771 17.092 17.092 0 0 1 3.208 3.48 16.151 16.151 0 0 1 1.4 2.506.5.5 0 0 1 -.456.705z" fill="#323c6b"/><path d="m44.457 43.706a4.845 4.845 0 0 1 -2.451 1.633l1.694 3.351 2.175-1.858z" fill="#f7be56"/><path d="m37 52.006a7 7 0 0 1 -2.254-.373 18.15 18.15 0 0 1 -7.012-4.433.5.5 0 0 1 -.025-.676l1.365-2.993a.5.5 0 0 1 .91.415l-1.284 2.809a17.132 17.132 0 0 0 6.37 3.933 5.985 5.985 0 0 0 3.854 0 17.17 17.17 0 0 0 6.376-3.934l-1.232-2.718a.5.5 0 1 1 .911-.413l1.335 2.945a.5.5 0 0 1 .082.22.512.512 0 0 1 -.127.413 18.183 18.183 0 0 1 -7.011 4.431 6.938 6.938 0 0 1 -2.258.374z" fill="#323c6b"/><path d="m63.585 72.875h-53.17a.5.5 0 0 1 -.5-.5v-10.087a14.149 14.149 0 0 1 10.8-14.072l7.058-1.809 1.82-4.006a.5.5 0 1 1 .91.414l-1.923 4.224a.5.5 0 0 1 -.331.277l-7.291 1.869a13.149 13.149 0 0 0 -10.043 13.1v9.587h52.17v-9.584a13.15 13.15 0 0 0 -10.042-13.1l-7.292-1.869a.5.5 0 0 1 -.331-.277l-1.92-4.227a.5.5 0 1 1 .91-.414l1.82 4.006 7.059 1.809a14.149 14.149 0 0 1 10.796 14.072v10.087a.5.5 0 0 1 -.5.5z" fill="#323c6b"/><ellipse cx="23.906" cy="31.356" fill="#fcd462" rx="3.312" ry="3.427"/><path d="m23.906 35.284a3.929 3.929 0 1 1 3.812-3.927 3.875 3.875 0 0 1 -3.812 3.927zm0-6.855a2.93 2.93 0 1 0 2.812 2.928 2.875 2.875 0 0 0 -2.812-2.928z" fill="#323c6b"/><ellipse cx="50.263" cy="31.356" fill="#fcd462" rx="3.312" ry="3.427"/><path d="m50.263 35.284a3.929 3.929 0 1 1 3.812-3.927 3.875 3.875 0 0 1 -3.812 3.927zm0-6.855a2.93 2.93 0 1 0 2.812 2.928 2.875 2.875 0 0 0 -2.812-2.928z" fill="#323c6b"/><path d="m50.723 26.131v5.927a13.545 13.545 0 0 1 -2.7 8.2 18.534 18.534 0 0 1 -8.774 6.441 6.686 6.686 0 0 1 -4.334 0 18.534 18.534 0 0 1 -8.774-6.441 13.545 13.545 0 0 1 -2.7-8.2v-5.927z" fill="#fcd462"/><path d="m50.72 26.13v5.93a13.54 13.54 0 0 1 -2.69 8.19 18.5 18.5 0 0 1 -8.78 6.44 6.564 6.564 0 0 1 -3.4.25 5.968 5.968 0 0 0 .92-.25 18.451 18.451 0 0 0 8.78-6.44 13.54 13.54 0 0 0 2.69-8.19v-5.93z" fill="#f7be56"/><path d="m52.013 14.374v11.757h-29.86v-11.77l14.936 6.294z" fill="#9297ab"/><path d="m52.01 14.37v11.76h-2.58v-10.67z" fill="#84879c"/><path d="m58.008 11.844-5.995 2.53-14.924 6.281-14.936-6.294-5.996-2.517 20.932-8.812z" fill="#9297ab"/><path d="m55.457 12.917 2.553-1.077-20.92-8.81-2.79 1.17 20.787 8.877z" fill="#84879c"/><path d="m58.3 21.955a.5.5 0 0 1 -.48-.36l-2.438-8.349-10.431-1.265a.5.5 0 1 1 .12-.993l10.762 1.3a.5.5 0 0 1 .42.356l2.53 8.666a.5.5 0 0 1 -.48.64z" fill="#323c6b"/><circle cx="58.303" cy="21.719" fill="#9297ab" r="2.132"/><g fill="#323c6b"><path d="m58.3 24.351a2.632 2.632 0 1 1 2.632-2.632 2.635 2.635 0 0 1 -2.632 2.632zm0-4.264a1.632 1.632 0 1 0 1.632 1.632 1.634 1.634 0 0 0 -1.632-1.632z"/><path d="m22.89 6.142a.5.5 0 0 1 -.194-.961l.42-.181a.5.5 0 0 1 .388.922l-.42.177a.5.5 0 0 1 -.194.043z"/><path d="m25.509 5.039a.5.5 0 0 1 -.194-.961l5.853-2.463a.5.5 0 1 1 .388.922l-5.856 2.463a.5.5 0 0 1 -.191.039z"/><path d="m37.084 47.554a7.173 7.173 0 0 1 -2.33-.387 18.865 18.865 0 0 1 -9.009-6.612 14.129 14.129 0 0 1 -2.8-8.5v-5.924a.5.5 0 0 1 .5-.5h27.278a.5.5 0 0 1 .5.5v5.927a14.125 14.125 0 0 1 -2.8 8.5 18.86 18.86 0 0 1 -9.009 6.612 7.17 7.17 0 0 1 -2.33.384zm-13.138-20.923v5.427a13.124 13.124 0 0 0 2.6 7.894 17.886 17.886 0 0 0 8.538 6.27 6.2 6.2 0 0 0 4.009 0 17.882 17.882 0 0 0 8.538-6.27 13.121 13.121 0 0 0 2.6-7.894v-5.427z"/><path d="m52.013 26.631h-29.86a.5.5 0 0 1 -.5-.5v-11.77a.5.5 0 0 1 .694-.461l14.742 6.212 14.73-6.2a.5.5 0 0 1 .694.461v11.758a.5.5 0 0 1 -.5.5zm-29.36-1h28.86v-10.5l-14.23 5.989a.5.5 0 0 1 -.388 0l-14.242-6z"/><path d="m37.089 21.155a.508.508 0 0 1 -.194-.039l-20.931-8.816a.5.5 0 0 1 0-.922l20.936-8.807a.5.5 0 0 1 .388 0l20.912 8.812a.5.5 0 0 1 0 .921l-20.917 8.812a.5.5 0 0 1 -.194.039zm-19.642-9.312 19.642 8.269 19.632-8.268-19.632-8.269z"/></g><path d="m34.744 22.9a.572.572 0 0 1 -.013 1.144l-6.84.006a.572.572 0 1 1 .012-1.144l6.84-.006z" fill="#fff"/><path d="m25.836 22.908a.572.572 0 0 1 -.009 1.144h-.289a.572.572 0 1 1 0-1.144h.293z" fill="#fff"/></svg>