<svg id="color_line" height="512" viewBox="0 0 74 74" width="512" xmlns="http://www.w3.org/2000/svg" data-name="color line"><path d="m66.483 34.558a21.536 21.536 0 0 0 -4.283 9.648 2.327 2.327 0 0 0 -1.017-.227h-15.308a2.334 2.334 0 0 0 -1.047.247 24.166 24.166 0 0 0 -4.513-10 16.541 16.541 0 1 1 26.167.336z" fill="#fcd462"/><path d="m66.48 34.56a21.489 21.489 0 0 0 -4.28 9.65 2.314 2.314 0 0 0 -1.02-.23h-2.29a21.229 21.229 0 0 1 3.97-8.17 16.519 16.519 0 0 0 -16.53-26.42 16.535 16.535 0 0 1 20.15 25.17z" fill="#f7be56"/><path d="m61.176 48.836h-15.296a2.427 2.427 0 0 0 0 4.854h15.3a2.427 2.427 0 1 0 0-4.854z" fill="#9297ab"/><path d="m53.528 58.794a6.515 6.515 0 0 1 -6.061-4.127l-.385-.978h12.893l-.385.978a6.515 6.515 0 0 1 -6.062 4.127z" fill="#84879c"/><path d="m53.528 59.293a6.975 6.975 0 0 1 -6.528-4.443l-.386-.977a.5.5 0 0 1 .465-.684h12.896a.5.5 0 0 1 .465.683l-.385.978a6.976 6.976 0 0 1 -6.527 4.443zm-5.712-5.1.116.294a6.015 6.015 0 0 0 11.192 0l.116-.294z" fill="#323c6b"/><path d="m61.176 43.982h-15.296a2.427 2.427 0 0 0 0 4.854h15.3a2.427 2.427 0 1 0 0-4.854z" fill="#9297ab"/><path d="m63.6 51.26a2.424 2.424 0 0 1 -2.42 2.43h-2.25a2.425 2.425 0 0 0 0-4.85h2.25a2.416 2.416 0 0 1 2.42 2.42z" fill="#84879c"/><path d="m63.6 46.41a2.424 2.424 0 0 1 -2.42 2.43h-2.25a2.43 2.43 0 0 0 0-4.86h2.25a2.424 2.424 0 0 1 2.42 2.43z" fill="#84879c"/><path d="m50.3 64.766h-14.449a3.734 3.734 0 0 1 -3.73-3.729v-36.763a2.588 2.588 0 0 0 -2.585-2.585h-10.179a2.589 2.589 0 0 0 -2.586 2.585v4.814a.5.5 0 0 1 -1 0v-4.814a3.59 3.59 0 0 1 3.586-3.585h10.178a3.589 3.589 0 0 1 3.585 3.585v36.762a2.733 2.733 0 0 0 2.73 2.729h14.45a2.733 2.733 0 0 0 2.729-2.729v-2.243a.5.5 0 0 1 1 0v2.243a3.733 3.733 0 0 1 -3.729 3.73z" fill="#323c6b"/><path d="m21.051 29.088h-9.56a1.934 1.934 0 0 0 0 3.869h9.56a1.934 1.934 0 1 0 0-3.869z" fill="#9297ab"/><path d="m21.051 33.457h-9.56a2.434 2.434 0 1 1 0-4.869h9.56a2.434 2.434 0 0 1 0 4.869zm-9.56-3.869a1.434 1.434 0 1 0 0 2.869h9.56a1.434 1.434 0 0 0 0-2.869z" fill="#323c6b"/><path d="m28.38 52.16a12.11 12.11 0 0 1 -24.22 0 11.516 11.516 0 0 1 .06-1.18 8.173 8.173 0 0 1 6.18-.69c2.04.63 3.88 2.08 6.02 2.1a12.3 12.3 0 0 0 4.22-1.15 19.469 19.469 0 0 1 7.55-1.18 11.16 11.16 0 0 1 .19 2.1z" fill="#fe7058"/><path d="m28.19 50.06a19.469 19.469 0 0 0 -7.55 1.18 12.3 12.3 0 0 1 -4.22 1.15c-2.14-.02-3.98-1.47-6.02-2.1a8.173 8.173 0 0 0 -6.18.69 12.111 12.111 0 0 1 7.14-9.89v-8.14h9.82v8.14a12.079 12.079 0 0 1 7.01 8.97z" fill="#eeefee"/><path d="m28.38 52.16a12.112 12.112 0 0 1 -17.65 10.77 12.245 12.245 0 0 0 3.17.42 12.108 12.108 0 0 0 12.11-12.11 10.608 10.608 0 0 0 -.06-1.14 18.64 18.64 0 0 1 2.24-.04 11.16 11.16 0 0 1 .19 2.1z" fill="#ea6453"/><path d="m28.19 50.06a19.707 19.707 0 0 0 -2.43.05 12.1 12.1 0 0 0 -6.83-8.12v-9.04h2.25v8.14a12.079 12.079 0 0 1 7.01 8.97z" fill="#e1e6e9"/><g fill="#323c6b"><path d="m70.47 15.063a.5.5 0 0 1 -.433-.25 19.4 19.4 0 0 0 -6.3-6.58.5.5 0 0 1 .539-.842 20.4 20.4 0 0 1 6.628 6.92.5.5 0 0 1 -.432.75z"/><path d="m71.82 17.938a.5.5 0 0 1 -.468-.323l-.076-.207c-.042-.115-.083-.229-.129-.341a.5.5 0 1 1 .925-.382c.052.126.1.254.145.382l.071.194a.5.5 0 0 1 -.468.677z"/><path d="m1.39 50.156a.54.54 0 0 1 -.083-.007.5.5 0 0 1 -.41-.576l.021-.144c.01-.082.021-.165.037-.246a.5.5 0 1 1 .981.194c-.012.059-.019.119-.027.179l-.026.182a.5.5 0 0 1 -.493.418z"/><path d="m1.97 47.844a.5.5 0 0 1 -.474-.66 15.651 15.651 0 0 1 2.92-5.132.5.5 0 1 1 .763.647 14.642 14.642 0 0 0 -2.735 4.801.5.5 0 0 1 -.474.344z"/><path d="m44.829 44.726a.5.5 0 0 1 -.491-.407 23.808 23.808 0 0 0 -4.421-9.795 17.041 17.041 0 0 1 15.531-27.183 17.04 17.04 0 0 1 11.427 27.528 21.135 21.135 0 0 0 -4.185 9.424.5.5 0 0 1 -.71.363 1.819 1.819 0 0 0 -.8-.177h-15.305a1.818 1.818 0 0 0 -.823.194.5.5 0 0 1 -.223.053zm8.694-36.489a16.037 16.037 0 0 0 -12.808 25.684 24.955 24.955 0 0 1 4.485 9.637 2.849 2.849 0 0 1 .672-.08h15.309a2.921 2.921 0 0 1 .634.068 22.065 22.065 0 0 1 4.277-9.3 16.04 16.04 0 0 0 -10.752-25.911 16.9 16.9 0 0 0 -1.817-.098z"/><path d="m61.176 54.189h-15.3a2.927 2.927 0 0 1 0-5.854h15.3a2.927 2.927 0 1 1 0 5.854zm-15.3-4.854a1.927 1.927 0 0 0 0 3.854h15.3a1.927 1.927 0 1 0 0-3.854z"/><path d="m61.176 49.335h-15.3a2.927 2.927 0 0 1 0-5.854h15.3a2.927 2.927 0 1 1 0 5.854zm-15.3-4.854a1.927 1.927 0 0 0 0 3.854h15.3a1.927 1.927 0 1 0 0-3.854z"/><path d="m16.27 64.77a12.624 12.624 0 0 1 -12.61-12.61 12.2 12.2 0 0 1 .062-1.23.5.5 0 0 1 .26-.39 8.642 8.642 0 0 1 6.563-.729 17.214 17.214 0 0 1 2.264.943 8.846 8.846 0 0 0 3.616 1.136 9.1 9.1 0 0 0 3.244-.817c.268-.1.534-.206.8-.3a20.058 20.058 0 0 1 7.742-1.209.5.5 0 0 1 .47.406 11.746 11.746 0 0 1 .2 2.194 12.624 12.624 0 0 1 -12.611 12.606zm-11.577-13.47c-.022.285-.033.571-.033.863a11.61 11.61 0 0 0 23.22 0 11.035 11.035 0 0 0 -.115-1.613 18.964 18.964 0 0 0 -6.952 1.163c-.263.1-.524.2-.785.3a9.655 9.655 0 0 1 -3.616.884 9.72 9.72 0 0 1 -4.032-1.232 16.48 16.48 0 0 0 -2.129-.891 7.6 7.6 0 0 0 -5.558.526z"/><path d="m16.484 52.891h-.071a9.72 9.72 0 0 1 -4.032-1.232 16.48 16.48 0 0 0 -2.129-.891 7.63 7.63 0 0 0 -5.795.652.5.5 0 0 1 -.735-.488 12.62 12.62 0 0 1 7.138-10.162v-7.82a.5.5 0 0 1 .5-.5h9.82a.5.5 0 0 1 .5.5v7.819a12.528 12.528 0 0 1 7 9.207.5.5 0 0 1 -.117.415.486.486 0 0 1 -.4.169 19.013 19.013 0 0 0 -7.355 1.15c-.263.1-.524.2-.785.3a9.931 9.931 0 0 1 -3.539.881zm-8.3-3.424a8.115 8.115 0 0 1 2.36.345 17.214 17.214 0 0 1 2.264.943 8.849 8.849 0 0 0 3.616 1.136 9.1 9.1 0 0 0 3.244-.817c.268-.1.534-.206.8-.3a20.066 20.066 0 0 1 7.108-1.227 11.541 11.541 0 0 0 -6.6-8 .5.5 0 0 1 -.3-.457v-7.64h-8.816v7.64a.5.5 0 0 1 -.3.457 11.622 11.622 0 0 0 -6.72 8.587 8.814 8.814 0 0 1 3.345-.668z"/></g><path d="m15.25 55.7a.6.6 0 0 1 -.142-.017 13.78 13.78 0 0 1 -2.573-1 15.6 15.6 0 0 0 -1.995-.83 6.31 6.31 0 0 0 -1.318-.248.6.6 0 1 1 .1-1.2 7.53 7.53 0 0 1 1.572.3 16.728 16.728 0 0 1 2.153.891 12.755 12.755 0 0 0 2.346.924.6.6 0 0 1 -.143 1.18z" fill="#fff"/><path d="m17.552 55.769a.6.6 0 0 1 -.146-1.182c.264-.066.524-.15.784-.24a.6.6 0 0 1 .391 1.135c-.292.1-.586.195-.883.27a.6.6 0 0 1 -.146.017z" fill="#fff"/></svg>