<svg id="color_line" height="512" viewBox="0 0 74 74" width="512" xmlns="http://www.w3.org/2000/svg" data-name="color line"><rect fill="#9297ab" height="63.512" rx="3.86" width="66.167" x="3.917" y="3.113"/><path d="m70.08 6.97v55.79a3.84 3.84 0 0 1 -3.42 3.83 2.592 2.592 0 0 0 .05-.56v-55.79a3.864 3.864 0 0 0 -3.86-3.87h-58.45a3.009 3.009 0 0 0 -.43.03 3.833 3.833 0 0 1 3.81-3.29h58.44a3.856 3.856 0 0 1 3.86 3.86z" fill="#84879c"/><path d="m9.823 70.438a1.318 1.318 0 0 0 1.318 1.318h6.2a1.318 1.318 0 0 0 1.318-1.318v-3.813h-8.836z" fill="#84879c"/><path d="m17.339 72.255h-6.2a1.82 1.82 0 0 1 -1.817-1.817v-3.813a.5.5 0 0 1 .5-.5h8.833a.5.5 0 0 1 .5.5v3.813a1.82 1.82 0 0 1 -1.816 1.817zm-7.016-5.13v3.313a.818.818 0 0 0 .817.817h6.2a.818.818 0 0 0 .817-.817v-3.313z" fill="#323c6b"/><path d="m54.344 66.625v3.813a1.318 1.318 0 0 0 1.318 1.318h7.2a1.318 1.318 0 0 0 1.318-1.318v-3.813z" fill="#84879c"/><path d="m62.859 72.255h-7.2a1.82 1.82 0 0 1 -1.817-1.817v-3.813a.5.5 0 0 1 .5-.5h9.833a.5.5 0 0 1 .5.5v3.813a1.82 1.82 0 0 1 -1.816 1.817zm-8.016-5.13v3.313a.818.818 0 0 0 .817.817h7.2a.818.818 0 0 0 .817-.817v-3.313z" fill="#323c6b"/><rect fill="#89c5cd" height="24.59" rx="2.455" width="30.052" x="33.625" y="8.716"/><path d="m11 45.938h52v13.875h-52z" fill="#e1e6e9"/><circle cx="18.406" cy="21.011" fill="#e1e6e9" r="9.969"/><path d="m63.68 11.17v19.68a2.458 2.458 0 0 1 -2.46 2.46h-.54v-19.4a2.458 2.458 0 0 0 -2.46-2.46h-24.6v-.28a2.45 2.45 0 0 1 2.46-2.45h25.14a2.45 2.45 0 0 1 2.46 2.45z" fill="#6eaaad"/><path d="m63 45.94v13.87h-3v-11.14h-49v-2.73z" fill="#d5d6db"/><path d="m28.37 21.01a9.918 9.918 0 0 1 -4.86 8.55 9.965 9.965 0 0 0 -12.26-15.48 9.958 9.958 0 0 1 17.12 6.93z" fill="#d5d6db"/><g fill="#323c6b"><path d="m18.406 21.511a.5.5 0 0 1 -.466-.319l-2.281-5.886a.5.5 0 1 1 .932-.361l2.281 5.886a.5.5 0 0 1 -.466.681z"/><path d="m18.406 12.8a.5.5 0 0 1 -.5-.5v-1.258a.5.5 0 0 1 1 0v1.258a.5.5 0 0 1 -.5.5z"/><path d="m18.406 31.479a.5.5 0 0 1 -.5-.5v-1.254a.5.5 0 0 1 1 0v1.254a.5.5 0 0 1 -.5.5z"/><path d="m9.692 21.511h-1.254a.5.5 0 1 1 0-1h1.254a.5.5 0 0 1 0 1z"/><path d="m28.374 21.511h-1.254a.5.5 0 0 1 0-1h1.254a.5.5 0 0 1 0 1z"/><path d="m24.567 15.349a.5.5 0 0 1 -.354-.854l.888-.887a.5.5 0 0 1 .707.707l-.888.887a.5.5 0 0 1 -.353.147z"/><path d="m11.357 28.559a.5.5 0 0 1 -.357-.853l.888-.887a.5.5 0 0 1 .707.707l-.888.887a.5.5 0 0 1 -.35.146z"/><path d="m12.245 15.349a.5.5 0 0 1 -.354-.146l-.891-.887a.5.5 0 0 1 .707-.707l.888.887a.5.5 0 0 1 -.354.854z"/><path d="m25.455 28.559a.5.5 0 0 1 -.354-.146l-.888-.887a.5.5 0 0 1 .707-.707l.888.887a.5.5 0 0 1 -.354.854z"/></g><circle cx="49.155" cy="39.622" fill="#27ccbc" r="2.156"/><path d="m49.155 42.278a2.656 2.656 0 1 1 2.656-2.656 2.659 2.659 0 0 1 -2.656 2.656zm0-4.312a1.656 1.656 0 1 0 1.656 1.656 1.658 1.658 0 0 0 -1.656-1.657z" fill="#323c6b"/><circle cx="37" cy="39.622" fill="#fe7058" r="2.156"/><path d="m37 42.278a2.656 2.656 0 1 1 2.656-2.656 2.659 2.659 0 0 1 -2.656 2.656zm0-4.312a1.656 1.656 0 1 0 1.656 1.656 1.658 1.658 0 0 0 -1.656-1.657z" fill="#323c6b"/><circle cx="24.845" cy="39.622" fill="#05afd6" r="2.156"/><path d="m24.845 42.278a2.656 2.656 0 1 1 2.655-2.656 2.659 2.659 0 0 1 -2.655 2.656zm0-4.312a1.656 1.656 0 1 0 1.655 1.656 1.658 1.658 0 0 0 -1.655-1.657z" fill="#323c6b"/><path d="m73.083 10.521a.5.5 0 0 1 -.5-.5v-.333a.5.5 0 0 1 1 0v.333a.5.5 0 0 1 -.5.5z" fill="#323c6b"/><path d="m48.917 70.125h-8.667a.5.5 0 0 1 0-1h8.667a.5.5 0 0 1 0 1z" fill="#323c6b"/><path d="m37.625 70.125h-.375a.5.5 0 0 1 0-1h.375a.5.5 0 0 1 0 1z" fill="#323c6b"/><path d="m73.083 8.313a.5.5 0 0 1 -.5-.5v-1.613a5.616 5.616 0 0 0 -3.175-5.028.5.5 0 0 1 .434-.9 6.623 6.623 0 0 1 3.741 5.928v1.613a.5.5 0 0 1 -.5.5z" fill="#323c6b"/><path d="m66.224 67.125h-58.448a4.365 4.365 0 0 1 -4.359-4.36v-55.792a4.365 4.365 0 0 1 4.359-4.36h58.448a4.365 4.365 0 0 1 4.359 4.36v55.792a4.365 4.365 0 0 1 -4.359 4.36zm-58.448-63.512a3.363 3.363 0 0 0 -3.359 3.36v55.792a3.363 3.363 0 0 0 3.359 3.36h58.448a3.363 3.363 0 0 0 3.359-3.36v-55.792a3.363 3.363 0 0 0 -3.359-3.36z" fill="#323c6b"/><rect fill="none" height="24.59" rx="2.455" width="30.052" x="33.625" y="8.716"/><path d="m11 45.938h52v13.875h-52z" fill="none"/><rect fill="none" height="24.59" rx="2.455" width="30.052" x="33.625" y="8.716"/><path d="m11 45.938h52v13.875h-52z" fill="none"/><path d="m61.223 33.806h-25.143a2.958 2.958 0 0 1 -2.955-2.955v-19.681a2.958 2.958 0 0 1 2.955-2.954h25.143a2.958 2.958 0 0 1 2.955 2.955v19.68a2.958 2.958 0 0 1 -2.955 2.955zm-25.143-24.59a1.957 1.957 0 0 0 -1.955 1.955v19.68a1.957 1.957 0 0 0 1.955 1.955h25.143a1.957 1.957 0 0 0 1.955-1.955v-19.681a1.957 1.957 0 0 0 -1.955-1.955z" fill="#323c6b"/><path d="m63 60.313h-52a.5.5 0 0 1 -.5-.5v-13.875a.5.5 0 0 1 .5-.5h52a.5.5 0 0 1 .5.5v13.875a.5.5 0 0 1 -.5.5zm-51.5-1h51v-12.875h-51z" fill="#323c6b"/><path d="m18.406 31.479a10.469 10.469 0 1 1 10.469-10.468 10.481 10.481 0 0 1 -10.469 10.468zm0-19.937a9.469 9.469 0 1 0 9.469 9.469 9.48 9.48 0 0 0 -9.469-9.469z" fill="#323c6b"/><path d="m40.238 28.581a2.824 2.824 0 0 1 -2.82-2.82v-4.178a1.822 1.822 0 0 0 -1.82-1.82h-1.968a.5.5 0 0 1 0-1h1.97a2.824 2.824 0 0 1 2.82 2.82v4.177a1.82 1.82 0 1 0 3.641 0v-8.492a3.3 3.3 0 1 1 6.6 0v4.214a1.924 1.924 0 0 0 1.916 1.918 1.925 1.925 0 0 0 1.923-1.919v-1.2a3.062 3.062 0 0 1 6.123 0v1.457a1.822 1.822 0 0 0 1.82 1.82h3.237a.5.5 0 0 1 0 1h-3.237a2.824 2.824 0 0 1 -2.82-2.82v-1.454a2.062 2.062 0 1 0 -4.123 0v1.2a2.922 2.922 0 1 1 -5.845 0v-4.216a2.3 2.3 0 0 0 -4.6 0v8.492a2.813 2.813 0 0 1 -2.82 2.82z" fill="#323c6b"/><path d="m6.489 43.759a.674.674 0 0 1 1.349.011v.184a.674.674 0 1 1 -1.349-.006z" fill="#fff"/><path d="m6.539 33.25a.674.674 0 0 1 1.349.015l.006 8.235a.674.674 0 1 1 -1.349-.015l-.007-8.234z" fill="#fff"/></svg>