<svg id="color_line" height="512" viewBox="0 0 74 74" width="512" xmlns="http://www.w3.org/2000/svg" data-name="color line"><path d="m27.392 71.164h-19.683a1.849 1.849 0 0 1 -1.849-1.849v-27.731h28l-4.622 5.378v22.354a1.849 1.849 0 0 1 -1.846 1.848z" fill="#eeefee"/><path d="m67.9 68.053-11.138-21.374h-12.437l-11.135 21.374a2.128 2.128 0 0 0 1.888 3.112h30.932a2.128 2.128 0 0 0 1.89-3.112z" fill="#eeefee"/><path d="m44.325 33.734h12.437v12.945h-12.437z" fill="#eeefee"/><path d="m33.86 41.58-4.62 5.38v22.36a1.844 1.844 0 0 1 -1.85 1.84h-19.68a1.844 1.844 0 0 1 -1.85-1.84v-.95h18.87a1.844 1.844 0 0 0 1.84-1.85v-20.187l4.138-4.753z" fill="#e1e6e9"/><path d="m66.01 71.16h-3a2.126 2.126 0 0 0 1.89-3.11l-11.14-21.37h3l11.14 21.37a2.126 2.126 0 0 1 -1.89 3.11z" fill="#e1e6e9"/><path d="m53.76 33.73h3v12.95h-3z" fill="#e1e6e9"/><path d="m56.262 28.744h-11.437a2.5 2.5 0 0 0 0 4.991h11.437a2.5 2.5 0 1 0 0-4.991z" fill="#9297ab"/><path d="m56.262 34.234h-11.437a3 3 0 0 1 0-5.991h11.437a3 3 0 0 1 0 5.991zm-11.437-4.99a2 2 0 0 0 0 3.991h11.437a2 2 0 0 0 0-3.991z" fill="#323c6b"/><path d="m50.541 29.244a.5.5 0 0 1 -.5-.5v-2.889a1.619 1.619 0 0 0 -1.617-1.616h-8.741a.5.5 0 0 1 0-1h8.741a2.62 2.62 0 0 1 2.617 2.616v2.888a.5.5 0 0 1 -.5.501z" fill="#323c6b"/><path d="m17.548 42.084a.5.5 0 0 1 -.5-.5v-15.3a3.048 3.048 0 0 1 3.045-3.045h9.143a.5.5 0 0 1 0 1h-9.143a2.047 2.047 0 0 0 -2.045 2.045v15.3a.5.5 0 0 1 -.5.5z" fill="#323c6b"/><rect fill="#9297ab" height="4.774" rx=".613" width="10.448" x="29.235" y="21.352"/><path d="m39.07 26.626h-9.222a1.114 1.114 0 0 1 -1.112-1.113v-3.548a1.114 1.114 0 0 1 1.112-1.113h9.222a1.114 1.114 0 0 1 1.112 1.113v3.549a1.114 1.114 0 0 1 -1.112 1.112zm-9.223-4.774a.113.113 0 0 0 -.112.113v3.549a.113.113 0 0 0 .112.113h9.223a.113.113 0 0 0 .112-.113v-3.549a.113.113 0 0 0 -.112-.113z" fill="#323c6b"/><path d="m36.432 17.624v3.728h-3.946v-3.728" fill="#fcd462"/><path d="m36.433 21.852h-3.948a.5.5 0 0 1 -.5-.5v-3.728a.5.5 0 0 1 1 0v3.228h2.947v-3.228a.5.5 0 0 1 1 0v3.728a.5.5 0 0 1 -.499.5z" fill="#323c6b"/><circle cx="34.459" cy="10.362" fill="#e1e6e9" r="7.527"/><g fill="#323c6b"><path d="m34.459 18.389a8.027 8.027 0 1 1 8.026-8.027 8.036 8.036 0 0 1 -8.026 8.027zm0-15.054a7.027 7.027 0 1 0 7.026 7.027 7.035 7.035 0 0 0 -7.026-7.027z"/><path d="m34.459 10.862a.5.5 0 0 1 -.359-.153l-3.95-4.089a.5.5 0 1 1 .719-.694l3.949 4.09a.5.5 0 0 1 -.359.847z"/><path d="m2.86 46.563a.5.5 0 0 1 -.5-.5v-.219a.5.5 0 0 1 1 0v.219a.5.5 0 0 1 -.5.5z"/><path d="m2.86 44.281a.5.5 0 0 1 -.5-.5v-5.2a.5.5 0 0 1 .5-.5h3.265a.5.5 0 0 1 0 1h-2.765v4.7a.5.5 0 0 1 -.5.5z"/><path d="m66.271 58.938a.5.5 0 0 1 -.443-.269l-3.306-6.344a.5.5 0 1 1 .887-.462l3.306 6.344a.5.5 0 0 1 -.443.731z"/><path d="m67.605 61.5a.5.5 0 0 1 -.443-.269l-.2-.375a.5.5 0 1 1 .887-.462l.2.375a.5.5 0 0 1 -.443.731z"/><path d="m34.459 5.792a.5.5 0 0 1 -.5-.5v-.51a.5.5 0 0 1 1 0v.51a.5.5 0 0 1 -.5.5z"/><path d="m34.459 16.444a.5.5 0 0 1 -.5-.5v-.511a.5.5 0 0 1 1 0v.511a.5.5 0 0 1 -.5.5z"/><path d="m40.04 10.862h-.511a.5.5 0 0 1 0-1h.511a.5.5 0 0 1 0 1z"/><path d="m29.388 10.862h-.51a.5.5 0 0 1 0-1h.51a.5.5 0 0 1 0 1z"/><path d="m66.01 71.665h-30.933a2.629 2.629 0 0 1 -2.331-3.843l11.136-21.374a.5.5 0 0 1 .443-.269h12.437a.5.5 0 0 1 .443.269l11.136 21.374a2.629 2.629 0 0 1 -2.331 3.843zm-21.381-24.486-11 21.1a1.629 1.629 0 0 0 1.444 2.381h30.937a1.628 1.628 0 0 0 1.444-2.381l-11-21.1z"/><path d="m56.762 47.179h-12.437a.5.5 0 0 1 -.5-.5v-12.945a.5.5 0 0 1 .5-.5h12.437a.5.5 0 0 1 .5.5v12.945a.5.5 0 0 1 -.5.5zm-11.937-1h11.437v-11.945h-11.437z"/><path d="m27.393 71.665h-19.684a2.352 2.352 0 0 1 -2.349-2.35v-27.731a.5.5 0 0 1 .5-.5h28a.5.5 0 0 1 .379.826l-4.5 5.238v22.167a2.352 2.352 0 0 1 -2.346 2.35zm-21.033-29.581v27.231a1.351 1.351 0 0 0 1.349 1.349h19.684a1.351 1.351 0 0 0 1.349-1.349v-22.353a.5.5 0 0 1 .121-.326l3.912-4.552z"/></g><path d="m26.24 55.83v12.33h-17.38v-12.33l.45.09a4.332 4.332 0 0 0 3.02-.23c.65-.39 1.08-1.06 1.7-1.49a5.3 5.3 0 0 1 3.67-.53 33.377 33.377 0 0 1 6.7 1.53c.61.21 1.23.44 1.84.63z" fill="#27ccbc"/><path d="m63 68.16h-24.919a.953.953 0 0 1 -.845-1.393l4.074-7.817a4.718 4.718 0 0 0 2.76-.22c.88-.37 1.6-1.06 2.47-1.46a6.014 6.014 0 0 1 3.93-.19c1.31.31 2.56.83 3.85 1.18a13.414 13.414 0 0 0 5.24.29l4.284 8.217a.953.953 0 0 1 -.844 1.393z" fill="#fe7058"/><path d="m26.24 55.83v12.33h-2.19v-13.08c.12.04.23.08.35.12.61.21 1.23.44 1.84.63z" fill="#21b3a9"/><path d="m63 68.16h-24.92a.951.951 0 0 1 -.84-1.39l.43-.83h22.06a.958.958 0 0 0 .85-1.4l-3.06-5.86a13.972 13.972 0 0 0 2.04-.13l4.28 8.22a.951.951 0 0 1 -.84 1.39z" fill="#ea6453"/><path d="m26.24 68.66h-17.38a.5.5 0 0 1 -.5-.5v-12.33a.5.5 0 0 1 .6-.49l.449.09a3.914 3.914 0 0 0 2.668-.17 4.337 4.337 0 0 0 .819-.711 6.069 6.069 0 0 1 .851-.759 5.753 5.753 0 0 1 4.014-.616 33.921 33.921 0 0 1 6.8 1.554l.569.2c.42.148.841.3 1.258.426a.5.5 0 0 1 .352.478v12.328a.5.5 0 0 1 -.5.5zm-16.88-1h16.38v-11.466c-.313-.1-.628-.214-.942-.325l-.561-.2a32.947 32.947 0 0 0 -6.6-1.507 4.91 4.91 0 0 0 -3.325.445 5.23 5.23 0 0 0 -.707.639 5.2 5.2 0 0 1 -1.021.869 4.64 4.64 0 0 1 -3.227.32z" fill="#323c6b"/><path d="m63 68.66h-24.919a1.453 1.453 0 0 1 -1.288-2.125l4.074-7.816a.506.506 0 0 1 .537-.26 4.217 4.217 0 0 0 2.471-.189 7.277 7.277 0 0 0 1.207-.709 8.911 8.911 0 0 1 1.249-.745 6.412 6.412 0 0 1 4.256-.222c.749.177 1.48.422 2.188.659.557.186 1.112.372 1.676.525a12.853 12.853 0 0 0 5.041.277.493.493 0 0 1 .512.264l4.283 8.217a1.453 1.453 0 0 1 -1.287 2.124zm-21.413-9.16-3.907 7.5a.452.452 0 0 0 .4.662h24.92a.452.452 0 0 0 .4-.662l-4.122-7.909a13.807 13.807 0 0 1 -5.085-.346c-.586-.159-1.16-.35-1.734-.542-.687-.229-1.4-.467-2.1-.634a5.449 5.449 0 0 0 -3.6.157 8.035 8.035 0 0 0 -1.11.667 8.114 8.114 0 0 1 -1.377.8 5.031 5.031 0 0 1 -2.685.307z" fill="#323c6b"/><path d="m13.807 64.948a.46.46 0 0 1 -.007.92h-.184a.46.46 0 1 1 0-.921h.188z" fill="#fff"/><path d="m19.964 64.977a.46.46 0 0 1 -.01.92l-4.521.009a.46.46 0 1 1 .01-.92z" fill="#fff"/></svg>