<svg id="color_line" height="512" viewBox="0 0 74 74" width="512" xmlns="http://www.w3.org/2000/svg" data-name="color line"><path d="m62.776 52.7a17.809 17.809 0 1 1 -24.376-16.558v-10.257h-15.1a4.194 4.194 0 0 0 -4.189 4.189v6.826h-7.887v-7.8a11.1 11.1 0 0 1 11.087-11.1h16.089v-10.626l-3.132-3.874h19.4l-3.13 3.874v28.768a17.8 17.8 0 0 1 11.238 16.558z" fill="#eeefee"/><path d="m62.78 52.7a17.8 17.8 0 0 1 -12.65 17.04 17.811 17.811 0 0 0 -1.66-32.35v-28.77l3.13-3.87h-15.32l-1.01-1.25h19.4l-3.13 3.87v28.77a17.815 17.815 0 0 1 11.24 16.56z" fill="#e1e6e9"/><path d="m59.057 52.89a14.1 14.1 0 0 1 -28.19-.231 14.623 14.623 0 0 1 .375-3.269c.115-.048.24-.106.365-.154a10.022 10.022 0 0 1 8.048-.106c1.115.548 2.182 1.394 3.423 1.346a16.257 16.257 0 0 0 2.788-.836c1.884-.423 3.721.673 5.471 1.481a19.485 19.485 0 0 0 7.72 1.769z" fill="#27ccbc"/><path d="m59.06 52.89a14.094 14.094 0 0 1 -24.09 9.7 14.08 14.08 0 0 0 21.78-9.89 19.988 19.988 0 0 0 2.31.19z" fill="#21b3a9"/><g fill="#323c6b"><path d="m8.756 25.833a.5.5 0 0 1 -.482-.633l.035-.129c.043-.16.086-.319.137-.476a.5.5 0 1 1 .954.305c-.045.141-.084.284-.123.428l-.037.134a.5.5 0 0 1 -.484.371z"/><path d="m9.873 23a.5.5 0 0 1 -.441-.735 14.715 14.715 0 0 1 6.9-6.454.5.5 0 0 1 .411.911 13.711 13.711 0 0 0 -6.433 6.013.5.5 0 0 1 -.437.265z"/><path d="m64.84 47.042a.5.5 0 0 1 -.478-.354 20.1 20.1 0 0 0 -3.3-6.383.5.5 0 0 1 .793-.609 21.1 21.1 0 0 1 3.464 6.7.5.5 0 0 1 -.332.625.494.494 0 0 1 -.147.021z"/><path d="m65.435 49.583a.5.5 0 0 1 -.492-.415l-.033-.224c-.01-.075-.02-.149-.034-.223a.5.5 0 0 1 .981-.193c.019.094.031.19.044.286l.027.184a.5.5 0 0 1 -.407.578.515.515 0 0 1 -.086.007z"/><path d="m44.972 71a18.306 18.306 0 0 1 -7.072-35.194v-9.421h-14.6a3.693 3.693 0 0 0 -3.688 3.689v6.826a.5.5 0 0 1 -.5.5h-7.887a.5.5 0 0 1 -.5-.5v-7.8a11.6 11.6 0 0 1 11.587-11.6h15.588v-9.95l-3.021-3.736a.5.5 0 0 1 .389-.814h19.4a.5.5 0 0 1 .389.814l-3.021 3.736v28.256a18.307 18.307 0 0 1 -7.064 35.194zm-21.672-45.615h15.1a.5.5 0 0 1 .5.5v10.257a.5.5 0 0 1 -.315.465 17.308 17.308 0 1 0 12.77 0 .5.5 0 0 1 -.316-.465v-28.768a.5.5 0 0 1 .111-.314l2.469-3.06h-17.3l2.472 3.059a.5.5 0 0 1 .111.314v10.627a.5.5 0 0 1 -.5.5h-16.09a10.6 10.6 0 0 0 -10.587 10.591v7.3h6.891v-6.317a4.694 4.694 0 0 1 4.684-4.689z"/><path d="m44.972 67.254a14.617 14.617 0 0 1 -14.6-14.6 15.127 15.127 0 0 1 .388-3.381.5.5 0 0 1 .3-.35l.126-.054c.082-.035.167-.072.251-.1a10.486 10.486 0 0 1 8.446-.089c.286.14.566.3.848.457a4.713 4.713 0 0 0 2.337.839 4.624 4.624 0 0 0 1.489-.417 7.889 7.889 0 0 1 1.209-.408c1.8-.4 3.458.4 5.067 1.173.242.116.483.232.722.342a19.057 19.057 0 0 0 7.522 1.723.5.5 0 0 1 .489.507 14.644 14.644 0 0 1 -14.594 14.358zm-13.3-17.5a14.1 14.1 0 0 0 -.308 2.909 13.6 13.6 0 0 0 27.174.713 20.043 20.043 0 0 1 -7.415-1.8c-.243-.113-.489-.23-.735-.35-1.456-.7-2.961-1.424-4.416-1.1a7.042 7.042 0 0 0 -1.057.36 5.433 5.433 0 0 1 -1.821.488 5.283 5.283 0 0 1 -2.867-.967c-.265-.149-.528-.3-.8-.429a9.492 9.492 0 0 0 -7.639.12z"/></g></svg>