<svg id="color_line" height="512" viewBox="0 0 74 74" width="512" xmlns="http://www.w3.org/2000/svg" data-name="color line"><path d="m39.252 71h-24.871a2.183 2.183 0 0 1 -2.181-2.183v-29.417l-3.555-4.81h36.342l-3.553 4.81v29.417a2.183 2.183 0 0 1 -2.182 2.183z" fill="#eeefee"/><path d="m44.99 34.59-3.56 4.81v29.42a2.179 2.179 0 0 1 -2.18 2.18h-24.87a2.185 2.185 0 0 1 -2.18-2.18v-.164h24.86a2.187 2.187 0 0 0 2.18-2.19v-28.036l2.83-3.84z" fill="#e1e6e9"/><path d="m37.374 52.81v14.13h-21.115v-16.12a9.768 9.768 0 0 1 6.2-.983c2.225.439 4.142 1.8 6.261 2.623a13.678 13.678 0 0 0 8.654.35z" fill="#89c5cd"/><path d="m37.374 67.439h-21.115a.5.5 0 0 1 -.5-.5v-16.119a.5.5 0 0 1 .281-.449 10.273 10.273 0 0 1 6.514-1.023 16.2 16.2 0 0 1 4.066 1.594c.74.371 1.506.754 2.277 1.053a13.157 13.157 0 0 0 8.34.334.5.5 0 0 1 .637.481v14.13a.5.5 0 0 1 -.5.499zm-20.615-1h20.115v-12.983a14.1 14.1 0 0 1 -8.339-.53c-.814-.315-1.6-.709-2.363-1.091a15.192 15.192 0 0 0 -3.813-1.507 9.15 9.15 0 0 0 -5.6.809z" fill="#323c6b"/><path d="m52.54 16.985-18.219 6.65a5.466 5.466 0 0 1 -6.06-1.61l-1.112.4a1.883 1.883 0 0 1 -1.291-3.538l1.112-.4a5.472 5.472 0 0 1 3.6-5.141l18.215-6.646z" fill="#eeefee"/><path d="m49.44 8.48-17.44 6.37a5.46 5.46 0 0 0 -3.59 5.14l-1.11.4a1.9 1.9 0 0 0 -1.22 2.09 1.833 1.833 0 0 1 -1.34-1.18 1.871 1.871 0 0 1 1.12-2.41l1.11-.4a5.455 5.455 0 0 1 3.6-5.14l18.22-6.65z" fill="#e1e6e9"/><path d="m22.452 27.477c0-1.2 2.168-4.678 2.168-4.678s2.168 3.48 2.168 4.678a2.168 2.168 0 0 1 -4.336 0z" fill="#89c5cd"/><path d="m24.62 30.145a2.671 2.671 0 0 1 -2.668-2.668c0-1.276 1.869-4.34 2.243-4.941a.52.52 0 0 1 .85 0c.374.6 2.243 3.666 2.243 4.941a2.671 2.671 0 0 1 -2.668 2.668zm0-6.376a12.694 12.694 0 0 0 -1.668 3.708 1.668 1.668 0 0 0 3.336 0 12.694 12.694 0 0 0 -1.668-3.708z" fill="#323c6b"/><path d="m15.04 32.458c0-1.2 2.168-4.678 2.168-4.678s2.168 3.48 2.168 4.678a2.168 2.168 0 0 1 -4.336 0z" fill="#89c5cd"/><path d="m17.208 35.126a2.671 2.671 0 0 1 -2.668-2.668c0-1.276 1.869-4.34 2.243-4.941a.52.52 0 0 1 .85 0c.374.6 2.243 3.666 2.243 4.941a2.671 2.671 0 0 1 -2.668 2.668zm0-6.376a12.694 12.694 0 0 0 -1.668 3.708 1.668 1.668 0 1 0 3.336 0 12.694 12.694 0 0 0 -1.668-3.708z" fill="#323c6b"/><path d="m26.747 34.594a28.68 28.68 0 0 1 1.8-3.395 28.68 28.68 0 0 1 1.8 3.395z" fill="#89c5cd"/><g fill="#323c6b"><path d="m30.353 35.094h-3.606a.5.5 0 0 1 -.462-.69 29.014 29.014 0 0 1 1.84-3.469.52.52 0 0 1 .85 0 28.863 28.863 0 0 1 1.84 3.469.5.5 0 0 1 -.462.69zm-2.833-1h2.06c-.334-.7-.734-1.411-1.03-1.92-.296.509-.696 1.226-1.03 1.92z"/><path d="m43.053 72.813a.5.5 0 0 1 -.367-.839 4.651 4.651 0 0 0 1.249-3.156v-2.787a.5.5 0 0 1 1 0v2.786a5.648 5.648 0 0 1 -1.515 3.834.5.5 0 0 1 -.367.162z"/><path d="m44.435 64.531a.5.5 0 0 1 -.5-.5v-.344a.5.5 0 0 1 1 0v.344a.5.5 0 0 1 -.5.5z"/><path d="m34.563 9.194a.5.5 0 0 1 -.172-.97l.531-.194a.5.5 0 0 1 .344.939l-.531.194a.506.506 0 0 1 -.172.031z"/><path d="m37 8.3a.5.5 0 0 1 -.172-.97l6.781-2.475a.5.5 0 0 1 .344.939l-6.781 2.48a.506.506 0 0 1 -.172.026z"/><path d="m39.252 71.5h-24.871a2.686 2.686 0 0 1 -2.681-2.683v-29.257l-3.458-4.673a.5.5 0 0 1 .4-.8h36.345a.5.5 0 0 1 .4.8l-3.452 4.673v29.257a2.686 2.686 0 0 1 -2.683 2.683zm-29.616-36.41 2.964 4.01a.5.5 0 0 1 .1.3v29.417a1.685 1.685 0 0 0 1.681 1.683h24.871a1.685 1.685 0 0 0 1.683-1.683v-29.417a.5.5 0 0 1 .1-.3l2.965-4.01z"/></g><rect fill="#9297ab" height="4.79" rx="1.981" transform="matrix(.343 .939 -.939 .343 45.123 -42.464)" width="15.113" x="45.357" y="8.625"/><path d="m57.04 15.35 4.71-1.73a5.476 5.476 0 0 0 -3.75-10.29l-4.71 1.73z" fill="#9297ab"/><path d="m54.115 6.95a1.964 1.964 0 0 0 -2.53-1.17l-.78.28a2 2 0 0 0 -1.18 2.54l-.73-2a2 2 0 0 1 1.18-2.54l.78-.28a1.971 1.971 0 0 1 2.545 1.18z" fill="#84879c"/><path d="m65.355 7.23a5.506 5.506 0 0 0 -6.4-2.05l-4.71 1.73 3.06 8.4-.12.04-3.75-10.29 4.71-1.73a5.484 5.484 0 0 1 7.02 3.27 5.046 5.046 0 0 1 .19.63z" fill="#84879c"/><path d="m54.438 18.881a2.485 2.485 0 0 1 -2.333-1.63l-3.823-10.476a2.481 2.481 0 0 1 1.48-3.181l.776-.284a2.484 2.484 0 0 1 3.182 1.48l3.824 10.475a2.479 2.479 0 0 1 -1.481 3.181l-.776.284a2.474 2.474 0 0 1 -.849.151zm-3.049-14.721a1.476 1.476 0 0 0 -.507.09l-.776.284a1.479 1.479 0 0 0 -.884 1.9l3.823 10.476a1.481 1.481 0 0 0 1.9.883l.776-.284a1.481 1.481 0 0 0 .885-1.9l-3.825-10.476a1.483 1.483 0 0 0 -1.392-.973z" fill="#323c6b"/><path d="m57.04 15.85a.5.5 0 0 1 -.47-.329l-3.75-10.29a.5.5 0 0 1 .3-.641l4.71-1.73a6 6 0 0 1 7.662 3.567 5.965 5.965 0 0 1 -3.572 7.663l-4.707 1.729a.5.5 0 0 1 -.173.031zm-3.109-10.493 3.407 9.351 4.239-1.557a4.964 4.964 0 0 0 2.973-6.379 4.994 4.994 0 0 0 -6.379-2.972z" fill="#323c6b"/><path d="m32.453 24.464a5.994 5.994 0 0 1 -4.339-1.855l-.795.288a2.384 2.384 0 0 1 -3.054-1.422 2.387 2.387 0 0 1 1.421-3.056l.795-.287a5.994 5.994 0 0 1 3.913-5.256l18.219-6.649a.5.5 0 0 1 .387.016.5.5 0 0 1 .259.282l3.751 10.288a.5.5 0 0 1 -.3.641l-18.217 6.646a5.951 5.951 0 0 1 -2.04.364zm-4.191-2.94a.5.5 0 0 1 .382.178 4.989 4.989 0 0 0 5.506 1.462l17.75-6.477-3.413-9.35-17.749 6.478a4.988 4.988 0 0 0 -3.268 4.671.5.5 0 0 1 -.33.47l-1.112.4a1.383 1.383 0 0 0 -.108 2.552 1.369 1.369 0 0 0 1.058.046l1.114-.4a.5.5 0 0 1 .17-.03z" fill="#323c6b"/><path d="m21.572 63.845a.6.6 0 0 1 -.624.6h-.306a.613.613 0 1 1 .014-1.225h.316a.6.6 0 0 1 .6.625z" fill="#fff"/><path d="m30.013 63.87a.6.6 0 0 1 -.624.6l-6.139-.008a.605.605 0 0 1 -.6-.6v-.02a.609.609 0 0 1 .624-.6l6.139.008a.6.6 0 0 1 .6.62z" fill="#fff"/></svg>