<svg id="color_line" height="512" viewBox="0 0 74 74" width="512" xmlns="http://www.w3.org/2000/svg" data-name="color line"><path d="m63.786 16.949v54.051h-53.572v-68h39.624z" fill="#eeefee"/><path d="m63.79 16.95v54.05h-53.58v-3.67h50.24v-53.72z" fill="#e1e6e9"/><path d="m30.161 10.458h-14a.5.5 0 1 1 0-1h14a.5.5 0 1 1 0 1z" fill="#323c6b"/><path d="m25.536 17.449h-9.375a.5.5 0 0 1 0-1h9.375a.5.5 0 0 1 0 1z" fill="#323c6b"/><path d="m53.14 62.3h-32.28a1.956 1.956 0 0 1 -1.66-3l7.49-11.88c.19.05.39.08.58.12 2.31.5 4.44 1.58 6.73 2.11a19.106 19.106 0 0 0 9.85-.68 32.975 32.975 0 0 0 3.58-1.37l7.37 11.7a1.956 1.956 0 0 1 -1.66 3z" fill="#27ccbc"/><path d="m47.43 47.6a32.975 32.975 0 0 1 -3.58 1.37 19.106 19.106 0 0 1 -9.85.68c-2.29-.53-4.42-1.61-6.73-2.11-.19-.04-.39-.07-.58-.12l4.51-7.16h11.6z" fill="#fff"/><path d="m31.205 27.917h11.59v12.347h-11.59z" fill="#fff"/><path d="m53.14 62.3h-32.28a1.952 1.952 0 0 1 -1.94-2.22h30.16a1.956 1.956 0 0 0 1.66-3l-5.43-8.61c.72-.27 1.42-.56 2.12-.87l7.37 11.7a1.956 1.956 0 0 1 -1.66 3z" fill="#21b3a9"/><path d="m47.43 47.6c-.7.31-1.4.6-2.12.87l-1.94-3.09-3.23-5.12h2.66z" fill="#eeefee"/><path d="m40.14 27.92h2.66v12.34h-2.66z" fill="#eeefee"/><path d="m42.44 23.469h-10.88a2.226 2.226 0 0 0 0 4.448h10.88a2.226 2.226 0 0 0 0-4.448z" fill="#9297ab"/><g fill="#323c6b"><path d="m42.44 28.417h-10.88a2.726 2.726 0 0 1 0-5.448h10.88a2.726 2.726 0 0 1 0 5.448zm-10.88-4.448a1.727 1.727 0 0 0 0 3.448h10.88a1.727 1.727 0 0 0 0-3.448z"/><path d="m66.786 56.986a.5.5 0 0 1 -.5-.5v-.667a.5.5 0 0 1 1 0v.667a.5.5 0 0 1 -.5.5z"/><path d="m66.786 66.69a.5.5 0 0 1 -.5-.5v-7.454a.5.5 0 0 1 1 0v7.454a.5.5 0 0 1 -.5.5z"/><path d="m7.214 28.5a.5.5 0 0 1 -.5-.5v-.562a.5.5 0 0 1 1 0v.562a.5.5 0 0 1 -.5.5z"/><path d="m7.214 25.625a.5.5 0 0 1 -.5-.5v-8.176a.5.5 0 0 1 1 0v8.176a.5.5 0 0 1 -.5.5z"/></g><path d="m49.838 16.949v-13.949l13.948 13.949z" fill="#e1e6e9"/><path d="m63.786 17.449h-13.948a.5.5 0 0 1 -.5-.5v-13.949a.5.5 0 0 1 .854-.354l13.948 13.954a.5.5 0 0 1 -.354.854zm-13.448-1h12.241l-12.241-12.242z" fill="#323c6b"/><path d="m53.14 62.8h-32.28a2.456 2.456 0 0 1 -2.083-3.767l7.49-11.88a.5.5 0 0 1 .55-.217c.111.029.227.05.341.072l.215.042a27.893 27.893 0 0 1 3.537 1.1 28.637 28.637 0 0 0 3.2 1.014 18.44 18.44 0 0 0 9.589-.67 32.193 32.193 0 0 0 3.525-1.349.5.5 0 0 1 .626.19l7.37 11.7a2.456 2.456 0 0 1 -2.08 3.765zm-26.213-14.818-7.3 11.584a1.456 1.456 0 0 0 1.233 2.234h32.28a1.456 1.456 0 0 0 1.237-2.233l-7.141-11.336a32.458 32.458 0 0 1 -3.236 1.216 19.411 19.411 0 0 1 -10.109.69 29.383 29.383 0 0 1 -3.317-1.047 27.179 27.179 0 0 0 -3.407-1.061l-.191-.038z" fill="#323c6b"/><path d="m37.439 50.525a15.9 15.9 0 0 1 -3.551-.388 29.383 29.383 0 0 1 -3.317-1.047 27.179 27.179 0 0 0 -3.407-1.061l-.191-.038c-.138-.026-.275-.053-.409-.088a.5.5 0 0 1 -.3-.75l4.51-7.16a.5.5 0 0 1 .423-.233h11.603a.5.5 0 0 1 .423.233l4.63 7.34a.5.5 0 0 1 -.22.724 33.306 33.306 0 0 1 -3.633 1.39 22.126 22.126 0 0 1 -6.561 1.078zm-9.939-3.447a28.808 28.808 0 0 1 3.413 1.071 28.637 28.637 0 0 0 3.2 1.014 18.441 18.441 0 0 0 9.589-.67 30.846 30.846 0 0 0 3-1.118l-4.178-6.615h-11.047z" fill="#323c6b"/><path d="m42.795 40.764h-11.59a.5.5 0 0 1 -.5-.5v-12.347a.5.5 0 0 1 .5-.5h11.59a.5.5 0 0 1 .5.5v12.347a.5.5 0 0 1 -.5.5zm-11.09-1h10.59v-11.347h-10.59z" fill="#323c6b"/><path d="m63.786 71.5h-53.572a.5.5 0 0 1 -.5-.5v-68a.5.5 0 0 1 .5-.5h39.624a.5.5 0 0 1 .354.146l13.948 13.954a.5.5 0 0 1 .146.354v54.046a.5.5 0 0 1 -.5.5zm-53.072-1h52.572v-53.344l-13.655-13.656h-38.917z" fill="#323c6b"/><path d="m32.041 58.467a.611.611 0 0 1 -.632.608h-.309a.62.62 0 1 1 .014-1.24h.32a.611.611 0 0 1 .607.632z" fill="#fff"/><path d="m41.47 58.537a.611.611 0 0 1 -.632.608l-7.1-.053a.612.612 0 0 1 -.608-.612v-.02a.617.617 0 0 1 .632-.608l7.1.053a.61.61 0 0 1 .608.632z" fill="#fff"/></svg>