<svg id="color_line" height="512" viewBox="0 0 74 74" width="512" xmlns="http://www.w3.org/2000/svg" data-name="color line"><path d="m59 71.616h-44a2.67 2.67 0 0 1 -2.259-4.095l16.359-25.944h15.8l16.362 25.944a2.67 2.67 0 0 1 -2.262 4.095z" fill="#eeefee"/><path d="m56.59 67.62h-39.18l9.57-15.18a59.635 59.635 0 0 0 5.94 1.93 26.215 26.215 0 0 0 13.42-.92c.36-.11.73-.23 1.09-.36z" fill="#fcd462"/><path d="m56.59 67.62h-39.18l1.68-2.66h32.41l-6.94-11.01c.6-.15 1.19-.32 1.78-.5.36-.11.73-.23 1.09-.36z" fill="#f7be56"/><path d="m29.101 24.5h15.797v17.077h-15.797z" fill="#eeefee"/><path d="m59 71.62h-44a2.666 2.666 0 0 1 -2.65-2.32h41.57a2.661 2.661 0 0 0 2.25-4.09l-14.4-23.63h3.13l16.36 25.94a2.673 2.673 0 0 1 -2.26 4.1z" fill="#e1e6e9"/><path d="m41.77 24.5h3.13v17.08h-3.13z" fill="#e1e6e9"/><path d="m29.101 18.686-6.301-11.239 7.736 1.963 4.514-7.026 3.563 5 7-2.5-.207 6.127 6.178-.478-6.491 8.153z" fill="#fcd462"/><path d="m45.093 19.187h-15.993a.5.5 0 0 1 -.437-.255l-6.3-11.24a.5.5 0 0 1 .56-.729l7.387 1.875 4.32-6.724a.5.5 0 0 1 .409-.229.491.491 0 0 1 .419.21l3.342 4.691 6.645-2.373a.5.5 0 0 1 .668.488l-.188 5.568 5.621-.435a.5.5 0 0 1 .43.81l-6.492 8.156a.5.5 0 0 1 -.391.187zm-15.7-1h15.459l5.626-7.067-5.033.39a.5.5 0 0 1 -.538-.516l.182-5.394-6.308 2.255a.5.5 0 0 1 -.575-.181l-3.134-4.4-4.115 6.4a.5.5 0 0 1 -.544.214l-6.606-1.67z" fill="#323c6b"/><path d="m31.968 18.686-2.702-6.19 4.261 1.082 2.486-3.87 1.962 2.754 3.855-1.377-.114 3.374 3.402-.263-2.733 4.49z" fill="#fe7058"/><g fill="#323c6b"><path d="m63.969 72.183a.5.5 0 0 1 -.437-.741 5.169 5.169 0 0 0 -.155-5.254l-.606-.962a.5.5 0 0 1 .846-.533l.606.962a6.166 6.166 0 0 1 .185 6.271.5.5 0 0 1 -.439.257z"/><path d="m61.825 63.292a.5.5 0 0 1 -.423-.234l-.341-.542a.5.5 0 1 1 .846-.532l.341.542a.5.5 0 0 1 -.423.766z"/><path d="m24.271 16.7a.5.5 0 0 1 -.436-.255l-.211-.375a.5.5 0 0 1 .871-.49l.211.375a.5.5 0 0 1 -.436.745z"/><path d="m23.026 14.484a.5.5 0 0 1 -.437-.255l-3.125-5.577a.5.5 0 0 1 .873-.489l3.126 5.577a.5.5 0 0 1 -.437.745z"/></g><rect fill="#9297ab" height="5.814" rx="1.407" width="19" x="27.5" y="18.686"/><path d="m45.093 25h-16.186a1.909 1.909 0 0 1 -1.907-1.907v-3a1.909 1.909 0 0 1 1.907-1.907h16.186a1.909 1.909 0 0 1 1.907 1.907v3a1.909 1.909 0 0 1 -1.907 1.907zm-16.186-5.813a.908.908 0 0 0 -.907.907v3a.908.908 0 0 0 .907.907h16.186a.908.908 0 0 0 .907-.908v-3a.908.908 0 0 0 -.907-.907z" fill="#323c6b"/><path d="m56.59 68.12h-39.18a.5.5 0 0 1 -.423-.767l9.57-15.18a.5.5 0 0 1 .586-.206c.482.167.964.339 1.444.512a39.984 39.984 0 0 0 4.445 1.4 25.467 25.467 0 0 0 13.159-.91c.354-.108.716-.226 1.067-.353a.5.5 0 0 1 .593.2l9.16 14.53a.5.5 0 0 1 -.423.767zm-38.273-1h37.367l-8.465-13.427c-.244.083-.49.161-.732.235a26.428 26.428 0 0 1 -13.677.93 40.982 40.982 0 0 1 -4.56-1.437c-.353-.126-.705-.253-1.059-.377z" fill="#323c6b"/><path d="m59 72.116h-44a3.171 3.171 0 0 1 -2.681-4.862l16.36-25.943a.5.5 0 0 1 .423-.233h15.798a.5.5 0 0 1 .423.233l16.362 25.943a3.17 3.17 0 0 1 -2.685 4.862zm-29.623-30.039-16.216 25.711a2.17 2.17 0 0 0 1.839 3.328h44a2.17 2.17 0 0 0 1.835-3.328l-16.212-25.711z" fill="#323c6b"/><path d="m44.9 42.077h-15.8a.5.5 0 0 1 -.5-.5v-17.077a.5.5 0 0 1 .5-.5h15.8a.5.5 0 0 1 .5.5v17.077a.5.5 0 0 1 -.5.5zm-15.3-1h14.8v-16.077h-14.8z" fill="#323c6b"/><path d="m24.246 62.763a.611.611 0 0 1 .2.853l-.085.132a.62.62 0 1 1 -1.062-.64l.09-.141a.611.611 0 0 1 .857-.204z" fill="#fff"/><path d="m28.415 55.752a.611.611 0 0 1 .2.853l-3.1 5.193a.612.612 0 0 1 -.836.214l-.016-.012a.617.617 0 0 1 -.2-.853l3.1-5.193a.61.61 0 0 1 .852-.202z" fill="#fff"/></svg>