<svg id="color_line" height="512" viewBox="0 0 74 74" width="512" xmlns="http://www.w3.org/2000/svg" data-name="color line"><path d="m15.583 11.583h42.833v52.833h-42.833z" fill="#eeefee"/><path d="m55.02 11.58h3.35v52.84h-3.35z" fill="#e1e6e9"/><rect fill="#9297ab" height="7" rx="3.5" width="50" x="12" y="64.417"/><rect fill="#9297ab" height="7" rx="3.5" width="50" x="12" y="4.583"/><path d="m62 67.92a3.46 3.46 0 0 1 -1.03 2.47 3.364 3.364 0 0 1 -1.71.94 3.492 3.492 0 0 0 -3.25-4.79h-43a3.668 3.668 0 0 0 -.75.08 3.443 3.443 0 0 1 .77-1.18 3.493 3.493 0 0 1 2.47-1.02h43a3.5 3.5 0 0 1 3.5 3.5z" fill="#84879c"/><path d="m62 8.08a3.483 3.483 0 0 1 -1.03 2.48 3.393 3.393 0 0 1 -1.7.93 3.6 3.6 0 0 0 .24-1.28 3.5 3.5 0 0 0 -3.5-3.5h-43a3.766 3.766 0 0 0 -.76.08 3.244 3.244 0 0 1 .78-1.18 3.46 3.46 0 0 1 2.47-1.03h43a3.5 3.5 0 0 1 3.5 3.5z" fill="#84879c"/><path d="m58.417 64.917h-42.834a.5.5 0 0 1 -.5-.5v-52.834a.5.5 0 0 1 .5-.5h42.834a.5.5 0 0 1 .5.5v52.834a.5.5 0 0 1 -.5.5zm-42.334-1h41.834v-51.834h-41.834z" fill="#323c6b"/><path d="m45.708 26.781-4.469 6.5a6.777 6.777 0 0 0 -8.479 0l-4.478-6.5a14.683 14.683 0 0 1 17.425 0z" fill="#fcd462"/><path d="m41.239 33.783a.5.5 0 0 1 -.313-.11 6.278 6.278 0 0 0 -7.852 0 .5.5 0 0 1 -.726-.106l-4.479-6.5a.5.5 0 0 1 .115-.686 15.182 15.182 0 0 1 18.02 0 .5.5 0 0 1 .115.686l-4.469 6.5a.5.5 0 0 1 -.339.211.528.528 0 0 1 -.072.005zm-12.265-6.883 3.9 5.669a7.388 7.388 0 0 1 8.243 0l3.9-5.668a14.183 14.183 0 0 0 -16.044 0z" fill="#323c6b"/><path d="m34.508 44.96-3.4 7.123a14.722 14.722 0 0 1 -8.808-13.462 15.318 15.318 0 0 1 .1-1.633l7.868.621a5.876 5.876 0 0 0 -.086 1.012 6.807 6.807 0 0 0 4.326 6.339z" fill="#fcd462"/><path d="m31.109 52.583a.506.506 0 0 1 -.2-.042 15.218 15.218 0 0 1 -9.109-13.92 15.667 15.667 0 0 1 .1-1.687.514.514 0 0 1 .536-.445l7.867.621a.5.5 0 0 1 .453.584 5.443 5.443 0 0 0 -.078.926 6.274 6.274 0 0 0 4.017 5.874.5.5 0 0 1 .27.681l-3.4 7.123a.5.5 0 0 1 -.456.285zm-8.266-15.058c-.031.39-.047.751-.047 1.1a14.215 14.215 0 0 0 8.074 12.8l2.963-6.21a7.261 7.261 0 0 1 -4.16-6.592c0-.187.008-.372.023-.555z" fill="#323c6b"/><path d="m51.7 38.621a14.718 14.718 0 0 1 -8.813 13.453l-3.4-7.113a6.813 6.813 0 0 0 4.325-6.34 5.765 5.765 0 0 0 -.086-1l7.877-.63a15.318 15.318 0 0 1 .097 1.63z" fill="#fcd462"/><path d="m42.891 52.574a.5.5 0 0 1 -.451-.285l-3.4-7.113a.5.5 0 0 1 .269-.681 6.276 6.276 0 0 0 4.008-5.875 5.27 5.27 0 0 0 -.078-.915.5.5 0 0 1 .452-.586l7.877-.63a.5.5 0 0 1 .537.445 15.667 15.667 0 0 1 .1 1.687 15.211 15.211 0 0 1 -9.112 13.911.506.506 0 0 1 -.202.042zm-2.724-7.361 2.963 6.2a14.207 14.207 0 0 0 8.07-12.792c0-.344-.016-.706-.047-1.1l-6.862.549c.015.18.022.362.022.546a7.265 7.265 0 0 1 -4.146 6.596z" fill="#323c6b"/><circle cx="37" cy="38.616" fill="#fcd462" r="3.401"/><g fill="#323c6b"><path d="m37 42.517a3.9 3.9 0 1 1 3.9-3.9 3.905 3.905 0 0 1 -3.9 3.9zm0-6.8a2.9 2.9 0 1 0 2.9 2.9 2.9 2.9 0 0 0 -2.9-2.902z"/><path d="m61.458 51.708a.5.5 0 0 1 -.5-.5v-.625a.5.5 0 0 1 1 0v.625a.5.5 0 0 1 -.5.5z"/><path d="m61.458 49a.5.5 0 0 1 -.5-.5v-8.375a.5.5 0 0 1 1 0v8.375a.5.5 0 0 1 -.5.5z"/><path d="m9.388 6.417a.5.5 0 0 1 -.471-.667 7.009 7.009 0 0 1 6.583-4.667h1.984a.5.5 0 0 1 0 1h-1.984a6.009 6.009 0 0 0 -5.642 4 .5.5 0 0 1 -.47.334z"/><path d="m20.677 2.083h-.583a.5.5 0 0 1 0-1h.583a.5.5 0 0 1 0 1z"/><path d="m58.5 71.917h-43a4 4 0 0 1 0-8h43a4 4 0 0 1 0 8zm-43-7a3 3 0 0 0 0 6h43a3 3 0 0 0 0-6z"/><path d="m58.5 12.083h-43a4 4 0 1 1 0-8h43a4 4 0 1 1 0 8zm-43-7a3 3 0 1 0 0 6h43a3 3 0 1 0 0-6z"/></g><path d="m21.43 68.53a.611.611 0 0 1 -.63.61h-.31a.62.62 0 1 1 .01-1.24h.32a.611.611 0 0 1 .61.63z" fill="#fff"/><path d="m31.91 68.56a.611.611 0 0 1 -.63.61l-8.15-.02a.612.612 0 0 1 -.61-.61v-.02a.617.617 0 0 1 .63-.61l8.15.02a.61.61 0 0 1 .61.63z" fill="#fff"/></svg>