<svg id="color_line" enable-background="new 0 0 512 512" height="512" viewBox="0 0 512 512" width="512" xmlns="http://www.w3.org/2000/svg"><g><g><path d="m359.438 388.359h-206.876c-7.876.002-14.261-6.381-14.263-14.257-.001-2.287.549-4.54 1.602-6.569l37.431-71.818c.069.069.208.069.277.138 9.638 4.69 20.756 5.313 30.858 1.73 6.504-2.698 11.762-7.818 18.128-10.724 9.217-3.66 19.384-4.17 28.921-1.453 9.548 2.352 18.75 6.158 28.16 8.718 16.438 4.21 33.678 4.162 50.093-.138l38.331 73.548c3.626 6.991.899 15.598-6.092 19.224-2.03 1.052-4.284 1.601-6.57 1.601z" fill="#fcd462"/></g><g><path d="m333.769 293.985c-16.415 4.301-33.655 4.348-50.093.138-9.41-2.56-18.612-6.365-28.16-8.718-9.537-2.717-19.705-2.207-28.921 1.453-6.365 2.906-11.624 8.026-18.128 10.724-10.102 3.584-21.22 2.96-30.858-1.73-.069-.069-.208-.069-.277-.138l37.085-71.126h83.165z" fill="#eeefee"/></g><g><path d="m214.403 137.998h83.186v86.583h-83.186z" fill="#eeefee"/></g><g><path d="m294.248 104.614h-76.496c-9.219 0-16.692 7.473-16.692 16.692s7.473 16.692 16.692 16.692h76.496c9.219 0 16.692-7.473 16.692-16.692s-7.474-16.692-16.692-16.692z" fill="#bbbbcd"/></g><g><path d="m359.438 388.359h-206.876c-7.879.011-14.276-6.367-14.287-14.246-.001-.884.08-1.767.242-2.636h193.799c7.876.002 14.261-6.381 14.263-14.257.001-2.287-.549-4.54-1.602-6.569l-28.091-53.829c5.694-.495 11.339-1.444 16.882-2.837l38.331 73.548c3.626 6.991.899 15.598-6.092 19.224-2.029 1.053-4.283 1.602-6.569 1.602z" fill="#f7be56"/></g><g><path d="m333.769 293.985c-11.396 2.955-23.221 3.891-34.941 2.768 5.559-.439 11.07-1.365 16.467-2.768l-36.186-69.397h18.474z" fill="#e1e6e9"/></g><g><path d="m279.109 137.963h18.474v86.625h-18.474z" fill="#e1e6e9"/></g><g><path d="m310.936 121.289c-.004 9.208-7.467 16.671-16.675 16.675h-18.474c9.209.004 16.678-7.459 16.681-16.668.004-9.209-7.459-16.678-16.668-16.681-.005 0-.009 0-.014 0h18.474c9.209.003 16.672 7.466 16.676 16.674z" fill="#9297ab"/></g><g><path d="m158.132 498.494c-.451-.001-.898-.09-1.315-.263-22.263-9.171-43.157-21.366-62.09-36.241-1.504-1.179-1.767-3.353-.588-4.857s3.353-1.767 4.857-.588c18.431 14.483 38.771 26.356 60.444 35.286 1.765.731 2.604 2.754 1.874 4.519-.534 1.29-1.792 2.133-3.188 2.137z" fill="#323c6b"/></g><g><path d="m82.017 450.166c-.863-.001-1.695-.324-2.332-.906l-2.283-2.193c-1.427-1.27-1.555-3.457-.285-4.884s3.457-1.555 4.884-.285c.046.041.09.082.134.125l2.214 2.131c1.41 1.289 1.508 3.477.219 4.888-.656.715-1.581 1.123-2.551 1.124z" fill="#323c6b"/></g><g><path d="m427.914 66.885c-.85 0-1.67-.313-2.304-.879-14.09-12.559-29.52-23.529-46.011-32.713-1.643-.975-2.185-3.097-1.211-4.74.938-1.582 2.951-2.153 4.58-1.3 16.934 9.427 32.779 20.69 47.249 33.584 1.425 1.272 1.549 3.459.277 4.885-.656.735-1.595 1.156-2.581 1.156v.007z" fill="#323c6b"/></g><g><path d="m445.336 84.182c-.961-.001-1.879-.402-2.532-1.107l-2.076-2.276c-1.27-1.427-1.142-3.614.285-4.884 1.363-1.213 3.433-1.158 4.731.124l2.117 2.332c1.299 1.401 1.217 3.59-.184 4.889-.639.592-1.477.922-2.348.923h.007z" fill="#323c6b"/></g><g><path d="m196.2 303.422c-6.876-.111-13.659-1.603-19.947-4.387l-.263-.125c-.381-.176-.734-.41-1.045-.692-1.119-1.061-1.401-2.734-.692-4.103l37.085-71.126c.595-1.143 1.777-1.86 3.065-1.861h83.179c1.289.001 2.47.718 3.065 1.861l36.186 69.397c.883 1.694.226 3.784-1.468 4.667-.239.125-.492.221-.753.287-16.986 4.436-34.822 4.479-51.83.125-4.38-1.19-8.69-2.636-13.014-4.089-4.926-1.654-10.026-3.363-15.083-4.615-8.772-2.56-18.148-2.125-26.645 1.238-2.828 1.387-5.536 3.007-8.095 4.843-3.174 2.312-6.578 4.292-10.157 5.909-4.301 1.804-8.924 2.713-13.588 2.671zm-14.025-9.513c7.963 3.205 16.825 3.379 24.908.491 3.168-1.444 6.182-3.206 8.995-5.258 2.867-2.074 5.903-3.902 9.078-5.466 9.901-4.016 20.861-4.605 31.135-1.674 5.376 1.322 10.614 3.086 15.678 4.781 4.193 1.384 8.379 2.816 12.613 3.965 14.419 3.7 29.503 3.987 44.053.837l-33.148-63.536h-78.973z" fill="#323c6b"/></g><g><path d="m297.597 228.041h-83.193c-1.911 0-3.459-1.549-3.459-3.459v-86.583c0-1.911 1.549-3.459 3.459-3.459h83.193c1.911 0 3.459 1.549 3.459 3.459v86.583c0 1.91-1.549 3.459-3.459 3.459zm-79.727-6.919h76.267v-79.664h-76.274z" fill="#323c6b"/></g><g><path d="m359.438 391.818h-206.876c-9.786.002-17.721-7.93-17.723-17.716-.001-2.84.682-5.639 1.989-8.161l37.438-71.825c.502-.963 1.427-1.634 2.498-1.813.743-.119 1.504.003 2.173.346l.09.042c8.777 4.211 18.854 4.825 28.077 1.709 3.168-1.444 6.182-3.206 8.995-5.258 2.86-2.073 5.89-3.901 9.057-5.466 9.901-4.016 20.861-4.605 31.135-1.674 5.376 1.322 10.614 3.086 15.678 4.781 4.193 1.384 8.379 2.816 12.613 3.965 15.864 4.047 32.497 3.995 48.336-.152 1.555-.393 3.176.335 3.916 1.757l38.331 73.548c4.528 8.675 1.166 19.379-7.509 23.907-2.537 1.323-5.357 2.013-8.218 2.01zm-180.494-91.71-35.978 69.023c-2.744 5.296-.674 11.814 4.622 14.558 1.537.796 3.243 1.211 4.974 1.21h206.876c5.965.002 10.802-4.832 10.804-10.797 0-1.733-.416-3.44-1.214-4.978l-37.078-71.147c-16.188 3.799-33.054 3.623-49.159-.512-4.38-1.19-8.69-2.636-13.014-4.089-4.926-1.654-10.026-3.363-15.083-4.615-8.772-2.56-18.148-2.125-26.645 1.238-2.828 1.387-5.536 3.007-8.095 4.843-3.174 2.312-6.578 4.292-10.157 5.909-9.988 3.745-21.031 3.514-30.853-.643z" fill="#323c6b"/></g><g><path d="m294.248 141.457h-76.496c-11.129 0-20.151-9.022-20.151-20.151s9.022-20.151 20.151-20.151h76.496c11.129 0 20.151 9.022 20.151 20.151s-9.022 20.151-20.151 20.151zm-76.496-33.383c-7.308 0-13.232 5.924-13.232 13.232s5.924 13.232 13.232 13.232h76.496c7.308 0 13.232-5.924 13.232-13.232s-5.924-13.232-13.232-13.232z" fill="#323c6b"/></g><g><path d="m256 18.474c-131.182 0-237.527 106.344-237.527 237.526s106.345 237.527 237.527 237.527 237.527-106.345 237.527-237.527c0-131.182-106.345-237.526-237.527-237.526zm0 432.916c-107.903-.032-195.351-87.53-195.319-195.434.013-44.655 15.323-87.958 43.38-122.698l274.681 274.681c-34.697 28.174-78.048 43.52-122.742 43.451zm151.87-72.648-274.612-274.681c83.867-67.814 206.829-54.799 274.643 29.068 57.92 71.631 57.907 173.996-.031 245.613z" fill="#fe7058"/></g><g><path d="m256 18.474c-57.771-.076-113.578 20.962-156.921 59.156 106.612-76.444 255.008-51.989 331.452 54.623 71.249 99.366 55.426 236.588-36.568 317.131 106.791-76.206 131.586-224.555 55.379-331.346-44.579-62.473-116.595-99.558-193.342-99.564z" fill="#ea6453"/></g><g><path d="m256 496.985c-64.37 0-124.887-25.066-170.403-70.582s-70.583-106.033-70.583-170.403 25.067-124.887 70.583-170.403 106.033-70.583 170.403-70.583 124.887 25.067 170.403 70.583 70.582 106.033 70.582 170.403-25.066 124.887-70.582 170.403-106.033 70.582-170.403 70.582zm0-475.052c-129.065 0-234.067 105.002-234.067 234.067 0 129.064 105.002 234.067 234.067 234.067 129.064 0 234.067-105.003 234.067-234.067 0-129.065-105.003-234.067-234.067-234.067zm.294 432.918c-.103 0-.197 0-.299-.001-109.635-.033-198.806-89.256-198.773-198.894.013-45.29 15.692-89.637 44.147-124.871.617-.764 1.528-1.229 2.508-1.281.976-.049 1.936.315 2.629 1.008l274.681 274.681c.692.692 1.06 1.646 1.009 2.625s-.514 1.89-1.274 2.507c-35.127 28.523-79.381 44.224-124.628 44.226zm-151.932-316.398c-25.954 33.504-40.209 75.074-40.222 117.505-.031 105.823 86.037 191.942 191.86 191.974.08.012.195 0 .293 0 42.384 0 83.86-14.275 117.26-40.287zm303.508 243.748c-.915 0-1.796-.363-2.446-1.014l-274.612-274.681c-.693-.693-1.06-1.649-1.008-2.628s.517-1.891 1.279-2.507c85.217-68.903 210.604-55.634 279.509 29.583 28.509 35.258 44.206 79.646 44.2 124.988-.006 45.341-15.715 89.726-44.232 124.976-.617.763-1.528 1.228-2.508 1.279-.061.002-.121.004-.182.004zm-269.42-277.841 269.122 269.188c54.143-69.77 53.356-169.338-2.36-238.245-65.698-81.251-184.594-94.738-266.762-30.943z" fill="#323c6b"/></g><g><path d="m272.675 273.069c-1.772 1.783-4.655 1.792-6.438.02-.034-.034-.067-.068-.1-.103l-1.64-1.626c-1.798-1.813-1.785-4.741.028-6.538 1.813-1.798 4.74-1.785 6.538.028l1.695 1.681c1.783 1.772 1.792 4.655.02 6.438-.035.034-.069.067-.103.1z" fill="#fff"/></g><g><path d="m319.031 318.962c-1.773 1.783-4.655 1.792-6.438.02-.034-.034-.067-.068-.1-.103l-34.242-34.02c-1.768-1.781-1.768-4.654 0-6.435l.104-.104c1.811-1.783 4.724-1.76 6.507.051.011.011.021.022.032.032l34.242 34.02c1.778 1.778 1.777 4.661-.001 6.438-.034.035-.069.068-.104.101z" fill="#fff"/></g></g></svg>