<svg id="color_line" height="512" viewBox="0 0 74 74" width="512" xmlns="http://www.w3.org/2000/svg" data-name="color line"><path d="m34.1 8.43-28.559 54.077a3.279 3.279 0 0 0 2.9 4.811h57.118a3.279 3.279 0 0 0 2.9-4.811l-28.559-54.077a3.279 3.279 0 0 0 -5.8 0z" fill="#fcd462"/><path d="m65.56 67.32h-57.12a3.266 3.266 0 0 1 -3.21-2.63h55.7a3.275 3.275 0 0 0 2.9-4.81l-27.99-52.99a3.276 3.276 0 0 1 4.06 1.54l28.56 54.08a3.281 3.281 0 0 1 -2.9 4.81z" fill="#f7be56"/><path d="m13.544 60.83 23.456-44.413 23.456 44.413z" fill="#fff"/><path d="m60.456 61.33h-46.912a.5.5 0 0 1 -.444-.73l23.458-44.417a.52.52 0 0 1 .884 0l23.458 44.417a.5.5 0 0 1 -.442.733zm-46.082-1h45.252l-22.626-42.843z" fill="#323c6b"/><path d="m48.532 49.654a4.374 4.374 0 1 0 -2.972 5.154 6.19 6.19 0 0 1 -6.3.066 6.263 6.263 0 0 1 -2.26-2.255 6.263 6.263 0 0 1 -2.264 2.256 6.19 6.19 0 0 1 -6.3-.066 4.38 4.38 0 0 0 5.088-6.371 4.376 4.376 0 0 0 -8.059 1.217 6.177 6.177 0 0 1 6.179-6.312 6.185 6.185 0 0 1 2.382-8.509 4.331 4.331 0 0 0 -1.408 3.208 4.38 4.38 0 0 0 8.76 0 4.331 4.331 0 0 0 -1.408-3.208 6.185 6.185 0 0 1 2.382 8.509 6.177 6.177 0 0 1 6.179 6.312z" fill="#9297ab"/><path d="m42.355 56.2a6.684 6.684 0 0 1 -3.342-.894 6.834 6.834 0 0 1 -2.013-1.787 6.826 6.826 0 0 1 -2.012 1.788 6.691 6.691 0 0 1 -6.808-.07.5.5 0 0 1 .409-.9 3.88 3.88 0 1 0 -2.634-4.568.511.511 0 0 1 -.538.388.5.5 0 0 1 -.45-.487 6.675 6.675 0 0 1 5.894-6.776 6.686 6.686 0 0 1 2.927-8.494.5.5 0 0 1 .578.807 3.88 3.88 0 1 0 5.269 0 .5.5 0 0 1 .578-.807 6.686 6.686 0 0 1 2.927 8.494 6.676 6.676 0 0 1 5.894 6.776.5.5 0 0 1 -.988.1 3.874 3.874 0 1 0 -2.634 4.568.5.5 0 0 1 .409.9 6.688 6.688 0 0 1 -3.466.962zm-5.355-4.081a.5.5 0 0 1 .432.248 5.693 5.693 0 0 0 5.134 2.833 4.878 4.878 0 1 1 4.144-8.8 4.937 4.937 0 0 1 .661.461 5.666 5.666 0 0 0 -5.018-3.023.5.5 0 0 1 -.433-.75 5.688 5.688 0 0 0 -.107-5.857 4.88 4.88 0 1 1 -9.625 0 5.688 5.688 0 0 0 -.107 5.857.5.5 0 0 1 -.433.75 5.665 5.665 0 0 0 -5.018 3.022 4.874 4.874 0 0 1 7.331 1.323 4.889 4.889 0 0 1 -2.526 7.017 5.591 5.591 0 0 0 3.052-.756 5.727 5.727 0 0 0 2.082-2.076.5.5 0 0 1 .431-.249z" fill="#323c6b"/><circle cx="37" cy="46.395" fill="#fff" r="1.818"/><g fill="#323c6b"><path d="m37 48.713a2.318 2.318 0 1 1 2.318-2.313 2.32 2.32 0 0 1 -2.318 2.313zm0-3.636a1.318 1.318 0 1 0 1.318 1.323 1.32 1.32 0 0 0 -1.318-1.323z"/><path d="m64.792 70.818h-8.6a.5.5 0 0 1 0-1h8.6a.5.5 0 0 1 0 1z"/><path d="m53.875 70.818h-.5a.5.5 0 0 1 0-1h.5a.5.5 0 0 1 0 1z"/><path d="m30.5 9.313a.5.5 0 0 1 -.441-.734l.215-.406a.5.5 0 0 1 .884.468l-.215.406a.5.5 0 0 1 -.443.266z"/><path d="m32.034 6.656a.5.5 0 0 1 -.4-.8 6.737 6.737 0 0 1 10.155-.678.5.5 0 0 1 -.708.706 5.737 5.737 0 0 0 -8.652.578.5.5 0 0 1 -.395.194z"/><path d="m65.559 67.818h-57.118a3.779 3.779 0 0 1 -3.341-5.545l28.558-54.073a3.779 3.779 0 0 1 6.684 0l28.558 54.073a3.779 3.779 0 0 1 -3.342 5.544zm-31.017-59.154-28.559 54.076a2.78 2.78 0 0 0 2.458 4.078h57.118a2.78 2.78 0 0 0 2.458-4.078l-28.559-54.076a2.78 2.78 0 0 0 -4.916 0z"/></g><path d="m22.906 63.311a.658.658 0 0 1 -.681.655h-.334a.668.668 0 1 1 .016-1.336h.345a.658.658 0 0 1 .654.681z" fill="#fff"/><path d="m33.873 63.311a.658.658 0 0 1 -.681.655l-8.366-.007a.66.66 0 0 1 -.655-.66v-.022a.665.665 0 0 1 .681-.655l8.366.007a.658.658 0 0 1 .655.682z" fill="#fff"/></svg>