<svg id="color_line" height="512" viewBox="0 0 74 74" width="512" xmlns="http://www.w3.org/2000/svg" data-name="color line"><path d="m29.395 16.067c.165-7.829 8.877-13.067 8.877-13.067a16.989 16.989 0 0 0 3.262 8.272 8.057 8.057 0 0 1 1.856 5.222 4.316 4.316 0 0 1 -.05.6 6.146 6.146 0 0 1 -6.131 5.159h-1.589a6.169 6.169 0 0 1 -6.225-6.186z" fill="#fcd462"/><path d="m31.52 17.04a5.974 5.974 0 0 0 2.6 5.03 6.12 6.12 0 0 1 -4.73-6c.17-7.83 8.88-13.07 8.88-13.07a15.108 15.108 0 0 0 .39 2.2c-2.55 1.99-7.02 6.25-7.14 11.84z" fill="#f7be56"/><path d="m32.286 18.626c.1-4.593 5.208-7.667 5.208-7.667a9.967 9.967 0 0 0 1.914 4.853 4.727 4.727 0 0 1 1.092 3.064 2.532 2.532 0 0 1 -.029.355 3.606 3.606 0 0 1 -3.6 3.027h-.932a3.619 3.619 0 0 1 -3.653-3.632z" fill="#fe7058"/><path d="m36.392 26.909a.5.5 0 0 1 -.5-.5v-8.3a.5.5 0 1 1 1 0v8.3a.5.5 0 0 1 -.5.5z" fill="#323c6b"/><path d="m48.04 37.681a6.141 6.141 0 0 1 -3.369-4.751h-15.342a6.141 6.141 0 0 1 -3.369 4.751 9.189 9.189 0 0 0 -5.206 8.282v22.913a2.124 2.124 0 0 0 2.124 2.124h28.244a2.124 2.124 0 0 0 2.124-2.124v-22.912a9.189 9.189 0 0 0 -5.206-8.283z" fill="#eeefee"/><path d="m53.25 45.96v22.92a2.123 2.123 0 0 1 -2.13 2.12h-28.24a2.123 2.123 0 0 1 -2.13-2.12v-.55h27.79a2.121 2.121 0 0 0 2.12-2.12v-22.91a9.215 9.215 0 0 0 -1.42-4.92 9.173 9.173 0 0 1 4.01 7.58z" fill="#e1e6e9"/><path d="m49.379 52.22-.044 14.842h-24.756l.044-17.5c.885.328 1.735.788 2.6 1.185a5.738 5.738 0 0 0 4.5.5 20.257 20.257 0 0 0 2.154-1.394c2.035-1.171 4.621-.711 6.816.132s4.3 2.035 6.642 2.272a8.7 8.7 0 0 0 2.044-.037z" fill="#fe7058"/><path d="m47.34 52.26c-.178-.018-.352-.052-.528-.08v.044h.047l-.04 14.84h2.51l.05-14.84a8.706 8.706 0 0 1 -2.039.036z" fill="#ea6453"/><rect fill="#bbbbcd" height="6.521" rx="1.354" width="19.727" x="27.136" y="26.409"/><path d="m46.86 27.76v3.82a1.351 1.351 0 0 1 -1.35 1.35h-2.31a1.351 1.351 0 0 0 1.35-1.35v-3.82a1.351 1.351 0 0 0 -1.35-1.35h2.31a1.351 1.351 0 0 1 1.35 1.35z" fill="#9297ab"/><g fill="#323c6b"><path d="m54.459 73.219a.5.5 0 0 1 -.326-.879 4.572 4.572 0 0 0 1.612-3.463v-1.97a.5.5 0 0 1 1 0v1.97a5.571 5.571 0 0 1 -1.96 4.223.5.5 0 0 1 -.326.119z"/><path d="m17.754 48.208a.5.5 0 0 1 -.5-.5v-.375a.5.5 0 0 1 1 0v.375a.5.5 0 0 1 -.5.5z"/><path d="m17.793 45.833h-.027a.5.5 0 0 1 -.473-.526 12.815 12.815 0 0 1 3.015-7.546.5.5 0 0 1 .764.646 11.81 11.81 0 0 0 -2.78 6.954.5.5 0 0 1 -.499.472z"/><path d="m56.246 65.375a.5.5 0 0 1 -.5-.5v-.375a.5.5 0 0 1 1 0v.375a.5.5 0 0 1 -.5.5z"/><path d="m37.208 22.758h-1.588a6.842 6.842 0 0 1 -4.861-2.043 6.426 6.426 0 0 1 -1.864-4.659c.169-8.013 8.754-13.265 9.119-13.485a.5.5 0 0 1 .756.388 16.609 16.609 0 0 0 3.153 8 8.605 8.605 0 0 1 1.966 5.541 4.778 4.778 0 0 1 -.056.669 6.658 6.658 0 0 1 -6.625 5.589zm-7.313-6.681a5.431 5.431 0 0 0 1.578 3.938 5.838 5.838 0 0 0 4.147 1.743h1.588a5.654 5.654 0 0 0 5.636-4.731 3.891 3.891 0 0 0 .045-.533 7.52 7.52 0 0 0 -1.747-4.91 17.086 17.086 0 0 1 -3.263-7.724c-1.988 1.386-7.853 6-7.984 12.218z"/><path d="m51.123 71.5h-28.246a2.626 2.626 0 0 1 -2.624-2.624v-22.913a9.743 9.743 0 0 1 5.49-8.733 5.621 5.621 0 0 0 3.09-4.366.5.5 0 0 1 .5-.434h15.338a.5.5 0 0 1 .5.434 5.621 5.621 0 0 0 3.09 4.366 9.743 9.743 0 0 1 5.49 8.733v22.913a2.626 2.626 0 0 1 -2.628 2.624zm-21.37-38.069a6.589 6.589 0 0 1 -3.576 4.7 8.737 8.737 0 0 0 -4.923 7.832v22.913a1.626 1.626 0 0 0 1.623 1.624h28.246a1.626 1.626 0 0 0 1.624-1.624v-22.913a8.737 8.737 0 0 0 -4.923-7.832 6.589 6.589 0 0 1 -3.576-4.7z"/><path d="m49.334 67.563h-24.755a.5.5 0 0 1 -.5-.5l.044-17.5a.5.5 0 0 1 .673-.467c.627.232 1.236.527 1.825.813.27.131.539.262.81.387 1.71.775 3.052.938 4.1.5a6.154 6.154 0 0 0 1.194-.75 10.405 10.405 0 0 1 .9-.615c1.859-1.07 4.3-1.036 7.248.1.6.229 1.195.486 1.79.743a16.183 16.183 0 0 0 4.723 1.5 8.232 8.232 0 0 0 1.925-.033.5.5 0 0 1 .566.5l-.044 14.842a.5.5 0 0 1 -.499.48zm-24.254-1h23.756l.041-13.788a9.247 9.247 0 0 1 -1.591-.022 17.178 17.178 0 0 1 -5.018-1.576c-.582-.251-1.164-.5-1.752-.727-1.827-.7-4.42-1.3-6.388-.167a9.488 9.488 0 0 0 -.811.555 6.988 6.988 0 0 1 -1.4.866c-1.318.556-2.922.392-4.9-.506-.28-.129-.555-.263-.831-.4-.349-.169-.706-.342-1.064-.5z"/><path d="m45.51 33.431h-17.02a1.856 1.856 0 0 1 -1.854-1.854v-3.814a1.856 1.856 0 0 1 1.854-1.854h17.02a1.856 1.856 0 0 1 1.854 1.854v3.814a1.856 1.856 0 0 1 -1.854 1.854zm-17.02-6.522a.855.855 0 0 0 -.854.854v3.814a.855.855 0 0 0 .854.854h17.02a.855.855 0 0 0 .854-.854v-3.814a.855.855 0 0 0 -.854-.854z"/></g><path d="m29.49 64.032a.658.658 0 0 1 -.681.655h-.334a.668.668 0 1 1 .016-1.336h.345a.658.658 0 0 1 .654.681z" fill="#fff"/><path d="m39.473 64.032a.658.658 0 0 1 -.681.655l-7.383-.007a.66.66 0 0 1 -.655-.66v-.02a.665.665 0 0 1 .681-.655l7.383.007a.658.658 0 0 1 .655.68z" fill="#fff"/></svg>