<svg id="color_line" height="512" viewBox="0 0 74 74" width="512" xmlns="http://www.w3.org/2000/svg" data-name="color line"><rect fill="#27ccbc" height="48.258" rx="2.361" width="67.381" x="3.528" y="11.687"/><path d="m70.91 14.05v43.53a2.358 2.358 0 0 1 -2.36 2.36h-.83v-42.71a2.358 2.358 0 0 0 -2.36-2.36h-61.83v-.82a2.358 2.358 0 0 1 2.36-2.36h62.66a2.358 2.358 0 0 1 2.36 2.36z" fill="#21b3a9"/><path d="m8.625 49.381v-27.131a5 5 0 0 0 5-5h47.187a5 5 0 0 0 5 5v27.131a5 5 0 0 0 -5 5h-47.187a5 5 0 0 0 -5-5z" fill="#fff"/><g fill="#323c6b"><path d="m60.812 54.881h-47.187a.5.5 0 0 1 -.5-.5 4.5 4.5 0 0 0 -4.5-4.5.5.5 0 0 1 -.5-.5v-27.131a.5.5 0 0 1 .5-.5 4.5 4.5 0 0 0 4.5-4.5.5.5 0 0 1 .5-.5h47.187a.5.5 0 0 1 .5.5 4.5 4.5 0 0 0 4.5 4.5.5.5 0 0 1 .5.5v27.131a.5.5 0 0 1 -.5.5 4.5 4.5 0 0 0 -4.5 4.5.5.5 0 0 1 -.5.5zm-46.709-1h46.231a5.509 5.509 0 0 1 4.978-4.981v-26.172a5.509 5.509 0 0 1 -4.978-4.978h-46.234a5.509 5.509 0 0 1 -4.978 4.978v26.172a5.509 5.509 0 0 1 4.978 4.981z"/><path d="m60.167 29.868h-11.925a.5.5 0 0 1 0-1h11.925a.5.5 0 0 1 0 1z"/><path d="m26.195 29.868h-11.925a.5.5 0 1 1 0-1h11.925a.5.5 0 0 1 0 1z"/><path d="m60.167 36.315h-11.925a.5.5 0 0 1 0-1h11.925a.5.5 0 0 1 0 1z"/><path d="m26.195 36.315h-11.925a.5.5 0 0 1 0-1h11.925a.5.5 0 0 1 0 1z"/><path d="m60.167 42.763h-11.925a.5.5 0 0 1 0-1h11.925a.5.5 0 0 1 0 1z"/><path d="m26.195 42.763h-11.925a.5.5 0 0 1 0-1h11.925a.5.5 0 0 1 0 1z"/></g><path d="m42.925 35.8v7.687a5.707 5.707 0 1 1 -11.413 0v-7.593c.093.056.177.1.271.149a12.144 12.144 0 0 0 1.756.934 2.714 2.714 0 0 0 1.933.093 10.844 10.844 0 0 0 1.616-1.083c1.712-.987 3.876-.037 5.837-.187z" fill="#fe7058"/><path d="m37.218 49.694a6.213 6.213 0 0 1 -6.207-6.207v-7.592a.5.5 0 0 1 .756-.429c.082.049.157.09.239.132.176.1.328.189.48.28a7.467 7.467 0 0 0 1.224.632 2.217 2.217 0 0 0 1.583.095 3.593 3.593 0 0 0 .874-.566 6.846 6.846 0 0 1 .659-.477 6.122 6.122 0 0 1 3.972-.384 10.933 10.933 0 0 0 2.088.125.509.509 0 0 1 .378.132.5.5 0 0 1 .16.367v7.687a6.208 6.208 0 0 1 -6.207 6.207zm-5.206-12.937v6.73a5.207 5.207 0 0 0 10.413 0v-7.17a15.176 15.176 0 0 1 -1.749-.147 5.327 5.327 0 0 0 -3.338.251 5.865 5.865 0 0 0 -.552.4 4.4 4.4 0 0 1 -1.135.714 3.2 3.2 0 0 1 -2.3-.095 8.1 8.1 0 0 1 -1.339-.683z" fill="#323c6b"/><path d="m42.925 26.368v9.432c-1.961.149-4.128-.8-5.837.187a10.844 10.844 0 0 1 -1.616 1.083 2.714 2.714 0 0 1 -1.933-.093 12.144 12.144 0 0 1 -1.756-.934c-.093-.047-.177-.093-.271-.149v-9.526z" fill="#eeefee"/><path d="m34.682 37.708a3.636 3.636 0 0 1 -1.326-.265 8.307 8.307 0 0 1 -1.379-.707c-.146-.086-.291-.173-.439-.257-.083-.041-.177-.093-.282-.156a.5.5 0 0 1 -.244-.429v-9.526a.5.5 0 0 1 .5-.5h11.413a.5.5 0 0 1 .5.5v9.432a.5.5 0 0 1 -.462.5 11.586 11.586 0 0 1 -2.287-.13 5.327 5.327 0 0 0 -3.338.251 5.865 5.865 0 0 0 -.552.4 4.4 4.4 0 0 1 -1.135.714 2.727 2.727 0 0 1 -.969.173zm-2.67-2.108c.174.1.325.188.476.277a7.467 7.467 0 0 0 1.224.632 2.217 2.217 0 0 0 1.583.095 3.593 3.593 0 0 0 .874-.566 6.846 6.846 0 0 1 .659-.477 6.122 6.122 0 0 1 3.972-.384 14.332 14.332 0 0 0 1.626.14v-8.449h-10.414z" fill="#323c6b"/><rect fill="#bbbbcd" height="4.372" rx="2.186" width="14.681" x="29.878" y="21.992"/><path d="m42.373 26.864h-10.31a2.686 2.686 0 0 1 0-5.372h10.31a2.686 2.686 0 1 1 0 5.372zm-10.31-4.372a1.686 1.686 0 0 0 0 3.372h10.31a1.686 1.686 0 1 0 0-3.372z" fill="#323c6b"/><path d="m59.25 63.381h-8.625a.5.5 0 0 1 0-1h8.625a.5.5 0 0 1 0 1z" fill="#323c6b"/><path d="m48.108 63.381h-.55a.5.5 0 0 1 0-1h.55a.5.5 0 0 1 0 1z" fill="#323c6b"/><path d="m.591 12.33a.5.5 0 0 1 -.5-.5v-3.08a.5.5 0 0 1 .5-.5h6.46a.5.5 0 0 1 0 1h-5.96v2.58a.5.5 0 0 1 -.5.5z" fill="#323c6b"/><path d="m9.57 9.25h-.317a.5.5 0 1 1 0-1h.317a.5.5 0 1 1 0 1z" fill="#323c6b"/><path d="m68.548 60.445h-62.659a2.865 2.865 0 0 1 -2.861-2.861v-43.536a2.864 2.864 0 0 1 2.861-2.861h62.659a2.864 2.864 0 0 1 2.861 2.861v43.535a2.864 2.864 0 0 1 -2.861 2.862zm-62.659-48.258a1.863 1.863 0 0 0 -1.861 1.861v43.535a1.863 1.863 0 0 0 1.861 1.861h62.659a1.863 1.863 0 0 0 1.861-1.861v-43.535a1.863 1.863 0 0 0 -1.861-1.861z" fill="#323c6b"/><path d="m6.064 39.229a.658.658 0 0 1 .655.681v.334a.668.668 0 1 1 -1.336-.016v-.345a.658.658 0 0 1 .681-.654z" fill="#fff"/><path d="m6.063 30.289a.658.658 0 0 1 .655.681l-.008 6.772a.66.66 0 0 1 -.66.655h-.021a.665.665 0 0 1 -.655-.681l.007-6.772a.658.658 0 0 1 .682-.655z" fill="#fff"/></svg>