<svg id="color_line" height="512" viewBox="0 0 74 74" width="512" xmlns="http://www.w3.org/2000/svg" data-name="color line"><path d="m11.077 55.573a.5.5 0 0 1 -.414-.219 31.8 31.8 0 0 1 43.777-44.4.5.5 0 1 1 -.549.836 30.8 30.8 0 0 0 -42.4 43 .5.5 0 0 1 -.414.781z" fill="#323c6b"/><path d="m37 69.333a31.664 31.664 0 0 1 -17.44-5.207.5.5 0 0 1 .549-.836 30.8 30.8 0 0 0 42.486-42.873.5.5 0 1 1 .83-.557 31.8 31.8 0 0 1 -26.425 49.473z" fill="#323c6b"/><path d="m47.464 13.836a.5.5 0 0 1 -.143-.979l6.188-1.835-2.509-5.945a.5.5 0 0 1 .922-.389l2.722 6.459a.5.5 0 0 1 -.318.674l-6.724 1.994a.5.5 0 0 1 -.138.021z" fill="#323c6b"/><path d="m22.534 70.7a.5.5 0 0 1 -.461-.306l-2.722-6.459a.5.5 0 0 1 .318-.674l6.724-1.994a.5.5 0 0 1 .285.959l-6.188 1.836 2.51 5.944a.5.5 0 0 1 -.267.655.508.508 0 0 1 -.199.039z" fill="#323c6b"/><path d="m39.636 13.336h-5.976a.993.993 0 0 0 -.938.668l-1.182 3.412h10.217l-1.183-3.416a.993.993 0 0 0 -.938-.664z" fill="#e7aa6c"/><path d="m41.757 17.916h-10.217a.5.5 0 0 1 -.473-.664l1.183-3.412a1.492 1.492 0 0 1 1.41-1h5.977a1.494 1.494 0 0 1 1.41 1l1.183 3.413a.5.5 0 0 1 -.473.664zm-9.515-1h8.813l-.955-2.749a.492.492 0 0 0 -.465-.331h-5.975a.492.492 0 0 0 -.465.33z" fill="#323c6b"/><path d="m51.375 46.365a14.725 14.725 0 1 1 -20.375-13.585v-10.632h11.3v10.632a14.708 14.708 0 0 1 9.075 13.585z" fill="#eeefee"/><path d="m51.38 46.37a14.74 14.74 0 0 1 -10.05 13.97 14.717 14.717 0 0 0 -1.67-26.37v-11.82h2.64v10.63a14.72 14.72 0 0 1 9.08 13.59z" fill="#e1e6e9"/><path d="m48.257 46.2a11.61 11.61 0 1 1 -23.22 0 11.447 11.447 0 0 1 .068-1.242c.233-.023.467-.045.7-.06a14.687 14.687 0 0 1 5.383.279c2.334.723 4.359 2.613 6.806 2.537 2.086-.06 3.817-1.536 5.737-2.349a12.146 12.146 0 0 1 4.4-.881 11.732 11.732 0 0 1 .126 1.716z" fill="#fcd462"/><path d="m48.26 46.2a11.6 11.6 0 0 1 -18.88 9.04 11.618 11.618 0 0 0 16.51-10.52 13.943 13.943 0 0 1 2.24-.23 11.96 11.96 0 0 1 .13 1.71z" fill="#f7be56"/><g fill="#323c6b"><path d="m46.807 61.375a.5.5 0 0 1 -.287-.909 17.289 17.289 0 0 0 4.844-5.166.5.5 0 0 1 .854.521 18.27 18.27 0 0 1 -5.124 5.461.5.5 0 0 1 -.287.093z"/><path d="m44.375 62.8a.5.5 0 0 1 -.219-.95l.168-.08c.106-.051.214-.1.317-.156a.5.5 0 0 1 .467.885c-.117.062-.236.118-.356.175l-.158.076a.5.5 0 0 1 -.219.05z"/><path d="m19.738 43.17h-.5l-.5-.069c.023-.17.038-.278.06-.383a.5.5 0 0 1 .98.2c-.016.082-.027.165-.04.252z"/><path d="m19.844 41.25a.5.5 0 0 1 -.475-.658 18.085 18.085 0 0 1 3.473-6.105.5.5 0 1 1 .758.652 17.078 17.078 0 0 0 -3.281 5.77.5.5 0 0 1 -.475.341z"/><path d="m36.65 61.6a15.222 15.222 0 0 1 -6.15-29.15v-10.3a.5.5 0 0 1 .5-.5h11.3a.5.5 0 0 1 .5.5v10.3a15.222 15.222 0 0 1 -6.15 29.15zm-5.15-38.952v10.132a.5.5 0 0 1 -.309.462 14.225 14.225 0 1 0 10.918 0 .5.5 0 0 1 -.309-.462v-10.132z"/><path d="m36.647 58.313a12.124 12.124 0 0 1 -12.11-12.113 11.959 11.959 0 0 1 .071-1.3.5.5 0 0 1 .449-.442c.238-.023.478-.046.716-.062a15.017 15.017 0 0 1 5.563.3 15.887 15.887 0 0 1 2.64 1.186 8.3 8.3 0 0 0 4 1.329 8.374 8.374 0 0 0 3.694-1.363 20.317 20.317 0 0 1 1.863-.946 12.607 12.607 0 0 1 4.574-.92.478.478 0 0 1 .512.426 12.1 12.1 0 0 1 -11.976 13.9zm-11.082-12.894c-.019.26-.028.522-.028.783a11.11 11.11 0 0 0 22.221 0 11.239 11.239 0 0 0 -.065-1.2 11.23 11.23 0 0 0 -3.764.819 19.493 19.493 0 0 0 -1.771.9 9.247 9.247 0 0 1 -4.147 1.488 9.17 9.17 0 0 1 -4.5-1.444 15.2 15.2 0 0 0 -2.47-1.116 14.3 14.3 0 0 0 -5.2-.258z"/></g><rect fill="#bbbbcd" height="5.165" rx="1.365" width="14.897" x="29.2" y="16.984"/><path d="m44.1 18.35v2.43a1.366 1.366 0 0 1 -1.37 1.37h-2.25a1.366 1.366 0 0 0 1.37-1.37v-2.43a1.366 1.366 0 0 0 -1.37-1.37h2.25a1.366 1.366 0 0 1 1.37 1.37z" fill="#9297ab"/><path d="m42.732 22.648h-12.168a1.867 1.867 0 0 1 -1.864-1.865v-2.434a1.867 1.867 0 0 1 1.864-1.865h12.168a1.867 1.867 0 0 1 1.868 1.865v2.435a1.867 1.867 0 0 1 -1.868 1.864zm-12.168-5.165a.866.866 0 0 0 -.864.865v2.435a.866.866 0 0 0 .864.865h12.168a.866.866 0 0 0 .864-.865v-2.434a.866.866 0 0 0 -.864-.865z" fill="#323c6b"/></svg>