<svg id="color_line" height="512" viewBox="0 0 74 74" width="512" xmlns="http://www.w3.org/2000/svg" data-name="color line"><path d="m3 56.178h68v7.356h-68z" fill="#e7aa6c"/><path d="m7.225 10.466h7.706v45.713h-7.706z" fill="#e7aa6c"/><path d="m14.932 56.678h-7.706a.5.5 0 0 1 -.5-.5v-45.713a.5.5 0 0 1 .5-.5h7.706a.5.5 0 0 1 .5.5v45.713a.5.5 0 0 1 -.5.5zm-7.206-1h6.706v-44.713h-6.706z" fill="#323c6b"/><path d="m59.068 10.466h7.706v45.713h-7.706z" fill="#e7aa6c"/><path d="m51.646 41.266a.5.5 0 0 1 -.5-.5v-20.229a.5.5 0 0 1 1 0v20.229a.5.5 0 0 1 -.5.5z" fill="#323c6b"/><circle cx="51.646" cy="43.831" fill="#89c5cd" r="3.065"/><path d="m43.108 41.266a.5.5 0 0 1 -.5-.5v-20.229a.5.5 0 1 1 1 0v20.229a.5.5 0 0 1 -.5.5z" fill="#323c6b"/><circle cx="43.108" cy="43.831" fill="#27ccbc" r="3.065"/><path d="m34.487 41.266a.5.5 0 0 1 -.5-.5v-20.229a.5.5 0 1 1 1 0v20.229a.5.5 0 0 1 -.5.5z" fill="#323c6b"/><circle cx="34.488" cy="43.831" fill="#fe7058" r="3.065"/><circle cx="20.681" cy="43.83" fill="#fcd462" r="3.065" transform="matrix(.368 -.93 .93 .368 -27.684 46.919)"/><path d="m54.71 43.83a3.059 3.059 0 0 1 -5.98.92 3.063 3.063 0 0 0 4.77-2.54 3.1 3.1 0 0 0 -.14-.92 3.067 3.067 0 0 1 1.35 2.54z" fill="#6eaaad"/><path d="m46.17 43.83a3.059 3.059 0 0 1 -5.98.92 3.063 3.063 0 0 0 4.77-2.54 3.106 3.106 0 0 0 -.14-.92 3.067 3.067 0 0 1 1.35 2.54z" fill="#21b3a9"/><path d="m37.55 43.83a3.059 3.059 0 0 1 -5.98.92 3.063 3.063 0 0 0 4.77-2.54 3.106 3.106 0 0 0 -.14-.92 3.067 3.067 0 0 1 1.35 2.54z" fill="#ea6453"/><path d="m23.53 44.96a3.069 3.069 0 0 1 -3.98 1.72 3.014 3.014 0 0 1 -1.79-1.95 2.194 2.194 0 0 0 .58.32 3.073 3.073 0 0 0 4.07-3.74 3.055 3.055 0 0 1 1.12 3.65z" fill="#f7be56"/><path d="m57.583 67.035h-10.333a.5.5 0 0 1 0-1h10.333a.5.5 0 0 1 0 1z" fill="#323c6b"/><path d="m44.563 67.035h-.687a.5.5 0 0 1 0-1h.688a.5.5 0 0 1 0 1z" fill="#323c6b"/><path d="m4.226 41.438a.5.5 0 0 1 -.5-.5v-.375a.5.5 0 0 1 1 0v.375a.5.5 0 0 1 -.5.5z" fill="#323c6b"/><path d="m4.226 38.313a.5.5 0 0 1 -.5-.5v-7.063a.5.5 0 0 1 1 0v7.063a.5.5 0 0 1 -.5.5z" fill="#323c6b"/><path d="m71 56.18v7.35h-68v-2.71h65.49v-4.64z" fill="#d09865"/><path d="m21.81 41.48a.5.5 0 0 1 -.479-.646l6.083-20.006a.5.5 0 1 1 .957.291l-6.082 20.006a.5.5 0 0 1 -.479.355z" fill="#323c6b"/><path d="m64.26 10.47h2.51v4.113h-2.51z" fill="#d09865"/><path d="m64.26 20.583h2.51v35.597h-2.51z" fill="#d09865"/><path d="m66.774 56.678h-7.706a.5.5 0 0 1 -.5-.5v-45.713a.5.5 0 0 1 .5-.5h7.706a.5.5 0 0 1 .5.5v45.713a.5.5 0 0 1 -.5.5zm-7.206-1h6.706v-44.713h-6.706z" fill="#323c6b"/><path d="m71 64.035h-68a.5.5 0 0 1 -.5-.5v-7.357a.5.5 0 0 1 .5-.5h68a.5.5 0 0 1 .5.5v7.356a.5.5 0 0 1 -.5.501zm-67.5-1h67v-6.357h-67z" fill="#323c6b"/><path d="m7.225 14.8h59.549v5.736h-59.549z" fill="#e7aa6c"/><path d="m7.225 14.8h59.549v5.736h-59.549z" fill="#e7aa6c"/><path d="m66.774 21.037h-59.548a.5.5 0 0 1 -.5-.5v-5.737a.5.5 0 0 1 .5-.5h59.548a.5.5 0 0 1 .5.5v5.736a.5.5 0 0 1 -.5.501zm-59.049-1h58.549v-4.737h-58.548z" fill="#323c6b"/><path d="m64.26 14.708h2.51v5.583h-2.51z" fill="#d09865"/><g fill="#323c6b"><path d="m66.774 21.037h-59.548a.5.5 0 0 1 -.5-.5v-5.737a.5.5 0 0 1 .5-.5h59.548a.5.5 0 0 1 .5.5v5.736a.5.5 0 0 1 -.5.501zm-59.049-1h58.549v-4.737h-58.548z"/><path d="m51.646 47.4a3.565 3.565 0 1 1 3.565-3.565 3.569 3.569 0 0 1 -3.565 3.565zm0-6.13a2.565 2.565 0 1 0 2.565 2.565 2.568 2.568 0 0 0 -2.565-2.569z"/><path d="m43.108 47.4a3.565 3.565 0 1 1 3.565-3.565 3.569 3.569 0 0 1 -3.565 3.565zm0-6.13a2.565 2.565 0 1 0 2.565 2.565 2.568 2.568 0 0 0 -2.565-2.569z"/><path d="m34.487 47.4a3.565 3.565 0 1 1 3.565-3.565 3.569 3.569 0 0 1 -3.565 3.565zm0-6.13a2.565 2.565 0 1 0 2.565 2.565 2.568 2.568 0 0 0 -2.565-2.569z"/><path d="m20.682 47.4a3.57 3.57 0 0 1 -3.315-4.88 3.562 3.562 0 1 1 3.315 4.88zm-2.382-4.515a2.565 2.565 0 1 0 3.33-1.44 2.569 2.569 0 0 0 -3.33 1.44z"/></g><path d="m41.859 17.689a.628.628 0 0 1 -.65.625h-.2a.638.638 0 1 1 .015-1.275h.21a.628.628 0 0 1 .625.65z" fill="#fff"/><path d="m52.588 17.688a.628.628 0 0 1 -.65.625l-8.2-.007a.63.63 0 0 1 -.625-.63v-.021a.634.634 0 0 1 .65-.625l8.2.007a.628.628 0 0 1 .625.651z" fill="#fff"/></svg>