<svg id="color_line" height="512" viewBox="0 0 74 74" width="512" xmlns="http://www.w3.org/2000/svg" data-name="color line"><path d="m49.58 70.846h-26.386a2.315 2.315 0 0 1 -2.315-2.315v-29.215l-3.769-5.1h38.555l-3.769 5.1v29.214a2.315 2.315 0 0 1 -2.316 2.316z" fill="#eeefee"/><path d="m55.67 34.22-3.77 5.1v29.21a2.322 2.322 0 0 1 -2.32 2.32h-26.39a2.32 2.32 0 0 1 -2.31-2.32v-.05h25.97a2.32 2.32 0 0 0 2.31-2.32v-28.09l2.85-3.85z" fill="#e1e6e9"/><path d="m47.588 51.548v14.99h-22.4v-17.1a10.363 10.363 0 0 1 6.574-1.042c2.361.465 4.394 1.913 6.643 2.783a14.511 14.511 0 0 0 9.183.369z" fill="#27ccbc"/><path d="m47.59 51.55v14.99h-2.34v-14.53a13.455 13.455 0 0 0 2.34-.46z" fill="#21b3a9"/><path d="m29.05 15.02-4.71 10.58-9.18-4.09-.13-.06a9.2 9.2 0 0 1 2.15-5.66c1.03-1.14 2.42-1.89 3.47-3.01a6.424 6.424 0 0 0 .84-1.12z" fill="#eeefee"/><path d="m21.49 11.66a6.424 6.424 0 0 1 -.84 1.12c-1.05 1.12-2.44 1.87-3.47 3.01a9.2 9.2 0 0 0 -2.15 5.66l-6.96-3.1a5.784 5.784 0 1 1 4.7-10.57z" fill="#fe7058"/><path d="m32.7 17.229-4.276 9.6a2.167 2.167 0 0 1 -2.833 1.171 2.167 2.167 0 0 1 -1.033-2.884l4.276-9.6a2.167 2.167 0 0 1 2.834-1.163 2.167 2.167 0 0 1 1.032 2.876z" fill="#bbbbcd"/><path d="m29.05 15.02-.21.47c0 .01-.01.01-.01.02l-.68 1.53v.01a.076.076 0 0 0 -.02.04.01.01 0 0 1 -.01.01.879.879 0 0 1 -.06.1l.15-.35-7.56-3.36-.51-.23a4.607 4.607 0 0 0 .51-.48 6.424 6.424 0 0 0 .84-1.12z" fill="#e1e6e9"/><path d="m21.49 11.66a6.424 6.424 0 0 1 -.84 1.12 4.607 4.607 0 0 1 -.51.48l-8.21-3.65a5.765 5.765 0 0 0 -7.1 1.99 4.909 4.909 0 0 1 .3-.89 5.785 5.785 0 0 1 7.64-2.93z" fill="#ea6453"/><path d="m30.83 16.18a2.112 2.112 0 0 1 1.23 1.95 2.2 2.2 0 0 1 -.194.912h.028l.806-1.812a2.273 2.273 0 0 0 .2-.94 2.082 2.082 0 0 0 -1.23-1.94 2.161 2.161 0 0 0 -2.83 1.14c0 .01-.01.01-.01.02l-.68 1.53a2.143 2.143 0 0 1 2.68-.86z" fill="#9297ab"/><g fill="#323c6b"><path d="m33.8 32.915a.5.5 0 0 1 -.486-.383c-.818-3.4-2.925-3.865-2.946-3.869a.5.5 0 0 1 .2-.98c.112.023 2.754.6 3.72 4.615a.5.5 0 0 1 -.369.6.512.512 0 0 1 -.119.017z"/><path d="m39.305 31.165a.5.5 0 0 1 -.486-.387c-1.336-5.737-5.318-7.468-5.358-7.485a.5.5 0 0 1 .383-.923c.183.075 4.491 1.92 5.949 8.182a.5.5 0 0 1 -.374.6.479.479 0 0 1 -.114.013z"/><path d="m41.293 27.249a.5.5 0 0 1 -.482-.369 5.2 5.2 0 0 1 1.183-5.122.5.5 0 0 1 .683.73 4.211 4.211 0 0 0 -.9 4.13.5.5 0 0 1 -.352.613.489.489 0 0 1 -.132.018z"/><path d="m54.9 64.75a.5.5 0 0 1 -.5-.5v-.312a.5.5 0 0 1 1 0v.313a.5.5 0 0 1 -.5.499z"/><path d="m53.57 72.5a.5.5 0 0 1 -.375-.83 4.765 4.765 0 0 0 1.2-3.14v-2.405a.5.5 0 0 1 1 0v2.405a5.765 5.765 0 0 1 -1.45 3.8.5.5 0 0 1 -.375.17z"/><path d="m2.908 9.042a.5.5 0 0 1 -.425-.763l.061-.1c.06-.1.12-.2.185-.292a.5.5 0 1 1 .828.56c-.056.083-.107.168-.159.253l-.064.1a.5.5 0 0 1 -.426.242z"/><path d="m4.8 6.833a.5.5 0 0 1 -.321-.884 9.308 9.308 0 0 1 5.949-2.171 8.952 8.952 0 0 1 1.183.085.5.5 0 1 1 -.131.991 7.987 7.987 0 0 0 -1.052-.077 8.308 8.308 0 0 0 -5.312 1.94.5.5 0 0 1 -.316.116z"/><path d="m24.34 26.1a.5.5 0 0 1 -.2-.043l-9.318-4.157a.5.5 0 0 1 -.291-.484 9.684 9.684 0 0 1 2.279-5.967 13.758 13.758 0 0 1 1.841-1.611 13.51 13.51 0 0 0 1.634-1.405 5.931 5.931 0 0 0 .772-1.027.5.5 0 0 1 .636-.208l7.56 3.36a.5.5 0 0 1 .253.66l-4.706 10.582a.5.5 0 0 1 -.277.264.5.5 0 0 1 -.183.036zm-8.785-4.962 8.532 3.8 4.3-9.666-6.708-2.981a7.624 7.624 0 0 1 -.663.825 14.446 14.446 0 0 1 -1.756 1.517 12.8 12.8 0 0 0 -1.712 1.491 8.551 8.551 0 0 0 -1.993 5.014z"/><path d="m15.03 21.95a.494.494 0 0 1 -.2-.043l-6.96-3.1a6.284 6.284 0 1 1 5.103-11.484l8.72 3.88a.5.5 0 0 1 .23.707 6.909 6.909 0 0 1 -.9 1.208 14.446 14.446 0 0 1 -1.756 1.517 12.8 12.8 0 0 0 -1.712 1.491 8.7 8.7 0 0 0 -2.022 5.354.5.5 0 0 1 -.5.471zm-4.607-14.171a5.283 5.283 0 0 0 -2.15 10.115l6.32 2.815a9.41 9.41 0 0 1 2.216-5.254 13.758 13.758 0 0 1 1.841-1.611 13.51 13.51 0 0 0 1.634-1.405 7.1 7.1 0 0 0 .464-.56l-8.181-3.642a5.258 5.258 0 0 0 -2.144-.458z"/><path d="m26.419 28.674a2.551 2.551 0 0 1 -2.4-1.71 2.749 2.749 0 0 1 .085-2.055l4.276-9.6a2.749 2.749 0 0 1 1.47-1.438 2.551 2.551 0 0 1 3.4 1.511 2.748 2.748 0 0 1 -.085 2.054l-4.276 9.6a2.751 2.751 0 0 1 -1.47 1.438 2.609 2.609 0 0 1 -1 .2zm4.42-14a1.616 1.616 0 0 0 -.612.123 1.758 1.758 0 0 0 -.937.919l-4.276 9.6a1.756 1.756 0 0 0 -.057 1.311 1.552 1.552 0 0 0 2.074.923 1.759 1.759 0 0 0 .937-.919l4.276-9.6a1.755 1.755 0 0 0 .057-1.311 1.56 1.56 0 0 0 -.836-.913 1.534 1.534 0 0 0 -.625-.138z"/></g><path d="m44.95 10.9 4.71 10.58 9.18-4.09.13-.06a9.2 9.2 0 0 0 -2.15-5.66c-1.03-1.14-2.42-1.89-3.47-3.01a6.424 6.424 0 0 1 -.84-1.12z" fill="#eeefee"/><path d="m52.51 7.54a6.424 6.424 0 0 0 .84 1.12c1.05 1.12 2.44 1.87 3.47 3.01a9.2 9.2 0 0 1 2.15 5.66l6.96-3.1a5.784 5.784 0 1 0 -4.7-10.57z" fill="#fe7058"/><path d="m41.3 13.11 4.276 9.6a2.167 2.167 0 0 0 2.834 1.163 2.167 2.167 0 0 0 1.033-2.884l-4.276-9.6a2.167 2.167 0 0 0 -2.834-1.163 2.167 2.167 0 0 0 -1.033 2.884z" fill="#bbbbcd"/><path d="m44.95 10.9.21.47c0 .01.01.01.01.02l.68 1.53v.01a.076.076 0 0 1 .02.04.01.01 0 0 0 .01.01.879.879 0 0 0 .06.1l-.15-.35 7.56-3.36.51-.23a4.607 4.607 0 0 1 -.51-.48 6.424 6.424 0 0 1 -.84-1.12z" fill="#e1e6e9"/><path d="m52.51 7.54a6.424 6.424 0 0 0 .84 1.12 4.607 4.607 0 0 0 .51.48l8.21-3.65a5.765 5.765 0 0 1 7.1 1.99 4.909 4.909 0 0 0 -.3-.89 5.785 5.785 0 0 0 -7.64-2.93z" fill="#ea6453"/><path d="m43.17 12.06a2.112 2.112 0 0 0 -1.23 1.95 2.2 2.2 0 0 0 .194.912h-.028l-.806-1.812a2.273 2.273 0 0 1 -.2-.94 2.082 2.082 0 0 1 1.23-1.94 2.161 2.161 0 0 1 2.83 1.14c0 .01.01.01.01.02l.68 1.53a2.143 2.143 0 0 0 -2.68-.86z" fill="#9297ab"/><path d="m49.66 21.98a.5.5 0 0 1 -.179-.033.5.5 0 0 1 -.277-.264l-4.71-10.583a.5.5 0 0 1 .253-.66l7.56-3.36a.5.5 0 0 1 .637.208 5.924 5.924 0 0 0 .775 1.032 13.439 13.439 0 0 0 1.629 1.4 13.738 13.738 0 0 1 1.843 1.612 9.684 9.684 0 0 1 2.278 5.968.5.5 0 0 1 -.289.483l-.13.06-9.186 4.093a.5.5 0 0 1 -.204.044zm-4.05-10.826 4.3 9.666 8.532-3.8a8.553 8.553 0 0 0 -2-5.013 12.783 12.783 0 0 0 -1.713-1.492 14.409 14.409 0 0 1 -1.744-1.515 7.686 7.686 0 0 1 -.667-.83z" fill="#323c6b"/><path d="m58.97 17.83a.5.5 0 0 1 -.5-.471 8.7 8.7 0 0 0 -2.021-5.354 12.783 12.783 0 0 0 -1.713-1.492 14.409 14.409 0 0 1 -1.751-1.513 6.891 6.891 0 0 1 -.909-1.213.5.5 0 0 1 .23-.706l8.72-3.88a6.284 6.284 0 1 1 5.106 11.483l-6.96 3.1a.494.494 0 0 1 -.202.046zm-5.719-10.072a6.939 6.939 0 0 0 .468.565 13.439 13.439 0 0 0 1.629 1.4 13.738 13.738 0 0 1 1.843 1.612 9.411 9.411 0 0 1 2.215 5.253l6.32-2.815a5.284 5.284 0 1 0 -4.293-9.657z" fill="#323c6b"/><path d="m47.581 24.554a2.61 2.61 0 0 1 -.992-.2 2.751 2.751 0 0 1 -1.47-1.438l-4.276-9.6a2.748 2.748 0 0 1 -.085-2.054 2.55 2.55 0 0 1 3.4-1.511 2.749 2.749 0 0 1 1.47 1.438l4.276 9.6a2.748 2.748 0 0 1 .085 2.054 2.55 2.55 0 0 1 -2.4 1.71zm-4.42-14a1.537 1.537 0 0 0 -.625.133 1.562 1.562 0 0 0 -.836.913 1.755 1.755 0 0 0 .057 1.311l4.276 9.6a1.759 1.759 0 0 0 .937.919 1.551 1.551 0 0 0 2.074-.923 1.755 1.755 0 0 0 -.057-1.311l-4.276-9.6a1.758 1.758 0 0 0 -.937-.919 1.616 1.616 0 0 0 -.614-.128z" fill="#323c6b"/><path d="m49.58 71.346h-26.386a2.819 2.819 0 0 1 -2.815-2.815v-29.05l-3.671-4.965a.5.5 0 0 1 .4-.8h38.557a.5.5 0 0 1 .4.8l-3.665 4.965v29.049a2.819 2.819 0 0 1 -2.82 2.816zm-31.48-36.627 3.18 4.3a.5.5 0 0 1 .1.3v29.211a1.818 1.818 0 0 0 1.815 1.815h26.385a1.818 1.818 0 0 0 1.82-1.815v-29.214a.5.5 0 0 1 .1-.3l3.18-4.3z" fill="#323c6b"/><path d="m47.588 67.038h-22.4a.5.5 0 0 1 -.5-.5v-17.1a.5.5 0 0 1 .281-.449 10.846 10.846 0 0 1 6.89-1.089 17.147 17.147 0 0 1 4.306 1.688c.786.394 1.6.8 2.418 1.118a13.988 13.988 0 0 0 8.867.356.5.5 0 0 1 .637.481v14.99a.5.5 0 0 1 -.499.505zm-21.9-1h21.4v-13.838a14.934 14.934 0 0 1 -8.866-.552c-.862-.333-1.7-.752-2.5-1.156a16.162 16.162 0 0 0 -4.054-1.6 9.765 9.765 0 0 0 -5.977.868z" fill="#323c6b"/><path d="m29.64 63.6a.577.577 0 0 1 -.6.574h-.29a.585.585 0 1 1 .014-1.171h.3a.577.577 0 0 1 .576.597z" fill="#fff"/><path d="m37.948 63.6a.576.576 0 0 1 -.6.574l-6.03-.006a.578.578 0 0 1 -.574-.578v-.019a.582.582 0 0 1 .6-.574l6.03.006a.576.576 0 0 1 .574.597z" fill="#fff"/></svg>