<svg id="color_line" height="512" viewBox="0 0 74 74" width="512" xmlns="http://www.w3.org/2000/svg" data-name="color line"><path d="m71 14.64a11.6 11.6 0 0 1 -3.41 8.22l-2.09 2.09-16.46-16.45 2.09-2.09a11.64 11.64 0 0 1 19.87 8.23z" fill="#9297ab"/><path d="m65.5 24.95-30.84 30.84a23.155 23.155 0 0 1 -9.04 5.59l-10.69 3.59-5.9-5.91 3.58-10.69a23.235 23.235 0 0 1 5.59-9.03l30.84-30.84z" fill="#eeefee"/><path d="m9.049 59.051-4.821 4.821a4.175 4.175 0 1 0 5.9 5.9l4.821-4.821z" fill="#9297ab"/><path d="m71 14.64a11.6 11.6 0 0 1 -3.41 8.22l-2.09 2.09-2.34-2.33 1.93-1.93a11.608 11.608 0 0 0 .54-15.86 12.123 12.123 0 0 1 1.96 1.58 11.608 11.608 0 0 1 3.41 8.23z" fill="#84879c"/><path d="m65.5 24.95-30.84 30.84a23.155 23.155 0 0 1 -9.04 5.59l-10.67 3.58-.02.01-2.25-2.25.02-.01 10.42-3.5a23.154 23.154 0 0 0 9.04-5.59l31-31z" fill="#e1e6e9"/><path d="m14.95 64.96-4.82 4.82a4.171 4.171 0 0 1 -5.9 0 4 4 0 0 1 -.8-1.14 4.16 4.16 0 0 0 4.2-1.03l4.82-4.82.23-.07.02-.01z" fill="#84879c"/><path d="m31.974 26.315h10.361v21.051h-10.361z" fill="#89c5cd" transform="matrix(.707 .707 -.707 .707 36.933 -15.482)"/><path d="m33.375 48.447a.5.5 0 0 1 -.354-.146l-7.327-7.327a.5.5 0 0 1 0-.707l14.887-14.886a.5.5 0 0 1 .707 0l7.326 7.326a.5.5 0 0 1 0 .707l-14.885 14.886a.5.5 0 0 1 -.354.147zm-6.62-7.827 6.62 6.62 14.178-14.179-6.619-6.619z" fill="#323c6b"/><circle cx="50.933" cy="23.062" fill="#fe7058" r="2.436" transform="matrix(.707 -.707 .707 .707 -1.39 42.77)"/><g fill="#323c6b"><path d="m50.933 26a2.934 2.934 0 1 1 2.076-.858 2.926 2.926 0 0 1 -2.076.858zm0-4.869a1.935 1.935 0 1 0 1.369.566 1.929 1.929 0 0 0 -1.369-.569z"/><path d="m27.458 64.4a.5.5 0 0 1 -.176-.968 25.735 25.735 0 0 0 7.848-4.675.5.5 0 1 1 .655.755 26.73 26.73 0 0 1 -8.152 4.857.5.5 0 0 1 -.175.031z"/><path d="m24.458 65.435a.5.5 0 0 1 -.159-.974l.542-.182a.5.5 0 0 1 .318.948l-.542.182a.5.5 0 0 1 -.159.026z"/><path d="m37.266 16.531a.5.5 0 0 1 -.354-.854l.359-.359a.5.5 0 0 1 .707.707l-.359.359a.5.5 0 0 1 -.353.147z"/><path d="m39.36 14.438a.5.5 0 0 1 -.354-.854l5.313-5.313a.5.5 0 0 1 .707.707l-5.312 5.313a.5.5 0 0 1 -.354.147z"/><path d="m65.5 25.45a.5.5 0 0 1 -.354-.146l-16.459-16.45a.5.5 0 0 1 0-.707l2.09-2.09a12.135 12.135 0 1 1 17.166 17.156l-2.09 2.09a.5.5 0 0 1 -.353.147zm-15.753-16.95 15.753 15.743 1.736-1.737a11.135 11.135 0 1 0 -15.753-15.742z"/><path d="m14.93 65.47a.5.5 0 0 1 -.354-.147l-5.9-5.91a.5.5 0 0 1 -.12-.512l3.58-10.69a23.817 23.817 0 0 1 5.711-9.225l30.84-30.84a.5.5 0 0 1 .707 0l16.46 16.454a.5.5 0 0 1 0 .707l-30.84 30.84a23.789 23.789 0 0 1 -9.235 5.71l-10.689 3.59a.5.5 0 0 1 -.16.023zm-5.33-6.544 5.465 5.474 10.4-3.491a22.785 22.785 0 0 0 8.846-5.469l30.482-30.49-15.753-15.743-30.486 30.486a22.817 22.817 0 0 0 -5.47 8.836z"/><path d="m7.18 71.5a4.675 4.675 0 0 1 -3.306-7.981l4.826-4.819a.5.5 0 0 1 .707 0l5.9 5.9a.5.5 0 0 1 0 .707l-4.821 4.823a4.644 4.644 0 0 1 -3.306 1.37zm1.869-11.742-4.467 4.468a3.675 3.675 0 0 0 0 5.2 3.763 3.763 0 0 0 5.2 0l4.468-4.468z"/></g><path d="m56.4 11.643a.7.7 0 0 1 -1-.013l-.082-.082a.71.71 0 1 1 1.008-1l.09.09a.7.7 0 0 1 -.016 1.005z" fill="#fff"/><path d="m62.807 18a.7.7 0 0 1 -1-.013l-4.616-4.577a.7.7 0 0 1 0-.987l.016-.016a.706.706 0 0 1 1 .013l4.613 4.58a.7.7 0 0 1 -.013 1z" fill="#fff"/></svg>