<svg id="color_line" height="512" viewBox="0 0 74 74" width="512" xmlns="http://www.w3.org/2000/svg" data-name="color line"><path d="m24.314 59.454c3.9.622 7.617 1.525 9.971 2.876" fill="#e1e6e9"/><path d="m60.17 56.09c-.22 8.28-15.38 11.69-23.8 10.38a13.483 13.483 0 0 1 -7.8-3.68 14.866 14.866 0 0 0 5.72-.46c-2.36-1.35-6.08-2.25-9.98-2.88l-5.96-.75c-3.29-.34-6.25-.52-8.05-.67a10.643 10.643 0 0 1 -2.95-.57 2.334 2.334 0 0 1 -1.02-3.58 33.659 33.659 0 0 1 11.13-9.53l8.09-3.75c7.96-3.08 16.27-4.49 23.27-1.74a17.49 17.49 0 0 1 11.35 17.23z" fill="#9297ab"/><path d="m60.17 56.09a7.93 7.93 0 0 1 -3.55 6.07 6.739 6.739 0 0 0 1.22-3.67 17.49 17.49 0 0 0 -11.35-17.23c-7-2.75-15.31-1.34-23.27 1.74l-8.09 3.75a38.745 38.745 0 0 0 -7.33 5.27 36.121 36.121 0 0 1 9.66-7.67l8.09-3.75c7.96-3.08 16.27-4.49 23.27-1.74a17.49 17.49 0 0 1 11.35 17.23z" fill="#84879c"/><path d="m18.355 59.2h-.052c-2.341-.241-4.49-.4-6.217-.53-.693-.052-1.311-.1-1.83-.141a11.5 11.5 0 0 1 -3.086-.594 2.683 2.683 0 0 1 -1.663-1.735 2.97 2.97 0 0 1 .412-2.6 33.918 33.918 0 0 1 11.295-9.68.5.5 0 1 1 .49.872 33.291 33.291 0 0 0 -10.968 9.379 1.966 1.966 0 0 0 -.276 1.721 1.678 1.678 0 0 0 1.054 1.1 10.559 10.559 0 0 0 2.823.536c.52.043 1.134.089 1.824.14 1.733.129 3.891.29 6.244.532a.5.5 0 0 1 -.05 1z" fill="#323c6b"/><path d="m40.208 67.242a25.6 25.6 0 0 1 -3.918-.28 13.723 13.723 0 0 1 -8.082-3.827.5.5 0 0 1 -.087-.555.512.512 0 0 1 .483-.286 14.477 14.477 0 0 0 5.516-.436c2.246-.779 2.483-2.356 2.811-4.54a15.064 15.064 0 0 1 .79-3.375c1.932-4.888 9.341-4.367 9.652-4.341a.5.5 0 0 1 -.078 1c-.066-.006-6.983-.491-8.645 3.711a14.048 14.048 0 0 0 -.73 3.156c-.336 2.242-.654 4.359-3.467 5.335a12.92 12.92 0 0 1 -4.522.548 13.825 13.825 0 0 0 6.512 2.623c6.014.941 15.493-.54 20.332-4.57a7.132 7.132 0 0 0 2.9-5.322 17.089 17.089 0 0 0 -11.039-16.76c-6.06-2.379-13.766-1.792-22.906 1.745a.5.5 0 0 1 -.361-.933c9.38-3.635 17.331-4.218 23.631-1.744a18.068 18.068 0 0 1 11.675 17.717 8.088 8.088 0 0 1 -3.261 6.063c-4.085 3.403-11.303 5.07-17.206 5.071z" fill="#323c6b"/><path d="m40.208 67.242a25.6 25.6 0 0 1 -3.918-.28 13.723 13.723 0 0 1 -8.082-3.827.5.5 0 0 1 -.087-.555.512.512 0 0 1 .483-.286 14.477 14.477 0 0 0 5.516-.436c2.246-.779 2.483-2.356 2.811-4.54a15.064 15.064 0 0 1 .79-3.375c1.932-4.888 9.341-4.367 9.652-4.341a.5.5 0 0 1 -.078 1c-.066-.006-6.983-.491-8.645 3.711a14.048 14.048 0 0 0 -.73 3.156c-.336 2.242-.654 4.359-3.467 5.335a12.92 12.92 0 0 1 -4.522.548 13.825 13.825 0 0 0 6.512 2.623c6.014.941 15.493-.54 20.332-4.57a7.132 7.132 0 0 0 2.9-5.322 17.089 17.089 0 0 0 -11.039-16.76c-6.06-2.379-13.766-1.792-22.906 1.745a.5.5 0 0 1 -.361-.933c9.38-3.635 17.331-4.218 23.631-1.744a18.068 18.068 0 0 1 11.675 17.717 8.088 8.088 0 0 1 -3.261 6.063c-4.085 3.403-11.303 5.07-17.206 5.071z" fill="#323c6b"/><path d="m25.549 41.1a.5.5 0 0 1 -.181-.966c9.381-3.634 17.332-4.217 23.632-1.743a.5.5 0 1 1 -.365.931c-6.06-2.379-13.766-1.792-22.906 1.745a.5.5 0 0 1 -.18.033z" fill="#323c6b"/><path d="m44.376 41.87a.5.5 0 0 1 -.1-.009 26.481 26.481 0 0 0 -8.185-.209.512.512 0 0 1 -.555-.437.5.5 0 0 1 .438-.556 27.5 27.5 0 0 1 8.493.221.5.5 0 0 1 -.095.991z" fill="#323c6b"/><path d="m21.519 54.469s-1.3 5.609-10.737 7.307c0 0 3.217 3.163 8.768 1.227a10.854 10.854 0 0 0 4.745-3.528" fill="#9297ab"/><path d="m16.021 64.136a8.26 8.26 0 0 1 -5.59-2 .5.5 0 0 1 .262-.849c8.96-1.612 10.286-6.713 10.339-6.93a.5.5 0 0 1 .974.228c-.054.232-1.373 5.507-10.027 7.462a8.471 8.471 0 0 0 7.406.487 10.271 10.271 0 0 0 4.522-3.371.5.5 0 1 1 .775.631 11.243 11.243 0 0 1 -4.968 3.685 11.173 11.173 0 0 1 -3.693.657z" fill="#323c6b"/><path d="m34.285 62.83a.5.5 0 0 1 -.249-.066c-2-1.151-5.3-2.1-9.8-2.816a.5.5 0 1 1 .158-.987c4.619.737 8.031 1.725 10.142 2.936a.5.5 0 0 1 -.249.934z" fill="#323c6b"/><path d="m51.592 71.5a28.886 28.886 0 0 1 -6.608-.841.5.5 0 0 1 .229-.974c7.9 1.861 12.262.188 14.529-1.543a7.99 7.99 0 0 0 3.258-5.912 8.494 8.494 0 0 0 -3.119-6.618.5.5 0 1 1 .6-.8 9.4 9.4 0 0 1 3.519 7.453 9 9 0 0 1 -3.651 6.672 14.01 14.01 0 0 1 -8.757 2.563z" fill="#323c6b"/><path d="m17.948 47.016a5.839 5.839 0 0 1 -.484-2.594 5.15 5.15 0 0 1 5.094-5.175 5.15 5.15 0 0 1 4.585 5.631 5.151 5.151 0 0 1 -5.094 5.175 4.062 4.062 0 0 1 -.837-.133" fill="#9297ab"/><path d="m22.255 50.558c-.076 0-.152 0-.229-.005a4.57 4.57 0 0 1 -.94-.149.5.5 0 0 1 .254-.968 3.526 3.526 0 0 0 .733.118c2.405.131 4.443-2 4.572-4.7a4.659 4.659 0 0 0 -4.11-5.108 4.655 4.655 0 0 0 -4.571 4.7 5.338 5.338 0 0 0 .444 2.373.5.5 0 1 1 -.918.4 6.308 6.308 0 0 1 -.524-2.815 5.651 5.651 0 0 1 5.616-5.651 5.655 5.655 0 0 1 5.061 6.147 5.686 5.686 0 0 1 -5.388 5.658z" fill="#323c6b"/><circle cx="15.063" cy="50.948" fill="#323c6b" r="1.117"/><path d="m15.063 52.565a1.617 1.617 0 1 1 1.617-1.617 1.619 1.619 0 0 1 -1.617 1.617zm0-2.234a.617.617 0 1 0 .617.617.618.618 0 0 0 -.617-.616z" fill="#323c6b"/><path d="m63.055 16.177a1.025 1.025 0 0 1 .245 1.423l-10.438 14.885a1.783 1.783 0 0 1 -2.485.43l-6.471-4.561a1.783 1.783 0 0 1 -.43-2.485l10.439-14.877a1.025 1.025 0 0 1 1.43-.249z" fill="#eeefee"/><path d="m47.419 20.25-3.943 5.62a1.783 1.783 0 0 0 .43 2.485l6.471 4.561a1.783 1.783 0 0 0 2.485-.43l8.585-12.236z" fill="#fe7058"/><path d="m47.647 34.643 1.72-2.44-4.45-3.137-1.72 2.44a.965.965 0 0 0 .233 1.344l2.87 2.026a.965.965 0 0 0 1.347-.233z" fill="#9297ab"/><path d="m46.856 35.552a1.459 1.459 0 0 1 -.842-.267l-2.873-2.025a1.466 1.466 0 0 1 -.354-2.041l1.721-2.44a.5.5 0 0 1 .7-.121l4.45 3.136a.5.5 0 0 1 .2.323.493.493 0 0 1 -.084.374l-1.72 2.44a1.463 1.463 0 0 1 -1.198.621zm-1.818-5.788-1.433 2.031a.462.462 0 0 0 -.077.347.456.456 0 0 0 .189.3l2.873 2.025a.466.466 0 0 0 .647-.112l1.432-2.031z" fill="#323c6b"/><path d="m62.618 2.643h3.06v7.584h-3.06z" fill="#9297ab" transform="matrix(.576 -.817 .817 .576 21.932 55.161)"/><path d="m66.366 10.37a.5.5 0 0 1 -.288-.091l-6.198-4.369a.5.5 0 0 1 -.12-.7l1.762-2.5a.5.5 0 0 1 .7-.121l6.2 4.369a.5.5 0 0 1 .12.7l-1.762 2.5a.5.5 0 0 1 -.409.212zm-5.5-4.99 5.381 3.793 1.186-1.683-5.381-3.79z" fill="#323c6b"/><path d="m57.7 8.787h7.064v3.572h-7.064z" fill="#eeefee" transform="matrix(.576 -.817 .817 .576 17.314 54.531)"/><g fill="#323c6b"><path d="m60.657 14.989a.5.5 0 0 1 -.288-.091l-2.92-2.058a.5.5 0 0 1 -.121-.7l4.072-5.771a.5.5 0 0 1 .7-.121l2.92 2.058a.5.5 0 0 1 .121.7l-4.069 5.774a.5.5 0 0 1 -.409.212zm-2.223-2.679 2.1 1.482 3.496-4.957-2.1-1.482z"/><path d="m39.912 41.393a.5.5 0 0 1 -.412-.793l4.954-7.03a.5.5 0 0 1 .818.576l-4.954 7.03a.5.5 0 0 1 -.406.217z"/><path d="m2.886 56.063a.5.5 0 0 1 -.5-.478 6.013 6.013 0 0 1 1.088-3.729l.111-.158a19.037 19.037 0 0 1 2.285-2.776.5.5 0 1 1 .719.7 18.282 18.282 0 0 0 -2.184 2.648l-.113.162a5.011 5.011 0 0 0 -.907 3.108.5.5 0 0 1 -.477.522z"/><path d="m7.778 48.208a.5.5 0 0 1 -.344-.863l.254-.232a.5.5 0 1 1 .68.732l-.246.227a.5.5 0 0 1 -.344.136z"/><path d="m56.89 32.469a.5.5 0 0 1 -.409-.787l.263-.375a.5.5 0 1 1 .818.574l-.263.375a.5.5 0 0 1 -.409.213z"/><path d="m58.446 30.25a.5.5 0 0 1 -.409-.787l4.517-6.437a.5.5 0 1 1 .818.574l-4.517 6.438a.5.5 0 0 1 -.409.212z"/><path d="m51.4 33.74a2.271 2.271 0 0 1 -1.312-.416l-6.471-4.561a2.286 2.286 0 0 1 -.55-3.181l10.439-14.882a1.526 1.526 0 0 1 2.127-.371l7.71 5.434a1.528 1.528 0 0 1 .37 2.122l-10.442 14.887a2.284 2.284 0 0 1 -1.871.968zm3.354-22.685a.533.533 0 0 0 -.432.224l-10.436 14.878a1.284 1.284 0 0 0 .309 1.789l6.471 4.561a1.286 1.286 0 0 0 1.789-.31l10.44-14.881a.527.527 0 0 0 -.128-.731l-7.71-5.434a.521.521 0 0 0 -.301-.096z"/></g><path d="m46.727 62.694a.65.65 0 0 1 -.172-1.277 18.455 18.455 0 0 0 7.135-3.249.65.65 0 0 1 .826 1 19.736 19.736 0 0 1 -7.617 3.5.656.656 0 0 1 -.172.026z" fill="#fff"/><path d="m43.817 63.329a.65.65 0 0 1 -.094-1.293l.392-.071a.65.65 0 0 1 .207 1.283l-.41.074a.64.64 0 0 1 -.095.007z" fill="#fff"/></svg>