<svg id="color_line" height="512" viewBox="0 0 74 74" width="512" xmlns="http://www.w3.org/2000/svg" data-name="color line"><path d="m56.553 32.3v35.98a3.72 3.72 0 0 1 -3.72 3.72h-31.666a3.72 3.72 0 0 1 -3.72-3.72v-35.98a11.79 11.79 0 0 1 2.827-7.66l6.964-8.149h19.523l6.964 8.149a11.79 11.79 0 0 1 2.828 7.66z" fill="#eeefee"/><path d="m56.55 32.3v35.98a3.719 3.719 0 0 1 -3.72 3.72h-31.66a3.714 3.714 0 0 1 -3.64-2.95 2.739 2.739 0 0 0 .5.04h31.67a3.719 3.719 0 0 0 3.72-3.72v-35.98a11.753 11.753 0 0 0 -2.83-7.66l-4.47-5.24h.64l6.97 8.15a11.8 11.8 0 0 1 2.82 7.66z" fill="#e1e6e9"/><path d="m23.504 34.667h26.993v25.572h-26.993z" fill="#fcd462"/><path d="m47.83 34.67h2.67v25.57h-2.67z" fill="#f7be56"/><rect fill="#9297ab" height="12.487" rx="1.814" width="23.894" x="25.058" y="4"/><path d="m48.95 5.81v8.86a1.818 1.818 0 0 1 -1.81 1.82h-.69v-8.44a1.818 1.818 0 0 0 -1.81-1.82h-19.58v-.42a1.809 1.809 0 0 1 1.81-1.81h20.27a1.809 1.809 0 0 1 1.81 1.81z" fill="#84879c"/><g fill="#323c6b"><path d="m30.1 12.978a.5.5 0 0 1 -.5-.5v-4.469a.5.5 0 1 1 1 0v4.468a.5.5 0 0 1 -.5.501z"/><path d="m37 12.978a.5.5 0 0 1 -.5-.5v-4.469a.5.5 0 1 1 1 0v4.468a.5.5 0 0 1 -.5.501z"/><path d="m43.908 12.978a.5.5 0 0 1 -.5-.5v-4.469a.5.5 0 1 1 1 0v4.468a.5.5 0 0 1 -.5.501z"/><path d="m44.781 42.148h-15.562a.5.5 0 0 1 0-1h15.562a.5.5 0 0 1 0 1z"/><path d="m42.384 48.44h-10.768a.5.5 0 0 1 0-1h10.768a.5.5 0 0 1 0 1z"/><path d="m44.781 53.757h-15.562a.5.5 0 0 1 0-1h15.562a.5.5 0 0 1 0 1z"/><path d="m59.553 57.016a.5.5 0 0 1 -.5-.5v-7.766a.5.5 0 0 1 1 0v7.766a.5.5 0 0 1 -.5.5z"/><path d="m59.553 59.708a.5.5 0 0 1 -.5-.5v-.5a.5.5 0 0 1 1 0v.5a.5.5 0 0 1 -.5.5z"/><path d="m22.059 8.75a.5.5 0 0 1 -.5-.5v-.406a.5.5 0 0 1 1 0v.406a.5.5 0 0 1 -.5.5z"/><path d="m22.062 6.281a.5.5 0 0 1 -.5-.5 5.327 5.327 0 0 1 5.31-5.281.5.5 0 0 1 0 1 4.324 4.324 0 0 0 -4.311 4.285.5.5 0 0 1 -.499.496z"/><path d="m52.833 72.5h-31.666a4.224 4.224 0 0 1 -4.22-4.22v-35.98a12.3 12.3 0 0 1 2.947-7.984l6.965-8.149a.5.5 0 0 1 .38-.175h19.522a.5.5 0 0 1 .38.175l6.965 8.149a12.3 12.3 0 0 1 2.947 7.984v35.98a4.224 4.224 0 0 1 -4.22 4.22zm-25.363-55.513-6.816 7.973a11.3 11.3 0 0 0 -2.707 7.34v35.98a3.223 3.223 0 0 0 3.22 3.22h31.666a3.223 3.223 0 0 0 3.22-3.22v-35.98a11.3 11.3 0 0 0 -2.707-7.335l-6.816-7.978z"/><path d="m50.5 60.739h-27a.5.5 0 0 1 -.5-.5v-25.572a.5.5 0 0 1 .5-.5h27a.5.5 0 0 1 .5.5v25.572a.5.5 0 0 1 -.5.5zm-26.5-1h26v-24.572h-26z"/><path d="m47.138 16.987h-20.266a2.317 2.317 0 0 1 -2.313-2.314v-8.859a2.317 2.317 0 0 1 2.313-2.314h20.266a2.317 2.317 0 0 1 2.314 2.314v8.859a2.317 2.317 0 0 1 -2.314 2.314zm-20.266-12.487a1.315 1.315 0 0 0 -1.313 1.314v8.859a1.315 1.315 0 0 0 1.313 1.314h20.266a1.316 1.316 0 0 0 1.314-1.314v-8.859a1.316 1.316 0 0 0 -1.314-1.314z"/></g><path d="m28.539 37.709a.683.683 0 0 1 -.7.682h-.347a.694.694 0 1 1 .008-1.391h.358a.683.683 0 0 1 .681.709z" fill="#fff"/><path d="m39.267 37.708a.683.683 0 0 1 -.7.682h-8.2a.685.685 0 0 1 -.682-.682v-.022a.69.69 0 0 1 .7-.682h8.2a.683.683 0 0 1 .682.704z" fill="#fff"/></svg>