<svg id="antilope-ram" enable-background="new 0 0 300 300" height="512" viewBox="0 0 300 300" width="512" xmlns="http://www.w3.org/2000/svg"><g><path d="m71.98 49.358c2.502 0 4.53-2.028 4.53-4.53s-2.028-4.53-4.53-4.53c-2.501 0-4.529 2.028-4.529 4.53s2.028 4.53 4.529 4.53z"/><path d="m255.98 228.299c-2.501 0-4.529 2.028-4.529 4.53 0 2.501 2.028 4.53 4.529 4.53 2.502 0 4.53-2.028 4.53-4.53 0-2.503-2.028-4.53-4.53-4.53z"/><path d="m241.496 55.312c.781.781 1.805 1.172 2.828 1.172s2.047-.391 2.828-1.172l2.828-2.828 2.828 2.828c.781.781 1.805 1.172 2.828 1.172s2.047-.391 2.828-1.172c1.562-1.562 1.562-4.094 0-5.656l-2.828-2.828 2.829-2.828c1.562-1.562 1.562-4.094 0-5.656s-4.094-1.562-5.656 0l-2.828 2.828-2.828-2.828c-1.562-1.562-4.094-1.562-5.656 0s-1.562 4.094 0 5.656l2.828 2.828-2.828 2.828c-1.563 1.563-1.563 4.094-.001 5.656z"/><circle cx="125.98" cy="158.828" r="4"/><circle cx="173.98" cy="158.828" r="4"/><path d="m145.98 186.828c-2.211 0-4 1.791-4 4s1.789 4 4 4v5.527l-2.211-1.105c-1.973-.99-4.375-.186-5.367 1.789-.988 1.977-.188 4.379 1.789 5.367l8 4c.562.281 1.176.422 1.789.422.609 0 1.223-.141 1.781-.42l7.875-3.922c1.98-.984 2.785-3.387 1.801-5.363-.984-1.973-3.391-2.777-5.363-1.797l-2.094 1.042v-5.54c2.211 0 4-1.791 4-4s-1.789-4-4-4z"/><path d="m272.793 76.965c-.902-1.717-2.902-2.535-4.762-1.945l-28.182 9.038c-21.101-28.349-54.48-45.229-89.869-45.229-35.381 0-68.758 16.878-89.863 45.219l-28.148-9.028c-1.867-.59-3.859.229-4.762 1.945-.906 1.719-.445 3.838 1.09 5.027l22.3 17.258c-8.231 15.844-12.617 33.603-12.617 51.578 0 61.758 50.242 112 112 112s112-50.242 112-112c0-17.968-4.383-35.71-12.609-51.554l22.332-17.282c1.535-1.189 1.996-3.308 1.09-5.027zm-34.53 20.791.263-4.873 10.302-3.303zm-72.218 87.668c-2.468-3.845-4.366-7.451-4.065-12.142v-12.372c0-5.559 4.523-10.082 10.082-10.082h1.918c2.211 0 4-1.791 4-4s-1.789-4-4-4h-1.918c-9.969 0-18.082 8.111-18.082 18.082l.008 12.107c-.523 7.9 3.289 13.672 6.656 18.766 3.051 4.623 5.688 8.617 5.336 14.092v3.732c0 2.879-2.344 5.221-5.223 5.221h-21.555c-2.879 0-5.223-2.342-5.223-5.221l-.008-3.996c-.355-5.342 2.219-9.324 5.195-13.934 3.191-4.947 6.812-10.555 6.812-18.396v-12.371c0-9.971-8.113-18.082-18.082-18.082h-1.918c-2.211 0-4 1.791-4 4s1.789 4 4 4h1.918c5.559 0 10.082 4.523 10.082 10.082v12.371c0 4.53-1.84 8.158-4.083 11.768-.423-8.221-4.892-15.825-11.956-20.053-4.91-2.939-7.961-8.736-7.961-15.133v-10.203c0-5.333 1.506-10.516 4.211-15.001.656 1.361 2.022 2.28 3.574 2.28.168 0 .344-.01.516-.033 2.191-.283 3.738-2.289 3.457-4.48l-2.965-22.918 11.589-5.102 3.688 19.188c.422 2.168 2.504 3.586 4.684 3.172 2.172-.416 3.59-2.514 3.176-4.684l-.241-1.253 8.657.001-.241 1.252c-.414 2.17 1.004 4.268 3.176 4.684 2.168.43 4.266-1.004 4.684-3.172l3.688-19.188 11.59 5.102-2.962 22.92c-.281 2.189 1.266 4.195 3.457 4.479.172.023.348.033.516.033 1.546 0 2.91-.91 3.569-2.263 2.705 4.462 4.177 9.585 4.177 14.986v11.105c0 5.764-3.031 11.203-8.09 14.307-7.062 4.326-11.507 12.058-11.843 20.349zm-96.173-85.371-.451-8.314 29.165-14.635v8.251zm36.714-23.255 22.291 11.282-10.047 4.423-12.243-7.376v-8.329zm-.409 59.094c-3.298 1.379-8.569 2.678-14.259.531-6.211-2.344-8.953-10.848-9.895-16.201 8.48-2.682 12.512.75 16.766 4.354l1.289 1.084c2.469 2.024 5.109 2.912 7.538 3.201-.697 2.284-1.193 4.635-1.439 7.031zm87.633.453c-.237-2.612-.736-5.183-1.509-7.667 2.327-.465 4.534-1.46 6.429-3.019l1.297-1.086c4.25-3.604 8.289-7.031 16.762-4.352-.941 5.354-3.684 13.857-9.895 16.201-4.997 1.886-9.662 1.141-13.084-.077zm-12.643-43.842-10.043-4.421 22.286-11.285v8.332zm20.243-15.4 29.162 14.635-.448 8.313-28.714-14.697zm-51.43-30.275c29.482 0 57.49 12.598 77.091 34.201l-24.762-12.426c-2.867-1.896-6.602-2.066-9.504-.463l-29.258 14.812c-2.332 1.287-4.094 3.383-4.953 5.9-.059.176-.109.355-.145.537l-2.584 13.439-11.734-.001-2.584-13.438c-.035-.182-.086-.361-.145-.537-.859-2.516-2.617-4.609-5.078-5.967l-29.012-14.684c-3.02-1.66-6.766-1.496-9.621.402l-24.83 12.458c19.603-21.621 47.623-34.233 77.119-34.233zm-88.505 46.057.264 4.873-10.563-8.176zm-15.495 57.943c0-16.205 3.84-32.219 11.052-46.597l5.612 4.343c1.777 1.549 4.348 1.891 6.535.82l33.621-17.209 11.883 7.158 1.871 14.474c-2.061 2.106-3.857 4.431-5.346 6.941-1.021.286-3.611.723-6.052-1.282l-1.195-1c-5.125-4.354-12.891-10.928-27.863-4.576-1.566.664-2.539 2.246-2.43 3.941.055.848 1.516 20.816 15.422 26.066 3.191 1.203 6.262 1.662 9.094 1.662 2.897 0 5.529-.487 7.797-1.146v5.439 44.02c0 5.23-1.238 10.473-3.578 15.158-2.895 5.789-4.422 12.266-4.422 18.73v13.065c-31.055-18.009-52.001-51.597-52.001-90.007zm60 94.204v-17.26c0-5.23 1.238-10.471 3.578-15.156 2.895-5.789 4.422-12.268 4.422-18.732v-25.005c1.186 1.114 2.45 2.143 3.852 2.982 5.027 3.008 8.148 8.543 8.148 14.447v23.301c0 7.289 5.93 13.221 13.223 13.221h21.555c7.293 0 13.223-5.932 13.223-13.221v-23.189c0-5.9 3.102-11.467 8.273-14.637 1.354-.83 2.576-1.823 3.727-2.885v24.987c0 6.465 1.527 12.943 4.422 18.732 2.34 4.686 3.578 9.926 3.578 15.156v17.26c-13.373 6.271-28.279 9.796-44 9.796s-30.628-3.526-44.001-9.797zm148-94.204c0 38.41-20.946 71.998-52 90.009v-13.065c0-6.465-1.527-12.941-4.422-18.73-2.34-4.686-3.578-9.928-3.578-15.158v-43.115-6.025c2.013.502 4.234.84 6.625.84 2.848 0 5.922-.469 9.117-1.674 13.906-5.25 15.367-25.219 15.422-26.066.109-1.695-.863-3.277-2.43-3.941-14.98-6.359-22.727.221-27.859 4.572l-1.199 1.004c-1.655 1.36-3.38 1.615-4.782 1.492-1.506-2.579-3.33-4.969-5.435-7.125l1.873-14.5 11.883-7.158 33.695 17.246c2.129 1.037 4.695.688 6.461-.855l5.585-4.323c7.208 14.377 11.044 30.375 11.044 46.572z"/></g></svg>