<svg id="bat" enable-background="new 0 0 300 300" height="512" viewBox="0 0 300 300" width="512" xmlns="http://www.w3.org/2000/svg"><g><path d="m56 49.358c2.502 0 4.53-2.028 4.53-4.53s-2.028-4.53-4.53-4.53c-2.501 0-4.529 2.028-4.529 4.53s2.028 4.53 4.529 4.53z"/><path d="m240 228.299c-2.501 0-4.529 2.028-4.529 4.53 0 2.501 2.028 4.53 4.529 4.53 2.502 0 4.53-2.028 4.53-4.53 0-2.503-2.028-4.53-4.53-4.53z"/><path d="m225.516 55.312c.781.781 1.805 1.172 2.828 1.172s2.047-.391 2.828-1.172l2.828-2.828 2.828 2.828c.781.781 1.805 1.172 2.828 1.172s2.047-.391 2.828-1.172c1.562-1.562 1.562-4.094 0-5.656l-2.828-2.828 2.829-2.828c1.562-1.562 1.562-4.094 0-5.656s-4.094-1.562-5.656 0l-2.829 2.828-2.828-2.828c-1.562-1.562-4.094-1.562-5.656 0s-1.562 4.094 0 5.656l2.828 2.828-2.828 2.828c-1.563 1.563-1.563 4.094 0 5.656z"/><path d="m276.149 144.961c-10.626-6.76-21.259-10.282-31.535-11.59-8.471-54.091-55.511-94.543-110.614-94.543-61.758 0-112 50.242-112 112s50.242 112 112 112c54.611 0 100.9-38.881 110.302-92.53 8.115-19.187 28.446-18.04 29.389-17.974 1.832.162 3.52-.979 4.102-2.723.582-1.742-.097-3.654-1.644-4.64zm-142.149-98.133c50.557 0 93.823 36.661 102.437 85.982-16.628-.285-31.999 4.811-44.396 11.047-1.833-5.728-4.944-10.059-5.186-10.386-1.008-1.371-2.777-1.959-4.395-1.455-13.902 4.266-15.488 13.582-16.434 19.146l-.234 1.332c-.008.051-.016.1-.027.148-2.984-1.193-6.133-1.814-9.277-1.814h-8.977c-2.82 0-5.602.488-8.305 1.457l-.195-1.123c-.945-5.564-2.531-14.881-16.434-19.146-1.629-.504-3.391.084-4.395 1.455-.24.325-3.308 4.598-5.145 10.266-21.568-10.923-52.084-18.57-82.735-.459 3.887-53.831 48.893-96.45 103.698-96.45zm50.254 109.416c-2.469 4.414-6.496 6.459-9.438 7.398-1.09.348-1.98 1.145-2.441 2.189-.465 1.047-.457 2.24.016 3.281 1.066 2.34 1.609 4.771 1.609 7.227v13.377l-8.055.113c-2.188.031-3.945 1.812-3.945 4v.998c0 4.412-3.59 8-8 8h-4c-4.41 0-8-3.588-8-8 0-2.209-1.789-4-4-4h-8v-14.487c0-2.518.586-5.031 1.746-7.473.484-1.018.516-2.193.086-3.234-.43-1.043-1.277-1.857-2.336-2.242-3.922-1.42-6.852-3.824-8.715-7.148-2.641-4.719-.012-11.475 2.273-15.541 6.555 2.893 7.293 7.234 8.07 11.803l.254 1.459c.426 2.285 1.406 4.344 2.91 6.117 1.223 1.443 3.289 1.832 4.953.932 2.68-1.449 5.461-2.184 8.27-2.184h8.977c3.074 0 6.055.842 8.855 2.5 1.613.957 3.664.67 4.949-.695 1.754-1.857 2.887-4.102 3.367-6.668l.254-1.461c.777-4.568 1.516-8.91 8.07-11.803 2.291 4.068 4.92 10.823 2.271 15.542zm-115.792 13.57c-5.226-15.282-16.436-21.549-25.474-24.08 25.122-10.603 49.661-3.546 67.396 5.635-11.821 1.271-30.927 5.395-41.922 18.445zm44.863-10.69c.162.343.29.69.479 1.029.684 1.224 1.507 2.342 2.391 3.408-5.735 6.572-13.417 17.168-18.178 30.892-1.114-2.567-2.513-4.956-4.345-7.069-6.041-6.963-14.531-9.665-20.362-10.734 9.676-13.313 30.564-16.691 40.015-17.526zm8.973 9.633c.257.153.489.336.753.481-.699 2.33-1.051 4.707-1.051 7.102v23.21c-7.709.418-13.868 2.429-18.482 4.711 3.788-16.091 12.547-28.39 18.78-35.504zm7.702 30.071h4.508c1.777 6.893 8.051 12 15.492 12h4c7.816 0 14.34-5.631 15.727-13.051l4.273-.059v17.77c0 4.047-3.293 7.34-7.34 7.34h-29.32c-4.047 0-7.34-3.293-7.34-7.34zm51.098-29.121c.284-.141.576-.341.863-.497 6.022 6.875 14.614 18.782 18.557 34.395-4.663-2.221-10.809-4.12-18.518-4.378v-22.887c0-2.242-.301-4.461-.902-6.633zm25.168 25.251c-4.73-13.645-12.348-24.197-18.012-30.727 1.073-1.196 2.1-2.503 2.981-4.077.097-.173.155-.351.245-.524 10.27.945 29.727 4.431 39.2 17.052-5.765 1.112-13.916 3.822-19.761 10.559-1.991 2.294-3.518 4.885-4.653 7.717zm-72.266 59.87c-56.942 0-103.317-46.003-103.969-102.792.09-.001.172.031.262.024 1.168-.07 28.223-1.639 32.516 28.443.281 1.963 1.969 3.424 3.949 3.434.137 0 13.52.168 20.902 8.723 4.309 4.994 5.844 12.068 4.562 21.027-.246 1.74.676 3.43 2.27 4.178.539.254 1.117.377 1.691.377 1.109 0 2.199-.461 2.98-1.32.33-.363 7.893-8.312 22.836-9.288v7.855c0 8.459 6.883 15.34 15.34 15.34h29.32c8.457 0 15.34-6.881 15.34-15.34v-8.281c15.358.587 23.136 8.964 23.461 9.32.777.879 1.879 1.35 2.996 1.35.566 0 1.141-.121 1.68-.369 1.602-.742 2.531-2.447 2.281-4.195-1.266-8.861.254-15.857 4.512-20.795 4.389-5.086 10.91-7.164 15.451-8.021-14.101 41.568-53.137 70.33-98.38 70.33zm101.755-84.586c-11.074-13.043-30.318-17.13-41.751-18.388 17.546-9.168 41.974-16.363 67.016-5.84-9.012 2.548-20.162 8.867-25.265 24.228z"/><circle cx="146" cy="190.828" r="4"/><circle cx="158" cy="190.828" r="4"/><path d="m161.446 173.068-4.977 2.064c-2.043.848-3.012 3.188-2.164 5.229.641 1.539 2.129 2.469 3.695 2.469.512 0 1.031-.1 1.531-.307l4.977-2.064c2.043-.848 3.012-3.188 2.164-5.229-.851-2.041-3.191-3-5.226-2.162z"/><path d="m145.981 182.83c1.566 0 3.055-.93 3.695-2.469.848-2.041-.121-4.381-2.164-5.229l-4.977-2.064c-2.027-.84-4.379.121-5.227 2.162s.121 4.381 2.164 5.229l4.977 2.064c.5.207 1.02.307 1.532.307z"/><path d="m55.949 128.029c1.609.885 3.613.568 4.863-.777.297-.32 7.398-7.766 16.555-.301 1.523 1.246 3.754 1.18 5.223-.143.039-.035 3.832-3.432 7.934-2.953 2.301.271 4.453 1.84 6.391 4.66.75 1.086 1.988 1.723 3.301 1.723.031 0 .059 0 .09-.002 1.348-.029 2.594-.744 3.309-1.887 1.082-1.723 6.973-10.012 16.719-4.066 1.52.93 3.477.738 4.793-.473 1.312-1.211 1.664-3.145.863-4.74-5.145-10.215 3.602-15.396 5.391-16.322 1.207-.609 2.027-1.791 2.176-3.139.148-1.346-.398-2.678-1.449-3.533-2.652-2.164-4.043-4.436-4.125-6.752-.148-4.09 3.551-7.631 3.57-7.65 1.465-1.35 1.711-3.57.582-5.209-6.492-9.432.809-15.801 1.641-16.477 1.441-1.137 1.926-3.109 1.172-4.783s-2.574-2.617-4.355-2.295c-18.266 3.287-27.879 15.988-31.422 28.648-3.668-1.41-7.977-.725-11.047 2.109-3.074 2.836-4.102 7.076-3 10.842-12.906 2.506-26.344 11.059-31.105 28.992-.472 1.774.325 3.642 1.93 4.528zm36.231-26.304c1.559-.061 2.941-1.021 3.543-2.463.598-1.441.305-3.1-.754-4.248l-1.578-1.709c-.992-1.078-.926-2.762.152-3.754 1.074-.996 2.758-.928 3.754.154l1.578 1.711c1.062 1.148 2.707 1.574 4.172 1.092 1.488-.48 2.555-1.781 2.742-3.332.555-4.662 3.281-18.205 16.254-25.045-1.09 4.057-.93 8.906 1.859 14.17-1.828 2.422-4.066 6.398-3.922 11.229.102 3.262 1.254 6.309 3.438 9.096-1.105.963-2.281 2.158-3.352 3.596-2.723 3.648-3.938 7.791-3.629 12.121-6.953-1.125-12.625 2.059-16.316 5.686-2.59-2.381-5.52-3.766-8.746-4.127-.566-.062-1.121-.092-1.668-.092-4.086 0-7.578 1.652-9.84 3.088-5.023-3.205-9.832-3.766-13.973-3.004 7.872-12.371 21.591-13.994 26.286-14.169z"/><path d="m164.61 85.598 1.316-.719c.504-.275 1.766-.869 2.547-.469.668.344 1.492 1.584 1.797 4.033.164 1.346 1.012 2.508 2.234 3.1 1.215.592 2.664.52 3.824-.184 1.195-.717 2.23-.953 2.836-.66.648.314 1.516 1.562 1.863 4.387l3.973-.471 3.926-.857c-.613-4.951-2.844-8.594-6.27-10.258-1.746-.846-3.664-1.113-5.691-.781-1.07-2.469-2.719-4.336-4.836-5.424-2.992-1.537-6.555-1.336-10.035.559l-1.32.721c-1.938 1.059-2.652 3.488-1.594 5.428 1.059 1.94 3.492 2.651 5.43 1.595z"/><path d="m184.129 109.295c-2.988-1.537-6.555-1.334-10.035.559l-1.32.721c-1.938 1.059-2.652 3.488-1.594 5.428 1.059 1.941 3.492 2.65 5.43 1.596l1.316-.719c.504-.275 1.77-.871 2.547-.469.668.344 1.492 1.584 1.797 4.033.164 1.346 1.012 2.508 2.234 3.1 1.215.592 2.664.52 3.824-.184 1.195-.717 2.23-.953 2.836-.66.648.314 1.516 1.562 1.863 4.387l3.973-.471 3.926-.857c-.613-4.951-2.844-8.594-6.27-10.258-1.746-.844-3.656-1.111-5.691-.781-1.07-2.47-2.719-4.337-4.836-5.425z"/></g></svg>