<svg id="bison" enable-background="new 0 0 300 300" height="512" viewBox="0 0 300 300" width="512" xmlns="http://www.w3.org/2000/svg"><g><path d="m274 70.828c-11.027 0-20 8.973-20 20v2.439c0 3.337-1.258 6.357-3.264 8.722-18.678-38.497-57.673-63.161-100.736-63.161-43.025 0-82.058 24.676-100.736 63.162-2.006-2.365-3.264-5.385-3.264-8.722v-2.439c0-11.027-8.973-20-20-20-2.211 0-4 1.791-4 4v22.34c0 12.462 7.089 25.932 17.956 32.889-1.277 6.809-1.956 13.781-1.956 20.77 0 61.758 50.242 112 112 112s112-50.242 112-112c0-6.981-.679-13.952-1.957-20.771 10.868-6.956 17.957-20.426 17.957-32.889v-22.34c0-2.209-1.789-4-4-4zm-93.978 36c-1.954-1.576-3.971-2.992-6.022-4.298v-7.702c0-2.209-1.789-4-4-4h-2.354c6.382-5.141 14.321-8 22.764-8h38.267c6.052 6.998 11.186 14.882 15.266 23.484-1.124.303-2.283.516-3.502.516zm-22.022 138c0 1.104-.898 2-2 2s-2-.896-2-2v-10h4zm-16 0v-10h4v10c0 1.104-.898 2-2 2s-2-.896-2-2zm18-18h-20c-2.145 0-4.132-.738-5.801-1.94l11.992-3.939c1.211-.256 6.359-.236 7.445-.004l12.254 3.865c-1.688 1.247-3.709 2.018-5.89 2.018zm-30 4.936c1.242.832 2.583 1.499 4 2v7.065c0 1.104-.898 2-2 2s-2-.896-2-2zm36 1.996c1.417-.501 2.757-1.171 4-2.004v9.073c0 1.104-.898 2-2 2s-2-.896-2-2zm-9.957-20.444c-2.207-.697-9.738-.736-12.137-.029l-22.891 7.514c-1.23.357-2.438.107-3.598-.756-2.109-1.576-3.418-4.682-3.418-8.102v-6.08c0-14.641 10.602-25.814 20.5-27.066 2-.254 3.5-1.953 3.5-3.969v-26.978c0-13.101-10.127-23.862-22.961-24.917 3.951-4.707 8.372-8.908 13.06-12.22 2.116 3.716 5.664 6.515 9.901 7.61v.506 2c0 5.514 4.484 10 10 10h4c5.516 0 10-4.486 10-10v-2-.506c4.236-1.094 7.783-3.893 9.899-7.607 4.692 3.313 9.115 7.511 13.068 12.217-12.836 1.052-22.966 11.814-22.966 24.917v26.979c0 2.016 1.5 3.715 3.5 3.969 9.898 1.252 20.5 12.426 20.5 27.066v5.832c0 3.451-1.328 6.568-3.461 8.133-1.172.857-2.395 1.088-3.629.701zm-46.861-82.488h3.795c9.387 0 17.023 7.637 17.023 17.021v23.707c-6.933 1.889-13.055 6.662-17.387 13.014-9.781-4.636-14.613-11.75-14.613-21.742 0-9.933 4.372-21.605 11.182-32zm52.818-32h4v4c0 2.948-1.621 5.499-4 6.887zm-8 16v4 2c0 1.104-.898 2-2 2h-4c-1.102 0-2-.896-2-2v-2-4-16h8zm-16-5.113c-2.379-1.388-4-3.939-4-6.887v-4h4zm32 61.842v-23.707c0-9.385 7.637-17.021 17.023-17.021h3.804c6.806 10.389 11.172 22.053 11.172 32 0 9.995-4.833 17.104-14.615 21.74-4.331-6.352-10.452-11.123-17.384-13.012zm-20-124.729c26.875 0 52.03 10.375 70.93 28h-30.52c-13.312 0-25.577 5.84-34.045 16h-26.365c-2.211 0-4 1.791-4 4v7.699c-2.053 1.307-4.074 2.722-6.031 4.301h-60.41c-1.219 0-2.378-.214-3.502-.517 17.182-36.216 53.68-59.483 93.943-59.483zm-120 50.34v-17.654c4.656 1.65 8 6.1 8 11.314v2.439c0 11.889 9.672 21.561 21.559 21.561h10.441v4c0 2.209 1.789 4 4 4s4-1.791 4-4v-4h4v4c0 2.209 1.789 4 4 4s4-1.791 4-4v-4h4v4c0 2.209 1.789 4 4 4s4-1.791 4-4v-4h9.515c-3.409 3.704-6.53 7.748-9.282 12h-46.573c-14.453 0-25.66-15.943-25.66-29.66zm16 53.66c0-5.809.507-11.602 1.456-17.286 2.613.803 5.346 1.286 8.204 1.286h41.962c-4.762 9.365-7.622 19.178-7.622 28 0 12.934 6.537 22.783 18.825 28.771-1.807 4.426-2.825 9.275-2.825 14.264v6.08c0 5.982 2.477 11.406 6.629 14.51 2.207 1.648 4.691 2.5 7.27 2.5.695 0 1.397-.083 2.102-.208v12.083c0 5.514 4.484 10 10 10 1.259 0 2.452-.259 3.562-.685 1.324 2.094 3.398 3.64 5.848 4.302-53.342-4.386-95.411-49.166-95.411-103.617zm99.203 103.879c1.79-.218 3.427-.891 4.797-1.929 1.371 1.038 3.007 1.71 4.797 1.929-1.591.073-3.188.122-4.797.122s-3.206-.05-4.797-.122zm108.797-103.879c0 54.451-42.069 99.231-95.41 103.617 2.449-.662 4.524-2.208 5.848-4.302 1.11.426 2.303.685 3.562.685 5.516 0 10-4.486 10-10v-12.385c3.216.583 6.46-.106 9.27-2.162 4.215-3.092 6.73-8.543 6.73-14.586v-5.832c0-4.99-1.018-9.841-2.826-14.267 12.283-5.982 18.826-15.837 18.826-28.768 0-8.832-2.857-18.641-7.615-28h41.955c2.858 0 5.591-.483 8.204-1.286.951 5.691 1.456 11.484 1.456 17.286zm16-53.66c0 13.717-11.207 29.66-25.66 29.66h-46.565c-2.752-4.252-5.875-8.295-9.287-12h9.512v4c0 2.209 1.789 4 4 4s4-1.791 4-4v-4h4v4c0 2.209 1.789 4 4 4s4-1.791 4-4v-4h4v4c0 2.209 1.789 4 4 4s4-1.791 4-4v-4h10.441c11.887 0 21.559-9.672 21.559-21.561v-2.439c0-5.215 3.344-9.664 8-11.314z"/><path d="m72 49.358c2.502 0 4.53-2.028 4.53-4.53s-2.028-4.53-4.53-4.53c-2.501 0-4.529 2.028-4.529 4.53s2.028 4.53 4.529 4.53z"/><path d="m256 228.299c-2.501 0-4.529 2.028-4.529 4.53 0 2.501 2.028 4.53 4.529 4.53 2.502 0 4.53-2.028 4.53-4.53 0-2.503-2.028-4.53-4.53-4.53z"/><path d="m241.516 55.312c.781.781 1.805 1.172 2.828 1.172s2.047-.391 2.828-1.172l2.828-2.828 2.828 2.828c.781.781 1.805 1.172 2.828 1.172s2.047-.391 2.828-1.172c1.562-1.562 1.562-4.094 0-5.656l-2.828-2.828 2.828-2.828c1.562-1.562 1.562-4.094 0-5.656s-4.094-1.562-5.656 0l-2.828 2.828-2.828-2.828c-1.562-1.562-4.094-1.562-5.656 0s-1.562 4.094 0 5.656l2.828 2.828-2.828 2.828c-1.563 1.563-1.563 4.094 0 5.656z"/><path d="m124.211 191.25c-1.961.98-2.746 3.346-1.785 5.316.957 1.975 3.352 2.793 5.324 1.857 1.68-.799 4.785-1.576 6.672 2.193.703 1.402 2.113 2.213 3.582 2.211.602 0 1.211-.135 1.785-.422 1.977-.988 2.777-3.391 1.789-5.367-4.25-8.489-12.703-8.112-17.367-5.788z"/><path d="m175.789 191.25c-4.66-2.33-13.117-2.707-17.367 5.789-.988 1.977-.188 4.379 1.789 5.367.574.287 1.184.422 1.785.422 1.469 0 2.879-.809 3.582-2.211 1.883-3.77 4.988-2.992 6.664-2.195 1.973.963 4.352.16 5.336-1.805.988-1.976.188-4.379-1.789-5.367z"/><circle cx="122" cy="158.828" r="4"/><circle cx="178" cy="158.828" r="4"/></g></svg>