<svg id="crocodile-aligator" enable-background="new 0 0 300 300" height="512" viewBox="0 0 300 300" width="512" xmlns="http://www.w3.org/2000/svg"><g><path d="m148.735 38.828c-61.758 0-112 50.242-112 112s50.242 112 112 112 112-50.242 112-112-50.242-112-112-112zm48.83 20.211 11.018 28.157-6.464 32.317c-.391-.32-.782-.64-1.188-.954-2.378-10.539-6.674-21.731-14.196-21.731-7.476 0-13.075.028-18.926 7.816-11.195-2.087-23.251-2.287-34.592-.591-5.692-7.212-11.195-7.225-18.482-7.225-6.729 0-10.87 8.958-13.373 18.391-2.163 1.356-4.157 2.805-6.005 4.326l-6.47-32.35 11.018-28.157c14.57-7.782 31.19-12.21 48.83-12.21s34.26 4.428 48.83 12.211zm18.276 99.789c7.109 0 12.895 5.785 12.895 12.895v7.105h-33.218c.031-.02.055-.047.087-.066 9.026-5.527 15.297-12.384 18.549-19.934zm-159.106-8v-7.105c0-7.109 5.785-12.895 12.895-12.895h15.808c-3.019 5.051-4.702 10.46-4.702 16 0 1.347.127 2.678.307 4zm32-4c0-7.198 3.588-14.096 10.257-19.996-.074.481-.151.971-.216 1.43-.312 2.188 1.205 4.211 3.393 4.527.191.027.383.039.572.039 1.957 0 3.668-1.438 3.953-3.434 1.67-11.648 5.652-23.602 8.041-24.566 7.709 0 9.781 0 13.977 6.715 5.77 9.246 11.508 12.477 12.145 12.816 1.938 1.027 4.318.301 5.371-1.625 1.051-1.926.338-4.348-1.576-5.418-.035-.019-2.787-1.627-6.196-5.857 8.022-.84 16.277-.678 24.203.463-3.2 3.854-5.734 5.336-5.837 5.395-1.924 1.047-2.648 3.453-1.617 5.391 1.035 1.949 3.461 2.684 5.41 1.652.637-.34 6.375-3.57 12.145-12.816 4.195-6.715 6.268-6.715 13.822-6.738 2.543.988 6.525 12.941 8.195 24.59.285 1.996 1.996 3.434 3.953 3.434.189 0 .381-.012.572-.039 1.302-.188 2.305-1.015 2.888-2.087 4.236 5.003 6.545 10.526 6.545 16.126 0 9.359-6.146 18.277-17.309 25.113-4.799 2.938-7.988 7.691-8.754 13.043l-1.23 8.617c-.309 2.156-1.324 4.188-2.863 5.727l-5.246 5.246c-2.834 2.832-4.67 6.582-5.168 10.566l-2.572 20.582c-.223 1.77-1.732 3.105-3.516 3.105h-26.684c-1.783 0-3.293-1.336-3.516-3.105l-2.572-20.582c-.498-3.984-2.334-7.734-5.168-10.566l-5.246-5.246c-1.539-1.539-2.555-3.57-2.863-5.727l-1.23-8.617c-.766-5.352-3.955-10.105-8.752-13.043-11.164-6.838-17.311-15.755-17.311-25.115zm60 108c-57.346 0-104-46.652-104-104 0-34.932 17.329-65.872 43.822-84.741l-7.546 19.284c-.279.711-.348 1.492-.197 2.242l7.043 35.215h-18.227c-11.521 0-20.895 9.375-20.895 20.895v11.105 8c0 2.211 1.791 4 4 4s4-1.789 4-4v-4h4v4c0 2.211 1.791 4 4 4s4-1.789 4-4v-4h4v4c0 2.211 1.791 4 4 4s4-1.789 4-4v-4h2.582c3.252 7.55 9.523 14.407 18.551 19.934 2.758 1.691 4.584 4.371 5.012 7.355l1.23 8.617c.549 3.855 2.369 7.496 5.125 10.25l5.246 5.246c1.582 1.582 2.607 3.68 2.887 5.902l2.572 20.582c.721 5.766 5.645 10.113 11.453 10.113h26.684c5.809 0 10.732-4.348 11.453-10.113l2.572-20.582c.279-2.223 1.305-4.32 2.887-5.902l5.246-5.246c2.756-2.754 4.576-6.395 5.125-10.25l1.129-7.906h14.246v4c0 2.211 1.791 4 4 4s4-1.789 4-4v-4h4v4c0 2.211 1.791 4 4 4s4-1.789 4-4v-4h4v4c0 2.211 1.791 4 4 4s4-1.789 4-4v-8-11.105c0-11.32-9.065-20.519-20.312-20.836.185-1.341.312-2.691.312-4.059 0-7.247-2.753-14.268-7.815-20.53l7.737-38.685c.15-.75.082-1.531-.197-2.242l-7.546-19.284c26.493 18.869 43.822 49.809 43.822 84.741-.001 57.348-46.655 104-104.001 104z"/><circle cx="70.735" cy="44.828" r="4.529"/><circle cx="258.735" cy="236.828" r="4.529"/><path d="m240.251 55.312c.781.781 1.805 1.172 2.828 1.172s2.047-.391 2.828-1.172l2.828-2.828 2.828 2.828c.781.781 1.805 1.172 2.828 1.172s2.047-.391 2.828-1.172c1.562-1.562 1.562-4.094 0-5.656l-2.828-2.828 2.829-2.828c1.562-1.562 1.562-4.094 0-5.656s-4.094-1.562-5.656 0l-2.828 2.828-2.828-2.828c-1.562-1.562-4.094-1.562-5.656 0s-1.562 4.094 0 5.656l2.828 2.828-2.828 2.828c-1.564 1.563-1.564 4.094-.001 5.656z"/><path d="m116.735 138.828h3.057l7.154 3.578c.574.285 1.186.422 1.785.422 1.469 0 2.881-.809 3.582-2.211.988-1.977.188-4.379-1.789-5.367l-8-4c-.555-.277-1.168-.422-1.789-.422h-4c-2.209 0-4 1.789-4 4s1.791 4 4 4z"/><path d="m168.739 142.828c.6 0 1.211-.137 1.785-.422l7.154-3.578h3.057c2.209 0 4-1.789 4-4s-1.791-4-4-4h-4c-.621 0-1.234.145-1.789.422l-8 4c-1.977.988-2.777 3.391-1.789 5.367.701 1.403 2.114 2.211 3.582 2.211z"/><path d="m126.188 176.949c1.709 1.402 4.225 1.164 5.631-.539 1.848-2.238 8.404-4.617 16.916-4.617s15.068 2.379 16.916 4.617c.791.957 1.934 1.453 3.086 1.453.896 0 1.799-.301 2.545-.914 1.703-1.406 1.943-3.93.537-5.633-3.83-4.641-12.676-7.523-23.084-7.523s-19.254 2.883-23.084 7.523c-1.406 1.704-1.166 4.227.537 5.633z"/><path d="m156.735 182.828h-16c-2.209 0-4 1.789-4 4s1.791 4 4 4h16c2.209 0 4-1.789 4-4s-1.791-4-4-4z"/><path d="m140.735 218.828c-2.209 0-4 1.789-4 4v4c0 2.211 1.791 4 4 4s4-1.789 4-4v-4c0-2.211-1.791-4-4-4z"/><path d="m156.735 218.828c-2.209 0-4 1.789-4 4v4c0 2.211 1.791 4 4 4s4-1.789 4-4v-4c0-2.211-1.791-4-4-4z"/><path d="m134.946 94.406c1.979.988 4.379.188 5.367-1.789l2.895-5.789h11.055l2.895 5.789c.701 1.402 2.113 2.211 3.582 2.211.6 0 1.211-.137 1.785-.422 1.977-.988 2.777-3.391 1.789-5.367l-4-8c-.678-1.355-2.062-2.211-3.578-2.211h-16c-1.516 0-2.9.855-3.578 2.211l-4 8c-.989 1.977-.188 4.379 1.788 5.367z"/><path d="m144.735 74.828h8c2.209 0 4-1.789 4-4s-1.791-4-4-4h-8c-2.209 0-4 1.789-4 4s1.791 4 4 4z"/><path d="m144.735 62.828h8c2.209 0 4-1.789 4-4s-1.791-4-4-4h-8c-2.209 0-4 1.789-4 4s1.791 4 4 4z"/><path d="m156.735 198.828c0-2.211-1.791-4-4-4h-8c-2.209 0-4 1.789-4 4s1.791 4 4 4h8c2.209 0 4-1.789 4-4z"/></g></svg>