<svg id="elephant" enable-background="new 0 0 300 300" height="512" viewBox="0 0 300 300" width="512" xmlns="http://www.w3.org/2000/svg"><g><path d="m241.989 87.428c0-.055.011-.108.011-.163 0-17.645-14.355-32-32-32-.738 0-1.466.044-2.193.093-17.408-10.51-37.36-16.093-57.807-16.093-20.453 0-40.411 5.581-57.817 16.096-.724-.05-1.449-.096-2.183-.096-17.645 0-32 14.355-32 32 0 .055.011.108.011.164-13.072 18.799-20.011 40.831-20.011 63.836 0 37.106 18.089 71.263 48.522 92.222-2.79 3.581-4.522 8.024-4.522 12.907v2.871c0 2.211 1.791 4 4 4h64c61.758 0 112-50.242 112-112 0-23.006-6.938-45.042-20.011-63.837zm12.011 63.837c0 25.221-9.03 48.368-24.018 66.393.001-.127.018-.266.018-.393 0-20.945-8.377-40.401-23.518-55.125 2.256-4.806 3.518-10.146 3.518-15.754v-8.113c9.41-2.771 16-11.298 16-21.384v-1.994c6.417-3.711 11.209-9.376 13.792-16.072 9.299 15.865 14.208 33.81 14.208 52.442zm-88 85.734v-4.454l3.303-4.62c9.914-13.883 15.534-30.016 16.498-46.926 6.627-2.416 12.229-6.562 16.371-11.849 12.766 13.048 19.828 29.958 19.828 48.115 0 2.987-.299 6.216-.817 9.719-16.581 15.597-38.256 25.816-62.239 27.87 4.363-4.691 7.056-10.957 7.056-17.855zm68-149.734c0 6.976-2.969 13.402-8 17.884v-5.884c0-2.211-1.791-4-4-4s-4 1.789-4 4v17.625c0 5.521-3.253 10.438-8 12.824v-2.449c0-19.061-8.962-36.036-22.861-47.034 3.061-9.907 12.353-16.966 22.861-16.966 13.234 0 24 10.765 24 24zm-84-40c16.217 0 32.083 3.806 46.443 10.981-7.336 3.401-13.178 9.52-16.207 17.28-8.891-5.217-19.203-8.261-30.236-8.261-11.034 0-21.347 3.045-30.239 8.263-3.04-7.67-8.955-13.813-16.287-17.247 14.378-7.2 30.278-11.016 46.526-11.016zm-60 16c10.544 0 19.799 7.045 22.859 16.967-13.898 10.998-22.859 27.973-22.859 47.033v2.454c-4.775-2.384-8-7.293-8-12.829v-17.625c0-2.211-1.791-4-4-4s-4 1.789-4 4v5.895c-5.037-4.478-8-10.902-8-17.895 0-13.235 10.766-24 24-24zm24.199 117.729c.963 16.912 6.583 33.047 16.5 46.931l2.994 4.19c-.636 1.822-2.324 3.15-4.359 3.15h-26.205c-3.775 0-7.271 1.076-10.341 2.818-5-3.3-9.671-6.96-13.953-10.967-.533-3.557-.835-6.826-.835-9.851 0-17.916 7.222-35.171 19.837-48.119 4.143 5.286 9.742 9.433 16.362 11.848zm-53.992-82.166c2.581 6.697 7.371 12.355 13.793 16.067v1.995c0 9.925 6.643 18.569 16 21.361v8.135c0 5.609 1.267 10.957 3.532 15.77-14.943 14.575-23.532 34.441-23.532 55.109 0 .167.022.351.024.519-15.356-18.412-24.024-41.764-24.024-66.519 0-18.631 4.91-36.571 14.207-52.437zm29.842 156.437c.574-6.711 6.221-12 13.08-12h10.871v4c0 2.211 1.791 4 4 4s4-1.789 4-4v-4h7.334c3.376 0 6.43-1.348 8.703-3.509l6.174 3.087c.574.285 1.186.422 1.785.422 1.469 0 2.881-.809 3.582-2.211.988-1.977.188-4.379-1.789-5.367l-6-3c.016-.094.015-.192.029-.287.108-.364.182-.741.182-1.135v-.668-11.332h4c2.209 0 4-1.789 4-4s-1.791-4-4-4h-4v-16h4c2.209 0 4-1.789 4-4s-1.791-4-4-4h-4v-16h4c2.209 0 4-1.789 4-4s-1.791-4-4-4h-4v-16h4c2.209 0 4-1.789 4-4s-1.791-4-4-4h-4v-12c0-2.211-1.791-4-4-4s-4 1.789-4 4v91.172c-7.869-12.828-12-27.449-12-42.621v-20.551c0-2.211-1.791-4-4-4s-4 1.789-4 4v16.978c-9.725-4.812-16-14.703-16-25.857v-19.121c0-28.672 23.326-52 52-52s52 23.328 52 52v19.121c0 11.174-6.269 21.055-16 25.866v-16.987c0-2.211-1.791-4-4-4s-4 1.789-4 4v20.551c0 15.172-4.133 29.793-12 42.621v-91.172c0-2.211-1.791-4-4-4s-4 1.789-4 4v109.734c0 10.07-8.193 18.266-18.264 18.266z"/><circle cx="64" cy="41.265" r="4.53"/><circle cx="256" cy="233.265" r="4.53"/><path d="m241.516 55.749c.781.781 1.805 1.172 2.828 1.172s2.047-.391 2.828-1.172l2.828-2.828 2.828 2.828c.781.781 1.805 1.172 2.828 1.172s2.047-.391 2.828-1.172c1.562-1.562 1.562-4.094 0-5.656l-2.828-2.828 2.828-2.828c1.562-1.562 1.562-4.094 0-5.656s-4.094-1.562-5.656 0l-2.828 2.828-2.828-2.828c-1.562-1.562-4.094-1.562-5.656 0s-1.562 4.094 0 5.656l2.828 2.828-2.828 2.828c-1.563 1.562-1.563 4.094 0 5.656z"/><circle cx="112" cy="117.265" r="6"/><circle cx="188" cy="117.265" r="6"/></g></svg>