<svg id="fox" enable-background="new 0 0 300 300" height="512" viewBox="0 0 300 300" width="512" xmlns="http://www.w3.org/2000/svg"><g><path d="m150 38.828c-61.758 0-112 50.242-112 112s50.242 112 112 112 112-50.242 112-112-50.242-112-112-112zm-65.402 51.206c6.265 5.366 17.542 16.24 22.878 28.952-3.146 3.75-5.643 7.957-7.436 12.541l-3.507 8.963c-7.131-8.203-16.507-24.508-11.935-50.456zm22.892 44.407c1.732-4.424 4.26-8.424 7.516-11.889 1.027-1.094 1.355-2.674.85-4.088-2.726-7.605-7.292-14.563-12.145-20.456 7.888 5.545 14.972 11.738 18.93 15.36 1.176 1.072 2.875 1.355 4.33.701 4.826-2.15 9.912-3.242 15.117-3.242h15.824c5.205 0 10.291 1.092 15.117 3.242 1.453.654 3.154.371 4.33-.701 3.964-3.628 11.038-9.811 18.913-15.35-4.849 5.892-9.401 12.838-12.128 20.445-.506 1.414-.178 2.994.85 4.088 3.256 3.465 5.783 7.465 7.516 11.889l21.714 55.491-26.28-14.6c-.98-.545-2.143-.648-3.209-.299l-19.919 6.64c-1.412-1.554-3.668-2.519-6.269-2.519h-17.094c-2.601 0-4.857.965-6.268 2.519l-19.919-6.64c-1.061-.35-2.227-.246-3.209.299l-26.28 14.6zm96.278 6.821-3.809-9.734c-1.793-4.584-4.289-8.791-7.436-12.541 5.32-12.687 16.514-23.512 22.889-28.967 4.789 26.584-4.466 42.984-11.644 51.242zm-57.94 49.566c-.182 0-.336-.018-.453-.041l-2.143-3.633h13.535l-2.143 3.633c-.117.023-.271.041-.453.041zm-31.424-7.648 21.404 7.135 3 5.088c1.244 2.113 3.934 3.426 7.02 3.426h.172v8c0 2.209 1.791 4 4 4s4-1.791 4-4v-8h.172c3.086 0 5.775-1.312 7.018-3.424l3.002-5.089 21.405-7.135 26.02 14.455-10.34 2.955c-6.127 1.75-11.75 5.057-16.262 9.566-5.592 5.592-13.025 8.672-20.934 8.672h-28.16c-7.908 0-15.342-3.08-20.934-8.674-4.512-4.508-10.135-7.814-16.26-9.564l-10.342-2.955zm-.404 49.648c0-4.085.623-8.051 1.808-11.854 5.963 3.793 12.874 5.854 20.112 5.854h14.08 14.08c7.237 0 14.145-2.059 20.107-5.85 1.185 3.801 1.813 7.764 1.813 11.85 0 5.865-1.352 11.65-3.813 16.877-2.392.781-4.82 1.479-7.284 2.087-.527-13.854-11.479-24.965-24.903-24.965s-24.375 11.111-24.903 24.965c-2.464-.608-4.892-1.307-7.284-2.087-2.461-5.227-3.813-11.012-3.813-16.877zm19.103 20.606c-.007-.196-.056-.412-.056-.606 0-9.926 7.605-18 16.953-18s16.953 8.074 16.953 18c0 .194-.049.41-.056.606-5.503.903-11.143 1.394-16.897 1.394s-11.395-.491-16.897-1.394zm59.011-7.549c1.198-4.231 1.886-8.621 1.886-13.057 0-5.946-1.124-11.676-3.217-17.113 3.532-3.497 7.914-6.071 12.69-7.434l19.627-5.607c1.082-.309 1.984-1.061 2.484-2.07s.551-2.184.141-3.232l-18.723-47.847c8.857-8.773 24.237-30.234 14.879-67.667-.518-2.07-2.555-3.371-4.666-2.951-14.723 2.943-32.799 17.389-43.369 26.852-5.123-1.945-10.471-2.93-15.934-2.93h-15.824c-5.463 0-10.811.984-15.934 2.93-10.492-9.393-28.447-23.744-43.35-26.848-2.09-.434-4.166.867-4.686 2.947-9.183 36.736 6.448 58.221 15.181 66.896l-19.025 48.618c-.41 1.049-.359 2.223.141 3.232s1.402 1.762 2.484 2.07l19.629 5.607c4.774 1.363 9.156 3.937 12.688 7.432-2.094 5.439-3.217 11.172-3.217 17.115 0 4.437.688 8.826 1.886 13.057-36.416-16.197-61.885-52.698-61.885-95.057 0-57.346 46.654-104 104-104s104 46.654 104 104c0 42.359-25.469 78.86-61.886 95.057z"/><circle cx="72" cy="44.828" r="4.53"/><circle cx="256" cy="232.828" r="4.53"/><path d="m241.516 55.312c.781.781 1.805 1.172 2.828 1.172s2.047-.391 2.828-1.172l2.828-2.828 2.828 2.828c.781.781 1.805 1.172 2.828 1.172s2.047-.391 2.828-1.172c1.562-1.562 1.562-4.094 0-5.656l-2.828-2.828 2.828-2.828c1.562-1.562 1.562-4.094 0-5.656s-4.094-1.562-5.656 0l-2.828 2.828-2.828-2.828c-1.562-1.562-4.094-1.562-5.656 0s-1.562 4.094 0 5.656l2.828 2.828-2.828 2.828c-1.563 1.563-1.563 4.094 0 5.656z"/><circle cx="124" cy="160.828" r="6"/><circle cx="176" cy="160.828" r="6"/></g></svg>