<svg id="german-sheperd-dog" enable-background="new 0 0 300 300" height="512" viewBox="0 0 300 300" width="512" xmlns="http://www.w3.org/2000/svg"><g><path d="m150 38.828c-61.758 0-112 50.242-112 112s50.242 112 112 112 112-50.242 112-112-50.242-112-112-112zm-52 202.008v-54.008c0-20.234 19.826-23.91 20.658-24.055 1.928-.32 3.342-1.99 3.342-3.945v-8c0-6.617 5.383-12 12-12s12 5.383 12 12c0 2.209 1.791 4 4 4s4-1.791 4-4c0-6.617 5.383-12 12-12s12 5.383 12 12v8c0 1.955 1.414 3.625 3.342 3.945.844.141 20.658 3.678 20.658 24.055v54.008c-15.31 8.879-33.064 13.992-52 13.992s-36.69-5.112-52-13.992zm8.736-116.893c-3.033-6.396-5.438-14.908-3.086-19.611 2.561-5.119 7.357-14.354 10.693-20.744 1.514 2.428 3.527 5.092 6.104 7.43 2.781 2.523 5.051 8.082 6.068 14.869.174 1.158.846 2.182 1.84 2.801.996.619 2.215.773 3.326.418 4.754-1.512 9.686-2.277 14.658-2.277h7.32c5.029 0 10.033.793 14.871 2.357 1.119.357 2.34.211 3.342-.408.998-.621 1.674-1.65 1.846-2.814 1.006-6.818 3.277-12.404 6.078-14.945 2.576-2.338 4.59-5.002 6.104-7.43 3.336 6.391 8.133 15.625 10.693 20.744 2.381 4.762-.078 13.348-3.174 19.793-.617 1.283-.504 2.797.293 3.975 5.422 8.006 8.287 17.365 8.287 27.068v10.277c-4.83-5.245-10.99-8.334-16-9.791v-4.826c0-11.027-8.973-20-20-20-6.535 0-12.348 3.15-16 8.012-3.652-4.861-9.465-8.012-16-8.012-11.027 0-20 8.973-20 20v4.826c-5.01 1.457-11.17 4.546-16 9.791v-10.277c0-9.773 2.912-19.195 8.424-27.252.806-1.175.925-2.687.313-3.974zm103.264 111.752v-80.527c0-10.547-2.906-20.748-8.426-29.646 2.568-5.928 6.148-16.82 2.176-24.768-4.195-8.389-14.305-27.646-14.406-27.84-.742-1.416-2.27-2.256-3.854-2.123-1.594.123-2.963 1.189-3.477 2.703-.023.068-2.381 6.869-7.592 11.598-4.322 3.922-6.594 10.209-7.775 15.264-4.264-1.014-8.615-1.527-12.986-1.527h-7.32c-4.303 0-8.576.492-12.76 1.465-1.184-5.033-3.455-11.297-7.758-15.201-5.211-4.729-7.568-11.529-7.588-11.588-.508-1.52-1.875-2.59-3.473-2.717-1.57-.148-3.117.709-3.861 2.127-.102.193-10.211 19.451-14.406 27.84-3.928 7.857-.436 18.656 2.082 24.547-5.617 8.958-8.576 19.235-8.576 29.866v80.527c-26.594-18.857-44-49.858-44-84.867 0-57.346 46.654-104 104-104s104 46.654 104 104c0 35.009-17.406 66.01-44 84.867z"/><circle cx="72" cy="44.828" r="4.53"/><circle cx="256" cy="232.828" r="4.53"/><path d="m241.516 55.312c.781.781 1.805 1.172 2.828 1.172s2.047-.391 2.828-1.172l2.828-2.828 2.828 2.828c.781.781 1.805 1.172 2.828 1.172s2.047-.391 2.828-1.172c1.562-1.562 1.562-4.094 0-5.656l-2.828-2.828 2.828-2.828c1.562-1.562 1.562-4.094 0-5.656s-4.094-1.562-5.656 0l-2.828 2.828-2.828-2.828c-1.562-1.562-4.094-1.562-5.656 0s-1.562 4.094 0 5.656l2.828 2.828-2.828 2.828c-1.563 1.563-1.563 4.094 0 5.656z"/><path d="m178.971 174.947c-2.139-.541-4.314.768-4.852 2.91l-1.609 6.439c-.836 3.348-4.141 5.508-7.561 4.949l-10.949-1.847v-4.57c0-.048-.026-.088-.027-.135 1.168-.181 2.414-.594 3.354-1.535l2.543-2.543c1.145-1.145 1.58-3.193.961-4.688-.816-1.971-2.953-3.1-5.865-3.1h-9.93c-2.912 0-5.049 1.129-5.865 3.1-.619 1.494-.184 3.543.961 4.688l2.543 2.543c.94.941 2.185 1.354 3.354 1.535-.002.048-.027.087-.027.135v4.61l-11.689 1.948c-3.236.541-6.359-1.326-7.404-4.449l-2.535-7.574c-.703-2.094-2.965-3.225-5.062-2.523-2.096.701-3.225 2.967-2.523 5.062l2.535 7.574c2.035 6.078 7.637 10.006 13.85 10.006.274 0 .554-.054.83-.069v9.415c0 8.822 7.178 16 16 16s16-7.178 16-16v-9.527c6.606.012 12.621-4.479 14.271-11.063l1.609-6.439c.532-2.145-.771-4.317-2.913-4.852zm-28.971 39.881c-4.412 0-8-3.588-8-8v-10.613l4-.667v11.279c0 2.209 1.791 4 4 4s4-1.791 4-4v-11.317l4 .675v10.643c0 4.412-3.588 8-8 8z"/><circle cx="134" cy="150.828" r="4"/><circle cx="166" cy="150.828" r="4"/><path d="m114.004 118.828c.6 0 1.211-.135 1.785-.422 1.977-.988 2.777-3.391 1.789-5.367-.973-1.945-2.055-6.076-.75-7.383 1.562-1.562 1.562-4.094 0-5.656s-4.094-1.562-5.656 0c-5.869 5.869-1.291 15.535-.75 16.617.701 1.403 2.113 2.211 3.582 2.211z"/><path d="m182.914 113.051c-.979 1.973-.178 4.369 1.795 5.355.574.287 1.186.422 1.785.422 1.469 0 2.881-.809 3.582-2.211.541-1.082 5.119-10.748-.75-16.617-1.562-1.562-4.094-1.562-5.656 0s-1.562 4.094 0 5.656c1.346 1.346.152 5.545-.756 7.395z"/><path d="m118 218.828c0-2.191-1.762-3.949-3.953-3.975-2.125-.012-3.994 1.74-4.047 3.93-.006.23-.199 5.672-5.789 8.467-1.977.988-2.777 3.391-1.789 5.367.701 1.402 2.113 2.211 3.582 2.211.6 0 1.211-.135 1.785-.422 10.096-5.049 10.211-15.15 10.211-15.578z"/><path d="m126.65 222.045c-2.117-.646-4.348.545-4.99 2.662-1.387 4.555-4.564 8.102-9.449 10.543-1.977.988-2.777 3.391-1.789 5.367.701 1.402 2.113 2.211 3.582 2.211.6 0 1.211-.135 1.785-.422 6.826-3.414 11.504-8.729 13.523-15.371.645-2.113-.548-4.347-2.662-4.99z"/><path d="m185.057 218.953c-2.137.521-3.449 2.682-2.943 4.82.01.043.975 4.238-.453 8.934-.645 2.113.549 4.348 2.662 4.99.389.119.779.176 1.166.176 1.715 0 3.301-1.111 3.824-2.838 2.096-6.887.631-12.924.568-13.176-.533-2.134-2.684-3.416-4.824-2.906z"/><path d="m234 154.828h-12c-2.209 0-4 1.791-4 4s1.791 4 4 4h12c2.209 0 4-1.791 4-4s-1.791-4-4-4z"/><path d="m222 150.828c1.023 0 2.047-.391 2.828-1.172l4-4c1.562-1.562 1.562-4.094 0-5.656s-4.094-1.562-5.656 0l-4 4c-1.562 1.562-1.562 4.094 0 5.656.781.782 1.805 1.172 2.828 1.172z"/><path d="m224.828 168c-1.562-1.562-4.094-1.562-5.656 0s-1.562 4.094 0 5.656l4 4c.781.781 1.805 1.172 2.828 1.172s2.047-.391 2.828-1.172c1.562-1.562 1.562-4.094 0-5.656z"/><path d="m78 154.828h-12c-2.209 0-4 1.791-4 4s1.791 4 4 4h12c2.209 0 4-1.791 4-4s-1.791-4-4-4z"/><path d="m76.828 140c-1.562-1.562-4.094-1.562-5.656 0s-1.562 4.094 0 5.656l4 4c.781.781 1.805 1.172 2.828 1.172s2.047-.391 2.828-1.172c1.562-1.562 1.562-4.094 0-5.656z"/><path d="m75.172 168-4 4c-1.562 1.562-1.562 4.094 0 5.656.781.781 1.805 1.172 2.828 1.172s2.047-.391 2.828-1.172l4-4c1.562-1.562 1.562-4.094 0-5.656s-4.094-1.562-5.656 0z"/></g></svg>