<svg id="hawk-eagle" enable-background="new 0 0 300 300" height="512" viewBox="0 0 300 300" width="512" xmlns="http://www.w3.org/2000/svg"><g><path d="m150 38.828c-61.758 0-112 50.242-112 112s50.242 112 112 112 112-50.242 112-112-50.242-112-112-112zm85.355 98.227-17.89-4.257c1.248-.837 2.544-1.675 3.902-2.51l-.087.474 9.923 1.814c1.587 1.539 2.99 3.059 4.152 4.479zm-85.355 77.523c-3.996-12.02-8-25.574-8-30.234 0-6.137 2.84-9.516 8-9.516s8 3.379 8 9.516c0 4.66-4.004 18.215-8 30.234zm13.422-16.568 8.789 4.396c.574.285 1.184.422 1.785.422 1.469 0 2.879-.809 3.582-2.211.988-1.977.188-4.379-1.789-5.367l-10.493-5.248c.431-2.247.704-4.215.704-5.658 0-12.102-8.035-17.516-16-17.516s-16 5.414-16 17.516c0 1.443.273 3.411.704 5.658l-10.493 5.248c-1.977.988-2.777 3.391-1.789 5.367.703 1.402 2.113 2.211 3.582 2.211.602 0 1.211-.137 1.785-.422l8.789-4.396c1.472 5.501 3.359 11.554 5.083 16.818h-8.669c-21.5 0-38.992-17.492-38.992-38.992v-8.074c0-11.543 9.391-20.934 20.934-20.934 2.211 0 4-1.789 4-4s-1.789-4-4-4c-7.133 0-12.934-5.801-12.934-12.934 0-.195-.016-.391-.043-.586l-2.578-17.445 8.223 6.164c.879.66 1.984.926 3.074.742 1.082-.184 2.043-.809 2.652-1.723l4.672-7.008 4.672 7.008c1.484 2.227 5.172 2.227 6.656 0l4.672-7.008 4.672 7.008c1.484 2.227 5.172 2.227 6.656 0l4.672-7.008 4.672 7.008c1.484 2.227 5.172 2.227 6.656 0l4.672-7.008 4.672 7.008c1.484 2.227 5.172 2.227 6.656 0l4.672-7.008 4.672 7.008c.609.914 1.57 1.539 2.652 1.723 1.082.188 2.195-.082 3.074-.742l8.223-6.164-2.578 17.445c-.027.195-.043.391-.043.586 0 7.133-5.801 12.934-12.934 12.934-2.211 0-4 1.789-4 4s1.789 4 4 4c11.543 0 20.934 9.391 20.934 20.934v8.074c0 21.5-17.492 38.992-38.992 38.992h-8.669c1.724-5.263 3.611-11.317 5.083-16.818zm-106.44-93.618c19.182 8.405 31.269 18.27 37.171 23.939.144 1.232.412 2.423.761 3.581-9.29-7.387-22.653-15.695-40.648-21.705.84-1.974 1.759-3.905 2.716-5.815zm11.267 20.148-19.728 3.606c.794-3.555 1.771-7.04 2.92-10.448 6.176 2.047 11.772 4.371 16.808 6.842zm.521 8.035 9.918-1.813-.1-.546c1.39.854 2.717 1.711 3.991 2.566l-17.981 4.277c1.162-1.414 2.576-2.938 4.172-4.484zm137.076-4.23c5.878-5.63 17.995-15.507 37.188-23.922.956 1.909 1.873 3.84 2.713 5.813-18.003 6.022-31.38 14.34-40.677 21.728.356-1.169.63-2.373.776-3.619zm25.961-3.789c5.025-2.465 10.606-4.784 16.762-6.828 1.145 3.401 2.12 6.877 2.912 10.424zm-26.837-61.956c-17.912-1.588-38.463-.65-54.916 7.724-16.486-8.392-37.092-9.315-55.046-7.711 15.966-9.988 34.81-15.785 54.991-15.785 20.174 0 39.01 5.792 54.971 15.772zm-123.116 9.765c19.753-3.283 46.846-4.791 66.205 5.959.594.332 1.367.504 2.047.504s1.348-.172 1.941-.504c19.323-10.73 46.355-9.246 66.073-5.983 8.26 7.178 15.39 15.619 21.059 25.044-14.113 6.266-24.604 13.278-31.729 18.985l2.507-16.956c.238-1.605-.52-3.195-1.91-4.023-1.391-.82-3.148-.734-4.445.238l-12.617 9.461-5.656-8.48c-1.484-2.227-5.172-2.227-6.656 0l-4.673 7.007-4.672-7.008c-1.484-2.227-5.172-2.227-6.656 0l-4.672 7.008-4.672-7.008c-1.484-2.227-5.172-2.227-6.656 0l-4.672 7.008-4.672-7.008c-1.484-2.227-5.172-2.227-6.656 0l-4.672 7.008-4.672-7.008c-1.484-2.227-5.172-2.227-6.656 0l-5.656 8.48-12.617-9.461c-1.301-.977-3.059-1.062-4.445-.238-1.391.828-2.148 2.418-1.91 4.023l2.502 16.924c-7.128-5.719-17.604-12.722-31.709-18.979 5.66-9.403 12.775-17.827 21.017-24.993zm68.146 182.463c-57.348 0-104-46.652-104-104 0-4.845.359-9.605 1.004-14.275l9.205-1.682c-2.75 3.803-4.057 6.559-4.143 6.747-.637 1.391-.426 3.023.543 4.207.773.938 1.914 1.461 3.094 1.461.309 0 .617-.035.926-.109l34.365-8.174c2.502 2.041 4.656 3.987 6.486 5.761-6.952 5.288-11.48 13.608-11.48 22.998v8.074c0 25.91 21.082 46.992 46.992 46.992h11.362c.92 2.666 1.62 4.628 1.88 5.355.574 1.586 2.078 2.645 3.766 2.645s3.191-1.059 3.766-2.645c.261-.727.96-2.689 1.88-5.355h11.362c25.91 0 46.992-21.082 46.992-46.992v-8.074c0-9.381-4.52-17.693-11.461-22.982 1.835-1.776 3.995-3.723 6.503-5.764l34.298 8.161c.309.074.617.109.926.109 1.18 0 2.32-.523 3.094-1.461.969-1.184 1.18-2.816.543-4.207-.086-.187-1.391-2.941-4.142-6.747l9.237 1.688c.644 4.668 1.003 9.427 1.003 14.269-.001 57.348-46.653 104-104.001 104z"/><path d="m72 49.358c2.501 0 4.529-2.028 4.529-4.53s-2.028-4.529-4.529-4.529-4.529 2.028-4.529 4.529 2.028 4.53 4.529 4.53z"/><path d="m256 228.299c-2.501 0-4.529 2.028-4.529 4.529s2.028 4.53 4.529 4.53 4.529-2.028 4.529-4.53-2.028-4.529-4.529-4.529z"/><path d="m176.894 169.016 5.833-2.188h7.273c2.211 0 4-1.789 4-4s-1.789-4-4-4h-8c-.48 0-.957.086-1.406.254l-16 6c-2.066.777-3.113 3.082-2.34 5.152.602 1.605 2.129 2.594 3.746 2.594.469 0 .941-.082 1.406-.254l.15-.056c.228 2.698 2.422 4.84 5.179 4.84 2.908 0 5.265-2.357 5.265-5.265 0-1.174-.457-2.202-1.106-3.077z"/><path d="m241.516 55.312c.781.781 1.805 1.172 2.828 1.172s2.047-.391 2.828-1.172l2.828-2.828 2.828 2.828c.781.781 1.805 1.172 2.828 1.172s2.047-.391 2.828-1.172c1.562-1.562 1.562-4.094 0-5.656l-2.828-2.828 2.828-2.828c1.562-1.562 1.562-4.094 0-5.656s-4.094-1.562-5.656 0l-2.828 2.828-2.828-2.828c-1.562-1.562-4.094-1.562-5.656 0s-1.562 4.094 0 5.656l2.828 2.828-2.828 2.828c-1.563 1.563-1.563 4.094 0 5.656z"/><path d="m135.406 165.082-16-6c-.449-.168-.926-.254-1.406-.254h-8c-2.211 0-4 1.789-4 4s1.789 4 4 4h7.273l5.833 2.188c-.649.875-1.106 1.904-1.106 3.077 0 2.908 2.357 5.265 5.265 5.265 2.757 0 4.952-2.142 5.179-4.84l.15.056c.465.172.938.254 1.406.254 1.617 0 3.145-.988 3.746-2.594.774-2.07-.273-4.375-2.34-5.152z"/><path d="m170 142.828c0-2.211-1.789-4-4-4h-32c-2.211 0-4 1.789-4 4s1.789 4 4 4h32c2.211 0 4-1.789 4-4z"/></g></svg>