<svg id="morse-walrus" enable-background="new 0 0 300 300" height="512" viewBox="0 0 300 300" width="512" xmlns="http://www.w3.org/2000/svg"><g><path d="m262 144.828c0-61.758-50.242-112-112-112s-112 50.242-112 112c0 51.526 34.42 95.647 84 108.385v11.615c0 2.209 1.789 4 4 4 7.603 0 13.954-5.339 15.572-12.351 2.804.208 5.621.351 8.428.351 2.824 0 5.65-.143 8.458-.353 1.66 7.063 7.977 12.353 15.542 12.353 2.211 0 4-1.791 4-4v-11.617c49.585-12.735 84-56.845 84-108.383zm-216 0c0-57.346 46.652-104 104-104s104 46.654 104 104c0 25.214-8.913 48.489-24.029 66.64.002-.208.029-.434.029-.64 0-12.198-2.826-23.858-8.354-34.688.209-1.615.354-3.244.354-4.9v-.824c0-7.998-5.625-20.023-9.348-27.982-1.102-2.354-2.34-5.002-2.652-5.967-.195-32.918-27.035-59.639-60-59.639s-59.805 26.721-60 59.639c-.312.965-1.551 3.613-2.652 5.967-3.723 7.959-9.348 19.984-9.348 27.982v.824c0 1.664.135 3.302.345 4.922-5.448 10.692-8.345 22.646-8.345 34.666 0 .204.027.426.029.631-15.115-18.152-24.029-41.425-24.029-66.631zm124 12v4.85c0 .514-.301.807-.48.936-.176.131-.555.326-1.039.158l-15.59-5.197c-.945-.312-1.918-.471-2.891-.471s-1.945.158-2.895.473l-15.586 5.195c-.477.168-.859-.027-1.039-.158-.18-.129-.48-.422-.48-.936v-4.85-3.908c.238-10.367 5.656-15.088 10.758-16.092h18.484c5.094 1.002 10.504 5.711 10.758 16.049zm-26.428 58.342c2.121.121 4.262.203 6.428.203 2.162 0 4.305-.082 6.429-.203l.558 13.381c-4.625.326-9.355.326-13.973 0zm12.52-8.072c-4.052.235-8.14.234-12.184-.001l1.691-40.584 4.033-1.344c.242-.084.496-.078.73-.002l4.036 1.345zm-26.092 52.656v-89.021c1.348.172 2.733.069 4.051-.372l3.43-1.143-3.481 83.61c0 2.955-1.609 5.541-4 6.926zm12.183-11.251.498-11.956c2.422.167 4.862.281 7.319.281s4.898-.115 7.321-.281l.499 11.956c-5.181.383-10.44.384-15.637 0zm23.813 4.159-3.478-83.445 3.431 1.144c.941.314 1.918.467 2.891.467.393 0 .771-.131 1.16-.181v89.101c-2.391-1.396-4-4.019-4.004-7.086zm12.004-19.832c7.186-2.185 13.538-5.169 18.395-8.797 1.77-1.324 2.133-3.83.809-5.6-1.32-1.768-3.824-2.129-5.598-.811-3.614 2.701-8.271 5.02-13.605 6.845v-13.112c2.123-.712 4.116-1.476 5.809-2.337 1.973-1 2.758-3.406 1.758-5.377-.996-1.971-3.414-2.764-5.375-1.756-.661.335-1.432.645-2.191.958v-50.016c0-.031 0-.061 0-.092-.355-15.463-9.777-22.514-17.734-23.854-.219-.035-.441-.055-.664-.055h-19.203c-.223 0-.445.02-.664.055-7.957 1.34-17.379 8.391-17.734 23.945v50.013c-.757-.312-1.531-.62-2.191-.954-1.969-1.008-4.379-.215-5.375 1.758-1 1.969-.215 4.377 1.758 5.375 1.694.861 3.688 1.623 5.809 2.333v13.115c-5.334-1.825-9.992-4.144-13.605-6.843-1.77-1.324-4.277-.959-5.598.809-1.324 1.77-.961 4.275.809 5.598 4.854 3.629 11.206 6.615 18.395 8.801v12.088c-16.562-4.6-31.229-12.963-43.15-24.106-.545-3.603-.85-6.909-.85-9.986 0-7.895 1.338-15.529 3.93-22.817 2.496 5.006 6.116 9.456 10.714 13.005.73.562 1.59.834 2.441.834 1.199 0 2.383-.535 3.172-1.557 1.348-1.748 1.023-4.26-.723-5.609-7.336-5.656-11.539-14.201-11.539-23.443v-.824c0-6.219 5.379-17.721 8.594-24.592 2.59-5.529 3.406-7.357 3.406-8.996 0-28.674 23.328-52 52-52s52 23.326 52 52c0 1.639.816 3.467 3.406 8.996 3.215 6.871 8.594 18.373 8.594 24.592v.824c0 7.904-3.078 15.336-8.668 20.92-1.562 1.562-1.562 4.096 0 5.658s4.094 1.561 5.656.002c2.924-2.923 5.273-6.258 7.065-9.853 2.604 7.304 3.947 14.955 3.947 22.861 0 3.078-.305 6.387-.851 9.992-11.921 11.141-26.587 19.502-43.149 24.101z"/><path d="m72 43.358c2.502 0 4.53-2.028 4.53-4.53s-2.028-4.53-4.53-4.53c-2.501 0-4.529 2.028-4.529 4.53s2.028 4.53 4.529 4.53z"/><path d="m256 222.299c-2.501 0-4.529 2.028-4.529 4.53 0 2.501 2.028 4.53 4.529 4.53 2.502 0 4.53-2.028 4.53-4.53 0-2.503-2.028-4.53-4.53-4.53z"/><path d="m241.516 49.312c.781.781 1.805 1.172 2.828 1.172s2.047-.391 2.828-1.172l2.828-2.828 2.828 2.828c.781.781 1.805 1.172 2.828 1.172s2.047-.391 2.828-1.172c1.562-1.562 1.562-4.094 0-5.656l-2.828-2.828 2.828-2.828c1.562-1.562 1.562-4.094 0-5.656s-4.094-1.562-5.656 0l-2.828 2.828-2.828-2.828c-1.562-1.562-4.094-1.562-5.656 0s-1.562 4.094 0 5.656l2.828 2.828-2.828 2.828c-1.563 1.563-1.563 4.094 0 5.656z"/><circle cx="112" cy="134.828" r="6"/><circle cx="188" cy="134.828" r="6"/><path d="m140 142.299c-2.501 0-4.529 2.028-4.529 4.53 0 2.501 2.028 4.53 4.529 4.53 2.502 0 4.53-2.028 4.53-4.53 0-2.503-2.028-4.53-4.53-4.53z"/><path d="m160 142.299c-2.501 0-4.529 2.028-4.529 4.53 0 2.501 2.028 4.53 4.529 4.53 2.502 0 4.53-2.028 4.53-4.53 0-2.503-2.028-4.53-4.53-4.53z"/></g></svg>