<svg id="panda" enable-background="new 0 0 300 300" height="512" viewBox="0 0 300 300" width="512" xmlns="http://www.w3.org/2000/svg"><g><path d="m150 38.828c-61.758 0-112 50.242-112 112s50.242 112 112 112 112-50.242 112-112-50.242-112-112-112zm0 8c57.346 0 104 46.654 104 104 0 25.22-9.03 48.367-24.018 66.392.001-.127.018-.266.018-.392 0-16.346-5.146-31.923-14.823-45.168 3.667-7.566 4.996-16.126 3.583-24.603l-6.18-37.072c4.422-5.393 6.262-12.326 5.062-19.334-1.639-9.588-9.104-17.344-18.572-19.299-7.234-1.49-14.6.281-20.221 4.863-4.574 3.727-7.561 8.908-8.518 14.613h-40.664c-.957-5.705-3.943-10.887-8.518-14.613-5.625-4.582-12.994-6.352-20.221-4.863-9.469 1.955-16.934 9.711-18.572 19.299-1.199 7.008.641 13.941 5.062 19.334l-6.18 37.072c-1.413 8.479-.083 17.041 3.585 24.608-9.674 13.243-14.823 28.808-14.823 45.163 0 .126.017.265.018.392-14.988-18.025-24.018-41.172-24.018-66.392 0-57.346 46.654-104 104-104zm11.424 168h-22.848c-13.551 0-24.576 11.025-24.576 24.576v8.993c-13.195-4.884-25.121-12.385-35.183-21.851-.519-3.503-.817-6.731-.817-9.719 0-13.564 3.956-26.529 11.426-37.8.333.427.627.877.979 1.292 7.033 8.303 16.982 13.416 27.93 14.352 1.711 9.184 9.783 16.156 19.455 16.156h24.422c9.613 0 17.646-6.891 19.424-16.135 10.826-.879 20.875-6.008 27.961-14.373.35-.413.643-.862.975-1.287 1.33 2.008 2.568 4.059 3.671 6.168l7.746 31.326c0 .101.012.199.012.3 0 2.988-.299 6.216-.817 9.719-10.062 9.465-21.988 16.967-35.183 21.851v-8.993c-.001-13.549-11.026-24.575-24.577-24.575zm-72.293-66.455 6.494-38.961c.209-1.256-.191-2.535-1.078-3.447-3.031-3.118-4.6-7.199-4.517-11.473.157-4.253 3.194-7.664 6.931-7.664 2.227 0 4.34 1.248 5.65 3.338 1.172 1.871 3.643 2.438 5.514 1.264s2.438-3.643 1.264-5.514c-1.948-3.106-4.819-5.31-8.074-6.369.41-.123.811-.273 1.232-.36 1.174-.242 2.34-.363 3.488-.363 3.676 0 7.162 1.229 10.062 3.592 3.75 3.057 5.902 7.58 5.902 12.412 0 2.209 1.791 4 4 4h48c2.209 0 4-1.791 4-4 0-4.832 2.152-9.355 5.902-12.412 3.805-3.102 8.615-4.25 13.551-3.229.421.087.822.237 1.232.36-3.255 1.059-6.126 3.262-8.074 6.369-1.174 1.871-.607 4.34 1.264 5.514 1.875 1.178 4.342.611 5.514-1.264 1.311-2.09 3.424-3.338 5.65-3.338 3.738 0 6.774 3.41 6.931 7.664.083 4.274-1.487 8.355-4.517 11.473-.887.912-1.287 2.191-1.078 3.447l6.494 38.961c1.6 9.594-1.09 19.354-7.377 26.775-6.287 7.424-15.473 11.68-25.492 11.68-2.209 0-4 2.002-4 4.211 0 6.5-5.289 11.789-11.789 11.789h-24.422c-6.5 0-11.789-5.289-11.789-12 0-2.209-2.084-4-4.293-4-9.727 0-18.912-4.256-25.199-11.68-6.286-7.421-8.976-17.181-7.376-26.775zm32.869 102.595v-11.563c0-9.141 7.436-16.576 16.576-16.576h22.848c9.141 0 16.576 7.436 16.576 16.576v11.563c-8.915 2.496-18.299 3.86-28 3.86s-19.085-1.364-28-3.86z"/><circle cx="72" cy="44.828" r="4.53"/><circle cx="256" cy="232.828" r="4.53"/><path d="m241.516 55.312c.781.781 1.805 1.172 2.828 1.172s2.047-.391 2.828-1.172l2.828-2.828 2.828 2.828c.781.781 1.805 1.172 2.828 1.172s2.047-.391 2.828-1.172c1.562-1.562 1.562-4.094 0-5.656l-2.828-2.828 2.828-2.828c1.562-1.562 1.562-4.094 0-5.656s-4.094-1.562-5.656 0l-2.828 2.828-2.828-2.828c-1.562-1.562-4.094-1.562-5.656 0s-1.562 4.094 0 5.656l2.828 2.828-2.828 2.828c-1.563 1.563-1.563 4.094 0 5.656z"/><path d="m164.971 152.322c2.875 4.98 7.518 8.541 13.07 10.029 1.854.496 3.736.742 5.605.742 3.729 0 7.41-.979 10.727-2.893 6.957-4.018 9.35-12.943 5.334-19.9l-10.502-18.188c-1.945-3.369-5.088-5.781-8.846-6.787-3.768-1.006-7.689-.486-11.055 1.455-4.979 2.875-8.541 7.516-10.029 13.07-1.488 5.553-.725 11.354 2.15 16.332zm2.033-20.4c.936-3.49 3.172-6.406 6.301-8.211 1.012-.586 2.137-.883 3.273-.883.57 0 1.145.074 1.711.227 1.693.453 3.109 1.539 3.986 3.059l10.502 18.188c1.811 3.137.732 7.16-2.404 8.971-3.125 1.812-6.77 2.285-10.262 1.354-3.488-.936-6.404-3.174-8.211-6.303l-3.545-6.139c-1.806-3.13-2.287-6.775-1.351-10.263z"/><path d="m105.771 160.201c3.316 1.914 6.998 2.893 10.727 2.893 1.869 0 3.752-.246 5.605-.742 5.553-1.488 10.195-5.049 13.07-10.029l3.545-6.139c2.875-4.979 3.639-10.779 2.15-16.332-1.488-5.555-5.051-10.195-10.029-13.07-3.369-1.941-7.289-2.461-11.055-1.455-3.758 1.006-6.9 3.418-8.846 6.787l-10.498 18.188c-1.947 3.369-2.465 7.295-1.457 11.055 1.007 3.756 3.419 6.899 6.788 8.844zm1.598-15.9 10.5-18.188c.877-1.52 2.293-2.605 3.986-3.059.566-.152 1.141-.227 1.711-.227 1.137 0 2.262.297 3.273.883 3.129 1.805 5.365 4.721 6.301 8.211.936 3.488.455 7.133-1.352 10.262l-3.545 6.139c-1.807 3.129-4.723 5.367-8.211 6.303-3.492.932-7.133.459-10.262-1.354-1.52-.877-2.605-2.293-3.061-3.986-.451-1.695-.219-3.465.66-4.984z"/><path d="m138 162.828c0 2.209 1.791 4 4 4h4v5.116l-9.266 3.089c-2.096.699-3.229 2.965-2.529 5.061.699 2.094 2.961 3.232 5.061 2.529l10.734-3.578 10.734 3.578c.42.141.848.207 1.266.207 1.676 0 3.236-1.061 3.795-2.736.699-2.096-.434-4.361-2.529-5.061l-9.266-3.088v-5.116h4c2.209 0 4-1.791 4-4s-1.791-4-4-4h-16c-2.209-.001-4 1.79-4 3.999z"/><circle cx="126" cy="134.828" r="4"/><circle cx="174" cy="134.828" r="4"/></g></svg>