<svg id="parrot" enable-background="new 0 0 300 300" height="512" viewBox="0 0 300 300" width="512" xmlns="http://www.w3.org/2000/svg"><g><path d="m262 153.999c0-35.738-17.065-69.176-45.781-90.272 1.424-1.807 2.864-3.523 4.304-5.099 1.152-1.26 1.375-3.109.562-4.609-.816-1.496-2.477-2.307-4.176-2.033-.173.029-5.636 1.003-13.164 3.754-13.35-7.314-28.146-11.782-43.338-13.2.368-.954.759-1.895 1.198-2.807.836-1.744.309-3.838-1.258-4.973-1.566-1.133-3.719-.986-5.117.352-.317.303-2.65 2.619-5.783 6.901-61.503.3-111.447 50.414-111.447 111.986 0 31.052 12.709 59.185 33.19 79.492.107.096.19.209.308.293 20.227 19.905 47.949 32.215 78.502 32.215 17.692 0 34.429-4.139 49.32-11.475.102-.04.187-.098.284-.146 36.936-18.326 62.396-56.426 62.396-100.379zm-8 0c0 38.468-21.009 72.099-52.141 90.09v-5.66c0-14.531-8.477-26.807-21.031-32.594v-12.261c3.387 2.719 7.771 5.09 12.801 5.132h.141c5.938 0 11.41-3.141 16.305-9.346l4.965 2.482c1.535.76 3.395.467 4.617-.75.185-.185 17.985-18.525-3.033-40.638-1.311-12.291-9.256-24.828-20.552-30.061-.855-18.601 6.356-36.54 15.456-50.191 26.64 19.594 42.472 50.628 42.472 83.797zm-88-28c.295 0 .555-.107.832-.168h17.996c12.148 0 21.846 12.233 23.687 24.168h-42.515c-6.617 0-12-5.383-12-12s5.383-12 12-12zm34.484 32.002h12.156c9.806 11.766 5.891 21.115 3.102 25.25l-4.906-2.455-11.79-7.86c-1.848-1.229-4.328-.73-5.547 1.109-1.227 1.838-.73 4.322 1.109 5.547l8.471 5.647c-3.111 3.646-6.306 5.531-9.366 5.466-5.469-.033-10.668-5.582-12.887-8.599v-5.86c10.264-1.485 17.971-8.651 19.658-18.245zm-12.526-39.967c-1.028-.124-2.069-.202-3.13-.202h-22.855c-20.094 0-38.584 8.957-51.958 23.129-2.059-.678-4.142-1.498-6.225-2.539-4.785-2.393-8.207-7.152-10.541-11.74 9.867 4.703 18.752 3.775 19.254 3.721 1.33-.152 2.496-.961 3.105-2.152s.584-2.609-.07-3.777c-5.969-10.658-5.332-22.398-2.855-32.043 3.758 17.678 18.047 26.441 18.246 26.561 1.252.748 2.812.754 4.068.018 1.258-.736 2.018-2.1 1.979-3.557-.672-26.062 5.842-45.234 12.221-57.607-1.641 25.324 8.512 52.141 9.07 53.594.676 1.754 2.508 2.789 4.34 2.516 1.859-.283 3.266-1.822 3.387-3.699 1.102-17.279 10.078-30.969 26.684-40.684 4.93-2.883 9.844-4.982 14.027-6.475-8.388 11.779-19.021 31.413-18.747 54.936zm6.204-58.197c-12.437 6.143-26.565 16.645-32.9 34.041-2.997-11.861-5.902-28.912-3.057-43.517 12.472.987 24.681 4.189 35.957 9.476zm-49.996-9.665c-6.804 11.805-14.362 30.611-15.17 56.841-5.752-6.145-12.744-17.908-7.176-35.826.59-1.898-.303-3.941-2.096-4.797-1.797-.854-3.945-.266-5.049 1.385-.824 1.232-18.672 28.402-8.986 54.416-4.773-.707-11.67-2.836-17.695-8.953-1.244-1.264-3.174-1.562-4.74-.719-1.562.838-2.389 2.607-2.025 4.344.184.877 4.654 21.551 18.984 28.715 1.434.717 2.876 1.357 4.316 1.932-9.76 12.923-15.701 29.017-15.701 46.279v12.463c-7.285 3.575-13.086 9.414-16.531 16.771-16.342-18.378-26.297-42.555-26.297-69.024 0-55.387 43.525-100.789 98.166-103.827zm-65.727 179.185c3.868-11.474 14.76-19.081 27.948-19.081 2.209 0 4-1.791 4-4s-1.791-4-4-4h-9.559v-8.488c0-32.295 22.932-60.188 52.382-66.577-2.011 3.119-3.21 6.809-3.21 10.788 0 11.027 8.973 20 20 20h26.215c-1.783 6.271-7.675 10.533-15.387 10.533-2.211 0-4 1.791-4 4v29.744h-8.52c-2.211 0-4 1.791-4 4s1.789 4 4 4c16.848 0 29.551 12.104 29.551 28.152v9.838c-13.337 6.23-28.193 9.732-43.859 9.732-27.709.001-52.901-10.913-71.561-28.641z"/><path d="m72 52.529c2.502 0 4.53-2.028 4.53-4.53s-2.028-4.53-4.53-4.53c-2.501 0-4.529 2.028-4.529 4.53s2.028 4.53 4.529 4.53z"/><path d="m256 231.47c-2.501 0-4.529 2.028-4.529 4.53 0 2.501 2.028 4.53 4.529 4.53 2.502 0 4.53-2.028 4.53-4.53 0-2.503-2.028-4.53-4.53-4.53z"/><path d="m241.516 58.484c.781.781 1.805 1.172 2.828 1.172s2.047-.391 2.828-1.172l2.828-2.829 2.828 2.828c.781.781 1.805 1.172 2.828 1.172s2.047-.391 2.828-1.172c1.562-1.562 1.562-4.094 0-5.656l-2.828-2.828 2.828-2.828c1.562-1.562 1.562-4.094 0-5.656s-4.094-1.562-5.656 0l-2.828 2.828-2.828-2.828c-1.562-1.562-4.094-1.562-5.656 0s-1.562 4.094 0 5.656l2.828 2.828-2.828 2.828c-1.563 1.563-1.563 4.094 0 5.657z"/><circle cx="179.328" cy="141.831" r="4"/></g></svg>