<svg id="penguin" enable-background="new 0 0 300 300" height="512" viewBox="0 0 300 300" width="512" xmlns="http://www.w3.org/2000/svg"><g><path d="m150 38.828c-61.758 0-112 50.242-112 112s50.242 112 112 112 112-50.242 112-112-50.242-112-112-112zm-64 136h-16.582c-1.922 0-2.773-1.344-3.049-1.92-.277-.578-.789-2.082.416-3.58l15.215-18.897v4.397c0 2.209 1.791 4 4 4s4-1.791 4-4v-28c0-33.084 26.916-60 60-60 33.086 0 60 26.916 60 60v28c0 2.209 1.789 4 4 4s4-1.791 4-4v-4.396l15.215 18.896c1.207 1.496.691 3.002.418 3.578-.277.578-1.129 1.922-3.051 1.922h-16.582c-2.211 0-4 1.791-4 4v56.868c-2.583 1.831-5.251 3.547-8 5.141v-102.009c0-7.832-3.027-14.913-7.884-20h3.884c2.211 0 4-1.791 4-4s-1.789-4-4-4h-22.152c-10.243 0-20.438 6.194-25.849 14.754-5.413-8.559-15.609-14.754-25.844-14.754h-22.155c-2.209 0-4 1.791-4 4s1.791 4 4 4h3.885c-4.857 5.087-7.885 12.168-7.885 20v102.008c-2.749-1.594-5.417-3.31-8-5.141v-56.867c0-2.209-1.791-4-4-4zm51.049-24 12.951-10.795 12.953 10.795zm18.583 8c-.828 2.323-3.028 4-5.632 4s-4.803-1.677-5.632-4zm-49.632 86.203v-106.203c0-11.027 8.145-20 18.154-20 8.966 0 18.114 6.755 20.902 14.911l-15.74 13.121c-2.217 1.846-3.014 4.791-2.033 7.504.982 2.713 3.48 4.465 6.365 4.465h2.554c.981 6.767 6.764 12 13.798 12s12.817-5.233 13.798-12h2.554c2.883 0 5.383-1.752 6.363-4.463.984-2.713.188-5.658-2.027-7.506l-15.745-13.12c2.789-8.158 11.934-14.911 20.905-14.911 10.008 0 18.152 8.973 18.152 20v106.204c-13.373 6.271-28.279 9.796-44 9.796-15.72-.001-30.627-3.526-44-9.798zm112-15.614v-46.589h12.582c4.422 0 8.355-2.479 10.266-6.467s1.371-8.605-1.398-12.049l-21.45-26.637v-10.846c0-37.496-30.504-68-68-68s-68 30.504-68 68v10.849l-21.445 26.634c-2.773 3.445-3.311 8.062-1.402 12.051 1.91 3.988 5.844 6.467 10.266 6.467h12.581v46.589c-22.026-19.084-36-47.226-36-78.589 0-57.346 46.654-104 104-104 57.348 0 104 46.654 104 104 0 31.361-13.974 59.503-36 78.587z"/><path d="m72 49.358c2.502 0 4.53-2.028 4.53-4.53s-2.028-4.53-4.53-4.53c-2.501 0-4.529 2.028-4.529 4.53s2.028 4.53 4.529 4.53z"/><path d="m256 228.299c-2.501 0-4.529 2.028-4.529 4.53 0 2.501 2.028 4.53 4.529 4.53 2.502 0 4.53-2.028 4.53-4.53 0-2.503-2.028-4.53-4.53-4.53z"/><path d="m241.516 55.312c.781.781 1.805 1.172 2.828 1.172s2.047-.391 2.828-1.172l2.828-2.828 2.828 2.828c.781.781 1.805 1.172 2.828 1.172s2.047-.391 2.828-1.172c1.562-1.562 1.562-4.094 0-5.656l-2.828-2.828 2.828-2.828c1.562-1.562 1.562-4.094 0-5.656s-4.094-1.562-5.656 0l-2.828 2.828-2.828-2.828c-1.562-1.562-4.094-1.562-5.656 0s-1.562 4.094 0 5.656l2.828 2.828-2.828 2.828c-1.563 1.563-1.563 4.094 0 5.656z"/><circle cx="120" cy="136.828" r="6"/><circle cx="180" cy="136.828" r="6"/></g></svg>