<?xml version="1.0" encoding="iso-8859-1"?>
<!-- Generator: Adobe Illustrator 19.0.0, SVG Export Plug-In . SVG Version: 6.00 Build 0)  -->
<svg version="1.1" id="Capa_1" xmlns="http://www.w3.org/2000/svg" xmlns:xlink="http://www.w3.org/1999/xlink" x="0px" y="0px"
	 viewBox="0 0 199.13 199.13" style="enable-background:new 0 0 199.13 199.13;" xml:space="preserve">
<path style="fill:#ED5481;" d="M185.831,166.753c-5.332-5.332-13.978-5.332-19.309,0c-5.332,5.332-5.332,13.978,0,19.309
	c5.332,5.332,28.964,9.655,28.964,9.655S191.163,172.085,185.831,166.753z"/>
<path d="M195.486,199.13c-0.205,0-0.41-0.019-0.614-0.056c-4.122-0.753-24.972-4.808-30.763-10.598
	c-6.653-6.654-6.653-17.481,0-24.136c3.224-3.224,7.509-4.999,12.068-4.999s8.844,1.777,12.068,4.999
	c5.792,5.792,9.846,26.641,10.598,30.763c0.201,1.102-0.15,2.236-0.944,3.028C197.252,198.775,196.382,199.13,195.486,199.13z
	 M176.177,166.173c-2.623,0-5.245,0.998-7.241,2.993c-3.992,3.992-3.992,10.489,0,14.483c2.639,2.639,13.285,5.751,22.185,7.704
	c-1.956-8.902-5.069-19.55-7.704-22.187C181.42,167.17,178.798,166.173,176.177,166.173z"/>
<polygon style="fill:#F97DA3;" points="171.157,79.229 78.997,171.389 65.996,158.387 96.858,93.844 158.156,66.227 "/>
<path d="M78.997,174.802c-0.874,0-1.748-0.333-2.413-1l-13-13c-1.024-1.024-1.29-2.58-0.666-3.886L93.78,92.372
	c0.348-0.727,0.942-1.309,1.678-1.64l61.298-27.616c1.292-0.582,2.811-0.304,3.814,0.7l13,13c1.333,1.333,1.333,3.494,0,4.826
	l-92.16,92.16C80.745,174.467,79.869,174.802,78.997,174.802z M70.118,157.682l8.88,8.878l87.332-87.332l-8.919-8.921L99.399,96.442
	L70.118,157.682z"/>
<path style="fill:#26BBEC;" d="M164.756,123.578c5.233-5.233,5.379-13.718,0.246-19.048c-1.655-1.717-3.331-3.429-5.033-5.13
	C109.25,48.681,52.18,15.085,3.641,3.413C15.315,51.951,48.91,109.022,99.627,159.741c1.702,1.702,3.412,3.378,5.13,5.033
	c5.328,5.134,13.815,4.987,19.048-0.246L164.756,123.578z"/>
<path d="M114.126,171.924c-4.244,0-8.482-1.56-11.733-4.693c-1.732-1.671-3.458-3.36-5.175-5.077
	C47.927,112.865,12.611,55.298,0.327,4.212C0.049,3.057,0.392,1.84,1.231,1s2.057-1.184,3.212-0.905
	C55.527,12.38,113.095,47.696,162.385,96.988c1.717,1.715,3.408,3.442,5.077,5.175c6.368,6.61,6.238,17.3-0.29,23.828l-40.95,40.95
	C122.903,170.259,118.51,171.924,114.126,171.924z M8.379,8.149c13.153,48.5,47.022,102.535,93.665,149.178
	c1.686,1.686,3.381,3.347,5.084,4.989c3.948,3.804,10.348,3.714,14.266-0.201l40.95-40.95c3.915-3.917,4.007-10.315,0.201-14.266
	c-1.638-1.703-3.301-3.398-4.987-5.084C110.912,55.171,56.877,21.303,8.379,8.149z"/>
<polygon style="fill:#85D839;" points="177.721,144.404 144.632,177.493 123.843,164.49 164.72,123.616 "/>
<path d="M144.631,180.907c-0.623,0-1.251-0.171-1.809-0.519l-20.787-13.001c-0.882-0.551-1.464-1.475-1.582-2.509
	c-0.118-1.034,0.242-2.063,0.978-2.799l40.875-40.876c0.736-0.736,1.768-1.091,2.799-0.978c1.033,0.118,1.956,0.7,2.509,1.582
	l13.003,20.789c0.843,1.348,0.643,3.099-0.481,4.224l-33.091,33.089C146.387,180.565,145.513,180.907,144.631,180.907z
	 M129.291,163.872l14.848,9.286l29.249-29.249l-9.288-14.848L129.291,163.872z"/>
<circle style="fill:#FBAD4A;" cx="96.066" cy="96.288" r="17.067"/>
<path d="M96.064,116.775c-11.293,0-20.48-9.187-20.48-20.48s9.187-20.48,20.48-20.48s20.48,9.187,20.48,20.48
	S107.355,116.775,96.064,116.775z M96.064,82.642c-7.528,0-13.653,6.125-13.653,13.653s6.125,13.653,13.653,13.653
	s13.653-6.125,13.653-13.653S103.592,82.642,96.064,82.642z"/>
<circle style="fill:#FBAD4A;" cx="55.106" cy="55.328" r="13.653"/>
<path d="M55.104,72.402c-9.411,0-17.067-7.656-17.067-17.067s7.656-17.067,17.067-17.067s17.067,7.656,17.067,17.067
	C72.171,64.746,64.515,72.402,55.104,72.402z M55.104,45.095c-5.647,0-10.24,4.593-10.24,10.24s4.593,10.24,10.24,10.24
	s10.24-4.593,10.24-10.24S60.75,45.095,55.104,45.095z"/>
<path d="M11.697,31.427c-1.388,0-2.693-0.853-3.202-2.232c-0.654-1.768,0.251-3.731,2.019-4.384
	c6.75-2.493,11.965-7.822,14.312-14.619c0.614-1.782,2.56-2.732,4.34-2.113c1.782,0.614,2.729,2.558,2.113,4.34
	c-3.017,8.742-9.723,15.592-18.4,18.797C12.488,31.358,12.089,31.427,11.697,31.427z"/>
<g>
</g>
<g>
</g>
<g>
</g>
<g>
</g>
<g>
</g>
<g>
</g>
<g>
</g>
<g>
</g>
<g>
</g>
<g>
</g>
<g>
</g>
<g>
</g>
<g>
</g>
<g>
</g>
<g>
</g>
</svg>
