<?xml version="1.0" encoding="iso-8859-1"?>
<!-- Generator: Adobe Illustrator 19.0.0, SVG Export Plug-In . SVG Version: 6.00 Build 0)  -->
<svg version="1.1" id="Capa_1" xmlns="http://www.w3.org/2000/svg" xmlns:xlink="http://www.w3.org/1999/xlink" x="0px" y="0px"
	 viewBox="0 0 218.453 218.453" style="enable-background:new 0 0 218.453 218.453;" xml:space="preserve">
<path d="M109.227,166.113c-0.589,0-1.178-0.152-1.707-0.457l-47.787-27.59c-1.056-0.609-1.707-1.737-1.707-2.956V79.93
	c0-1.219,0.65-2.347,1.707-2.956l47.787-27.59c1.056-0.609,2.357-0.609,3.413,0l47.787,27.59c1.056,0.609,1.707,1.737,1.707,2.956
	v55.18c0,1.219-0.65,2.347-1.707,2.956l-47.787,27.59C110.404,165.96,109.815,166.113,109.227,166.113z M64.853,133.139
	l44.373,25.619l44.373-25.619V81.901l-44.373-25.619L64.853,81.901V133.139z M157.013,135.11h0.017H157.013z"/>
<path d="M204.797,166.113c-0.579,0-1.166-0.147-1.703-0.459l-47.787-27.59c-1.056-0.609-1.707-1.737-1.707-2.956v-55.18
	c0-1.219,0.65-2.347,1.707-2.956l47.787-27.59c1.633-0.945,3.721-0.384,4.663,1.249c0.942,1.633,0.384,3.721-1.249,4.663
	l-46.08,26.604v51.238l46.08,26.604c1.633,0.942,2.191,3.029,1.249,4.663C207.124,165.501,205.976,166.113,204.797,166.113z"/>
<path d="M13.657,166.113c-1.179,0-2.328-0.613-2.959-1.707c-0.942-1.633-0.384-3.721,1.249-4.663l46.08-26.604V81.903l-46.08-26.607
	c-1.633-0.942-2.191-3.029-1.249-4.663c0.94-1.633,3.031-2.195,4.663-1.249l47.787,27.59c1.056,0.609,1.707,1.737,1.707,2.956v55.18
	c0,1.219-0.65,2.347-1.707,2.956l-47.787,27.59C14.822,165.967,14.235,166.113,13.657,166.113z"/>
<circle style="fill:#F87EA1;" cx="61.44" cy="80.213" r="10.24"/>
<path d="M61.44,93.867c-7.528,0-13.653-6.125-13.653-13.653S53.912,66.56,61.44,66.56s13.653,6.125,13.653,13.653
	S68.968,93.867,61.44,93.867z M61.44,73.387c-3.765,0-6.827,3.062-6.827,6.827c0,3.765,3.062,6.827,6.827,6.827
	c3.765,0,6.827-3.062,6.827-6.827C68.267,76.448,65.205,73.387,61.44,73.387z"/>
<circle style="fill:#FFDD95;" cx="109.227" cy="56.32" r="10.24"/>
<path d="M109.227,69.973c-7.528,0-13.653-6.125-13.653-13.653s6.125-13.653,13.653-13.653s13.653,6.125,13.653,13.653
	S116.755,69.973,109.227,69.973z M109.227,49.493c-3.765,0-6.827,3.062-6.827,6.827c0,3.765,3.062,6.827,6.827,6.827
	s6.827-3.062,6.827-6.827C116.053,52.555,112.992,49.493,109.227,49.493z"/>
<circle style="fill:#26BBEC;" cx="204.8" cy="56.32" r="10.24"/>
<path d="M204.8,69.973c-7.528,0-13.653-6.125-13.653-13.653s6.125-13.653,13.653-13.653c7.528,0,13.653,6.125,13.653,13.653
	S212.328,69.973,204.8,69.973z M204.8,49.493c-3.765,0-6.827,3.062-6.827,6.827c0,3.765,3.062,6.827,6.827,6.827
	s6.827-3.062,6.827-6.827C211.627,52.555,208.565,49.493,204.8,49.493z"/>
<circle style="fill:#85D839;" cx="13.653" cy="56.32" r="10.24"/>
<path d="M13.653,69.973C6.125,69.973,0,63.848,0,56.32s6.125-13.653,13.653-13.653s13.653,6.125,13.653,13.653
	S21.181,69.973,13.653,69.973z M13.653,49.493c-3.765,0-6.827,3.062-6.827,6.827c0,3.765,3.062,6.827,6.827,6.827
	s6.827-3.062,6.827-6.827C20.48,52.555,17.418,49.493,13.653,49.493z"/>
<circle style="fill:#FBAD4A;" cx="204.8" cy="162.133" r="10.24"/>
<path d="M204.8,175.787c-7.528,0-13.653-6.125-13.653-13.653c0-7.528,6.125-13.653,13.653-13.653
	c7.528,0,13.653,6.125,13.653,13.653C218.453,169.661,212.328,175.787,204.8,175.787z M204.8,155.307
	c-3.765,0-6.827,3.062-6.827,6.827c0,3.765,3.062,6.827,6.827,6.827s6.827-3.062,6.827-6.827
	C211.627,158.368,208.565,155.307,204.8,155.307z"/>
<circle style="fill:#F87EA1;" cx="13.653" cy="162.133" r="10.24"/>
<path d="M13.653,175.787C6.125,175.787,0,169.661,0,162.133c0-7.528,6.125-13.653,13.653-13.653s13.653,6.125,13.653,13.653
	C27.307,169.661,21.181,175.787,13.653,175.787z M13.653,155.307c-3.765,0-6.827,3.062-6.827,6.827c0,3.765,3.062,6.827,6.827,6.827
	s6.827-3.062,6.827-6.827C20.48,158.368,17.418,155.307,13.653,155.307z"/>
<circle style="fill:#85D839;" cx="109.227" cy="158.72" r="10.24"/>
<path d="M109.227,172.373c-7.528,0-13.653-6.125-13.653-13.653c0-7.528,6.125-13.653,13.653-13.653s13.653,6.125,13.653,13.653
	C122.88,166.248,116.755,172.373,109.227,172.373z M109.227,151.893c-3.765,0-6.827,3.062-6.827,6.827s3.062,6.827,6.827,6.827
	s6.827-3.062,6.827-6.827S112.992,151.893,109.227,151.893z"/>
<circle style="fill:#8C6B3B;" cx="61.44" cy="138.24" r="10.24"/>
<path d="M61.44,151.893c-7.528,0-13.653-6.125-13.653-13.653c0-7.528,6.125-13.653,13.653-13.653s13.653,6.125,13.653,13.653
	C75.093,145.768,68.968,151.893,61.44,151.893z M61.44,131.413c-3.765,0-6.827,3.062-6.827,6.827s3.062,6.827,6.827,6.827
	c3.765,0,6.827-3.062,6.827-6.827S65.205,131.413,61.44,131.413z"/>
<circle style="fill:#FBAD4A;" cx="157.013" cy="80.213" r="10.24"/>
<path d="M157.013,93.867c-7.528,0-13.653-6.125-13.653-13.653s6.125-13.653,13.653-13.653c7.528,0,13.653,6.125,13.653,13.653
	S164.541,93.867,157.013,93.867z M157.013,73.387c-3.765,0-6.827,3.062-6.827,6.827c0,3.765,3.062,6.827,6.827,6.827
	s6.827-3.062,6.827-6.827C163.84,76.448,160.778,73.387,157.013,73.387z"/>
<circle style="fill:#26BBEC;" cx="157.013" cy="138.24" r="10.24"/>
<path d="M157.013,151.893c-7.528,0-13.653-6.125-13.653-13.653c0-7.528,6.125-13.653,13.653-13.653
	c7.528,0,13.653,6.125,13.653,13.653C170.667,145.768,164.541,151.893,157.013,151.893z M157.013,131.413
	c-3.765,0-6.827,3.062-6.827,6.827s3.062,6.827,6.827,6.827s6.827-3.062,6.827-6.827S160.778,131.413,157.013,131.413z"/>
<g>
</g>
<g>
</g>
<g>
</g>
<g>
</g>
<g>
</g>
<g>
</g>
<g>
</g>
<g>
</g>
<g>
</g>
<g>
</g>
<g>
</g>
<g>
</g>
<g>
</g>
<g>
</g>
<g>
</g>
</svg>
