<?xml version="1.0" encoding="iso-8859-1"?>
<!-- Generator: Adobe Illustrator 19.0.0, SVG Export Plug-In . SVG Version: 6.00 Build 0)  -->
<svg version="1.1" id="Capa_1" xmlns="http://www.w3.org/2000/svg" xmlns:xlink="http://www.w3.org/1999/xlink" x="0px" y="0px"
	 viewBox="0 0 209.728 209.728" style="enable-background:new 0 0 209.728 209.728;" xml:space="preserve">
<path style="fill:#DDDDDD;" d="M120.271,25.481L59.147,86.848h47.787l37.473-37.231c2.879-2.879,7.547-2.879,10.426,0l2.028,2.028
	l9.655-9.655L127.898,3.373l-9.655,9.655l2.028,2.028C123.15,17.934,123.15,22.602,120.271,25.481z"/>
<path d="M106.934,90.263H59.147c-1.381,0-2.623-0.829-3.152-2.103c-0.531-1.275-0.241-2.741,0.734-3.719l61.124-61.367
	c0.002-0.002,0.003-0.003,0.005-0.005c1.543-1.545,1.543-4.057,0-5.601l-2.028-2.028c-1.333-1.333-1.333-3.494,0-4.826l9.653-9.655
	c1.28-1.28,3.546-1.28,4.826,0l38.618,38.618c1.333,1.333,1.333,3.494,0,4.826l-9.655,9.655c-0.64,0.64-1.509,1-2.413,1l0,0
	c-0.906,0-1.775-0.36-2.415-1l-2.028-2.028c-1.493-1.497-4.105-1.495-5.596,0l-37.485,37.239
	C108.7,89.906,107.835,90.263,106.934,90.263z M67.365,83.436h38.161l36.477-36.239c2.028-2.029,4.736-3.152,7.619-3.152
	c2.698,0,5.245,0.985,7.231,2.784l4.837-4.837L127.897,8.2l-4.837,4.838c3.825,4.227,3.7,10.776-0.372,14.853L67.365,83.436z"/>
<path style="fill:#FBAD4A;" d="M59.147,86.85l-46.582,46.339c-6.303,6.303-7.323,16.539-1.647,23.412
	c6.511,7.883,18.208,8.298,25.264,1.242l70.752-70.994H59.147z"/>
<path d="M24.104,166.256c-0.323,0-0.645-0.009-0.968-0.024c-5.75-0.273-11.162-2.992-14.85-7.458
	c-6.63-8.025-5.809-20.323,1.865-27.998L56.741,84.43c0.638-0.637,1.505-0.993,2.406-0.993h47.787c1.381,0,2.623,0.829,3.152,2.104
	c0.531,1.273,0.241,2.739-0.734,3.719l-70.75,70.994C34.755,164.099,29.518,166.256,24.104,166.256z M60.555,90.263l-45.583,45.346
	c-5.207,5.209-5.835,13.476-1.422,18.818c2.504,3.029,6.021,4.799,9.911,4.985c3.855,0.208,7.596-1.27,10.31-3.983l64.944-65.167
	H60.555V90.263z"/>
<path style="fill:#DDDDDD;" d="M158.134,104.462v16.521h34.133v-16.521c0-4.072,3.301-7.373,7.373-7.373h2.867V83.436h-54.613V97.09
	h2.867C154.833,97.09,158.134,100.39,158.134,104.462z"/>
<path d="M192.267,124.396h-34.133c-1.884,0-3.413-1.529-3.413-3.413v-16.521c0-2.183-1.775-3.959-3.958-3.959h-2.869
	c-1.884,0-3.413-1.529-3.413-3.413V83.436c0-1.884,1.529-3.413,3.413-3.413h54.613c1.884,0,3.413,1.529,3.413,3.413V97.09
	c0,1.884-1.529,3.413-3.413,3.413h-2.867c-2.183,0-3.959,1.777-3.959,3.959v16.521C195.68,122.867,194.151,124.396,192.267,124.396z
	 M161.547,117.57h27.307v-13.107c0-5.765,4.545-10.487,10.24-10.772v-6.84h-47.787v6.84c5.695,0.285,10.24,5.009,10.24,10.772
	V117.57z"/>
<path style="fill:#26BBEC;" d="M158.134,120.983v67.533c0,8.914,6.518,16.874,15.391,17.72c10.179,0.971,18.743-7.008,18.743-16.986
	v-68.267H158.134z"/>
<path d="M175.154,209.728c-0.65,0-1.302-0.032-1.954-0.094c-10.363-0.99-18.481-10.266-18.481-21.118v-67.533
	c0-1.884,1.529-3.413,3.413-3.413h34.133c1.884,0,3.413,1.529,3.413,3.413v68.267c0,5.757-2.446,11.281-6.707,15.157
	C185.196,207.839,180.249,209.728,175.154,209.728z M161.547,124.396v64.119c0,7.373,5.403,13.664,12.303,14.322
	c3.893,0.375,7.649-0.864,10.532-3.483c2.842-2.584,4.471-6.267,4.471-10.105v-64.853H161.547z"/>
<path d="M35.254,18.583c-1.884,0-3.413-1.529-3.413-3.413V8.343c0-1.884,1.529-3.413,3.413-3.413c1.884,0,3.413,1.529,3.413,3.413
	v6.827C38.667,17.054,37.138,18.583,35.254,18.583z"/>
<path d="M35.254,39.063c-1.884,0-3.413-1.529-3.413-3.413v-6.827c0-1.884,1.529-3.413,3.413-3.413c1.884,0,3.413,1.529,3.413,3.413
	v6.827C38.667,37.534,37.138,39.063,35.254,39.063z"/>
<path d="M28.427,25.41H21.6c-1.884,0-3.413-1.529-3.413-3.413s1.529-3.413,3.413-3.413h6.827c1.884,0,3.413,1.529,3.413,3.413
	S30.311,25.41,28.427,25.41z"/>
<path d="M48.907,25.41H42.08c-1.884,0-3.413-1.529-3.413-3.413s1.529-3.413,3.413-3.413h6.827c1.884,0,3.413,1.529,3.413,3.413
	S50.791,25.41,48.907,25.41z"/>
<path d="M86.454,172.183c-1.884,0-3.413-1.529-3.413-3.413v-6.827c0-1.884,1.529-3.413,3.413-3.413c1.884,0,3.413,1.529,3.413,3.413
	v6.827C89.867,170.654,88.338,172.183,86.454,172.183z"/>
<path d="M86.454,192.663c-1.884,0-3.413-1.529-3.413-3.413v-6.827c0-1.884,1.529-3.413,3.413-3.413c1.884,0,3.413,1.529,3.413,3.413
	v6.827C89.867,191.134,88.338,192.663,86.454,192.663z"/>
<path d="M79.627,179.01H72.8c-1.884,0-3.413-1.529-3.413-3.413s1.529-3.413,3.413-3.413h6.827c1.884,0,3.413,1.529,3.413,3.413
	S81.511,179.01,79.627,179.01z"/>
<path d="M100.107,179.01H93.28c-1.884,0-3.413-1.529-3.413-3.413s1.529-3.413,3.413-3.413h6.827c1.884,0,3.413,1.529,3.413,3.413
	S101.991,179.01,100.107,179.01z"/>
<path d="M124,141.463c-7.528,0-13.653-6.125-13.653-13.653s6.125-13.653,13.653-13.653c7.528,0,13.653,6.125,13.653,13.653
	S131.528,141.463,124,141.463z M124,120.983c-3.765,0-6.827,3.062-6.827,6.827c0,3.765,3.062,6.827,6.827,6.827
	s6.827-3.062,6.827-6.827C130.827,124.045,127.765,120.983,124,120.983z"/>
<path d="M175.2,148.29c-3.765,0-6.827-3.062-6.827-6.827c0-3.765,3.062-6.827,6.827-6.827c3.765,0,6.827,3.062,6.827,6.827
	C182.027,145.228,178.965,148.29,175.2,148.29z M175.2,141.463h0.017H175.2z M175.2,141.463h0.017H175.2z M175.2,141.463h0.017
	H175.2z M175.2,141.461h0.017H175.2z M175.2,141.461L175.2,141.461L175.2,141.461z M175.2,141.46h0.017H175.2z M175.2,141.46h0.017
	H175.2z M175.2,141.46h0.017H175.2z"/>
<path d="M175.2,182.423c-3.765,0-6.827-3.062-6.827-6.827s3.062-6.827,6.827-6.827c3.765,0,6.827,3.062,6.827,6.827
	S178.965,182.423,175.2,182.423z M175.2,175.596h0.017H175.2z M175.2,175.596h0.017H175.2z M175.2,175.596h0.017H175.2z
	 M175.2,175.595h0.017H175.2z M175.2,175.595L175.2,175.595L175.2,175.595z M175.2,175.593h0.017H175.2z M175.2,175.593h0.017H175.2
	z M175.2,175.593h0.017H175.2z"/>
<path d="M42.08,134.636c-3.765,0-6.827-3.062-6.827-6.827c0-3.765,3.062-6.827,6.827-6.827s6.827,3.062,6.827,6.827
	C48.907,131.575,45.845,134.636,42.08,134.636z M42.08,127.81h0.017H42.08z M42.08,127.81h0.017H42.08z M42.08,127.81h0.017H42.08z
	 M42.08,127.808h0.017H42.08z M42.08,127.808L42.08,127.808L42.08,127.808z M42.08,127.806h0.017H42.08z M42.08,127.806h0.017H42.08
	z M42.08,127.806h0.017H42.08z"/>
<g>
</g>
<g>
</g>
<g>
</g>
<g>
</g>
<g>
</g>
<g>
</g>
<g>
</g>
<g>
</g>
<g>
</g>
<g>
</g>
<g>
</g>
<g>
</g>
<g>
</g>
<g>
</g>
<g>
</g>
</svg>
