<?xml version="1.0" encoding="iso-8859-1"?>
<!-- Generator: Adobe Illustrator 19.0.0, SVG Export Plug-In . SVG Version: 6.00 Build 0)  -->
<svg version="1.1" id="Capa_1" xmlns="http://www.w3.org/2000/svg" xmlns:xlink="http://www.w3.org/1999/xlink" x="0px" y="0px"
	 viewBox="0 0 184.32 184.32" style="enable-background:new 0 0 184.32 184.32;" xml:space="preserve">
<path style="fill:#FBAD4A;" d="M51.201,107.264V81.92h-20.48v25.344c-15.753,4.461-27.307,18.915-27.307,36.096
	c0,20.736,16.811,37.547,37.547,37.547s37.547-16.811,37.547-37.547C78.508,126.179,66.954,111.725,51.201,107.264z"/>
<path d="M40.961,184.32c-22.584,0-40.96-18.374-40.96-40.96c0-17.345,11.105-32.855,27.307-38.591V81.92
	c0-1.884,1.529-3.413,3.413-3.413h20.48c1.884,0,3.413,1.529,3.413,3.413v22.849c16.201,5.734,27.307,21.246,27.307,38.591
	C81.921,165.946,63.546,184.32,40.961,184.32z M34.135,85.333v21.931c0,1.527-1.014,2.867-2.483,3.284
	c-14.614,4.14-24.823,17.633-24.823,32.812c0,18.821,15.312,34.133,34.133,34.133s34.133-15.312,34.133-34.133
	c0-15.179-10.208-28.672-24.823-32.812c-1.469-0.416-2.483-1.758-2.483-3.284V85.333H34.135z"/>
<rect x="23.893" y="71.68" style="fill:#FBAD4A;" width="34.133" height="10.24"/>
<path d="M58.028,85.333H23.895c-1.884,0-3.413-1.529-3.413-3.413V71.68c0-1.884,1.529-3.413,3.413-3.413h34.133
	c1.884,0,3.413,1.529,3.413,3.413v10.24C61.441,83.804,59.912,85.333,58.028,85.333z M27.308,78.507h27.307v-3.413H27.308
	L27.308,78.507L27.308,78.507z"/>
<circle style="fill:#FBAD4A;" cx="17.066" cy="44.373" r="6.827"/>
<path d="M17.068,54.613c-5.647,0-10.24-4.593-10.24-10.24s4.593-10.24,10.24-10.24s10.24,4.593,10.24,10.24
	S22.714,54.613,17.068,54.613z M17.068,40.96c-1.882,0-3.413,1.531-3.413,3.413c0,1.882,1.531,3.413,3.413,3.413
	c1.882,0,3.413-1.531,3.413-3.413C20.481,42.491,18.949,40.96,17.068,40.96z"/>
<circle style="fill:#FBAD4A;" cx="30.72" cy="11.947" r="8.533"/>
<path d="M30.721,23.893c-6.586,0-11.947-5.359-11.947-11.947S24.135,0,30.721,0s11.947,5.359,11.947,11.947
	S37.307,23.893,30.721,23.893z M30.721,6.827c-2.823,0-5.12,2.297-5.12,5.12s2.297,5.12,5.12,5.12s5.12-2.297,5.12-5.12
	S33.544,6.827,30.721,6.827z"/>
<circle style="fill:#FBAD4A;" cx="51.2" cy="37.547" r="6.827"/>
<path d="M51.201,47.787c-5.647,0-10.24-4.593-10.24-10.24s4.593-10.24,10.24-10.24s10.24,4.593,10.24,10.24
	S56.847,47.787,51.201,47.787z M51.201,34.133c-1.882,0-3.413,1.531-3.413,3.413c0,1.882,1.531,3.413,3.413,3.413
	s3.413-1.531,3.413-3.413C54.615,35.664,53.082,34.133,51.201,34.133z"/>
<path d="M139.948,98.987c-12.553,0-22.019-20.545-22.019-47.787s9.467-47.787,22.019-47.787c12.554,0,22.021,20.545,22.021,47.787
	S152.502,98.987,139.948,98.987z M139.948,10.24c-7.171,0-15.193,17.517-15.193,40.96s8.021,40.96,15.193,40.96
	c7.173,0,15.194-17.517,15.194-40.96S147.121,10.24,139.948,10.24z"/>
<path d="M169.608,83.755c-11.752,0-28.327-6.731-42.25-15.749c-17.427-11.288-29.815-25.158-31.561-35.335
	c-0.609-3.555,0.056-6.721,1.929-9.151c8.219-10.675,34.372-2.364,54.81,10.873c17.428,11.288,29.817,25.156,31.563,35.335
	c0.609,3.555-0.056,6.721-1.929,9.151C179.551,82.28,175.107,83.755,169.608,83.755z M110.298,25.467
	c-3.567,0-6.059,0.785-7.161,2.219c-0.696,0.906-0.896,2.159-0.609,3.833c1.142,6.649,10.561,19.11,28.544,30.758
	c22.849,14.799,42.01,17.217,45.691,12.438c0.696-0.905,0.896-2.159,0.609-3.831c-1.142-6.649-10.561-19.11-28.546-30.758l0,0
	C132.824,29.761,118.63,25.467,110.298,25.467z"/>
<path d="M110.286,83.755c-5.499,0-9.94-1.473-12.559-4.876c-1.872-2.43-2.538-5.594-1.929-9.149
	c1.746-10.177,14.135-24.047,31.561-35.335c20.439-13.237,46.595-21.545,54.811-10.873c1.872,2.43,2.538,5.594,1.929,9.151
	c-1.746,10.177-14.135,24.047-31.563,35.335C138.613,77.024,122.036,83.755,110.286,83.755z M169.6,25.467
	c-8.335,0-22.526,4.292-38.53,14.657c-17.983,11.648-27.402,24.11-28.544,30.758c-0.287,1.673-0.087,2.927,0.609,3.831
	c3.678,4.782,22.84,2.362,45.689-12.438c17.985-11.648,27.404-24.11,28.546-30.758c0.287-1.673,0.087-2.927-0.609-3.831
	C175.658,26.254,173.165,25.467,169.6,25.467z"/>
<path style="fill:#85D839;" d="M17.068,143.36c0,13.196,10.697,23.893,23.893,23.893s23.893-10.697,23.893-23.893H17.068z"/>
<path d="M40.961,170.667c-15.056,0-27.307-12.25-27.307-27.307c0-1.884,1.529-3.413,3.413-3.413h47.787
	c1.884,0,3.413,1.529,3.413,3.413C68.268,158.416,56.017,170.667,40.961,170.667z M20.766,146.773
	c1.63,9.673,10.064,17.067,20.195,17.067s18.565-7.393,20.195-17.067H20.766z"/>
<g>
</g>
<g>
</g>
<g>
</g>
<g>
</g>
<g>
</g>
<g>
</g>
<g>
</g>
<g>
</g>
<g>
</g>
<g>
</g>
<g>
</g>
<g>
</g>
<g>
</g>
<g>
</g>
<g>
</g>
</svg>
