<?xml version="1.0" encoding="iso-8859-1"?>
<!-- Generator: Adobe Illustrator 19.0.0, SVG Export Plug-In . SVG Version: 6.00 Build 0)  -->
<svg version="1.1" id="Capa_1" xmlns="http://www.w3.org/2000/svg" xmlns:xlink="http://www.w3.org/1999/xlink" x="0px" y="0px"
	 viewBox="0 0 215.04 215.04" style="enable-background:new 0 0 215.04 215.04;" xml:space="preserve">
<path style="fill:#DDDDDD;" d="M168.96,211.627H46.08c-13.196,0-23.893-10.697-23.893-23.893l0,0
	c0-13.196,10.697-23.893,23.893-23.893h122.88c13.196,0,23.893,10.697,23.893,23.893l0,0
	C192.853,200.929,182.156,211.627,168.96,211.627z"/>
<path d="M168.96,215.04H46.08c-15.056,0-27.307-12.25-27.307-27.307s12.25-27.307,27.307-27.307h122.88
	c15.056,0,27.307,12.25,27.307,27.307S184.016,215.04,168.96,215.04z M46.08,167.253c-11.293,0-20.48,9.187-20.48,20.48
	s9.187,20.48,20.48,20.48h122.88c11.293,0,20.48-9.187,20.48-20.48s-9.187-20.48-20.48-20.48H46.08z"/>
<path style="fill:#DDDDDD;" d="M139.947,68.267H75.093c-10.368,0-18.773-8.405-18.773-18.773l0,0
	c0-10.368,8.405-18.773,18.773-18.773h64.853c10.368,0,18.773,8.405,18.773,18.773l0,0C158.72,59.861,150.316,68.267,139.947,68.267
	z"/>
<path d="M139.947,71.68H75.093c-12.233,0-22.187-9.953-22.187-22.187s9.953-22.187,22.187-22.187h64.853
	c12.233,0,22.187,9.953,22.187,22.187S152.18,71.68,139.947,71.68z M75.093,34.133c-8.47,0-15.36,6.89-15.36,15.36
	s6.89,15.36,15.36,15.36h64.853c8.47,0,15.36-6.89,15.36-15.36s-6.89-15.36-15.36-15.36H75.093z"/>
<circle style="fill:#777777;" cx="107.52" cy="187.733" r="13.653"/>
<path d="M107.52,204.8c-9.411,0-17.067-7.656-17.067-17.067s7.656-17.067,17.067-17.067s17.067,7.656,17.067,17.067
	S116.931,204.8,107.52,204.8z M107.52,177.493c-5.647,0-10.24,4.593-10.24,10.24s4.593,10.24,10.24,10.24s10.24-4.593,10.24-10.24
	S113.167,177.493,107.52,177.493z"/>
<circle style="fill:#777777;" cx="49.493" cy="187.733" r="13.653"/>
<path d="M49.493,204.8c-9.411,0-17.067-7.656-17.067-17.067s7.656-17.067,17.067-17.067s17.067,7.656,17.067,17.067
	S58.904,204.8,49.493,204.8z M49.493,177.493c-5.647,0-10.24,4.593-10.24,10.24s4.593,10.24,10.24,10.24s10.24-4.593,10.24-10.24
	S55.141,177.493,49.493,177.493z"/>
<circle style="fill:#777777;" cx="165.547" cy="187.733" r="13.653"/>
<path d="M165.547,204.8c-9.411,0-17.067-7.656-17.067-17.067s7.656-17.067,17.067-17.067c9.411,0,17.067,7.656,17.067,17.067
	S174.957,204.8,165.547,204.8z M165.547,177.493c-5.647,0-10.24,4.593-10.24,10.24s4.593,10.24,10.24,10.24s10.24-4.593,10.24-10.24
	S171.194,177.493,165.547,177.493z"/>
<path style="fill:#777777;" d="M138.24,163.84H76.8v-62.479c0-10.737,8.704-19.441,19.441-19.441h22.56
	c10.737,0,19.441,8.704,19.441,19.441v62.479H138.24z"/>
<path d="M138.24,167.253H76.8c-1.884,0-3.413-1.529-3.413-3.413v-62.479c0-12.602,10.252-22.854,22.854-22.854h22.56
	c12.602,0,22.854,10.252,22.854,22.854v62.479C141.653,165.724,140.124,167.253,138.24,167.253z M80.213,160.427h54.613v-59.066
	c0-8.837-7.19-16.027-16.027-16.027h-22.56c-8.837,0-16.027,7.19-16.027,16.027v59.066H80.213z"/>
<path d="M107.52,85.333c-1.884,0-3.413-1.529-3.413-3.413V68.267c0-1.884,1.529-3.413,3.413-3.413c1.884,0,3.413,1.529,3.413,3.413
	V81.92C110.933,83.804,109.404,85.333,107.52,85.333z"/>
<path style="fill:#DDDDDD;" d="M93.867,47.787c0-3.77-3.057-6.827-6.827-6.827s-6.827,3.057-6.827,6.827"/>
<path d="M93.867,51.2c-1.884,0-3.413-1.529-3.413-3.413c0-1.882-1.531-3.413-3.413-3.413s-3.413,1.531-3.413,3.413
	c0,1.884-1.529,3.413-3.413,3.413c-1.884,0-3.413-1.529-3.413-3.413c0-5.647,4.593-10.24,10.24-10.24s10.24,4.593,10.24,10.24
	C97.28,49.671,95.751,51.2,93.867,51.2z"/>
<path style="fill:#DDDDDD;" d="M131.413,47.787c0-3.77-3.057-6.827-6.827-6.827c-3.77,0-6.827,3.057-6.827,6.827"/>
<path d="M131.413,51.2c-1.884,0-3.413-1.529-3.413-3.413c0-1.882-1.531-3.413-3.413-3.413s-3.413,1.531-3.413,3.413
	c0,1.884-1.529,3.413-3.413,3.413c-1.884,0-3.413-1.529-3.413-3.413c0-5.647,4.593-10.24,10.24-10.24s10.24,4.593,10.24,10.24
	C134.827,49.671,133.298,51.2,131.413,51.2z"/>
<path d="M87.04,34.133c-1.884,0-3.413-1.529-3.413-3.413V3.413C83.627,1.529,85.156,0,87.04,0c1.884,0,3.413,1.529,3.413,3.413
	V30.72C90.453,32.604,88.924,34.133,87.04,34.133z"/>
<circle style="fill:#85D839;" cx="107.52" cy="105.813" r="10.24"/>
<path d="M107.52,119.467c-7.528,0-13.653-6.125-13.653-13.653S99.992,92.16,107.52,92.16s13.653,6.125,13.653,13.653
	S115.048,119.467,107.52,119.467z M107.52,98.987c-3.765,0-6.827,3.062-6.827,6.827c0,3.765,3.062,6.827,6.827,6.827
	c3.765,0,6.827-3.062,6.827-6.827C114.347,102.048,111.285,98.987,107.52,98.987z"/>
<path d="M46.082,129.707c-0.942,0-1.879-0.387-2.553-1.145c-1.251-1.41-1.125-3.567,0.283-4.82l30.72-27.307
	c1.411-1.249,3.567-1.125,4.82,0.283c1.251,1.41,1.125,3.567-0.283,4.82l-30.72,27.307
	C47.696,129.422,46.889,129.707,46.082,129.707z"/>
<path d="M168.958,129.707c-0.807,0-1.615-0.283-2.266-0.862l-30.72-27.307c-1.408-1.253-1.534-3.41-0.283-4.82
	c1.253-1.408,3.408-1.536,4.82-0.283l30.72,27.307c1.408,1.253,1.534,3.41,0.283,4.82
	C170.837,129.319,169.9,129.707,168.958,129.707z"/>
<polygon style="fill:#777777;" points="49.493,143.36 29.013,143.36 32.427,129.707 49.493,129.707 "/>
<path d="M49.493,146.773h-20.48c-1.051,0-2.043-0.485-2.69-1.314c-0.647-0.829-0.877-1.908-0.621-2.929l3.413-13.653
	c0.381-1.519,1.744-2.586,3.311-2.586h17.067c1.884,0,3.413,1.529,3.413,3.413v13.653C52.907,145.244,51.377,146.773,49.493,146.773
	z M33.386,139.947H46.08v-6.827H35.092L33.386,139.947z"/>
<polygon style="fill:#777777;" points="162.133,143.36 182.613,143.36 179.2,129.707 162.133,129.707 "/>
<path d="M182.613,146.773h-20.48c-1.884,0-3.413-1.529-3.413-3.413v-13.653c0-1.884,1.529-3.413,3.413-3.413H179.2
	c1.567,0,2.932,1.067,3.311,2.586l3.413,13.653c0.254,1.021,0.026,2.099-0.621,2.929
	C184.656,146.29,183.665,146.773,182.613,146.773z M165.547,139.947h12.694l-1.707-6.827h-10.988V139.947z"/>
<g>
</g>
<g>
</g>
<g>
</g>
<g>
</g>
<g>
</g>
<g>
</g>
<g>
</g>
<g>
</g>
<g>
</g>
<g>
</g>
<g>
</g>
<g>
</g>
<g>
</g>
<g>
</g>
<g>
</g>
</svg>
